<svg width="45" height="29" viewBox="0 0 45 29" fill="none" xmlns="http://www.w3.org/2000/svg">
    <path d="M13.7335 8.49088C13.455 8.69798 13.0765 8.79795 12.6051 8.79795C11.791 8.79795 11.0482 8.4766 10.3769 7.82676L9.10569 9.86912C10.0413 10.8189 11.2768 11.2902 12.798 11.2902C14.0692 11.2902 15.0547 10.926 15.7546 10.1976C16.4545 9.46922 16.8045 8.60514 16.8045 7.5911C16.8045 6.82701 16.5688 6.15574 16.0903 5.57731C15.6118 4.99888 14.9833 4.62755 14.1835 4.45616L16.376 1.92821V0.292897H9.56276V2.56377H12.1481C12.6051 2.56377 12.9479 2.5352 13.1765 2.48522V2.51378L13.0551 2.63518C12.9765 2.70659 12.8551 2.82799 12.698 2.99938C12.5409 3.17076 12.3909 3.34929 12.2338 3.52782L10.8126 5.24168L11.3696 6.52708H12.1266C13.4693 6.52708 14.1406 6.92698 14.1406 7.71965C14.1406 8.01957 14.0049 8.27665 13.7264 8.48374L13.7335 8.49088Z" fill="white"/>
    <path d="M25.2603 5.05601C24.6104 4.31334 23.7534 3.942 22.6893 3.942C22.4393 3.942 22.1608 3.98485 21.8537 4.0634C21.5466 4.14195 21.3323 4.22765 21.2038 4.32048H21.1752C21.568 3.12792 22.3465 2.5352 23.5034 2.5352C23.7391 2.5352 24.0105 2.57091 24.3247 2.64232C24.639 2.71373 24.8603 2.78514 24.9889 2.85655L25.7031 0.585682C25.046 0.271473 24.2462 0.114369 23.3106 0.114369C22.5036 0.114369 21.7608 0.285756 21.0895 0.63567C20.4182 0.985584 19.8754 1.44261 19.4541 2.02104C19.0327 2.59947 18.7113 3.23503 18.4828 3.942C18.2543 4.64897 18.14 5.37736 18.14 6.12004C18.14 7.77677 18.5756 9.05503 19.4398 9.94767C20.3111 10.8474 21.3395 11.2973 22.5321 11.2973C23.6534 11.2973 24.5461 10.9331 25.2174 10.2047C25.8888 9.47636 26.2244 8.62656 26.2244 7.64823C26.2244 6.6699 25.903 5.79155 25.2531 5.04887L25.2603 5.05601ZM23.3249 8.52659C23.1249 8.76225 22.8607 8.88364 22.5393 8.88364C22.1322 8.88364 21.7537 8.67655 21.4038 8.26237C21.0467 7.84818 20.8753 7.34117 20.8753 6.73417C20.8753 6.29857 21.2466 6.08433 21.9965 6.08433C22.5393 6.08433 22.9535 6.24144 23.2249 6.55564C23.4963 6.86985 23.632 7.24119 23.632 7.6768C23.632 8.01243 23.532 8.29807 23.332 8.53373L23.3249 8.52659Z" fill="white"/>
    <path d="M28.3955 9.65472C28.6955 10.1832 29.1168 10.5831 29.6596 10.8758C30.2024 11.1615 30.8451 11.3043 31.5878 11.3043C32.3306 11.3043 32.9805 11.1615 33.5161 10.8758C34.0589 10.5902 34.4802 10.1832 34.7802 9.65472C35.0802 9.13342 35.3015 8.5407 35.4444 7.88372C35.5872 7.22674 35.6586 6.49835 35.6586 5.6914C35.6586 4.88446 35.5872 4.15607 35.4444 3.50623C35.3015 2.85639 35.0802 2.27082 34.7802 1.74951C34.4802 1.22821 34.0589 0.828312 33.5161 0.542668C32.9733 0.257024 32.3306 0.121343 31.5878 0.121343C30.8451 0.121343 30.1952 0.264165 29.6596 0.542668C29.1168 0.828312 28.6955 1.22821 28.3955 1.74951C28.0955 2.27082 27.867 2.85639 27.7313 3.50623C27.5885 4.15607 27.5171 4.88446 27.5171 5.6914C27.5171 6.49835 27.5885 7.23388 27.7313 7.88372C27.8742 8.5407 28.0955 9.13342 28.3955 9.65472ZM31.5878 2.54218C32.4877 2.54218 32.9376 3.59192 32.9376 5.6914C32.9376 7.79089 32.4877 8.88348 31.5878 8.88348C30.688 8.88348 30.2381 7.81945 30.2381 5.6914C30.2381 3.56335 30.688 2.54218 31.5878 2.54218Z" fill="white"/>
    <path d="M39.2366 4.75597C39.965 4.75597 40.5792 4.5346 41.072 4.09899C41.5648 3.66339 41.8147 3.0921 41.8147 2.39227C41.8147 1.69244 41.5648 1.11401 41.072 0.664123C40.5721 0.221374 39.9579 0 39.2294 0C38.501 0 37.8939 0.221374 37.4012 0.671264C36.9084 1.12115 36.6584 1.69244 36.6584 2.39227C36.6584 3.0921 36.9084 3.66339 37.4012 4.09899C37.8939 4.5346 38.5081 4.75597 39.2366 4.75597ZM38.501 1.57818C38.7009 1.37109 38.9438 1.27112 39.2366 1.27112C39.5294 1.27112 39.7722 1.37109 39.9722 1.57818C40.1721 1.78528 40.2721 2.05664 40.2721 2.39227C40.2721 2.7279 40.1721 2.98498 39.9722 3.18493C39.7722 3.38488 39.5294 3.48486 39.2366 3.48486C38.9438 3.48486 38.7009 3.38488 38.501 3.18493C38.301 2.98498 38.201 2.72076 38.201 2.39227C38.201 2.06378 38.301 1.78528 38.501 1.57818Z" fill="white"/>
    <path d="M39.5223 6.90543C38.8296 6.52695 37.9654 6.78403 37.5869 7.47672C37.2084 8.1694 37.4655 9.03348 38.1582 9.41195C40.7364 10.8116 42.1505 12.4683 42.1505 14.068C42.1505 17.5028 35.8443 20.7949 27.4742 21.7232C26.6886 21.8089 26.1244 22.5159 26.2101 23.3014C26.2887 24.0298 26.91 24.5725 27.6242 24.5725C27.6742 24.5725 27.7313 24.5725 27.7813 24.5654C38.0797 23.4228 45 19.2024 45 14.068C45 11.3329 43.1003 8.85495 39.5152 6.90543H39.5223Z" fill="white"/>
    <path d="M23.8248 23.9727C23.8462 23.9227 23.8605 23.8655 23.8748 23.8084C23.8819 23.7727 23.8962 23.7442 23.9033 23.7084C23.9248 23.6156 23.9319 23.5228 23.9319 23.4228C23.9319 23.3228 23.9248 23.23 23.9033 23.1372C23.9033 23.1229 23.8962 23.1157 23.8962 23.1014C23.8748 23.0229 23.8533 22.9443 23.8248 22.8658C23.8176 22.8444 23.8034 22.8229 23.7962 22.8087C23.7248 22.6658 23.6391 22.5302 23.5248 22.4088L19.3826 18.2669C18.8256 17.7099 17.9186 17.7099 17.3615 18.2669C16.8045 18.8239 16.8045 19.7308 17.3615 20.2879L18.9256 21.8518C9.30566 21.1019 2.86383 17.41 2.86383 14.068C2.86383 12.4683 4.28503 10.8116 6.85605 9.41195C7.5488 9.03348 7.8059 8.1694 7.42739 7.47672C7.04888 6.78403 6.18473 6.52695 5.49198 6.90543C1.8997 8.85495 0 11.3329 0 14.068C0 19.5737 8.18441 23.9869 19.1684 24.7368L17.3472 26.5577C16.7902 27.1147 16.7902 28.0217 17.3472 28.5787C17.6258 28.8572 17.99 29 18.3542 29C18.7184 29 19.0827 28.8572 19.3612 28.5787L23.5034 24.4368C23.5677 24.3726 23.632 24.3012 23.6819 24.2226C23.7034 24.194 23.7177 24.1583 23.7319 24.1226C23.7605 24.0726 23.7891 24.0298 23.8105 23.9727H23.8248Z" fill="white"/>
</svg>
