<svg width="593" height="712" viewBox="0 0 593 712" fill="none" xmlns="http://www.w3.org/2000/svg">
    <path d="M359.012 405.114C359.012 405.114 315.144 403.922 307.183 372.91C299.223 341.898 337.897 282.193 337.897 282.193L371.506 321.294L358.991 405.114H359.012Z" fill="#CBD1CB"/>
    <path d="M483.761 366.973C483.761 366.973 483.804 408.521 483.847 422.42C483.889 438.362 467.244 468.608 456.048 471.375C444.874 474.164 447.96 375.21 447.96 375.21L483.74 366.973H483.761Z" fill="white" stroke="#2B4E27" stroke-width="1.06425" stroke-linecap="round" stroke-linejoin="round"/>
    <path d="M477.206 425.654C477.206 425.654 471.054 445.322 465.733 441.725C460.412 438.127 465.733 419.205 465.733 419.205C465.733 419.205 462.753 413.373 463.37 408.371" stroke="#2B4E27" stroke-width="1.06425" stroke-linecap="round" stroke-linejoin="round"/>
    <path d="M410.521 184.732C410.521 184.732 458.263 179.964 488.02 240.924C517.372 301.054 520.926 393.942 520.926 393.942L457.22 395.836L410.5 184.732H410.521Z" fill="#2B4E27"/>
    <path d="M512.03 373.042L519.587 372.744C519.544 372.212 519.501 371.637 519.438 371.084L452.326 373.723L452.688 375.362L463.692 374.937L466.012 395.583L467.673 395.54L465.353 374.873L475.995 374.447L477.783 395.221L479.443 395.179L477.655 374.383L487.957 373.979L489.681 394.881L491.341 394.838L489.617 373.936L499.132 373.553L500.941 394.561L502.601 394.519L500.792 373.51L510.37 373.127L511.69 394.242L513.35 394.2L512.03 373.063V373.042Z" fill="white"/>
    <path d="M474.445 609.689L480.936 658.687L447.86 668.393L441.219 615.458L474.445 609.689Z" fill="white" stroke="#2B4E27" stroke-width="1.06425" stroke-miterlimit="10"/>
    <path d="M468.21 610.775L474.744 660.901" stroke="#2B4E27" stroke-width="1.06425" stroke-miterlimit="10"/>
    <path d="M460.375 612.242L466.973 662.39" stroke="#2B4E27" stroke-width="1.06425" stroke-miterlimit="10"/>
    <path d="M454.013 613.457L460.973 663.626" stroke="#2B4E27" stroke-width="1.06425" stroke-miterlimit="10"/>
    <path d="M448.01 614.584L454.353 665.498" stroke="#2B4E27" stroke-width="1.06425" stroke-miterlimit="10"/>
    <path d="M533.552 710.748L444.325 709.961L436.003 657.004L488.853 656.578L494.877 679.31L533.552 710.748Z" fill="white"/>
    <path d="M469.208 693.914C470.166 698.809 470.251 706.28 468.952 710.176H464.227L444.347 709.984L439.281 677.673C450.477 675.673 466.313 679.036 469.25 693.935L469.208 693.914Z" fill="#E4C035"/>
    <path d="M533.552 710.748L444.325 709.961L436.003 657.004L488.853 656.578L494.877 679.31L533.552 710.748Z" stroke="#2B4E27" stroke-width="1.06425" stroke-linecap="round" stroke-linejoin="round"/>
    <path d="M517.566 689.38L499.367 677.907C499.367 677.907 518.247 663.093 512.223 659.389C503.198 653.834 499.367 677.907 499.367 677.907L520.439 677.141" stroke="#2B4E27" stroke-width="1.06425" stroke-linecap="round" stroke-linejoin="round"/>
    <path d="M461.075 328.045L380.512 330.876L389.877 447.39L431.872 617.967L493.322 616.711L461.075 328.045Z" fill="white"/>
    <path d="M389.877 447.39L431.872 617.967L493.322 616.711L461.075 328.045L380.512 330.876L389.877 447.39Z" stroke="#2B4E27" stroke-width="1.06425" stroke-linecap="round" stroke-linejoin="round"/>
    <path d="M433.298 601.365H485.638" stroke="#2B4E27" stroke-width="1.06425" stroke-linecap="round" stroke-linejoin="round"/>
    <path d="M374.596 611.667L371.914 661.006L337.603 664.433L340.88 611.178L374.596 611.667Z" fill="white" stroke="#2B4E27" stroke-width="1.06425" stroke-miterlimit="10"/>
    <path d="M368.273 611.561L365.421 662.027" stroke="#2B4E27" stroke-width="1.06425" stroke-miterlimit="10"/>
    <path d="M360.291 611.561L357.524 662.048" stroke="#2B4E27" stroke-width="1.06425" stroke-miterlimit="10"/>
    <path d="M353.821 611.561L351.373 662.155" stroke="#2B4E27" stroke-width="1.06425" stroke-miterlimit="10"/>
    <path d="M347.712 611.561L344.541 662.772" stroke="#2B4E27" stroke-width="1.06425" stroke-miterlimit="10"/>
    <path d="M415.228 710.706L326.789 709.918L330.599 656.94L380.172 656.557L380.001 679.481L415.228 710.706Z" fill="white"/>
    <path d="M326.79 709.918C326.79 709.918 326.79 702.554 328.961 679.63L329.067 678.055C340.795 676.65 351.906 684.398 354.439 696.168C355.482 701.043 354.886 705.874 353.055 710.152H351.374C335.41 710.152 326.769 709.918 326.769 709.918H326.79Z" fill="#E4C035"/>
    <path d="M415.228 710.706L326.789 709.918L330.599 656.94L380.172 656.557L380.001 679.481L415.228 710.706Z" stroke="#2B4E27" stroke-width="1.06425" stroke-linecap="round" stroke-linejoin="round"/>
    <path d="M382.557 677.907C382.557 677.907 386.367 653.834 395.413 659.389C401.458 663.093 382.557 677.907 382.557 677.907ZM382.557 677.907L400.755 689.38" stroke="#2B4E27" stroke-width="1.06425" stroke-linecap="round" stroke-linejoin="round"/>
    <path d="M347.711 335.048L330.769 616.711L398.476 617.137L420.357 366.06L430.105 365.123V328.045L347.711 335.048Z" fill="white"/>
    <path d="M347.711 335.045L330.769 616.709L398.476 617.134L420.357 366.057L430.105 365.121" stroke="#2B4E27" stroke-width="1.06425" stroke-linecap="round" stroke-linejoin="round"/>
    <path d="M349.393 365.119C349.393 365.119 367.655 358.415 368.336 338.066" stroke="#2B4E27" stroke-width="1.06425" stroke-linecap="round" stroke-linejoin="round"/>
    <path d="M337.601 601.359H395.389" stroke="#2B4E27" stroke-width="1.06425" stroke-linecap="round" stroke-linejoin="round"/>
    <path d="M470.078 345.989L462.054 247.354C462.054 215.406 436.15 189.48 404.18 189.48C372.231 189.48 346.306 215.384 346.306 247.354L337.175 345.989H470.057H470.078Z" fill="#2B4E27"/>
    <path d="M382.3 191.887L417.867 260.318L452.136 198.187" stroke="white" stroke-width="1.06425" stroke-linecap="round" stroke-linejoin="round"/>
    <path d="M418.08 238.244L417.378 346.159" stroke="white" stroke-width="1.06425" stroke-linecap="round" stroke-linejoin="round"/>
    <path d="M413.334 275.133C413.334 277.325 411.546 279.113 409.353 279.113C407.161 279.113 405.373 277.325 405.373 275.133C405.373 272.94 407.161 271.152 409.353 271.152C411.546 271.152 413.334 272.94 413.334 275.133Z" fill="white"/>
    <path d="M413.334 316.086C413.334 318.278 411.546 320.066 409.353 320.066C407.161 320.066 405.373 318.278 405.373 316.086C405.373 313.893 407.161 312.105 409.353 312.105C411.546 312.105 413.334 313.893 413.334 316.086Z" fill="white"/>
    <path d="M340.154 314.082L337.217 345.988H470.077L462.053 247.354" stroke="white" stroke-width="1.06425" stroke-linecap="round" stroke-linejoin="round"/>
    <path d="M287.475 233.391C279.919 220.215 256.931 184.563 251.695 186.308C249.864 186.926 249.29 188.948 249.311 191.31L249.141 191.183C247.523 189.118 241.84 183.754 237.264 181.604C232.56 179.391 230.729 183.286 230.729 183.286L232.006 183.839L231.942 183.924C230.431 183.009 229.154 182.626 228.26 183.009C225.472 184.201 226.749 186.989 226.749 186.989L226.919 187.075C225.387 186.585 224.173 186.798 223.364 187.777C221.598 189.905 224.003 192.098 224.003 192.098L224.258 192.204C223.726 192.013 223.258 191.906 222.832 191.97C220.278 192.353 218.682 195.163 224.429 202.591C230.154 210.041 269.042 256.421 269.042 256.421C269.042 256.421 293.583 244.076 287.475 233.412V233.391ZM225.344 192.694C225.11 192.566 224.897 192.438 224.663 192.332L225.365 192.609V192.672L225.344 192.694Z" fill="white"/>
    <path d="M253.27 213.958C253.27 213.958 249.694 205.657 251.397 201.443C251.397 201.443 246.437 188.054 251.673 186.309C256.909 184.564 278.535 218.513 286.432 231.497C294.328 244.481 269.042 256.4 269.042 256.4C269.042 256.4 230.154 210.02 224.429 202.571C218.703 195.121 220.278 192.333 222.832 191.95C226.557 191.396 235.859 202.613 235.859 202.613" stroke="#2B4E27" stroke-width="1.06425" stroke-linecap="round" stroke-linejoin="round"/>
    <path d="M223.981 192.076C223.981 192.076 221.555 189.883 223.343 187.755C225.109 185.626 228.6 186.925 233.687 191.863C238.753 196.801 240.669 198.823 240.669 198.823" stroke="#2B4E27" stroke-width="1.06425" stroke-linecap="round" stroke-linejoin="round"/>
    <path d="M226.728 186.967C226.728 186.967 225.472 184.178 228.239 182.986C231.006 181.794 237.285 187.861 243.99 195.076" stroke="#2B4E27" stroke-width="1.06425" stroke-linecap="round" stroke-linejoin="round"/>
    <path d="M230.708 183.286C230.708 183.286 232.539 179.391 237.243 181.604C241.946 183.818 247.821 189.416 249.268 191.374" stroke="#2B4E27" stroke-width="1.06425" stroke-linecap="round" stroke-linejoin="round"/>
    <path d="M335.154 225.879C330.195 233.328 325.747 240.459 321.809 247.057L321.915 246.865L291.456 218.429L252.101 260.233C272.747 310.359 308.25 328.664 333.218 324.513C358.185 320.362 371.552 282.475 371.552 282.475L398.541 186.438C398.541 186.438 359.143 189.843 335.133 225.9L335.154 225.879Z" fill="#2B4E27"/>
    <path d="M260.507 277.602C260.784 278.113 261.082 278.581 261.38 279.092L306.079 232.095L304.865 230.967L298.161 238.012L285.73 224.496L284.581 225.709L297.011 239.225L288.348 248.335L276.173 234.67L275.024 235.884L287.199 249.549L279.855 257.254L268.255 243.057L267.106 244.27L278.685 258.467L269.256 268.386L258.72 253.188L257.549 254.423L268.085 269.62L260.486 277.623L260.507 277.602Z" fill="white"/>
    <path d="M371.552 282.454C371.552 282.454 358.185 320.341 333.218 324.492C308.25 328.642 272.747 310.358 252.101 260.211" stroke="white" stroke-width="1.06425" stroke-linecap="round" stroke-linejoin="round"/>
    <path d="M321.916 246.867C318.659 252.337 315.488 257.914 312.934 262.575" stroke="white" stroke-width="1.06425" stroke-linecap="round" stroke-linejoin="round"/>
    <path d="M382.301 191.887L397.051 220.238" stroke="white" stroke-width="1.06425" stroke-linecap="round" stroke-linejoin="round"/>
    <path d="M386.3 268.065C388.024 237.053 380.49 205.53 376.786 192.248C374.764 192.546 372.593 193.014 370.613 193.972C369.017 194.738 367.399 195.824 366.144 197.335C372.87 219.727 379.723 276.856 362.121 304.739C342.411 335.985 328.682 332.558 328.682 332.558C328.682 332.558 310.143 362.485 334.472 350.927C358.779 339.37 384.023 308.762 386.3 268.044V268.065Z" fill="#CBD1CB"/>
    <path d="M410.522 184.733L398.56 186.414C396.431 186.904 394.047 187.542 391.493 188.373L418.099 239.584L443.705 193.162C425.358 183.647 410.522 184.733 410.522 184.733Z" fill="white" stroke="#2B4E27" stroke-width="1.06425" stroke-linecap="round" stroke-linejoin="round"/>
    <path d="M432.382 137.139C430.125 137.139 428.039 137.863 426.337 139.076V132.861C426.337 122.985 419.249 114.918 410.586 114.918H397.559C388.896 114.918 381.809 122.985 381.809 132.861V153.061C381.809 162.937 388.896 171.004 397.559 171.004H405.094V181.88C405.094 186.35 408.755 189.99 413.204 189.99H418.376C422.846 189.99 426.486 186.329 426.486 181.88V156.594C426.486 156.339 426.464 156.104 426.443 155.87C428.125 157.041 430.168 157.722 432.382 157.722C438.107 157.722 442.769 153.103 442.769 147.42C442.769 141.737 438.129 137.118 432.382 137.118V137.139Z" fill="white" stroke="#2B4E27" stroke-width="1.06425" stroke-linecap="round" stroke-linejoin="round"/>
    <path d="M426.761 148.804C426.761 148.804 426.314 141.802 433.487 142.589" stroke="#2B4E27" stroke-width="1.06425" stroke-linecap="round" stroke-linejoin="round"/>
    <path d="M401.987 141.974C401.987 138.952 403.307 136.504 404.925 136.504C406.542 136.504 407.862 138.952 407.862 141.974" stroke="#2B4E27" stroke-width="1.06425" stroke-linecap="round" stroke-linejoin="round"/>
    <path d="M383.618 141.187C383.618 138.611 384.746 136.525 386.13 136.525C387.513 136.525 388.641 138.611 388.641 141.187" stroke="#2B4E27" stroke-width="1.06425" stroke-linecap="round" stroke-linejoin="round"/>
    <path d="M395.771 147.442L390.557 144.25L395.112 136.523" stroke="#2B4E27" stroke-width="1.06425" stroke-linecap="round" stroke-linejoin="round"/>
    <path d="M409.713 135.374L404.668 133.373" stroke="#2B4E27" stroke-width="1.59637" stroke-linecap="round" stroke-linejoin="round"/>
    <path d="M388.173 134.205L383.342 134.908" stroke="#2B4E27" stroke-width="1.59637" stroke-linecap="round" stroke-linejoin="round"/>
    <path d="M436.725 101.533C439.605 101.533 441.939 99.1984 441.939 96.3184C441.939 93.4383 439.605 91.1035 436.725 91.1035C433.845 91.1035 431.51 93.4383 431.51 96.3184C431.51 99.1984 433.845 101.533 436.725 101.533Z" fill="#E4C035"/>
    <path d="M492.449 83.2923C489.555 85.6762 488.022 88.3368 484.808 95.9356C481.594 103.513 464.736 110.622 450.263 97.2977C435.789 83.9733 443.558 59.4744 456.669 50.109C469.781 40.7436 477.358 43.2978 491.066 46.8099C504.773 50.3006 506.561 42.7232 507.242 29.9522C508.221 11.3705 531.209 -4.78489 555.772 3.0054C580.335 10.7957 602.003 36.4015 587.125 66.5835C572.247 96.7656 533.189 103.939 519.056 89.5501C504.922 75.1614 495.004 81.2064 492.428 83.3136L492.449 83.2923Z" stroke="#2B4E27" stroke-width="1.06425" stroke-miterlimit="10"/>
    <path d="M432.381 108.6C421.803 97.9358 406.456 97.0845 392.195 105.641C377.913 114.219 378.232 128.246 379.084 130.246C379.595 131.438 380.297 132.332 381.787 132.63C383.107 132.801 385.32 132.566 389.279 131.715C400.667 129.289 407.861 119.434 407.861 119.434C407.861 119.434 406.903 121.222 410.777 129.459C413.693 135.653 421.079 139.463 424.846 141.038C426.209 139.952 426.57 139.676 427.209 139.207C427.209 139.207 429.614 137.143 432.254 137.143C434.723 137.143 437.107 138.058 438.916 139.463C441.81 133.865 442.108 118.412 432.36 108.6H432.381Z" fill="white" stroke="#2B4E27" stroke-width="1.06425" stroke-linecap="round" stroke-linejoin="round"/>
    <path d="M390.195 154.725C390.195 157.215 392.217 159.237 394.708 159.237C397.198 159.237 399.22 157.215 399.22 154.725" stroke="#2B4E27" stroke-width="1.06425" stroke-linecap="round" stroke-linejoin="round"/>
    <path d="M397.369 185.471L397.412 181.598C397.454 177.809 400.575 174.757 404.363 174.8L426.818 175.05C430.606 175.093 433.658 178.213 433.615 182.002L433.572 185.876C433.53 189.664 430.409 192.716 426.621 192.673L404.167 192.422C400.378 192.38 397.326 189.26 397.369 185.471Z" fill="white"/>
    <path d="M397.369 185.471L397.412 181.598C397.454 177.809 400.575 174.757 404.363 174.8L426.818 175.05C430.606 175.093 433.658 178.213 433.615 182.002L433.572 185.876C433.53 189.664 430.409 192.716 426.621 192.673L404.167 192.422C400.378 192.38 397.326 189.26 397.369 185.471Z" stroke="#2B4E27" stroke-width="1.06425" stroke-linecap="round" stroke-linejoin="round"/>
    <path d="M54.5756 440.47C54.5756 440.47 26.2241 444.983 16.9651 435.958C7.70615 426.933 8.42984 421.739 9.11096 410.309C9.79208 398.858 18.4763 361.865 25.7558 348.987C33.0352 336.11 52.511 327.021 62.6639 328.043C72.8168 329.086 79.3939 366.611 77.8826 375.636C76.3714 384.661 54.5969 440.47 54.5969 440.47H54.5756Z" fill="white" stroke="#2B4E27" stroke-width="1.06425" stroke-linecap="round" stroke-linejoin="round"/>
    <path d="M53.1287 375.613L39.1445 425.207" stroke="#2B4E27" stroke-width="1.06425" stroke-linecap="round" stroke-linejoin="round"/>
    <path d="M22.499 384.639C22.499 384.639 37.0792 393.77 48.2112 393.025" stroke="#2B4E27" stroke-width="1.06425" stroke-linecap="round" stroke-linejoin="round"/>
    <path d="M173.389 660.364L148.06 569.094H190.693L210.659 658.533L173.389 660.364Z" fill="white" stroke="#2B4E27" stroke-width="1.06425" stroke-linecap="round" stroke-linejoin="round"/>
    <path d="M157.851 651.682L220.024 653.129L223.621 667.56L270.214 709.747L162.065 709.002L157.851 651.682Z" fill="white"/>
    <path d="M252.996 679.564L244.695 696.848" stroke="#2B4E27" stroke-width="1.06425" stroke-linecap="round" stroke-linejoin="round"/>
    <path d="M241.416 672.859L233.115 690.121" stroke="#2B4E27" stroke-width="1.06425" stroke-linecap="round" stroke-linejoin="round"/>
    <path d="M157.851 651.682L220.024 653.129L223.621 667.56L270.214 709.747L162.065 709.002L157.851 651.682Z" stroke="#2B4E27" stroke-width="1.06425" stroke-linecap="round" stroke-linejoin="round"/>
    <path d="M258.721 703.914L168.749 702.254" stroke="#2B4E27" stroke-width="1.06425" stroke-linecap="round" stroke-linejoin="round"/>
    <path d="M193.758 662.045L198.653 671.368L209.104 672.624L201.761 680.158L203.783 690.482L194.354 685.82L185.159 690.95L186.67 680.542L178.965 673.369L189.331 671.602L193.758 662.045Z" fill="#2B4E27"/>
    <path d="M102.935 419.185C102.935 419.185 119.963 558.197 156.935 636.781L218.768 637.164L164.619 326.596L89.8877 356.267L102.935 419.185Z" fill="white"/>
    <path d="M165.939 544.044C160.511 520.715 155.552 497.302 151.018 473.782C146.506 450.39 142.462 426.913 138.843 403.35C135.629 382.363 132.777 361.312 130.287 340.24L128.243 341.049C130.35 358.737 132.713 376.403 135.31 394.027C138.822 417.717 142.759 441.322 147.165 464.864C151.571 488.405 156.424 511.84 161.724 535.189C167.024 558.539 172.771 581.782 178.944 604.919C181.817 615.646 184.819 626.331 187.884 636.995H190.076C187.82 629.141 185.585 621.244 183.435 613.347C177.156 590.36 171.324 567.265 165.939 544.044Z" fill="#CBD1CB"/>
    <path d="M146.995 546.617C141.397 525.289 136.289 503.834 131.691 482.272C127.072 460.604 122.986 438.829 119.41 416.97C115.834 395.11 112.769 373.144 110.257 351.135C110.151 350.199 110.045 349.241 109.938 348.305L107.916 349.113C110.172 368.994 112.812 388.81 115.919 408.584C119.346 430.464 123.305 452.26 127.775 473.95C132.245 495.639 137.225 517.222 142.738 538.677C148.23 560.132 154.253 581.46 160.767 602.639C164.3 614.111 168.025 625.498 171.856 636.886H174.091C171.09 628.01 168.152 619.113 165.343 610.173C158.723 589.144 152.614 567.965 147.016 546.638L146.995 546.617Z" fill="#CBD1CB"/>
    <path d="M196.547 595.552C191.992 572.904 187.565 550.236 183.308 527.546C179.051 504.835 174.943 482.124 171.005 459.349C167.067 436.596 163.279 413.799 159.639 391.003C156.51 371.4 153.53 351.796 150.635 332.15L148.613 332.959C151.082 349.668 153.594 366.377 156.233 383.064C159.83 405.881 163.577 428.678 167.493 451.431C171.409 474.185 175.454 496.939 179.689 519.65C183.904 542.361 188.288 565.029 192.801 587.676C196.1 604.172 199.506 620.625 202.975 637.079H205.146C202.23 623.265 199.335 609.408 196.547 595.552Z" fill="#CBD1CB"/>
    <path d="M102.935 419.185C102.935 419.185 119.963 558.197 156.935 636.781L218.768 637.164L164.619 326.596L89.8877 356.267L102.935 419.185Z" stroke="#2B4E27" stroke-width="1.06425" stroke-linecap="round" stroke-linejoin="round"/>
    <path d="M34.4414 658.531L48.8513 569.092L87.3132 573.37L73.8611 662.022L34.4414 658.531Z" fill="white" stroke="#2B4E27" stroke-width="1.06425" stroke-linecap="round" stroke-linejoin="round"/>
    <path d="M56.62 356.178C56.62 356.178 39.4431 556.959 24.7139 632.414L89.8884 637.161C89.8884 637.161 131.99 489.273 148.443 398.854C150.38 388.169 152.338 341.513 146.272 335.51C123.433 312.906 56.62 356.157 56.62 356.157V356.178Z" fill="white"/>
    <path d="M88.101 587.205C94.7845 562.216 101 537.121 106.747 511.92C112.536 486.591 117.857 461.155 122.71 435.634C127.542 410.241 131.905 384.742 135.801 359.179C137.205 349.899 138.546 340.597 139.845 331.296C139.185 331.019 138.525 330.763 137.844 330.529C136.95 337.042 136.013 343.577 135.034 350.09C131.246 375.675 126.989 401.174 122.263 426.61C117.559 451.917 112.408 477.119 106.768 502.235C101.127 527.479 95.0186 552.595 88.4416 577.605C83.3119 597.123 77.8843 616.556 72.2012 635.905L74.351 636.054C79.1188 619.834 83.7163 603.551 88.101 587.205Z" fill="#CBD1CB"/>
    <path d="M34.6973 633.16L36.8258 633.309C44.2755 592.846 49.3839 552.022 54.024 511.133C59.3239 464.264 64.8155 417.416 69.86 370.525C70.6901 362.735 71.4989 354.923 72.2865 347.133C71.5202 347.537 70.7752 347.942 70.0303 348.346C67.2419 376.144 64.0492 403.921 60.899 431.677C55.6842 477.652 51.0228 523.734 44.8502 569.603C41.9767 590.867 38.635 612.067 34.7185 633.16H34.6973Z" fill="#CBD1CB"/>
    <path d="M61.4091 612.682C65.9002 589.141 70.0295 565.515 73.8182 541.846C77.5644 518.305 80.97 494.721 84.035 471.095C87.1213 447.213 89.8458 423.268 92.2084 399.301C94.2943 378.08 96.0823 356.816 97.6148 335.531C96.8911 335.808 96.1674 336.085 95.4437 336.361C94.1666 354.283 92.6767 372.184 90.9739 390.084C88.7177 413.945 86.0996 437.784 83.1198 461.559C80.1399 485.377 76.7981 509.131 73.1158 532.843C69.4335 556.405 65.4107 579.925 61.026 603.381C59.0678 613.811 57.0244 624.219 54.9385 634.627L57.0457 634.776C58.5144 627.412 60.0043 620.068 61.4091 612.682Z" fill="#CBD1CB"/>
    <path d="M56.62 356.18C56.62 356.18 39.4431 556.961 24.7139 632.416L89.8884 637.162C89.8884 637.162 130.564 494.298 147.571 403.56L158.788 403.113" stroke="#2B4E27" stroke-width="1.06425" stroke-linecap="round" stroke-linejoin="round"/>
    <path d="M58.5781 408.562C58.5781 408.562 73.3924 401.155 81.4169 377.465" stroke="#2B4E27" stroke-width="1.06425" stroke-linecap="round" stroke-linejoin="round"/>
    <path d="M27.7377 650.527L87.1227 651.911L84.4195 667.321L126.968 708.295L18.8193 707.55L27.7377 650.527Z" fill="white"/>
    <path d="M109.746 678.113L101.445 695.375" stroke="#2B4E27" stroke-width="1.06425" stroke-linecap="round" stroke-linejoin="round"/>
    <path d="M98.1898 671.387L89.8887 688.67" stroke="#2B4E27" stroke-width="1.06425" stroke-linecap="round" stroke-linejoin="round"/>
    <path d="M27.7377 650.527L87.1227 651.911L84.4196 667.321L126.968 708.295L18.8193 707.55L27.7377 650.527Z" stroke="#2B4E27" stroke-width="1.06425" stroke-linecap="round" stroke-linejoin="round"/>
    <path d="M115.473 702.461L25.502 700.801" stroke="#2B4E27" stroke-width="1.06425" stroke-linecap="round" stroke-linejoin="round"/>
    <path d="M50.535 660.596L55.4093 669.919L65.8815 671.174L58.5169 678.709L60.5602 689.032L51.1097 684.371L41.9146 689.501L43.4471 679.071L35.7207 671.919L46.1078 670.153L50.535 660.596Z" fill="#2B4E27"/>
    <path d="M287.603 345.625C286.475 343.283 281.111 342.751 270.192 340.516C259.273 338.302 244.905 329.725 244.905 329.725L231.347 362.376C231.347 362.376 267.893 379.468 277.556 381.511C287.22 383.554 287.539 380.021 287.326 378.638C287.326 378.638 286.858 376.445 284.985 375.594C287.305 375.743 289.71 375.36 289.795 373.018C289.838 371.805 289.05 370.677 287.773 369.655L287.965 369.144C288.795 369.166 292.222 369.144 292.136 366.462C292.073 364.696 290.285 363.206 288.412 362.184V361.907C292.222 362.376 295.116 360.928 293.541 357.331C292.626 355.267 286.411 352.861 281.047 351.137C286.837 351.265 288.731 347.966 287.603 345.603V345.625Z" fill="white"/>
    <path d="M281.239 351.223C286.56 352.947 292.648 355.309 293.542 357.353C295.181 361.078 291.988 362.504 287.987 361.865" stroke="#2B4E27" stroke-width="1.06425" stroke-linecap="round" stroke-linejoin="round"/>
    <path d="M271.215 356.291C271.215 356.291 282.985 360.356 284.901 360.803C286.817 361.25 292.032 363.443 292.138 366.486C292.244 369.53 287.775 369.168 287.775 369.168C287.775 369.168 287.03 369.105 286.391 368.743" stroke="#2B4E27" stroke-width="1.06425" stroke-linecap="round" stroke-linejoin="round"/>
    <path d="M271.044 363.508C271.044 363.508 289.988 367.126 289.775 373.022C289.69 375.3 287.412 375.725 285.135 375.598" stroke="#2B4E27" stroke-width="1.06425" stroke-linecap="round" stroke-linejoin="round"/>
    <path d="M268.659 370.764C268.659 370.764 283.112 374.744 284.985 375.574C286.858 376.404 287.326 378.618 287.326 378.618C287.539 380.001 287.22 383.535 277.556 381.491C267.893 379.448 231.347 362.356 231.347 362.356L244.905 329.705C244.905 329.705 259.273 338.283 270.192 340.497C281.111 342.71 286.475 343.264 287.603 345.605C288.731 347.946 286.858 351.267 281.047 351.118C281.047 351.118 276.556 351.118 273.831 350.543C273.831 350.543 270.362 354.013 265.53 354.098" stroke="#2B4E27" stroke-width="1.06425" stroke-linecap="round" stroke-linejoin="round"/>
    <path d="M123.857 197.353C124.283 186.966 126.284 176.303 144.568 184.71C155.125 189.563 168.194 198.737 179.56 215.637C203.144 250.694 184.307 267.104 216.979 296.137C229.686 307.418 238.136 314.25 243.67 318.337C249.034 322.317 250.971 329.469 248.396 335.642L237.476 361.716C235.199 367.144 229.899 370.719 224.024 370.677C207.784 370.549 174.707 366.526 149.293 338.835C122.687 309.844 122.431 232.814 123.857 197.353Z" fill="white"/>
    <path d="M224.002 370.679C229.877 370.721 235.177 367.145 237.455 361.718L248.374 335.644C250.949 329.471 249.034 322.319 243.648 318.339C243.265 318.062 242.84 317.722 242.435 317.424L218.532 370.508C220.512 370.615 222.364 370.679 224.024 370.7L224.002 370.679Z" fill="#E4C035"/>
    <path d="M222.939 324.468C221.066 322.999 217.81 322.68 215.894 326.021C213.574 322.935 210.403 323.637 208.721 325.319C206.848 327.192 207.103 330.853 209.658 333.748C211.169 335.472 213.553 336.579 215.128 337.175C215.681 337.387 216.724 337.6 216.724 337.6C217.044 337.473 217.576 337.217 218.214 336.877C219.704 336.089 221.769 334.748 223.003 332.96C225.196 329.789 225.025 326.128 222.939 324.468Z" fill="#E4C035"/>
    <path d="M194.247 342.731C192.374 341.263 189.117 340.943 187.202 344.285C184.882 341.199 181.71 341.88 180.029 343.583C178.156 345.456 178.411 349.117 180.965 352.012C182.477 353.736 184.86 354.842 186.436 355.438C186.989 355.651 188.032 355.864 188.032 355.864C188.351 355.736 188.883 355.481 189.522 355.14C191.012 354.353 193.076 353.012 194.311 351.224C196.503 348.053 196.333 344.391 194.247 342.731Z" fill="#E4C035"/>
    <path d="M187.841 310.206C185.968 308.737 182.711 308.418 180.796 311.76C178.475 308.673 175.304 309.376 173.622 311.057C171.749 312.93 172.005 316.591 174.559 319.486C176.07 321.21 178.454 322.317 180.029 322.913C180.583 323.126 181.626 323.339 181.626 323.339C181.945 323.211 182.477 322.956 183.116 322.615C184.606 321.827 186.67 320.486 187.905 318.699C190.097 315.527 189.927 311.866 187.841 310.206Z" fill="#E4C035"/>
    <path d="M192.82 269.593C190.947 268.124 187.691 267.805 185.775 271.146C183.455 268.06 180.283 268.762 178.602 270.444C176.729 272.317 176.984 275.978 179.539 278.873C181.05 280.597 183.434 281.704 185.009 282.3C185.562 282.513 186.605 282.725 186.605 282.725C186.924 282.598 187.457 282.342 188.095 282.002C189.585 281.214 191.65 279.873 192.884 278.085C195.077 274.914 194.906 271.253 192.82 269.593Z" fill="#E4C035"/>
    <path d="M216.958 296.137C215.192 294.561 213.595 293.029 212.105 291.518C210.977 291.773 209.849 292.518 208.998 293.987C206.678 290.9 203.506 291.581 201.825 293.284C199.952 295.157 200.207 298.818 202.761 301.713C204.272 303.437 206.656 304.544 208.231 305.14C208.785 305.353 209.828 305.566 209.828 305.566C210.147 305.438 210.679 305.183 211.318 304.842C212.808 304.054 214.872 302.714 216.107 300.926C217.065 299.542 217.533 298.095 217.639 296.732C217.405 296.52 217.192 296.328 216.958 296.115V296.137Z" fill="#E4C035"/>
    <path d="M193.141 255.119C193.481 255.247 193.992 255.375 194.354 255.46C193.588 251.203 192.843 246.818 191.651 242.157C189.82 241.412 187.904 242.072 186.734 243.264C184.861 245.137 185.116 248.798 187.67 251.693C189.182 253.417 191.565 254.523 193.141 255.119Z" fill="#E4C035"/>
    <path d="M222.13 362.249C220.257 360.78 217.001 360.461 215.085 363.803C212.765 360.716 209.593 361.419 207.912 363.1C206.486 364.526 206.294 366.953 207.401 369.294C213.042 370.188 218.107 370.55 222.258 370.656C224.408 367.485 224.216 363.888 222.152 362.249H222.13Z" fill="#E4C035"/>
    <path d="M146.697 185.412C146.25 187.306 146.74 189.69 148.4 191.819C149.847 193.671 152.21 194.948 153.806 195.671C154.36 195.927 155.424 196.204 155.424 196.204C155.743 196.076 156.318 195.863 156.978 195.565C157.744 195.203 158.638 194.692 159.532 194.075L146.676 185.433L146.697 185.412Z" fill="#E4C035"/>
    <path d="M123.857 197.353C124.283 186.966 126.284 176.303 144.568 184.71C155.125 189.563 168.194 198.737 179.56 215.637C203.144 250.694 184.307 267.104 216.979 296.137C229.686 307.418 238.136 314.25 243.67 318.337C249.034 322.317 250.971 329.469 248.396 335.642L237.476 361.716C235.199 367.144 229.899 370.719 224.024 370.677C207.784 370.549 174.707 366.526 149.293 338.835C122.687 309.844 122.431 232.814 123.857 197.353V197.353Z" stroke="#2B4E27" stroke-width="1.06425" stroke-linecap="round" stroke-linejoin="round"/>
    <path d="M181.176 384.64V252.269C181.176 214.126 151.207 183.199 114.257 183.199C77.2846 183.199 47.3154 214.126 47.3154 252.269V384.64H181.176Z" fill="white"/>
    <path d="M181.176 370.316H47.3154V384.641H181.176V370.316Z" fill="#E4C035"/>
    <path d="M179.709 220.576C177.879 218.937 174.58 218.426 172.387 221.725C170.216 218.426 166.896 218.937 165.065 220.576C163.022 222.385 163.065 226.153 165.512 229.281C166.96 231.133 169.322 232.41 170.919 233.134C171.472 233.389 172.536 233.666 172.536 233.666C172.856 233.538 173.43 233.326 174.09 233.028C175.665 232.304 177.858 231.048 179.241 229.303C181.689 226.174 181.731 222.428 179.688 220.597L179.709 220.576Z" fill="#E4C035"/>
    <path d="M147.461 222.746C145.631 221.107 142.332 220.596 140.139 223.895C137.968 220.596 134.648 221.107 132.817 222.746C130.774 224.555 130.816 228.323 133.264 231.451C134.712 233.303 137.074 234.58 138.671 235.304C139.224 235.559 140.288 235.836 140.288 235.836C140.608 235.708 141.182 235.496 141.842 235.198C143.417 234.474 145.609 233.218 146.993 231.473C149.441 228.344 149.483 224.598 147.44 222.767L147.461 222.746Z" fill="#E4C035"/>
    <path d="M111.553 238.476C109.723 236.837 106.423 236.327 104.231 239.626C102.06 236.327 98.7396 236.837 96.909 238.476C94.8657 240.286 94.9083 244.053 97.356 247.182C98.8034 249.034 101.166 250.311 102.762 251.034C103.316 251.29 104.38 251.567 104.38 251.567C104.699 251.439 105.274 251.226 105.934 250.928C107.509 250.204 109.701 248.949 111.085 247.203C113.533 244.074 113.575 240.328 111.532 238.498L111.553 238.476Z" fill="#E4C035"/>
    <path d="M170.727 251.439C168.896 249.8 165.597 249.289 163.405 252.589C161.234 249.289 157.913 249.8 156.083 251.439C154.04 253.248 154.082 257.016 156.53 260.145C157.977 261.997 160.34 263.274 161.936 263.997C162.49 264.253 163.554 264.529 163.554 264.529C163.873 264.402 164.448 264.189 165.108 263.891C166.683 263.167 168.875 261.911 170.259 260.166C172.706 257.037 172.749 253.291 170.706 251.461L170.727 251.439Z" fill="#E4C035"/>
    <path d="M147.461 286.75C145.631 285.111 142.332 284.6 140.139 287.899C137.968 284.6 134.648 285.111 132.817 286.75C130.774 288.559 130.816 292.326 133.264 295.455C134.712 297.307 137.074 298.584 138.671 299.308C139.224 299.563 140.288 299.84 140.288 299.84C140.608 299.712 141.182 299.499 141.842 299.202C143.417 298.478 145.609 297.222 146.993 295.477C149.441 292.348 149.483 288.602 147.44 286.771L147.461 286.75Z" fill="#E4C035"/>
    <path d="M168.682 314.187C166.851 312.548 163.552 312.037 161.36 315.337C159.189 312.037 155.868 312.548 154.038 314.187C151.995 315.997 152.037 319.764 154.485 322.893C155.932 324.745 158.295 326.022 159.891 326.745C160.445 327.001 161.509 327.278 161.509 327.278C161.828 327.15 162.403 326.937 163.063 326.639C164.638 325.915 166.83 324.659 168.214 322.914C170.661 319.785 170.704 316.039 168.661 314.209L168.682 314.187Z" fill="#E4C035"/>
    <path d="M122.687 314.187C120.856 312.548 117.557 312.037 115.365 315.337C113.194 312.037 109.873 312.548 108.043 314.187C105.999 315.997 106.042 319.764 108.49 322.893C109.937 324.745 112.3 326.022 113.896 326.745C114.45 327.001 115.514 327.278 115.514 327.278C115.833 327.15 116.408 326.937 117.068 326.639C118.643 325.915 120.835 324.659 122.219 322.914C124.666 319.785 124.709 316.039 122.666 314.209L122.687 314.187Z" fill="#E4C035"/>
    <path d="M145.994 335.767C144.163 334.128 140.864 333.618 138.672 336.917C136.5 333.618 133.18 334.128 131.349 335.767C129.306 337.577 129.349 341.344 131.796 344.473C133.244 346.325 135.606 347.602 137.203 348.325C137.756 348.581 138.82 348.858 138.82 348.858C139.14 348.73 139.714 348.517 140.374 348.219C141.949 347.495 144.142 346.24 145.525 344.494C147.973 341.365 148.016 337.619 145.972 335.789L145.994 335.767Z" fill="#E4C035"/>
    <path d="M170.94 354.992C169.109 353.353 165.81 352.842 163.618 356.141C161.447 352.842 158.126 353.353 156.296 354.992C154.252 356.801 154.295 360.569 156.743 363.698C158.19 365.549 160.553 366.826 162.149 367.55C162.703 367.806 163.767 368.082 163.767 368.082C164.086 367.955 164.661 367.742 165.321 367.444C166.896 366.72 169.088 365.464 170.472 363.719C172.919 360.59 172.962 356.844 170.919 355.013L170.94 354.992Z" fill="#E4C035"/>
    <path d="M108.702 355.033C106.871 353.394 103.572 352.883 101.38 356.182C99.2084 352.883 95.888 353.394 94.0575 355.033C92.0141 356.842 92.0567 360.61 94.5045 363.739C95.9518 365.59 98.3145 366.867 99.9108 367.591C100.464 367.847 101.529 368.123 101.529 368.123C101.848 367.996 102.422 367.783 103.082 367.485C104.657 366.761 106.85 365.505 108.233 363.76C110.681 360.631 110.724 356.885 108.68 355.054L108.702 355.033Z" fill="#E4C035"/>
    <path d="M93.0785 332.172C91.248 330.533 87.9488 330.022 85.7565 333.321C83.5854 330.022 80.2649 330.533 78.4344 332.172C76.3911 333.981 76.4337 337.748 78.8814 340.877C80.3288 342.729 82.6914 344.006 84.2878 344.73C84.8412 344.985 85.9055 345.262 85.9055 345.262C86.2247 345.134 86.7994 344.921 87.4593 344.623C89.0344 343.9 91.2267 342.644 92.6102 340.898C95.058 337.77 95.1006 334.023 93.0572 332.193L93.0785 332.172Z" fill="#E4C035"/>
    <path d="M173.855 287.793C171.812 289.602 171.855 293.37 174.302 296.498C175.75 298.35 178.112 299.627 179.709 300.351C180.134 300.543 180.858 300.755 181.177 300.841V288.964C179.006 285.664 175.686 286.175 173.855 287.814V287.793Z" fill="#E4C035"/>
    <path d="M47.3162 331.321C48.6784 332.512 50.3174 333.364 51.4881 333.896C52.0415 334.151 53.1057 334.428 53.1057 334.428C53.425 334.3 53.9997 334.088 54.6595 333.79C56.2346 333.066 58.427 331.81 59.8105 330.065C62.2582 326.936 62.3008 323.19 60.2575 321.359C58.4269 319.72 55.1278 319.209 52.9354 322.509C51.3178 320.061 49.0829 319.72 47.2949 320.359V331.321H47.3162Z" fill="#E4C035"/>
    <path d="M47.3162 362.291C47.5716 362.781 47.8696 363.249 48.2315 363.717C49.6788 365.569 52.0415 366.846 53.6378 367.57C54.1912 367.825 55.2555 368.102 55.2555 368.102C55.5748 367.974 56.1495 367.761 56.8093 367.463C58.3844 366.74 60.5767 365.484 61.9602 363.739C64.408 360.61 64.4506 356.864 62.4072 355.033C60.5767 353.394 57.2776 352.883 55.0852 356.182C52.9141 352.883 49.5937 353.394 47.7632 355.033C47.5929 355.182 47.4439 355.374 47.2949 355.565V362.312L47.3162 362.291Z" fill="#E4C035"/>
    <path d="M181.178 339.921C179.156 338.388 176.729 338.942 175.261 340.24C173.217 342.049 173.26 345.817 175.708 348.946C177.155 350.797 179.539 352.074 181.114 352.798H181.178V339.942V339.921Z" fill="#E4C035"/>
    <path d="M114.236 183.199C77.2641 183.199 47.2949 214.126 47.2949 252.269V384.64H181.156V252.269" stroke="#2B4E27" stroke-width="1.06425" stroke-linecap="round" stroke-linejoin="round"/>
    <path d="M160.382 194.561C148.59 217.463 122.899 265.823 101.018 296.366C71.5384 337.489 32.9062 355.177 32.9062 355.177L41.2925 368.118C41.2925 368.118 94.5687 337.51 127.071 280.999C142.46 254.244 158.892 224.785 169.917 203.479C169.577 200.84 168.215 198.647 166.533 197.093C165.022 195.71 162.383 194.582 160.382 194.582V194.561Z" fill="white" stroke="#2B4E27" stroke-width="1.06425" stroke-linecap="round" stroke-linejoin="round"/>
    <path d="M148.206 244.837C148.312 240.41 144.332 240.985 144.332 240.985C144.375 239.325 143.417 236.771 139.543 238.558C135.669 240.368 121.408 248.392 121.408 248.392C121.408 248.392 128.092 238.239 124.452 236.43C120.812 234.642 85.0322 260.056 85.0322 260.056L96.8454 286.088C96.8454 286.088 134.669 271.273 143.289 265.548C151.91 259.822 152.91 254.096 150.313 250.308C150.781 246.625 148.227 244.774 148.227 244.774L148.206 244.837Z" fill="white"/>
    <path d="M144.332 240.987C144.332 240.987 148.312 240.413 148.206 244.84C148.099 249.714 135.328 256.823 135.328 256.823" stroke="#2B4E27" stroke-width="1.06425" stroke-linecap="round" stroke-linejoin="round"/>
    <path d="M148.207 244.838C148.207 244.838 150.782 246.668 150.292 250.372C149.76 254.523 138.671 261.525 138.671 261.525" stroke="#2B4E27" stroke-width="1.06425" stroke-linecap="round" stroke-linejoin="round"/>
    <path d="M150.293 250.372C152.889 254.161 151.889 259.887 143.269 265.612C134.648 271.338 96.8249 286.152 96.8249 286.152L85.0117 260.121C85.0117 260.121 120.792 234.685 124.431 236.494C128.071 238.282 121.388 248.457 121.388 248.457C121.388 248.457 135.649 240.432 139.522 238.623C143.396 236.814 144.354 239.368 144.312 241.049C144.226 243.37 140.97 246.945 132.328 251.756" stroke="#2B4E27" stroke-width="1.06425" stroke-linecap="round" stroke-linejoin="round"/>
    <path d="M92.3985 232.469L125.05 199.434L129.094 183.322L124.901 179.192L123.517 177.83C113.896 178.213 83.3524 184.237 53.8941 206.629C24.4144 229.02 0.958389 258.841 1.06481 284.787C1.14995 305.987 15.3896 327.357 50.1053 324.164C70.5389 322.27 92.6752 305.689 102.637 297.345C105.893 294.621 107.021 290.108 105.425 286.171L93.5479 257.031C91.8238 252.817 87.4178 250.348 82.9267 251.093L65.1112 253.796L71.4328 252.689L92.4624 232.49L92.3985 232.469Z" fill="white"/>
    <path d="M93.4839 257.01C91.7598 252.796 87.3538 250.326 82.8627 251.071L79.8828 251.561L99.0818 300.176C100.359 299.154 101.551 298.196 102.573 297.324C105.829 294.599 106.957 290.087 105.361 286.149L93.4839 257.01Z" fill="#E4C035"/>
    <path d="M69.0482 264.527C67.2177 262.888 63.9185 262.377 61.7262 265.677C59.5551 262.377 56.2347 262.888 54.4042 264.527C52.3608 266.336 52.4034 270.104 54.8511 273.233C56.2985 275.084 58.6612 276.362 60.2575 277.085C60.8109 277.341 61.8752 277.617 61.8752 277.617C62.1945 277.49 62.7692 277.277 63.429 276.979C65.0041 276.255 67.1964 274.999 68.5799 273.254C71.0277 270.125 71.0703 266.379 69.0269 264.548L69.0482 264.527Z" fill="#E4C035"/>
    <path d="M93.0795 290.451C91.249 288.812 87.9498 288.301 85.7574 291.6C83.5864 288.301 80.2659 288.812 78.4354 290.451C76.3921 292.26 76.4346 296.028 78.8824 299.157C80.3298 301.008 82.6924 302.285 84.2888 303.009C84.8422 303.264 85.9064 303.541 85.9064 303.541C86.2257 303.413 86.8004 303.201 87.4602 302.903C89.0353 302.179 91.2277 300.923 92.6112 299.178C95.059 296.049 95.1015 292.303 93.0582 290.472L93.0795 290.451Z" fill="#E4C035"/>
    <path d="M57.3627 304.818C55.5322 303.179 52.233 302.668 50.0406 305.968C47.8696 302.668 44.5491 303.179 42.7186 304.818C40.6753 306.627 40.7178 310.395 43.1656 313.524C44.613 315.375 46.9756 316.653 48.572 317.376C49.1254 317.632 50.1896 317.908 50.1896 317.908C50.5089 317.781 51.0836 317.568 51.7434 317.27C53.3185 316.546 55.5109 315.29 56.8944 313.545C59.3422 310.416 59.3847 306.67 57.3414 304.839L57.3627 304.818Z" fill="#E4C035"/>
    <path d="M31.4379 278.873C29.6074 277.234 26.3082 276.723 24.1158 280.022C21.9448 276.723 18.6243 277.234 16.7938 278.873C14.7505 280.682 14.793 284.449 17.2408 287.578C18.6882 289.43 21.0508 290.707 22.6472 291.431C23.2006 291.686 24.2648 291.963 24.2648 291.963C24.5841 291.835 25.1588 291.623 25.8186 291.325C27.3937 290.601 29.5861 289.345 30.9696 287.6C33.4174 284.471 33.4599 280.725 31.4166 278.894L31.4379 278.873Z" fill="#E4C035"/>
    <path d="M134.37 198.756C132.54 197.117 129.241 196.606 127.048 199.905C124.877 196.606 121.557 197.117 119.726 198.756C117.683 200.565 117.726 204.332 120.173 207.461C121.621 209.313 123.983 210.59 125.58 211.314C126.133 211.569 127.197 211.846 127.197 211.846C127.517 211.718 128.091 211.505 128.751 211.207C130.326 210.484 132.519 209.228 133.902 207.482C136.35 204.354 136.393 200.607 134.349 198.777L134.37 198.756Z" fill="#E4C035"/>
    <path d="M79.6478 229.918C77.8173 228.279 74.5182 227.768 72.3258 231.067C70.1547 227.768 66.8343 228.279 65.0038 229.918C62.9604 231.727 63.003 235.494 65.4508 238.623C66.8981 240.475 69.2608 241.752 70.8571 242.476C71.4105 242.731 72.4748 243.008 72.4748 243.008C72.7941 242.88 73.3688 242.667 74.0286 242.369C75.6037 241.646 77.796 240.39 79.1796 238.645C81.6273 235.516 81.6699 231.77 79.6265 229.939L79.6478 229.918Z" fill="#E4C035"/>
    <path d="M101.869 204.5C100.039 202.861 96.7398 202.35 94.5475 205.649C92.3764 202.35 89.056 202.861 87.2255 204.5C85.1821 206.309 85.2247 210.076 87.6724 213.205C89.1198 215.057 91.4824 216.334 93.0788 217.058C93.6322 217.313 94.6965 217.59 94.6965 217.59C95.0157 217.462 95.5904 217.249 96.2503 216.951C97.8254 216.228 100.018 214.972 101.401 213.227C103.849 210.098 103.892 206.351 101.848 204.521L101.869 204.5Z" fill="#E4C035"/>
    <path d="M42.017 258.1L52.8085 256.163C52.9149 256.035 53.0639 255.929 53.1491 255.801C55.5968 252.672 55.6394 248.926 53.5961 247.095C51.7656 245.456 48.4664 244.946 46.274 248.245C44.103 244.946 40.7825 245.456 38.952 247.095C36.9087 248.905 36.9512 252.672 39.399 255.801C40.1014 256.695 41.0379 257.461 41.9745 258.1H42.017Z" fill="#E4C035"/>
    <path d="M90.9722 186.134C92.4196 187.986 94.7822 189.263 96.3786 189.986C96.932 190.242 97.9963 190.518 97.9963 190.518C98.3155 190.391 98.8903 190.178 99.5501 189.88C101.125 189.156 103.318 187.9 104.701 186.155C106.063 184.431 106.659 182.494 106.574 180.812C101.87 182.047 96.5702 183.707 90.8232 185.942C90.8658 186.006 90.9084 186.07 90.951 186.134H90.9722Z" fill="#E4C035"/>
    <path d="M55.8518 214.401C58.2996 211.272 58.3422 207.526 56.2988 205.695C56.1285 205.546 55.9157 205.397 55.7241 205.27C55.1069 205.717 54.4896 206.142 53.851 206.632C50.1475 209.441 46.5503 212.379 43.0596 215.401C44.4644 216.721 46.231 217.679 47.5081 218.253C48.0615 218.509 49.1258 218.785 49.1258 218.785C49.4451 218.658 50.0198 218.445 50.6796 218.147C52.2547 217.423 54.447 216.167 55.8305 214.422L55.8518 214.401Z" fill="#E4C035"/>
    <path d="M16.2612 249.628C16.8146 249.883 17.8789 250.16 17.8789 250.16C18.1982 250.032 18.7728 249.819 19.4327 249.521C21.0078 248.798 23.2001 247.542 24.5836 245.797C27.0314 242.668 27.074 238.922 25.0306 237.091C24.4134 236.538 23.6471 236.154 22.7957 235.963C19.4327 240.007 16.3889 244.115 13.707 248.266C14.6223 248.84 15.5162 249.309 16.2612 249.649V249.628Z" fill="#E4C035"/>
    <path d="M18.3475 318.08C18.5604 317.867 18.7945 317.654 18.9861 317.42C21.4338 314.291 21.4764 310.545 19.433 308.715C17.6025 307.076 14.3034 306.565 12.111 309.864C10.7914 307.863 9.06727 307.267 7.49219 307.48C10.1954 311.609 13.7925 315.228 18.3475 318.08Z" fill="#E4C035"/>
    <path d="M71.3691 252.666L92.3987 232.467" stroke="#2B4E27" stroke-width="1.06425" stroke-linecap="round" stroke-linejoin="round"/>
    <path d="M40.2072 258.095L82.8623 251.071C87.3534 250.326 91.7594 252.796 93.4834 257.01L105.36 286.149C106.957 290.087 105.829 294.599 102.572 297.324C92.6108 305.667 70.4744 322.27 50.0409 324.143C15.3251 327.357 1.0855 305.965 1.00036 284.765C0.893936 258.819 24.3712 228.999 53.8296 206.607C83.3093 184.215 113.832 178.192 123.453 177.809" stroke="#2B4E27" stroke-width="1.06425" stroke-linecap="round" stroke-linejoin="round"/>
    <path d="M173.11 141.331C172.62 140.246 171.918 139.309 171.109 138.436C170.215 137.478 168.98 136.542 168.661 135.222C168.321 133.817 169.129 132.328 169.534 131.008C169.96 129.624 170.172 128.22 170.023 126.772C169.747 123.941 168.448 121.281 166.831 118.982C166.086 117.918 164.979 116.896 164.447 115.704C163.829 114.257 164.66 112.575 164.702 111.064C164.766 108.701 163.957 106.339 162.51 104.466C161.807 103.55 160.956 102.805 159.998 102.146C158.593 101.188 157.572 100.613 156.912 98.9528C155.975 96.5901 154.634 94.6745 152.314 93.4825C151.271 92.9291 150.165 92.5886 148.994 92.4396C147.546 92.2693 146.12 92.7163 144.673 92.5886C143.268 92.4609 142.672 91.2051 141.863 90.2047C141.012 89.1404 139.926 88.3103 138.671 87.7782C136.074 86.6713 133.477 87.161 130.923 88.0975C129.646 88.5658 128.347 89.1191 126.985 89.3532C125.517 89.5874 123.984 89.3745 122.537 89.0978C120.004 88.6083 117.386 87.8208 114.789 88.2039C112.277 88.587 110.575 90.1195 109.063 92.0352C108.382 92.8866 107.722 93.8017 106.892 94.5042C105.7 95.5258 104.295 95.7601 102.784 95.9303C100.485 96.207 98.3995 96.7178 96.7819 98.4844C95.3558 100.038 94.5682 102.018 93.7594 103.912C92.8654 105.956 91.9289 108.127 90.0771 109.468C87.8635 111.064 85.5008 112 83.7768 114.235C82.2868 116.172 81.3928 118.514 81.2439 120.961C81.1587 122.302 81.4993 123.558 81.5206 124.878C81.5631 126.559 80.7756 127.304 79.3495 127.985C77.2423 129.007 75.1989 129.88 74.5391 132.37C73.8154 135.073 74.9648 137.606 75.8375 140.118C76.327 141.523 76.5824 142.885 76.4547 144.375C76.327 145.929 76.0503 147.419 76.2419 148.994C76.5612 151.548 77.6893 153.911 79.2644 155.911C81.0523 158.189 83.3936 159.934 85.9053 161.36C87.2036 162.084 88.5446 162.744 89.8856 163.34C91.1414 163.914 93.1847 164.276 93.3337 165.915C93.4401 167.107 93.1847 168.278 93.3976 169.47C93.5891 170.598 94.0148 171.683 94.6108 172.663C95.7602 174.557 97.5056 176.068 99.5276 176.983C101.358 177.813 103.316 178.048 105.275 177.75C105.466 177.899 105.658 178.048 105.828 178.175C106.956 178.963 108.403 179.708 109.766 179.921C111.681 180.197 113.725 179.197 114.938 177.728C114.959 177.707 114.959 177.664 114.981 177.643C115.023 177.601 115.066 177.579 115.108 177.515C116.534 175.259 120.004 180.134 121.025 180.879C122.984 182.347 125.517 183.092 127.964 182.964C130.689 182.815 132.668 181.453 135.01 180.261C136.372 179.559 137.67 179.346 139.16 179.687C140.608 180.027 141.949 180.644 143.438 180.857C145.78 181.198 147.717 180.24 149.547 178.856C151.484 177.409 153.23 175.706 155.826 176.068C158.359 176.43 160.913 177.09 162.574 174.557C163.212 173.599 163.489 172.471 164.064 171.492C164.66 170.492 165.532 169.683 166.384 168.916C167.959 167.533 169.768 166.256 170.853 164.404C172.28 162.02 171.598 159.594 171.173 157.039C170.641 153.847 172.62 151.484 173.535 148.589C174.302 146.205 174.11 143.609 173.067 141.331H173.11Z" fill="#CBD1CB"/>
    <path d="M141.012 183.52C141.012 188.416 133.775 192.396 124.856 192.396C115.938 192.396 108.701 188.416 108.701 183.52C108.701 178.625 115.938 174.645 124.856 174.645C133.775 174.645 141.012 178.625 141.012 183.52Z" fill="#E4C035" stroke="#2B4E27" stroke-width="1.06425" stroke-linecap="round" stroke-linejoin="round"/>
    <path d="M108.595 136.947C110.723 136.926 112.703 137.586 114.32 138.714L114.256 132.839C114.15 123.516 120.77 115.811 128.943 115.726L141.246 115.598C149.44 115.513 156.209 123.048 156.315 132.371L156.528 151.463C156.635 160.786 150.015 168.491 141.842 168.577L134.732 168.662L134.839 178.942C134.881 183.157 131.476 186.647 127.261 186.69L122.387 186.754C118.173 186.797 114.682 183.391 114.639 179.176L114.512 167.555V166.916L114.384 155.295C114.384 155.061 114.384 154.827 114.427 154.614C112.852 155.742 110.915 156.402 108.829 156.444C103.422 156.508 98.9737 152.208 98.9099 146.823C98.846 141.46 103.188 137.054 108.595 136.99V136.947Z" fill="white" stroke="#2B4E27" stroke-width="1.06425" stroke-miterlimit="10"/>
    <path d="M114.021 147.887C114.021 147.887 114.383 141.267 107.614 142.097" stroke="#2B4E27" stroke-width="1.06425" stroke-linecap="round" stroke-linejoin="round"/>
    <path d="M131.774 138.886C131.774 140.419 133.051 141.653 134.583 141.632C136.116 141.632 137.35 140.355 137.329 138.822C137.329 137.29 136.052 136.055 134.519 136.076C132.987 136.076 131.752 137.354 131.774 138.886Z" fill="#2B4E27"/>
    <path d="M149.951 138.269C149.951 139.567 151.037 140.631 152.357 140.61C153.655 140.61 154.719 139.525 154.698 138.205C154.698 136.907 153.612 135.842 152.293 135.864C150.994 135.864 149.93 136.949 149.951 138.269Z" fill="#2B4E27"/>
    <path d="M143.289 146.29L148.163 143.225L143.779 135.967" stroke="#2B4E27" stroke-width="1.06425" stroke-linecap="round" stroke-linejoin="round"/>
    <path d="M129.985 135.052L134.732 133.094" stroke="#CBD1CB" stroke-width="2.12849" stroke-linecap="round" stroke-linejoin="round"/>
    <path d="M150.312 133.201L154.867 133.818" stroke="#CBD1CB" stroke-width="2.12849" stroke-linecap="round" stroke-linejoin="round"/>
    <path d="M148.632 153.104C148.653 155.466 146.759 157.403 144.418 157.424C142.076 157.446 140.118 155.551 140.097 153.21" stroke="#2B4E27" stroke-width="1.06425" stroke-linecap="round" stroke-linejoin="round"/>
    <path d="M155.592 112.765C154.996 110.445 153.25 108.635 151.569 106.954C150.398 105.783 149.228 104.57 147.78 103.74C146.099 102.761 144.141 102.356 142.204 102.143C138.159 101.696 134.03 102.08 130.156 103.293C128.964 103.655 127.794 104.102 126.538 104.229C125.282 104.357 124.026 104.165 122.792 103.974C120.855 103.697 118.897 103.484 116.981 103.804C112.575 104.506 109.042 107.784 106.147 111.19C103.912 113.829 101.847 116.702 100.719 119.98C99.5911 123.258 99.506 127.004 101.081 130.091C102.486 132.836 105.061 134.816 107.786 136.284C109.276 137.093 109.85 137.817 111.149 139.03C111.298 139.179 111.809 139.541 111.809 139.541C113.15 140.605 114.831 141.244 116.534 141.116C118.237 140.988 119.897 140.009 120.642 138.477C121.217 137.327 121.238 135.986 121.749 134.816C122.281 133.581 123.324 132.581 124.558 132.091C125.835 131.602 127.325 131.644 128.475 130.878C130.199 129.75 130.561 127.26 132.221 126.025C135.158 123.854 140.011 126.898 142.757 124.471C143.821 123.535 144.29 121.917 145.588 121.3C146.61 120.832 147.78 121.13 148.887 121.172C150.973 121.236 153.059 120.278 154.336 118.639C155.634 117 156.103 114.765 155.571 112.743L155.592 112.765Z" fill="#CBD1CB"/>
    <path d="M107.49 155.229C108.618 155.229 109.533 154.314 109.533 153.186C109.533 152.057 108.618 151.143 107.49 151.143C106.361 151.143 105.446 152.057 105.446 153.186C105.446 154.314 106.361 155.229 107.49 155.229Z" fill="#2B4E27"/>
    <path d="M107.49 163.402L109.384 167.234L113.62 167.851L110.555 170.831L111.278 175.024L107.49 173.044L103.722 175.024L104.446 170.831L101.381 167.851L105.617 167.234L107.49 163.402Z" fill="#2B4E27"/>
    <path d="M107.49 153.865V168.19" stroke="#2B4E27" stroke-width="0.532124" stroke-linecap="round" stroke-linejoin="round"/>
</svg>
