<svg width="315" height="107" viewBox="0 0 315 107" fill="none" xmlns="http://www.w3.org/2000/svg">
    <path d="M262.346 106.481C278.672 87.2107 325.997 28.2383 311.307 8.65714C292.888 -15.8806 254.952 19.5519 229.76 100.657C229.76 100.657 251.337 19.3065 229.76 5.84347C208.331 -7.52143 194.05 29.3016 196.176 106.465H262.346V106.481Z" stroke="white" stroke-width="0.817925" stroke-linecap="round" stroke-linejoin="round"/>
    <path d="M195.947 106.48C193.984 94.9474 187.196 5.46636 156.458 14.1691C127.405 22.3974 166.044 84.707 176.726 106.48H195.947Z" stroke="white" stroke-width="0.817925" stroke-linecap="round" stroke-linejoin="round"/>
    <path d="M218.619 105.795L223.052 33.5391" stroke="white" stroke-width="0.817925" stroke-linecap="round" stroke-linejoin="round"/>
    <path d="M296.813 19.6016L243.107 105.795" stroke="white" stroke-width="0.817925" stroke-linecap="round" stroke-linejoin="round"/>
    <path d="M189.73 106.04L162.313 36.2383" stroke="white" stroke-width="0.817925" stroke-linecap="round" stroke-linejoin="round"/>
    <path d="M33.0517 106.449H59.9123C58.4727 99.6437 55.9864 90.9574 52.0767 79.8663C28.684 13.4835 -0.630514 15.1684 1.07077 39.0682C2.78841 62.968 32.0375 105.075 32.0375 105.075L33.0517 106.465V106.449Z" stroke="white" stroke-width="0.817925" stroke-linecap="round" stroke-linejoin="round"/>
    <path d="M13.8477 35.8789L40.4955 102.556" stroke="white" stroke-width="0.817925" stroke-linecap="round" stroke-linejoin="round"/>
</svg>
