<svg width="93" height="197" viewBox="0 0 93 197" fill="none" xmlns="http://www.w3.org/2000/svg">
    <path d="M46.2923 144.794C46.2923 144.794 18.2763 143.867 8.91149 134.039C-0.453307 124.211 -0.610152 115.466 2.17648 109.736C4.96312 104.006 11.3061 100.45 8.44823 94.7198C5.5832 88.9897 1.63483 85.8966 3.41656 78.5416C5.1983 71.1866 13.0878 68.4 13.8647 64.8436C14.6415 61.2802 12.703 55.5572 11.8549 47.8958C11.0068 40.2343 13.8647 35.7443 18.319 33.1145C22.7662 30.4846 25.788 28.1613 27.0281 23.9849C28.2682 19.8085 29.1164 12.3394 34.3832 6.55236C39.65 0.765287 47.1546 -0.0115491 51.7943 2.00538C56.441 4.01517 60.3822 7.8851 63.4825 15.7818C66.5755 23.6784 64.9506 25.845 68.9773 29.2517C73.004 32.6584 78.0999 34.155 80.5515 41.9091C82.6397 48.5301 79.5039 54.253 79.1974 58.2797C78.8909 62.3064 77.3372 63.853 82.4472 69.1911C87.5573 74.5291 90.572 77.9358 88.5622 85.9893C86.5524 94.0427 81.1288 95.3541 84.4571 100.692C87.7854 106.03 90.8785 107.192 92.0402 116.25C93.2019 125.309 89.4886 133.048 78.3421 139.47C67.1956 145.891 46.2994 144.808 46.2994 144.808L46.2923 144.794Z" stroke="#808080" stroke-width="0.5" stroke-linecap="round" stroke-linejoin="round"/>
    <path d="M46.291 6.54688V196.651" stroke="#808080" stroke-width="0.5" stroke-linecap="round" stroke-linejoin="round"/>
    <path d="M8.9043 108.42L46.2922 143.363L82.5114 110.138" stroke="#808080" stroke-width="0.5" stroke-linecap="round" stroke-linejoin="round"/>
    <path d="M7.51367 81.4302L46.2914 118.448L86.4588 80.3184" stroke="#808080" stroke-width="0.5" stroke-linecap="round" stroke-linejoin="round"/>
    <path d="M17.1494 65.9277L46.2915 93.5518L74.614 65.9277" stroke="#808080" stroke-width="0.5" stroke-linecap="round" stroke-linejoin="round"/>
    <path d="M18.3115 40.5003L46.2919 67.205L75.7761 39.2246" stroke="#808080" stroke-width="0.5" stroke-linecap="round" stroke-linejoin="round"/>
    <path d="M27.5967 27.0371C27.5967 27.0371 46.2906 44.7974 46.2906 44.6834C46.2906 44.5694 63.4737 28.0848 63.4737 28.0848" stroke="#808080" stroke-width="0.5" stroke-linecap="round" stroke-linejoin="round"/>
    <path d="M36.1865 8.22852L46.2925 18.3274L55.2297 9.04099" stroke="#808080" stroke-width="0.5" stroke-linecap="round" stroke-linejoin="round"/>
</svg>
