<svg width="622" height="728" viewBox="0 0 622 728" fill="none" xmlns="http://www.w3.org/2000/svg">
    <path d="M553.97 545.883C535.858 557.216 526.691 575.197 533.468 586.045C540.246 596.893 560.43 596.482 578.541 585.148C596.652 573.815 605.82 555.835 599.042 544.987C592.264 534.139 572.081 534.549 553.97 545.883Z" stroke="#FDFEFF" stroke-width="1.40034" stroke-linecap="round" stroke-linejoin="round"/>
    <path d="M422.616 538.564C411.712 547.19 416.212 571.034 432.661 591.796C449.111 612.559 471.273 622.398 482.177 613.754C493.082 605.127 488.582 581.284 472.132 560.522C455.683 539.759 433.52 529.92 422.616 538.564Z" stroke="#FDFEFF" stroke-width="1.40034" stroke-linecap="round" stroke-linejoin="round"/>
    <path d="M463.152 466.136C450.698 472.018 448.383 493.228 457.961 513.543C467.539 533.857 485.408 545.545 497.843 539.682C510.297 533.801 512.612 512.59 503.034 492.276C493.455 471.962 475.587 460.274 463.152 466.136Z" stroke="#FDFEFF" stroke-width="1.40034" stroke-linecap="round" stroke-linejoin="round"/>
    <path d="M573.475 471.86C581.055 445.144 574.959 420.014 559.861 415.731C544.762 411.447 526.378 429.631 518.798 456.346C511.218 483.062 517.313 508.192 532.412 512.475C547.511 516.759 565.895 498.575 573.475 471.86Z" stroke="#FDFEFF" stroke-width="1.40034" stroke-linecap="round" stroke-linejoin="round"/>
    <path d="M480.292 681.845L562.67 419.271" stroke="black" stroke-width="1.40034" stroke-linecap="round" stroke-linejoin="round"/>
    <path d="M575.327 553.184L504.134 605.837" stroke="black" stroke-width="1.40034" stroke-linecap="round" stroke-linejoin="round"/>
    <path d="M496.218 629.415L449.11 564.346" stroke="black" stroke-width="1.40034" stroke-linecap="round" stroke-linejoin="round"/>
    <path d="M513.507 574.861L472.767 493.734" stroke="black" stroke-width="1.40034" stroke-linecap="round" stroke-linejoin="round"/>
    <path d="M537.781 498.571L517.709 471.311" stroke="black" stroke-width="1.40034" stroke-linecap="round" stroke-linejoin="round"/>
    <path d="M545.341 474.484L525.214 445.842" stroke="black" stroke-width="1.40034" stroke-linecap="round" stroke-linejoin="round"/>
    <path d="M553.203 447.485L538.304 426.256" stroke="black" stroke-width="1.40034" stroke-linecap="round" stroke-linejoin="round"/>
    <path d="M97.6769 559.237C105.456 547.879 96.3834 528.138 77.4118 515.143C58.4402 502.148 36.7542 500.82 28.9747 512.178C21.1952 523.535 30.2682 543.277 49.2397 556.272C68.2113 569.267 89.8974 570.594 97.6769 559.237Z" stroke="#FDFEFF" stroke-width="1.40034" stroke-linecap="round" stroke-linejoin="round"/>
    <path d="M191.074 504.993C201.567 511.734 199.681 533.411 186.835 553.408C173.989 573.405 155.075 584.16 144.563 577.419C134.07 570.679 135.956 549.002 148.802 529.005C161.648 509.008 180.562 498.253 191.074 504.993Z" stroke="#FDFEFF" stroke-width="1.40034" stroke-linecap="round" stroke-linejoin="round"/>
    <path d="M115.716 441.884C126.154 474.26 119.805 505.291 101.508 511.192C83.2097 517.092 59.9267 495.638 49.4708 463.262C39.0335 430.886 45.3818 399.855 63.6796 393.955C81.9774 388.055 105.26 409.508 115.716 441.884Z" stroke="#FDFEFF" stroke-width="1.40034" stroke-linecap="round" stroke-linejoin="round"/>
    <path d="M159.407 677.533L63.3242 405.68" stroke="black" stroke-width="1.40034" stroke-linecap="round" stroke-linejoin="round"/>
    <path d="M41.4785 524.523L122.381 572.378" stroke="black" stroke-width="1.40034" stroke-linecap="round" stroke-linejoin="round"/>
    <path d="M130.895 596.874L173.913 527.641" stroke="black" stroke-width="1.40034" stroke-linecap="round" stroke-linejoin="round"/>
    <path d="M92.7129 488.861L112.99 459.174" stroke="black" stroke-width="1.40034" stroke-linecap="round" stroke-linejoin="round"/>
    <path d="M74.4336 435.238L89.4266 412.16" stroke="black" stroke-width="1.40034" stroke-linecap="round" stroke-linejoin="round"/>
    <path d="M65.4707 516.773L71.5575 542.316" stroke="black" stroke-width="1.40034" stroke-linecap="round" stroke-linejoin="round"/>
    <path d="M81.9404 459.788L58.0225 453.664" stroke="black" stroke-width="1.40034" stroke-linecap="round" stroke-linejoin="round"/>
    <path d="M58.9737 587.148C73.556 606.846 75.0683 630.428 62.3719 639.82C49.6754 649.211 27.5686 640.865 13.0051 621.186C-1.55853 601.506 -3.08958 577.906 9.60688 568.514C22.3033 559.122 44.4101 567.468 58.9737 587.148Z" stroke="#FDFEFF" stroke-width="1.40034" stroke-linecap="round" stroke-linejoin="round"/>
    <path d="M24.002 587.576L94.43 681.157" stroke="black" stroke-width="1.40034" stroke-linecap="round" stroke-linejoin="round"/>
    <path d="M90.3417 612.016L81.2861 663.679" stroke="black" stroke-width="1.40034" stroke-linecap="round" stroke-linejoin="round"/>
    <path d="M18.9238 612.016L46.2959 617.206" stroke="black" stroke-width="1.40034" stroke-linecap="round" stroke-linejoin="round"/>
    <path d="M47.79 681.158H575.944" stroke="black" stroke-width="1.86713" stroke-linecap="round" stroke-linejoin="round"/>
    <path d="M299.514 593.79L292.718 648.889L250.315 649.3L254.834 589.57L299.514 593.79Z" fill="white" stroke="black" stroke-width="1.40034" stroke-miterlimit="10"/>
    <path d="M288.928 610.893L284.148 649.579" stroke="black" stroke-width="1.40034" stroke-miterlimit="10"/>
    <path d="M278.995 610.727L273.897 648.442" stroke="black" stroke-width="1.40034" stroke-miterlimit="10"/>
    <path d="M269.415 610.521L265.83 649.507" stroke="black" stroke-width="1.40034" stroke-miterlimit="10"/>
    <path d="M261.91 610.055L257.261 649.246" stroke="black" stroke-width="1.40034" stroke-miterlimit="10"/>
    <path d="M296.322 619.857L253.116 615.226L253.956 604.154L297.61 609.476L296.322 619.857Z" fill="white" stroke="black" stroke-width="1.40034" stroke-miterlimit="10"/>
    <path d="M243.351 643.008L308.663 643.381L309.578 660.297L356.798 704.212L235.322 705.501L243.351 643.008Z" fill="white"/>
    <path d="M332.732 681.826L328.699 690.602" stroke="black" stroke-width="1.40034" stroke-linecap="round" stroke-linejoin="round"/>
    <path d="M321.417 671.576L315.946 683.488" stroke="black" stroke-width="1.40034" stroke-linecap="round" stroke-linejoin="round"/>
    <path d="M310.642 659.941C310.642 659.941 346.64 645.695 340.833 635.482C331.497 619.032 310.642 659.941 310.642 659.941Z" stroke="black" stroke-width="1.40034" stroke-linecap="round" stroke-linejoin="round"/>
    <path d="M318.989 625.438L309.672 660.577" stroke="black" stroke-width="1.40034" stroke-linecap="round" stroke-linejoin="round"/>
    <path d="M259.855 681.117C255.225 674.526 247.812 671.053 240.325 671.128L240.493 667.449C249.101 667.412 257.577 671.445 262.88 678.988C268.444 686.924 269.154 696.819 265.643 705.165L261.592 705.203C265.363 697.716 265.009 688.436 259.855 681.098V681.117Z" fill="black"/>
    <path d="M243.351 643.008L308.663 643.381L309.578 660.297L356.798 704.212L235.322 705.501L243.351 643.008Z" stroke="black" stroke-width="1.40034" stroke-linecap="round" stroke-linejoin="round"/>
    <path d="M241.465 282.541L231.252 598.59L320.743 593.754L351.775 310.529L241.465 282.541Z" fill="black"/>
    <path d="M234.483 575.343L323.321 570.283" stroke="white" stroke-width="1.40034" stroke-linecap="round" stroke-linejoin="round"/>
    <path d="M214.746 614.782L206.53 669.694L164.146 669.022L170.196 609.404L214.746 614.782Z" fill="white" stroke="black" stroke-width="1.40034" stroke-miterlimit="10"/>
    <path d="M203.73 631.605L197.961 670.162" stroke="black" stroke-width="1.40034" stroke-miterlimit="10"/>
    <path d="M193.796 631.193L187.728 668.76" stroke="black" stroke-width="1.40034" stroke-miterlimit="10"/>
    <path d="M184.218 630.727L179.644 669.619" stroke="black" stroke-width="1.40034" stroke-miterlimit="10"/>
    <path d="M176.731 630.074L171.073 669.116" stroke="black" stroke-width="1.40034" stroke-miterlimit="10"/>
    <path d="M210.88 640.773L167.824 635.022L168.944 623.969L212.449 630.41L210.88 640.773Z" fill="white" stroke="black" stroke-width="1.40034" stroke-miterlimit="10"/>
    <path d="M157.332 662.545L222.625 664.599L223.092 681.515L269.173 726.643L147.697 724.795L157.332 662.545Z" fill="white"/>
    <path d="M245.685 703.641L241.428 712.304" stroke="black" stroke-width="1.40034" stroke-linecap="round" stroke-linejoin="round"/>
    <path d="M234.724 692.924L228.861 704.873" stroke="black" stroke-width="1.40034" stroke-linecap="round" stroke-linejoin="round"/>
    <path d="M224.229 681.31C224.229 681.31 260.582 667.997 255.037 657.635C246.131 640.943 224.229 681.31 224.229 681.31Z" stroke="black" stroke-width="1.40034" stroke-linecap="round" stroke-linejoin="round"/>
    <path d="M233.454 647.029L223.26 681.926" stroke="black" stroke-width="1.40034" stroke-linecap="round" stroke-linejoin="round"/>
    <path d="M172.848 701.062C168.404 694.359 161.066 690.681 153.579 690.569L153.84 686.891C162.448 687.077 170.813 691.316 175.929 699.008C181.287 707.093 181.735 717.007 178.02 725.241L173.968 725.185C177.926 717.792 177.814 708.512 172.867 701.043L172.848 701.062Z" fill="black"/>
    <path d="M157.332 662.545L222.625 664.599L223.092 681.515L269.173 726.643L147.697 724.795L157.332 662.545Z" stroke="black" stroke-width="1.40034" stroke-linecap="round" stroke-linejoin="round"/>
    <path d="M191.687 301.383L151.04 614.985L240.587 618.794L298.804 339.883L191.687 301.383Z" fill="black"/>
    <path d="M240.587 618.794L298.804 339.883" stroke="white" stroke-width="1.40034" stroke-linecap="round" stroke-linejoin="round"/>
    <path d="M156.491 592.148L245.404 595.677" stroke="white" stroke-width="1.40034" stroke-linecap="round" stroke-linejoin="round"/>
    <path d="M432.024 156.716C432.024 156.716 445.28 160.824 445.99 163.064C446.699 165.305 441.583 175.835 436.934 176.844C432.285 177.852 425.339 171.074 425.451 170.533C425.563 169.991 422.128 158.471 422.128 158.471L432.024 156.697V156.716Z" fill="white"/>
    <path d="M424.033 164.691C424.033 164.691 442.742 160.788 439.586 151.191C436.599 142.154 416.247 152.125 415.257 154.104C414.249 156.083 424.033 164.672 424.033 164.672V164.691Z" fill="white"/>
    <path d="M424.033 164.692C424.033 164.692 442.742 160.789 439.586 151.192C439.586 151.192 435.628 141.054 415.258 154.105" stroke="black" stroke-width="1.40034" stroke-linecap="round" stroke-linejoin="round"/>
    <path d="M178.487 297.762L167.527 385.461L354.52 390.091C354.52 390.091 357.75 182.766 311.277 120.721L271.097 111.609C271.097 111.609 199.605 174.083 178.487 297.762Z" fill="#FDF3BE"/>
    <path d="M167.527 385.462L354.52 390.093C354.52 390.093 354.688 379.263 354.389 361.862L170.795 359.285L167.527 385.462Z" fill="#FDF3BE"/>
    <path d="M233.827 360.18L232.035 360.143L229.869 387.011L231.662 387.048L233.827 360.18Z" fill="white"/>
    <path d="M255.599 360.48L253.788 360.461L251.491 387.553L253.284 387.59L255.599 360.48Z" fill="white"/>
    <path d="M210.973 359.845L209.162 359.826L206.791 386.433L208.602 386.489L210.973 359.845Z" fill="white"/>
    <path d="M185.656 359.49L182.725 385.835L184.517 385.891L187.467 359.528L185.656 359.49Z" fill="white"/>
    <path d="M276.697 360.778L274.886 360.74L272.944 388.075L274.755 388.131L276.697 360.778Z" fill="white"/>
    <path d="M341.934 361.692L340.141 361.674L339.6 389.737L341.411 389.774L341.934 361.692Z" fill="white"/>
    <path d="M321.938 361.413L320.145 361.395L319.697 389.233L321.49 389.289L321.938 361.413Z" fill="white"/>
    <path d="M300.409 361.113L298.598 361.076L296.937 388.672L298.729 388.71L300.409 361.113Z" fill="white"/>
    <path d="M271.097 111.609C271.097 111.609 199.605 174.083 178.487 297.762L167.527 385.461L354.52 390.091" stroke="black" stroke-width="1.40034" stroke-linecap="round" stroke-linejoin="round"/>
    <path d="M335.739 625.739L329.11 442.947L374.313 444.889L371.158 629.343L335.739 625.739Z" fill="white" stroke="black" stroke-width="1.40034" stroke-linecap="round" stroke-linejoin="round"/>
    <path d="M332.192 605.502L334.694 651.265L374.333 655.224L374.315 605.857L332.192 605.502Z" fill="white" stroke="black" stroke-width="1.40034" stroke-miterlimit="10"/>
    <path d="M338.82 606.846L342.2 652.441" stroke="black" stroke-width="1.40034" stroke-miterlimit="10"/>
    <path d="M347.932 606.883L351.33 652.478" stroke="black" stroke-width="1.40034" stroke-miterlimit="10"/>
    <path d="M356.502 606.062L358.425 652.61" stroke="black" stroke-width="1.40034" stroke-miterlimit="10"/>
    <path d="M364.362 606.434L366.323 653.317" stroke="black" stroke-width="1.40034" stroke-miterlimit="10"/>
    <path d="M374.315 605.857L332.192 605.502L332.659 613.885L374.315 614.987V605.857Z" fill="white" stroke="black" stroke-width="1.40034" stroke-miterlimit="10"/>
    <path d="M284.655 708.697L386.824 707.783L382.437 646.578L323.734 646.111L320.934 673.539L284.655 708.697Z" fill="white" stroke="black" stroke-width="1.40034" stroke-linecap="round" stroke-linejoin="round"/>
    <path d="M386.825 707.784C386.825 707.784 385.742 692.641 384.323 672.794L384.192 670.983C370.637 669.358 357.791 678.32 354.878 691.913C353.665 697.552 354.356 703.135 356.484 708.064H358.426C383.315 707.317 386.844 707.784 386.844 707.784H386.825Z" fill="black"/>
    <path d="M416.044 636.104L409.435 453.312L454.638 455.254L451.464 639.689L416.044 636.104Z" fill="white" stroke="black" stroke-width="1.40034" stroke-linecap="round" stroke-linejoin="round"/>
    <path d="M412.515 615.863L414.998 661.627L454.656 665.585L454.618 616.199L412.515 615.863Z" fill="white" stroke="black" stroke-width="1.40034" stroke-miterlimit="10"/>
    <path d="M419.124 617.211L422.522 662.806" stroke="black" stroke-width="1.40034" stroke-miterlimit="10"/>
    <path d="M428.254 617.246L431.633 662.841" stroke="black" stroke-width="1.40034" stroke-miterlimit="10"/>
    <path d="M436.806 616.426L438.729 662.973" stroke="black" stroke-width="1.40034" stroke-miterlimit="10"/>
    <path d="M444.666 616.779L446.627 663.682" stroke="black" stroke-width="1.40034" stroke-miterlimit="10"/>
    <path d="M454.618 616.199L412.515 615.863L412.963 624.247L454.637 625.348L454.618 616.199Z" fill="white" stroke="black" stroke-width="1.40034" stroke-miterlimit="10"/>
    <path d="M364.96 719.061L467.148 718.146L462.741 656.941L404.058 656.475L401.257 683.903L364.96 719.061Z" fill="white" stroke="black" stroke-width="1.40034" stroke-linecap="round" stroke-linejoin="round"/>
    <path d="M467.148 718.147C467.148 718.147 467.148 709.652 464.646 683.157L464.515 681.346C450.96 679.722 438.114 688.684 435.202 702.276C433.988 707.915 434.679 713.498 436.807 718.427H438.749C457.196 718.427 467.167 718.147 467.167 718.147H467.148Z" fill="black"/>
    <path d="M453.759 262.397L479.301 494.78L282.282 492.875L322.519 258.812C322.519 258.812 346.119 187.563 352.934 177.966C359.749 168.369 386.524 146.057 386.524 146.057L409.919 147.606C409.919 147.606 418.937 154.757 422.335 159.556C425.734 164.354 453.759 262.397 453.759 262.397Z" fill="white"/>
    <path d="M423.158 347.763C423.158 349.761 421.533 351.385 419.535 351.385C417.537 351.385 415.913 349.761 415.913 347.763C415.913 345.765 417.537 344.141 419.535 344.141C421.533 344.141 423.158 345.765 423.158 347.763Z" fill="#F5CE39"/>
    <path d="M350.358 372.782C350.358 374.78 348.733 376.405 346.735 376.405C344.738 376.405 343.113 374.78 343.113 372.782C343.113 370.785 344.738 369.16 346.735 369.16C348.733 369.16 350.358 370.785 350.358 372.782Z" fill="#F5CE39"/>
    <path d="M332.022 323.023C332.022 325.02 330.397 326.645 328.4 326.645C326.402 326.645 324.777 325.02 324.777 323.023C324.777 321.025 326.402 319.4 328.4 319.4C330.397 319.4 332.022 321.025 332.022 323.023Z" fill="#F5CE39"/>
    <path d="M411.3 384.601C411.3 386.599 409.676 388.223 407.678 388.223C405.68 388.223 404.056 386.599 404.056 384.601C404.056 382.603 405.68 380.979 407.678 380.979C409.676 380.979 411.3 382.603 411.3 384.601Z" fill="#F5CE39"/>
    <path d="M367.648 409.192C369.648 409.192 371.27 407.57 371.27 405.569C371.27 403.569 369.648 401.947 367.648 401.947C365.647 401.947 364.025 403.569 364.025 405.569C364.025 407.57 365.647 409.192 367.648 409.192Z" fill="#F5CE39"/>
    <path d="M325.73 418.097C325.73 420.095 324.105 421.719 322.108 421.719C320.11 421.719 318.485 420.095 318.485 418.097C318.485 416.099 320.11 414.475 322.108 414.475C324.105 414.475 325.73 416.099 325.73 418.097Z" fill="#F5CE39"/>
    <path d="M444.088 414.476C444.088 416.474 442.464 418.098 440.466 418.098C438.468 418.098 436.844 416.474 436.844 414.476C436.844 412.478 438.468 410.854 440.466 410.854C442.464 410.854 444.088 412.478 444.088 414.476Z" fill="#F5CE39"/>
    <path d="M401.909 430.903C401.909 432.901 400.284 434.526 398.286 434.526C396.288 434.526 394.664 432.901 394.664 430.903C394.664 428.906 396.288 427.281 398.286 427.281C400.284 427.281 401.909 428.906 401.909 430.903Z" fill="#F5CE39"/>
    <path d="M363.968 447.336C365.968 447.336 367.59 445.715 367.59 443.714C367.59 441.714 365.968 440.092 363.968 440.092C361.967 440.092 360.346 441.714 360.346 443.714C360.346 445.715 361.967 447.336 363.968 447.336Z" fill="#F5CE39"/>
    <path d="M303.306 457.474C303.306 459.472 301.682 461.096 299.684 461.096C297.686 461.096 296.062 459.472 296.062 457.474C296.062 455.476 297.686 453.852 299.684 453.852C301.682 453.852 303.306 455.476 303.306 457.474Z" fill="#F5CE39"/>
    <path d="M456.952 462.871C458.953 462.871 460.575 461.25 460.575 459.249C460.575 457.249 458.953 455.627 456.952 455.627C454.952 455.627 453.33 457.249 453.33 459.249C453.33 461.25 454.952 462.871 456.952 462.871Z" fill="#F5CE39"/>
    <path d="M419.535 466.512C421.536 466.512 423.158 464.89 423.158 462.89C423.158 460.889 421.536 459.268 419.535 459.268C417.535 459.268 415.913 460.889 415.913 462.89C415.913 464.89 417.535 466.512 419.535 466.512Z" fill="#F5CE39"/>
    <path d="M337.587 472.298C337.587 474.296 335.963 475.92 333.965 475.92C331.967 475.92 330.343 474.296 330.343 472.298C330.343 470.3 331.967 468.676 333.965 468.676C335.963 468.676 337.587 470.3 337.587 472.298Z" fill="#F5CE39"/>
    <path d="M390.127 485.331C390.127 487.329 388.503 488.953 386.505 488.953C384.507 488.953 382.883 487.329 382.883 485.331C382.883 483.333 384.507 481.709 386.505 481.709C388.503 481.709 390.127 483.333 390.127 485.331Z" fill="#F5CE39"/>
    <path d="M460.575 362.064C460.575 364.061 458.95 365.686 456.952 365.686C454.954 365.686 453.33 364.061 453.33 362.064C453.33 360.066 454.954 358.441 456.952 358.441C458.95 358.441 460.575 360.066 460.575 362.064Z" fill="#F5CE39"/>
    <path d="M460.575 492.595C460.575 490.597 458.95 488.973 456.952 488.973C454.954 488.973 453.33 490.597 453.33 492.595C453.33 493.323 453.554 493.977 453.909 494.555L459.977 494.611C460.369 494.033 460.593 493.342 460.593 492.595H460.575Z" fill="#F5CE39"/>
    <path d="M306.517 492.595C306.517 490.597 304.893 488.973 302.895 488.973C300.897 488.973 299.272 490.597 299.272 492.595C299.272 492.744 299.291 492.894 299.31 493.043L306.461 493.118C306.48 492.95 306.517 492.763 306.517 492.595Z" fill="#F5CE39"/>
    <path d="M453.759 262.397L479.301 494.78L282.282 492.875L322.519 258.812C322.519 258.812 346.119 187.563 352.934 177.966C359.749 168.369 386.524 146.057 386.524 146.057L409.919 147.606C409.919 147.606 418.078 156.139 421.477 160.919C424.875 165.717 453.759 262.397 453.759 262.397V262.397Z" stroke="#0F110E" stroke-width="1.40034" stroke-linecap="round" stroke-linejoin="round"/>
    <path d="M358.948 81.7695L371.495 79.3235C379.841 77.6991 388.168 84.1221 390.035 93.6257L393.844 113.063C393.956 113.604 394.031 114.164 394.087 114.706C394.33 115.247 394.535 115.826 394.647 116.442L396.962 128.28L397.093 128.933L399.408 140.771C400.249 145.065 397.429 149.266 393.135 150.106L388.168 151.077C383.874 151.917 379.673 149.098 378.833 144.804L376.779 134.329L369.534 135.748C361.188 137.373 352.861 130.95 350.994 121.446L347.185 102.009C345.318 92.5241 350.62 83.4126 358.966 81.7882L358.948 81.7695Z" fill="white" stroke="black" stroke-width="1.40034" stroke-linecap="round" stroke-linejoin="round"/>
    <path d="M369.087 109.166C368.526 106.328 369.329 103.77 370.879 103.453C372.429 103.154 374.147 105.208 374.688 108.064" stroke="black" stroke-width="1.40034" stroke-linecap="round" stroke-linejoin="round"/>
    <path d="M351.18 111.723C350.676 109.165 351.404 106.85 352.805 106.588C354.205 106.308 355.736 108.175 356.24 110.733" stroke="black" stroke-width="1.40034" stroke-linecap="round" stroke-linejoin="round"/>
    <path d="M360.197 120.667C360.197 120.667 362.419 124.532 365.481 124.233C368.543 123.935 370.242 120.144 369.906 117.512L360.197 120.667V120.667Z" stroke="black" stroke-width="0.933563" stroke-linecap="round" stroke-linejoin="round"/>
    <path d="M364.417 114.54L359.264 112.635L361.952 105.018" stroke="black" stroke-width="0.933563" stroke-linecap="round" stroke-linejoin="round"/>
    <path d="M376.049 99.791C374.462 99.0441 372.801 98.596 371.045 98.428C370.56 98.372 370.093 98.8948 370.112 99.3615C370.131 99.903 370.523 100.239 371.045 100.295C371.157 100.295 371.27 100.314 371.382 100.332C371.4 100.332 371.68 100.37 371.456 100.332C371.643 100.37 371.83 100.388 372.035 100.426C372.408 100.5 372.763 100.575 373.118 100.669C373.473 100.762 373.827 100.874 374.182 101.005C374.369 101.079 374.537 101.135 374.724 101.21C374.985 101.303 374.556 101.135 374.798 101.247C374.892 101.285 375.004 101.341 375.097 101.378C375.545 101.583 376.124 101.509 376.367 101.042C376.591 100.631 376.497 99.9777 376.031 99.7723L376.049 99.791Z" fill="black"/>
    <path d="M353.047 101.433C351.815 101.619 350.62 102.105 349.593 102.796C349.182 103.076 348.977 103.636 349.257 104.065C349.518 104.476 350.097 104.7 350.526 104.401C350.769 104.252 350.993 104.103 351.255 103.972C351.385 103.897 351.516 103.841 351.665 103.767C351.721 103.729 351.964 103.655 351.703 103.748C351.759 103.729 351.833 103.692 351.89 103.673C352.431 103.468 352.972 103.319 353.551 103.225C353.775 103.188 353.999 102.982 354.111 102.796C354.223 102.59 354.279 102.292 354.205 102.068C354.13 101.843 353.999 101.619 353.775 101.507C353.533 101.377 353.327 101.377 353.047 101.414V101.433Z" fill="black"/>
    <path d="M420.581 74.4151C425.23 64.2392 419.965 44.9332 402.657 42.5806C388.541 40.6574 381.745 49.4143 381.745 49.4143C377.395 40.0973 365.912 38.7716 358.518 43.3461C352.954 46.7816 351.348 52.0843 351.722 55.221C349.369 52.5324 344.533 51.8975 340.519 54.3248C334.768 57.779 336.243 64.594 338.017 68.6083C332.77 69.8966 329.279 75.1619 330.063 80.8753C330.903 86.9622 336.299 91.2379 342.125 90.435C343.096 90.3043 344.01 90.0243 344.869 89.6322C343.824 93.5718 343.637 97.7915 345.878 99.4532C354.224 105.615 367.928 89.8376 367.928 89.8376C373.623 99.9574 390.969 106.138 390.969 106.138L393.825 113.065L396.327 127.199C396.327 127.199 398.064 129.309 403.31 126.937C408.538 124.566 407.343 118.647 407.343 118.647C407.343 118.647 420.693 122.718 424.596 112.038C428.311 101.825 417.967 98.7064 417.967 98.7064C417.967 98.7064 427.77 101.451 430.981 90.323C434.715 77.3651 420.6 74.4338 420.6 74.4338L420.581 74.4151Z" fill="black"/>
    <path d="M408.462 103.993C409.527 109.464 405.923 114.767 400.415 115.85C394.907 116.933 389.567 113.366 388.484 107.896C387.42 102.425 391.023 97.1224 396.531 96.0395C402.039 94.9565 407.379 98.5227 408.462 103.993Z" fill="white"/>
    <path d="M393.32 108.305C393.32 108.305 391.565 101.658 398.622 101.061" stroke="black" stroke-width="1.40034" stroke-linecap="round" stroke-linejoin="round"/>
    <path d="M388.484 107.897C387.943 105.115 388.596 102.389 390.108 100.223" stroke="black" stroke-width="1.40034" stroke-linecap="round" stroke-linejoin="round"/>
    <path d="M390.108 100.222C391.565 98.1306 393.824 96.5809 396.531 96.0395C402.039 94.9565 407.379 98.5227 408.462 103.993C409.527 109.464 405.923 114.767 400.415 115.85C398.716 116.186 397.035 116.074 395.486 115.607C394.907 115.439 393.413 114.804 392.909 114.487" stroke="black" stroke-width="1.40034" stroke-linecap="round" stroke-linejoin="round"/>
    <path d="M392.126 91.2556C388.877 76.3373 377.376 68.8501 364.698 70.5865C355.586 71.8375 348.473 78.2231 345.821 86.4011C349.369 81.1545 355.064 77.3829 361.841 76.4306C374.519 74.6755 387.085 85.3555 388.821 97.9586L388.952 99.2656L393.06 95.6247L392.107 91.2183L392.126 91.2556Z" fill="#FDFEFF"/>
    <path d="M399.244 135.528L375.163 138.853C369.83 139.589 366.105 144.508 366.841 149.84L367.104 151.745C367.84 157.078 372.759 160.804 378.091 160.067L402.173 156.743C407.505 156.007 411.231 151.088 410.495 145.755L410.232 143.85C409.496 138.518 404.576 134.792 399.244 135.528Z" fill="#F5CE39" stroke="#0F110E" stroke-width="1.40034" stroke-miterlimit="10"/>
    <path d="M357.583 299.421C357.583 299.421 343.113 336.203 345.073 344.419C347.034 352.634 376.18 367.889 383.405 364.565C390.65 361.242 384.376 347.556 373.23 335.606C373.23 335.606 388.689 301.419 387.513 288.666C386.337 275.895 359.749 293.745 357.583 299.421Z" fill="white" stroke="black" stroke-width="1.40034" stroke-miterlimit="10"/>
    <path d="M351.702 315.533C347.949 326.512 343.972 339.862 345.055 344.418C347.015 352.633 376.161 367.887 383.387 364.564C390.613 361.24 384.358 347.554 373.211 335.605C373.211 335.605 376.292 328.79 379.597 320.108C369.141 318.054 357.919 316.392 351.683 315.533H351.702Z" fill="white"/>
    <path d="M363.409 332.411C363.409 333.457 362.569 334.297 361.523 334.297C360.478 334.297 359.638 333.457 359.638 332.411C359.638 331.366 360.478 330.525 361.523 330.525C362.569 330.525 363.409 331.366 363.409 332.411Z" fill="#FDFEFF"/>
    <path d="M353.718 330.526C353.718 331.572 352.878 332.412 351.832 332.412C350.787 332.412 349.946 331.572 349.946 330.526C349.946 329.481 350.787 328.641 351.832 328.641C352.878 328.641 353.718 329.481 353.718 330.526Z" fill="#FDFEFF"/>
    <path d="M365.295 343.56C365.295 344.605 364.455 345.445 363.409 345.445C362.364 345.445 361.523 344.605 361.523 343.56C361.523 342.514 362.364 341.674 363.409 341.674C364.455 341.674 365.295 342.514 365.295 343.56Z" fill="#FDFEFF"/>
    <path d="M371.324 336.183C371.324 337.228 370.484 338.068 369.439 338.068C368.393 338.068 367.553 337.228 367.553 336.183C367.553 335.137 368.393 334.297 369.439 334.297C370.484 334.297 371.324 335.137 371.324 336.183Z" fill="#FDFEFF"/>
    <path d="M376.198 345.876C376.198 346.922 375.358 347.762 374.313 347.762C373.267 347.762 372.427 346.922 372.427 345.876C372.427 344.83 373.267 343.99 374.313 343.99C375.358 343.99 376.198 344.83 376.198 345.876Z" fill="#FDFEFF"/>
    <path d="M369.066 351.866C369.066 352.912 368.225 353.752 367.18 353.752C366.134 353.752 365.294 352.912 365.294 351.866C365.294 350.821 366.134 349.98 367.18 349.98C368.225 349.98 369.066 350.821 369.066 351.866Z" fill="#FDFEFF"/>
    <path d="M362.009 355.638C362.009 356.683 361.169 357.524 360.123 357.524C359.078 357.524 358.237 356.683 358.237 355.638C358.237 354.592 359.078 353.752 360.123 353.752C361.169 353.752 362.009 354.592 362.009 355.638Z" fill="#FDFEFF"/>
    <path d="M370.149 360.179C370.149 361.224 369.308 362.065 368.263 362.065C367.217 362.065 366.377 361.224 366.377 360.179C366.377 359.133 367.217 358.293 368.263 358.293C369.308 358.293 370.149 359.133 370.149 360.179Z" fill="#FDFEFF"/>
    <path d="M348.415 325.747L375.432 330.509C376.59 327.764 378.084 324.142 379.615 320.09C369.159 318.036 357.937 316.375 351.701 315.516C350.581 318.82 349.423 322.331 348.415 325.747Z" fill="#FDFEFF"/>
    <path d="M365.48 317.589C365.032 317.515 364.566 317.44 364.117 317.365L360.477 327.877L361.821 328.12L365.462 317.589H365.48Z" fill="white"/>
    <path d="M353.269 326.608L354.632 326.85C355.509 324.666 356.667 321.38 358.254 316.469C357.787 316.394 357.339 316.338 356.891 316.264C355.584 320.278 354.277 324.031 353.287 326.608H353.269Z" fill="white"/>
    <path d="M374.312 319.102C373.864 319.027 373.415 318.934 372.967 318.859L369.588 329.483L370.932 329.726L374.312 319.102Z" fill="white"/>
    <path d="M371.325 362.886C376.516 364.791 381.09 365.631 383.406 364.567C387.756 362.569 387.214 356.837 383.686 349.984C377.543 351.198 372.67 356.314 371.325 362.886Z" fill="#FDFEFF"/>
    <path d="M358.797 345.425C358.797 338.816 353.849 333.457 347.725 333.457C347.24 333.457 346.754 333.494 346.288 333.569C345.149 338.312 344.57 342.307 345.074 344.417C345.765 347.274 349.742 350.989 354.951 354.481C357.304 352.278 358.797 349.048 358.797 345.425Z" fill="#FDFEFF"/>
    <path d="M351.702 315.533C347.949 326.512 343.972 339.862 345.055 344.418C347.015 352.633 376.161 367.887 383.387 364.564C390.613 361.24 384.358 347.554 373.211 335.605C373.211 335.605 376.292 328.79 379.597 320.108C369.141 318.054 357.919 316.392 351.683 315.533H351.702Z" stroke="black" stroke-width="1.40034" stroke-miterlimit="10"/>
    <path d="M317.851 304.707C317.851 304.707 314.771 327.785 323.434 355.96C332.097 384.135 335.962 400.976 314.285 408.407C292.608 415.82 274.646 416.604 276.887 404.487C279.127 392.35 287.324 363.802 286.11 343.45C284.896 323.098 284.15 301.589 294.886 286.727C305.622 271.865 318.206 287.082 317.851 304.726V304.707Z" fill="#FDFEFF"/>
    <path d="M320.129 342.961C315.349 349.216 312.249 356.311 311.11 363.63C310.363 368.391 310.812 373.096 311.11 377.876C311.409 382.376 311.166 386.745 309.243 391.002C305.938 398.34 298.675 404.483 289.862 407.582C285.885 408.983 281.722 409.543 277.483 409.673C277.857 410.346 278.361 410.924 278.977 411.428C281.18 411.316 283.384 411.111 285.549 410.663C295.146 408.702 303.53 403.325 308.515 396.435C311.036 392.963 312.66 389.098 313.22 385.083C313.948 379.743 312.772 374.385 312.847 369.026C312.977 360.867 315.759 352.782 320.689 345.687C320.483 344.772 320.297 343.876 320.11 342.961H320.129Z" fill="white"/>
    <path d="M300.672 348.415C304.164 344.401 307.188 339.77 307.562 334.785C307.917 330.061 305.956 325.375 302.95 321.379C298.842 315.908 292.961 311.931 286.631 308.365C286.519 309.019 286.426 309.654 286.351 310.326C289.563 312.156 292.644 314.135 295.407 316.431C299.496 319.848 302.931 323.993 304.518 328.624C306.236 333.627 305.172 338.463 302.203 343C298.282 348.975 292.55 354.147 285.679 357.975C285.604 358.74 285.53 359.487 285.455 360.253C291.411 357.172 296.602 353.12 300.691 348.434L300.672 348.415Z" fill="white"/>
    <path d="M317.851 304.707C317.851 304.707 314.771 327.785 323.434 355.96C332.097 384.135 335.962 400.976 314.285 408.407C292.608 415.82 274.646 416.604 276.887 404.487C279.127 392.35 287.324 363.802 286.11 343.45C284.896 323.098 284.15 301.589 294.886 286.727C305.622 271.865 318.206 287.082 317.851 304.726V304.707Z" stroke="#0F110E" stroke-width="1.40034" stroke-linecap="round" stroke-linejoin="round"/>
    <path d="M301.011 288.67C301.011 288.67 293.785 303.065 294.868 324.817C295.969 346.57 296.922 365.353 292.59 382.568" stroke="#0F110E" stroke-width="1.40034" stroke-linecap="round" stroke-linejoin="round"/>
    <path d="M303.512 294.141C303.512 294.141 303.68 325.434 307.059 339.904C310.439 354.374 312.306 372.765 312.306 372.765" stroke="#0F110E" stroke-width="1.40034" stroke-linecap="round" stroke-linejoin="round"/>
    <path d="M337.889 135.375L365.386 142.98C373.88 145.329 378.866 154.128 376.517 162.622L369.683 187.33C367.334 195.824 358.536 200.81 350.042 198.461L322.544 190.856L337.889 135.375Z" fill="white" stroke="#0F110E" stroke-width="1.40034" stroke-linecap="round" stroke-linejoin="round"/>
    <path d="M350.525 162.92C350.525 162.92 363.203 166.486 371.008 156.086" stroke="#0F110E" stroke-width="1.40034" stroke-linecap="round" stroke-linejoin="round"/>
    <path d="M345.298 160.25C345.298 160.25 357.098 161.687 364.343 154.816" stroke="#0F110E" stroke-width="1.40034" stroke-linecap="round" stroke-linejoin="round"/>
    <path d="M336.971 129.424C336.934 129.032 334.973 115.85 342.33 112.807C349.686 109.745 348.734 122.46 344.72 128.285C340.705 134.111 337.345 133.831 336.971 129.424Z" fill="#FDFEFF" stroke="#0F110E" stroke-width="1.40034" stroke-linecap="round" stroke-linejoin="round"/>
    <path d="M340.051 129.518C340.051 129.145 341.19 121.396 343.393 117.961" stroke="#0F110E" stroke-width="1.40034" stroke-linecap="round" stroke-linejoin="round"/>
    <path d="M334.114 136.408C334.114 136.408 330.1 134.037 332.676 129.817C335.253 125.598 345.672 125.71 350.918 130.004C356.165 134.298 334.095 136.408 334.095 136.408H334.114Z" fill="#FDFEFF" stroke="#0F110E" stroke-width="1.40034" stroke-linecap="round" stroke-linejoin="round"/>
    <path d="M324.759 176.531C324.759 176.531 335.346 144.902 376.478 162.659C376.478 162.659 379.932 153.883 372.912 142.848C365.892 131.814 356.108 128.005 340.237 132.094C331.35 134.39 315.871 153.155 324.759 176.513V176.531Z" fill="#FDFEFF" stroke="#0F110E" stroke-width="1.40034" stroke-linecap="round" stroke-linejoin="round"/>
    <path d="M324.759 160.904C324.759 160.904 342.384 142.251 371.045 151.083" stroke="#0F110E" stroke-width="1.40034" stroke-linecap="round" stroke-linejoin="round"/>
    <path d="M358.236 175.074C360.346 175.653 361.709 177.371 361.28 178.921C360.85 180.47 358.796 181.236 356.687 180.657" stroke="#0F110E" stroke-width="0.933563" stroke-linecap="round" stroke-linejoin="round"/>
    <path d="M355.062 170.611C354.147 173.915 351.608 176.1 349.405 175.484C347.201 174.868 346.137 171.693 347.052 168.389" stroke="#0F110E" stroke-width="0.933563" stroke-linecap="round" stroke-linejoin="round"/>
    <path d="M371.007 175.635C370.242 178.435 368.094 180.265 366.227 179.761C364.36 179.238 363.464 176.568 364.248 173.768" stroke="#0F110E" stroke-width="0.933563" stroke-linecap="round" stroke-linejoin="round"/>
    <path d="M368.488 170.762C368.768 170.93 369.029 171.116 369.29 171.322C369.365 171.378 369.421 171.415 369.496 171.471L369.589 171.546C369.739 171.658 369.458 171.452 369.552 171.527C369.682 171.639 369.813 171.732 369.944 171.844C370.448 172.274 370.933 172.722 371.4 173.189C371.736 173.544 372.39 173.562 372.726 173.189C373.062 172.815 373.081 172.237 372.726 171.863C371.736 170.836 370.635 169.94 369.44 169.156C369.029 168.894 368.394 169.062 368.17 169.492C367.927 169.959 368.058 170.481 368.506 170.762H368.488Z" fill="#0F110E"/>
    <path d="M347.631 166.56C347.836 166.504 348.06 166.467 348.284 166.43C348.471 166.392 348.191 166.43 348.303 166.43C348.359 166.43 348.415 166.43 348.453 166.43C348.565 166.43 348.695 166.411 348.807 166.392C349.311 166.355 349.834 166.355 350.338 166.392C350.581 166.392 350.824 166.43 351.067 166.448C351.141 166.448 351.459 166.504 351.235 166.448C351.347 166.448 351.459 166.486 351.552 166.504C351.925 166.56 352.28 166.635 352.654 166.766C353.12 166.915 353.699 166.598 353.811 166.112C353.923 165.608 353.662 165.123 353.158 164.955C352.261 164.656 351.291 164.563 350.338 164.507C349.274 164.451 348.154 164.488 347.127 164.768C346.66 164.899 346.324 165.44 346.473 165.926C346.623 166.411 347.108 166.71 347.631 166.579V166.56Z" fill="#0F110E"/>
    <path d="M322.089 175.987C322.089 175.987 358.031 174.232 387.924 209.147C417.816 244.063 382.322 300.394 382.322 300.394C382.322 300.394 351.645 312.138 320.184 310.663C288.723 309.188 282.319 264.134 289.657 240.459C296.995 216.784 309.504 195.517 309.504 195.517L322.089 176.006V175.987Z" fill="#FDFEFF"/>
    <path d="M297.537 219.51C297.724 219.996 297.929 220.463 298.116 220.948C300.693 226.979 304.221 232.655 308.833 237.341C313.165 241.748 318.412 245.277 324.237 247.349C330.94 249.739 338.203 249.87 345.205 248.992C351.758 248.171 358.517 246.733 364.194 243.185C369.646 239.787 373.492 234.485 376.255 228.771C379.28 222.46 381.054 215.683 383.444 209.129C383.873 207.953 384.34 206.814 384.825 205.675C384.377 205.189 383.91 204.723 383.444 204.256C381.427 208.98 379.933 213.909 378.29 218.763C376.199 224.925 373.716 231.18 369.477 236.221C365.183 241.337 359.339 244.231 352.935 245.799C346.138 247.461 338.838 248.264 331.874 247.33C325.488 246.49 319.532 243.858 314.453 239.937C307.041 234.205 301.813 226.064 298.564 217.27C298.228 218.017 297.892 218.763 297.556 219.548L297.537 219.51Z" fill="white"/>
    <path d="M322.573 298.061C314.601 291.881 303.939 290.779 294.398 293.374C294.697 293.916 295.015 294.457 295.332 294.98C298.768 294.065 302.334 293.654 305.975 293.879C311.165 294.196 316.3 295.82 320.576 298.808C324.833 301.776 327.689 306.108 329.893 310.739C330.546 310.72 331.181 310.701 331.834 310.664C329.631 305.884 326.905 301.422 322.573 298.061Z" fill="white"/>
    <path d="M292.85 244.267C295.987 255.619 297.63 268.951 307.339 276.905C312.1 280.807 318.075 282.805 324.218 282.693C330.995 282.562 337.493 280.228 343.692 277.689C349.853 275.168 356.033 272.386 362.662 271.359C368.935 270.388 375.377 271.322 381.277 273.581C385.31 275.112 389.007 277.259 392.349 279.817C392.573 279.239 392.797 278.66 393.021 278.044C391.173 276.662 389.212 275.411 387.158 274.309C381.669 271.359 375.564 269.511 369.309 269.212C362.755 268.913 356.481 270.668 350.432 273.002C338.146 277.745 324.218 285.157 311.446 277.595C300.132 270.911 298.04 256.964 294.997 245.332C294.082 241.803 292.98 238.274 291.487 234.932C291.188 235.772 290.908 236.631 290.628 237.471C291.505 239.693 292.215 241.971 292.85 244.249V244.267Z" fill="white"/>
    <path d="M348.118 180.936C347.651 181.477 347.165 182 346.736 182.56C343.244 187.004 340.276 192.139 339.323 197.777C338.483 202.8 339.398 208.009 342.498 212.117C345.522 216.131 350.209 218.26 355.231 217.569C366.023 216.112 371.102 206.03 376.461 197.628C375.994 197.236 375.546 196.862 375.079 196.489C372.801 200.092 370.728 203.808 368.096 207.188C364.772 211.463 360.105 215.291 354.54 215.851C349.182 216.392 344.682 213.2 342.385 208.495C337.867 199.196 343.412 188.834 349.854 181.571C349.256 181.347 348.678 181.122 348.099 180.898L348.118 180.936Z" fill="white"/>
    <path d="M322.089 175.987C322.089 175.987 358.031 174.232 387.924 209.147C417.816 244.063 382.322 300.394 382.322 300.394C382.322 300.394 351.645 312.138 320.184 310.663C288.723 309.188 282.319 264.134 289.657 240.459C296.995 216.784 309.504 195.517 309.504 195.517L322.089 176.006V175.987Z" stroke="#0F110E" stroke-width="1.40034" stroke-linecap="round" stroke-linejoin="round"/>
    <path d="M318.076 167.586C318.076 167.586 321.493 148.392 325.992 147.682C330.492 146.973 329.409 152.126 329.615 159.371C329.801 166.615 330.399 177.164 328.252 181.664C326.104 186.164 324.536 186.743 324.723 193.408C324.779 195.201 329.839 210.418 329.839 210.418L313.09 231.74C313.09 231.74 299.33 209.204 301.85 189.487C304.987 164.841 320.279 156.402 320.279 156.402" fill="white"/>
    <path d="M318.076 167.586C318.076 167.586 321.493 148.392 325.992 147.682C330.492 146.973 329.409 152.126 329.615 159.371C329.801 166.615 330.399 177.164 328.252 181.664C326.104 186.164 324.536 186.743 324.723 193.408C324.779 195.201 329.839 210.418 329.839 210.418L313.09 231.74C313.09 231.74 299.33 209.204 301.85 189.487C304.987 164.841 320.279 156.402 320.279 156.402" stroke="#0F110E" stroke-width="1.40034" stroke-linecap="round" stroke-linejoin="round"/>
    <path d="M333.815 202.574C338.128 206.887 335.514 216.484 327.99 224.008C320.465 231.533 310.868 234.147 306.555 229.834C302.242 225.521 304.856 215.924 312.381 208.399C319.905 200.875 329.502 198.261 333.815 202.574Z" fill="#F5CE39" stroke="#0F110E" stroke-width="1.40034" stroke-miterlimit="10"/>
    <path d="M469.107 223.878C454.972 181.924 429.094 159.574 411.412 148.969L410.572 153.506L379.858 183.361L387.588 216.185C380.063 210.435 370.802 206.346 361.355 203.358C349.536 199.624 337.399 198.093 327.933 202.985C313.575 210.397 279.724 240.271 346.455 302.895C417.835 369.887 497.505 308.16 469.107 223.859V223.878Z" fill="white"/>
    <path d="M400.285 171.448C400.285 173.446 398.661 175.071 396.663 175.071C394.665 175.071 393.041 173.446 393.041 171.448C393.041 169.451 394.665 167.826 396.663 167.826C398.661 167.826 400.285 169.451 400.285 171.448Z" fill="#F5CE39"/>
    <path d="M432.362 186.403C432.362 188.401 430.737 190.026 428.739 190.026C426.742 190.026 425.117 188.401 425.117 186.403C425.117 184.406 426.742 182.781 428.739 182.781C430.737 182.781 432.362 184.406 432.362 186.403Z" fill="#F5CE39"/>
    <path d="M401.481 207.858C403.481 207.858 405.103 206.236 405.103 204.236C405.103 202.235 403.481 200.613 401.481 200.613C399.48 200.613 397.858 202.235 397.858 204.236C397.858 206.236 399.48 207.858 401.481 207.858Z" fill="#F5CE39"/>
    <path d="M435.985 224.905C435.985 226.903 434.36 228.528 432.362 228.528C430.365 228.528 428.74 226.903 428.74 224.905C428.74 222.908 430.365 221.283 432.362 221.283C434.36 221.283 435.985 222.908 435.985 224.905Z" fill="#F5CE39"/>
    <path d="M428.741 262.452C428.741 264.45 427.116 266.075 425.118 266.075C423.12 266.075 421.496 264.45 421.496 262.452C421.496 260.454 423.12 258.83 425.118 258.83C427.116 258.83 428.741 260.454 428.741 262.452Z" fill="#F5CE39"/>
    <path d="M467.837 247.665C467.837 249.663 466.213 251.287 464.215 251.287C462.217 251.287 460.593 249.663 460.593 247.665C460.593 245.667 462.217 244.043 464.215 244.043C466.213 244.043 467.837 245.667 467.837 247.665Z" fill="#F5CE39"/>
    <path d="M456.953 286.259C456.953 288.257 455.329 289.881 453.331 289.881C451.333 289.881 449.709 288.257 449.709 286.259C449.709 284.261 451.333 282.637 453.331 282.637C455.329 282.637 456.953 284.261 456.953 286.259Z" fill="#F5CE39"/>
    <path d="M387.569 267.887C389.57 267.887 391.192 266.265 391.192 264.265C391.192 262.264 389.57 260.643 387.569 260.643C385.569 260.643 383.947 262.264 383.947 264.265C383.947 266.265 385.569 267.887 387.569 267.887Z" fill="#F5CE39"/>
    <path d="M404.504 228.958C404.504 230.956 402.88 232.58 400.882 232.58C398.884 232.58 397.26 230.956 397.26 228.958C397.26 226.96 398.884 225.336 400.882 225.336C402.88 225.336 404.504 226.96 404.504 228.958Z" fill="#F5CE39"/>
    <path d="M411.302 301.382C411.302 303.38 409.678 305.004 407.68 305.004C405.682 305.004 404.058 303.38 404.058 301.382C404.058 299.384 405.682 297.76 407.68 297.76C409.678 297.76 411.302 299.384 411.302 301.382Z" fill="#F5CE39"/>
    <path d="M373.212 294.847C373.212 296.845 371.588 298.469 369.59 298.469C367.592 298.469 365.968 296.845 365.968 294.847C365.968 292.849 367.592 291.225 369.59 291.225C371.588 291.225 373.212 292.849 373.212 294.847Z" fill="#F5CE39"/>
    <path d="M350.358 264.265C350.358 266.263 348.733 267.887 346.735 267.887C344.738 267.887 343.113 266.263 343.113 264.265C343.113 262.267 344.738 260.643 346.735 260.643C348.733 260.643 350.358 262.267 350.358 264.265Z" fill="#F5CE39"/>
    <path d="M374.127 231.736C374.127 233.733 372.503 235.358 370.505 235.358C368.507 235.358 366.883 233.733 366.883 231.736C366.883 229.738 368.507 228.113 370.505 228.113C372.503 228.113 374.127 229.738 374.127 231.736Z" fill="#F5CE39"/>
    <path d="M344.794 229.628C344.794 231.626 343.17 233.25 341.172 233.25C339.174 233.25 337.55 231.626 337.55 229.628C337.55 227.63 339.174 226.006 341.172 226.006C343.17 226.006 344.794 227.63 344.794 229.628Z" fill="#F5CE39"/>
    <path d="M322.09 251.269C322.09 253.267 320.466 254.891 318.468 254.891C316.47 254.891 314.846 253.267 314.846 251.269C314.846 249.271 316.47 247.646 318.468 247.646C320.466 247.646 322.09 249.271 322.09 251.269Z" fill="#F5CE39"/>
    <path d="M324.76 221.209C326.76 221.209 328.382 219.588 328.382 217.587C328.382 215.587 326.76 213.965 324.76 213.965C322.759 213.965 321.138 215.587 321.138 217.587C321.138 219.588 322.759 221.209 324.76 221.209Z" fill="#F5CE39"/>
    <path d="M354.522 207.277C356.52 207.277 358.144 205.653 358.144 203.655C358.144 203.468 358.125 203.3 358.088 203.132C355.997 202.367 353.924 201.695 351.87 201.172C351.254 201.825 350.881 202.684 350.881 203.636C350.881 205.634 352.505 207.259 354.503 207.259L354.522 207.277Z" fill="#F5CE39"/>
    <path d="M460.575 209.948C461.62 209.948 462.554 209.499 463.207 208.79C462.274 206.699 461.321 204.682 460.332 202.703C458.427 202.815 456.934 204.384 456.934 206.307C456.934 208.23 458.558 209.929 460.556 209.929L460.575 209.948Z" fill="#F5CE39"/>
    <path d="M446.068 313.648C444.07 313.648 442.445 315.273 442.445 317.271C442.445 318.727 443.304 319.978 444.555 320.557C446.31 319.362 448.009 318.092 449.652 316.729C449.391 314.993 447.897 313.648 446.086 313.648H446.068Z" fill="#F5CE39"/>
    <path d="M387.458 321.193C385.46 321.193 383.836 322.818 383.836 324.816C383.836 325.637 384.116 326.403 384.583 327C385.89 327.467 387.215 327.878 388.522 328.27C389.997 327.822 391.099 326.459 391.099 324.816C391.099 322.818 389.475 321.193 387.477 321.193H387.458Z" fill="#F5CE39"/>
    <path d="M340.051 288.424C338.053 288.424 336.429 290.048 336.429 292.046C336.429 292.438 336.503 292.812 336.615 293.166C337.344 293.932 338.072 294.679 338.819 295.444C339.211 295.575 339.621 295.668 340.051 295.668C342.049 295.668 343.673 294.044 343.673 292.046C343.673 290.048 342.049 288.424 340.051 288.424Z" fill="#F5CE39"/>
    <path d="M411.002 148.221C428.702 158.826 454.954 181.922 469.107 223.877C497.506 308.196 417.836 369.923 346.455 302.912C279.724 240.289 313.557 210.415 327.934 203.002C355.436 188.793 407.679 229.627 407.679 229.627" stroke="#0F110E" stroke-width="1.40034" stroke-linecap="round" stroke-linejoin="round"/>
    <path d="M379.839 183.379L387.569 216.203" stroke="#0F110E" stroke-width="1.40034" stroke-linecap="round" stroke-linejoin="round"/>
    <path d="M441.864 161.258C446.028 161.706 448.94 163.573 449.725 167.494C453.795 168.931 454.635 173.375 454.635 173.375C454.747 173.767 454.766 174.271 454.766 174.832V174.794C454.766 174.794 454.878 173.618 457.903 175.896C460.927 178.174 458.631 184.149 457.903 185.063L459.06 184.167C461.189 185.922 460.666 190.721 460.666 190.721C460.666 190.721 459.284 199.87 453.832 199.048C448.38 198.208 451.2 190.254 451.2 190.254C449.09 191.225 447.503 191.524 447.503 191.524V191.486C446.569 192.308 445.58 192.849 444.553 192.961C438.559 193.634 440.165 185.213 440.165 185.213C439.754 185.325 439.343 185.362 438.933 185.325C432.136 184.765 434.956 171.116 436.319 166.28C436.319 166.28 437.682 160.791 441.845 161.239L441.864 161.258Z" fill="white"/>
    <path d="M436.337 166.299C434.974 171.135 432.155 184.784 438.951 185.344C445.748 185.904 449.706 167.513 449.706 167.513C449.706 167.513 450.359 161.781 437.308 159.018" stroke="black" stroke-width="1.40034" stroke-linecap="round" stroke-linejoin="round"/>
    <path d="M440.184 185.233C440.184 185.233 438.578 193.653 444.571 192.981C450.565 192.309 455.7 177.428 454.617 173.395C454.617 173.395 454.299 168.634 449.706 167.514" stroke="black" stroke-width="1.40034" stroke-linecap="round" stroke-linejoin="round"/>
    <path d="M447.521 191.544C447.521 191.544 463.018 188.09 458.574 176.532C457.976 174.982 454.765 174.217 454.765 174.217" stroke="black" stroke-width="1.40034" stroke-linecap="round" stroke-linejoin="round"/>
    <path d="M451.218 190.257C451.218 190.257 448.399 198.229 453.851 199.051C459.303 199.891 460.684 190.724 460.684 190.724C460.684 190.724 461.73 185.85 459.079 184.17" stroke="black" stroke-width="1.40034" stroke-linecap="round" stroke-linejoin="round"/>
    <path d="M394.7 218.052L393.804 217.567C394.476 216.801 395.036 216.035 395.373 215.307C398.061 209.65 392.254 206.849 392.254 206.849L391.284 207.185C392.142 206.121 392.759 205.169 393.001 204.441C394.42 199.997 388.128 197.794 388.128 197.794L387.045 198.316C387.699 197.495 388.184 196.673 388.427 195.889C389.51 192.584 384.357 187.17 378.195 192.099C375.245 194.451 368.878 198.148 363.295 200.893C369.046 196.393 375.32 188.253 373.639 184.892C371.809 181.27 367.627 181.326 359.225 189.578C350.804 197.831 312.397 227.22 312.397 227.22L332.077 264.263C332.45 263.815 383.815 239.281 392.721 231.663C401.609 224.045 394.719 218.052 394.719 218.052H394.7Z" fill="white"/>
    <path d="M394.701 218.052C394.701 218.052 401.59 224.045 392.703 231.663C383.815 239.281 332.451 263.797 332.058 264.263L312.379 227.22C312.379 227.22 350.804 197.85 359.206 189.578C367.627 181.326 371.81 181.27 373.621 184.892C375.32 188.253 369.028 196.393 363.277 200.893" stroke="black" stroke-width="1.40034" stroke-linecap="round" stroke-linejoin="round"/>
    <path d="M378.494 228.228C378.494 228.228 392.703 220.965 395.392 215.308C398.08 209.65 392.274 206.85 392.274 206.85" stroke="black" stroke-width="1.40034" stroke-linecap="round" stroke-linejoin="round"/>
    <path d="M376.496 220.701C376.496 220.701 391.564 208.882 392.983 204.438C394.402 199.994 388.11 197.791 388.11 197.791" stroke="black" stroke-width="1.40034" stroke-linecap="round" stroke-linejoin="round"/>
    <path d="M372.072 209.351C372.072 209.351 386.542 201.714 388.428 195.87C389.511 192.566 384.357 187.151 378.196 192.08C373.416 195.908 359.581 203.264 354.819 204.384" stroke="black" stroke-width="1.40034" stroke-linecap="round" stroke-linejoin="round"/>
    <path d="M325.991 210.322L223.635 221.712L243.408 219.508L267.419 176.788L278.491 105.875C278.491 105.875 207.634 121.111 161.945 225.259C116.257 329.407 230.469 385.907 348.527 265.682L325.991 210.341V210.322Z" fill="#FDF3BE"/>
    <path d="M300.505 213.158L330.286 282.858C336.354 277.574 342.441 271.879 348.546 265.662L326.01 210.32L300.524 213.158H300.505Z" fill="#FDF3BE"/>
    <path d="M335.159 232.841L334.655 231.59L312.324 240.832L312.866 242.083L335.159 232.841Z" fill="white"/>
    <path d="M305.508 224.866L329.874 219.844L329.351 218.574L304.967 223.597L305.508 224.866Z" fill="white"/>
    <path d="M345.652 258.586L345.129 257.316L325.021 270.554L325.562 271.805L345.652 258.586Z" fill="white"/>
    <path d="M340.236 245.293L318.839 256.066L319.362 257.317L340.74 246.544L340.236 245.293Z" fill="white"/>
    <path d="M160.396 303.641C186.387 347.407 266.543 349.18 348.547 265.664L326.011 210.322L223.655 221.712" stroke="black" stroke-width="1.40034" stroke-linecap="round" stroke-linejoin="round"/>
    <path d="M302.447 217.717L327.243 275.747" stroke="black" stroke-width="1.40034" stroke-linecap="round" stroke-linejoin="round"/>
    <path d="M267.419 176.809L243.427 219.528" stroke="black" stroke-width="1.40034" stroke-linecap="round" stroke-linejoin="round"/>
    <path d="M175.987 239.75C179.385 235.979 182.783 232.188 186.163 228.417C186.966 227.521 185.64 226.195 184.837 227.091C181.439 230.863 178.041 234.653 174.661 238.425C173.858 239.321 175.184 240.646 175.987 239.75Z" fill="white"/>
    <path d="M210.231 181.253C213.106 187.508 216.168 193.669 219.379 199.756C219.94 200.82 221.545 199.868 220.985 198.823C217.774 192.736 214.73 186.556 211.836 180.319C211.332 179.236 209.726 180.17 210.231 181.253Z" fill="white"/>
    <path d="M243.578 167.679C246.621 164.729 249.814 161.91 253.119 159.221C253.511 158.904 253.455 158.232 253.119 157.896C252.727 157.504 252.185 157.578 251.793 157.896C248.488 160.566 245.314 163.385 242.252 166.354C241.393 167.194 242.7 168.52 243.578 167.679Z" fill="white"/>
    <path d="M233.589 137.504C234.391 139.203 235.176 140.883 235.979 142.582C236.184 143.03 236.856 143.18 237.248 142.918C237.696 142.62 237.808 142.116 237.584 141.649C236.781 139.95 235.997 138.269 235.194 136.57C234.989 136.122 234.317 135.973 233.925 136.234C233.477 136.533 233.365 137.037 233.589 137.504Z" fill="white"/>
    <path d="M267.141 141.445C270.8 139.895 274.46 138.364 278.119 136.814C278.586 136.628 278.922 136.198 278.773 135.657C278.661 135.227 278.101 134.817 277.615 135.003C273.956 136.553 270.296 138.084 266.637 139.634C266.17 139.82 265.834 140.25 265.983 140.791C266.095 141.221 266.655 141.632 267.141 141.445Z" fill="white"/>
    <path d="M239.487 198.504C240.402 200.464 241.317 202.425 242.232 204.367C242.437 204.815 243.109 204.964 243.501 204.703C243.949 204.404 244.061 203.9 243.837 203.433C242.923 201.472 242.008 199.512 241.093 197.57C240.887 197.122 240.215 196.973 239.823 197.234C239.375 197.533 239.263 198.037 239.487 198.504Z" fill="white"/>
    <path d="M209.651 250.318C212.564 247.76 215.458 245.184 218.371 242.626C219.267 241.823 217.941 240.516 217.045 241.3C214.132 243.858 211.238 246.435 208.325 248.993C207.429 249.796 208.755 251.103 209.651 250.318Z" fill="white"/>
    <path d="M177.817 269.229C180.226 273.056 182.653 276.865 185.062 280.693C185.696 281.701 187.321 280.767 186.667 279.759C184.259 275.931 181.832 272.123 179.423 268.295C178.788 267.287 177.164 268.22 177.817 269.229Z" fill="white"/>
    <path d="M227.762 283.775C230.246 287.696 232.71 291.599 235.194 295.52C235.829 296.528 237.453 295.594 236.799 294.586C234.316 290.665 231.852 286.763 229.368 282.842C228.733 281.834 227.109 282.767 227.762 283.775Z" fill="white"/>
    <path d="M256.833 237.041C259.298 239.748 261.482 242.698 263.368 245.835C263.984 246.862 265.609 245.928 264.974 244.901C262.995 241.634 260.717 238.553 258.14 235.734C257.337 234.837 256.012 236.163 256.815 237.059L256.833 237.041Z" fill="white"/>
    <path d="M202.22 320.37C204.311 318.279 206.383 316.188 208.475 314.115C208.829 313.76 208.829 313.144 208.475 312.79C208.12 312.435 207.504 312.435 207.149 312.79C205.058 314.881 202.985 316.972 200.894 319.044C200.539 319.399 200.539 320.015 200.894 320.37C201.249 320.725 201.865 320.725 202.22 320.37Z" fill="white"/>
    <path d="M263.686 298.601C267.588 301.234 271.472 303.867 275.374 306.499C276.364 307.172 277.316 305.547 276.308 304.894C272.405 302.261 268.522 299.628 264.619 296.996C263.63 296.324 262.678 297.948 263.686 298.601Z" fill="white"/>
    <path d="M289.919 272.685C293.317 268.521 296.734 264.357 300.132 260.212C300.45 259.82 300.506 259.279 300.132 258.887C299.815 258.551 299.124 258.495 298.807 258.887C295.39 263.05 291.992 267.214 288.593 271.359C288.276 271.751 288.22 272.293 288.593 272.685C288.911 273.021 289.602 273.077 289.919 272.685Z" fill="white"/>
    <path d="M311.372 279.517C313.613 280.637 315.854 281.776 318.094 282.896C318.542 283.12 319.102 283.008 319.364 282.56C319.606 282.149 319.476 281.514 319.028 281.29C316.787 280.17 314.547 279.031 312.306 277.911C311.858 277.687 311.298 277.799 311.036 278.247C310.794 278.658 310.924 279.293 311.372 279.517Z" fill="white"/>
    <path d="M288.929 232.335C290.329 228.955 291.879 225.65 293.559 222.401C294.101 221.337 292.495 220.385 291.954 221.468C290.199 224.866 288.593 228.32 287.137 231.849C286.95 232.316 287.342 232.876 287.79 233.007C288.331 233.156 288.742 232.82 288.948 232.353L288.929 232.335Z" fill="white"/>
    <path d="M276.102 10.5039C264.171 15.7879 256.684 29.2872 257.486 44.0375C258.588 64.3892 275.542 80.2224 275.542 80.2224L278.286 46.5768L280.265 45.6245L276.102 10.5039Z" fill="black"/>
    <path d="M269.697 51.1702C272.255 51.2822 274.57 52.1971 276.437 53.6348L276.736 46.5957C277.203 35.4303 285.586 26.6361 295.389 27.0282L310.139 27.6444C319.941 28.0552 327.597 37.5028 327.13 48.6682L326.196 71.5219C325.73 82.6873 317.346 91.4815 307.544 91.0894L299.011 90.7346L298.507 103.058C298.301 108.099 293.988 112.076 288.947 111.852L283.103 111.609C278.062 111.404 274.085 107.091 274.309 102.049L274.888 88.1393L274.925 87.3551L275.504 73.445C275.504 73.1649 275.56 72.8849 275.597 72.6235C273.637 73.8745 271.284 74.5466 268.782 74.4533C262.303 74.1919 257.262 68.7585 257.523 62.3169C257.785 55.894 263.255 50.8901 269.734 51.1515L269.697 51.1702Z" fill="white" stroke="black" stroke-width="1.40034" stroke-linecap="round" stroke-linejoin="round"/>
    <path d="M274.739 64.6125C274.739 64.6125 275.579 56.7333 267.42 57.2747" stroke="black" stroke-width="0.933563" stroke-linecap="round" stroke-linejoin="round"/>
    <path d="M316.674 5.98524C302.54 2.36301 291.393 8.43117 291.393 8.43117C283.57 7.38558 276.587 9.40208 271.023 13.4351L272.666 17.5054C272.124 17.9535 271.564 18.383 271.042 18.8684C259.559 29.5297 259.185 47.006 262.191 53.4849C264.301 51.9912 267.046 51.0577 269.828 51.1884C272.815 51.3191 275.448 53.765 275.448 53.765C275.84 54.0637 276.139 54.3065 276.568 54.6612L276.288 72.6043C277.558 75.461 278.659 77.2534 281.143 80.2222C286.8 86.9812 299.03 90.7341 299.03 90.7341C299.03 90.7341 302.26 94.0016 313.668 89.7445C325.076 85.4875 326.215 71.5214 326.215 71.5214C326.215 71.5214 324.852 67.0029 313.668 66.4241C302.484 65.8453 284.074 69.4302 284.074 69.4302L281.591 54.4185C286.053 52.3273 291.767 48.7424 294.511 43.4585C295.781 41.0125 296.64 39.0894 297.219 37.5583C308.515 49.8814 338.762 52.234 342.067 35.8032C345.372 19.3725 333.59 10.2983 316.693 5.96657L316.674 5.98524Z" fill="black"/>
    <path d="M303.847 58.0585C303.997 54.6416 302.615 51.8223 300.785 51.7476C298.955 51.6729 297.35 54.3802 297.2 57.7784" stroke="black" stroke-width="1.40034" stroke-linecap="round" stroke-linejoin="round"/>
    <path d="M324.684 58.0044C324.796 55.0917 323.638 52.6831 322.07 52.6084C320.502 52.5524 319.139 54.849 319.008 57.7617" stroke="black" stroke-width="1.40034" stroke-linecap="round" stroke-linejoin="round"/>
    <path d="M310.624 64.5203L316.674 61.1781L311.875 52.1973" stroke="black" stroke-width="1.40034" stroke-linecap="round" stroke-linejoin="round"/>
    <path d="M295.427 50.2363L301.215 48.2012" stroke="black" stroke-width="1.40034" stroke-linecap="round" stroke-linejoin="round"/>
    <path d="M319.867 49.3027L325.301 50.3297" stroke="black" stroke-width="1.40034" stroke-linecap="round" stroke-linejoin="round"/>
    <path d="M316.599 73.0143C316.487 75.8336 314.097 78.0369 311.278 77.9248C308.459 77.8128 306.255 75.4229 306.367 72.6035L316.599 73.033V73.0143Z" fill="white" stroke="black" stroke-width="1.40034" stroke-linecap="round" stroke-linejoin="round"/>
    <path d="M290.666 10.541C290.666 10.541 296.379 1.87755 303.288 1" stroke="black" stroke-width="1.40034" stroke-linecap="round" stroke-linejoin="round"/>
    <path d="M309.562 96.4487L268.819 89.6818C264.201 88.9148 259.835 92.0369 259.068 96.6552L257.612 105.423C256.845 110.041 259.967 114.407 264.585 115.174L305.328 121.94C309.946 122.708 314.312 119.585 315.079 114.967L316.535 106.2C317.302 101.581 314.18 97.2157 309.562 96.4487Z" fill="#FDF3BE"/>
    <path d="M263.032 114.783C263.443 114.933 263.891 115.045 264.339 115.138L268.746 89.6891C268.298 89.6144 267.831 89.5957 267.383 89.5957L263.014 114.765L263.032 114.783Z" fill="white"/>
    <path d="M289.229 93.0873L287.903 92.8633L283.982 118.424L285.308 118.648L289.229 93.0873Z" fill="white"/>
    <path d="M278.268 91.2562L276.924 91.0508L272.518 116.518L273.862 116.742L278.268 91.2562Z" fill="white"/>
    <path d="M310.513 96.7295C310.196 96.6362 309.878 96.5241 309.561 96.4681L309.206 96.4121L305.565 121.992C306.014 122.048 306.48 122.085 306.91 122.085L310.532 96.7482L310.513 96.7295Z" fill="white"/>
    <path d="M299.142 94.7319L297.798 94.5078L294.231 120.125L295.557 120.349L299.142 94.7319Z" fill="white"/>
    <path d="M305.321 121.969L264.562 115.191" stroke="black" stroke-width="1.40034" stroke-linecap="round" stroke-linejoin="round"/>
    <path d="M125.294 164.576C125.294 164.576 89.688 156.473 96.391 143.627C103.094 130.781 114.427 145.531 114.427 145.531C114.427 145.531 109.255 128.242 119.599 127.551C132.221 126.711 125.294 164.557 125.294 164.557V164.576Z" fill="black"/>
    <path d="M566.758 120.588C566.758 120.588 558.393 96.6323 568.438 95.8295C578.483 95.0453 573.965 107.163 573.965 107.163C573.965 107.163 582.236 97.7339 586.456 103.578C591.609 110.71 566.758 120.588 566.758 120.588Z" fill="black"/>
    <path d="M522.077 357.468C522.077 357.468 502.678 320.181 517.727 316.26C532.776 312.339 529.396 335.118 529.396 335.118C529.396 335.118 539.423 318.557 547.414 326.287C557.161 335.735 522.077 357.468 522.077 357.468Z" stroke="black" stroke-width="1.40034" stroke-linecap="round" stroke-linejoin="round"/>
    <path d="M472.17 108.137L479.209 115.176C480.068 116.035 481.375 114.709 480.535 113.85L473.496 106.811C472.637 105.953 471.33 107.278 472.17 108.137Z" fill="black"/>
    <path d="M582.405 255.787C588.043 249.681 593.682 243.557 599.321 237.452C600.142 236.574 598.817 235.248 597.995 236.126C592.356 242.232 586.718 248.356 581.079 254.461C580.257 255.339 581.583 256.664 582.405 255.787Z" fill="black"/>
    <path d="M25.329 337.999C28.8766 332.939 32.4241 327.879 35.9903 322.801C36.6812 321.811 35.0568 320.878 34.3846 321.867C30.8371 326.927 27.2895 331.987 23.7233 337.066C23.0325 338.055 24.6569 338.989 25.329 337.999Z" fill="black"/>
    <path d="M136.796 51.5616C142.939 58.6941 149.101 65.8451 155.243 72.9776C156.028 73.8925 157.353 72.5668 156.569 71.6519C150.426 64.5195 144.265 57.3684 138.122 50.236C137.338 49.3211 136.012 50.6467 136.796 51.5616Z" fill="black"/>
    <path d="M113.513 243.053C116.165 239.468 118.835 235.901 121.486 232.317C121.785 231.906 121.561 231.271 121.15 231.047C120.683 230.767 120.179 230.972 119.88 231.383C117.229 234.968 114.559 238.534 111.908 242.119C111.609 242.53 111.833 243.165 112.244 243.389C112.711 243.669 113.215 243.463 113.513 243.053Z" fill="black"/>
    <path d="M606.902 490.934C611.793 497.058 616.2 503.593 620.065 510.427C620.662 511.472 622.268 510.539 621.671 509.493C617.731 502.529 613.231 495.882 608.227 489.627C607.48 488.693 606.155 490.019 606.902 490.953V490.934Z" fill="black"/>
    <path d="M561.718 642.005C564.519 637.748 567.319 633.491 570.12 629.215C570.774 628.207 569.168 627.273 568.514 628.281C565.714 632.538 562.913 636.795 560.112 641.071C559.459 642.079 561.065 643.013 561.718 642.005Z" fill="black"/>
    <path d="M524.057 216.819C524.057 218.238 522.899 219.395 521.48 219.395C520.061 219.395 518.903 218.238 518.903 216.819C518.903 215.4 520.061 214.242 521.48 214.242C522.899 214.242 524.057 215.4 524.057 216.819Z" fill="black"/>
    <path d="M120.513 347.014C120.513 350.729 117.488 353.754 113.773 353.754C110.057 353.754 107.032 350.729 107.032 347.014C107.032 343.298 110.057 340.273 113.773 340.273C117.488 340.273 120.513 343.298 120.513 347.014Z" fill="black"/>
    <path d="M50.6833 225.035C50.6833 227.574 48.6295 229.628 46.0902 229.628C43.5509 229.628 41.4971 227.574 41.4971 225.035C41.4971 222.495 43.5509 220.441 46.0902 220.441C48.6295 220.441 50.6833 222.495 50.6833 225.035Z" fill="black"/>
    <path d="M209.558 33.9722C209.558 35.3165 208.475 36.3994 207.13 36.3994C205.786 36.3994 204.703 35.3165 204.703 33.9722C204.703 32.6279 205.786 31.5449 207.13 31.5449C208.475 31.5449 209.558 32.6279 209.558 33.9722Z" fill="black"/>
    <path d="M499.989 40.9751C502.516 40.9751 504.564 38.927 504.564 36.4006C504.564 33.8742 502.516 31.8262 499.989 31.8262C497.463 31.8262 495.415 33.8742 495.415 36.4006C495.415 38.927 497.463 40.9751 499.989 40.9751Z" fill="black"/>
    <path d="M593.625 372.109C593.625 373.883 592.188 375.339 590.395 375.339C588.603 375.339 587.165 373.901 587.165 372.109C587.165 370.317 588.603 368.879 590.395 368.879C592.188 368.879 593.625 370.317 593.625 372.109Z" fill="black"/>
</svg>
