<svg width="356" height="519" viewBox="0 0 356 519" fill="none" xmlns="http://www.w3.org/2000/svg">
    <path d="M238.113 36.5645V518.001" stroke="#808080" stroke-width="0.868675" stroke-linecap="round" stroke-linejoin="round"/>
    <path d="M209.013 42.5059L238.113 69.9734L266.311 44.8339" stroke="#808080" stroke-width="0.868675" stroke-linecap="round" stroke-linejoin="round"/>
    <path d="M213.512 87.2251L238.112 110.94L264.52 85.6094" stroke="#808080" stroke-width="0.868675" stroke-linecap="round" stroke-linejoin="round"/>
    <path d="M206.685 120.27L238.113 151.716L269.907 124.404" stroke="#808080" stroke-width="0.868675" stroke-linecap="round" stroke-linejoin="round"/>
    <path d="M213.512 169.143L238.112 192.128L260.021 170.758" stroke="#808080" stroke-width="0.868675" stroke-linecap="round" stroke-linejoin="round"/>
    <path d="M204.878 202.012L238.113 233.076L269.907 200.031" stroke="#808080" stroke-width="0.868675" stroke-linecap="round" stroke-linejoin="round"/>
    <path d="M213.512 250.676L238.286 274.217L262.904 251.944" stroke="#808080" stroke-width="0.868675" stroke-linecap="round" stroke-linejoin="round"/>
    <path d="M201.281 282.467L238.113 314.99L272.061 285.351" stroke="#808080" stroke-width="0.868675" stroke-linecap="round" stroke-linejoin="round"/>
    <path d="M327.881 267.266C328.802 266.311 329.688 265.338 330.557 264.347C330.696 264.226 330.765 264.156 330.765 264.156H330.748C346.193 246.731 355.418 224.84 355.418 201.056C355.418 170.6 340.321 143.237 316.363 124.421C316.345 124.404 316.328 124.387 316.31 124.369C292.735 101.766 301.89 87.7632 305.105 59.6008C308.788 27.3903 275.24 1 238.39 1C201.541 1 171.676 27.234 171.676 59.6008C171.676 65.5425 172.684 71.2758 174.56 76.6616C174.56 76.6616 186.617 102.652 159.254 125.325C159.185 125.377 159.132 125.429 159.08 125.481C135.904 144.262 121.38 171.156 121.38 201.038C121.38 224.041 129.997 245.289 144.521 262.419L144.556 262.471C144.556 262.471 144.678 262.61 144.73 262.662C146.502 264.73 159.063 279.619 160.019 289.8C161.044 300.762 167.767 328.838 177.496 336.447C177.496 336.447 177.514 336.447 177.531 336.465C191.03 353.213 213.251 364.158 238.39 364.158C272.807 364.158 301.769 343.657 310.334 315.808C311.029 314.47 311.533 312.576 311.793 310.04C311.793 309.988 311.793 309.935 311.793 309.901C312.228 307.712 312.523 305.488 312.714 303.229C315.98 283.84 323.659 272.304 327.864 267.231L327.881 267.266Z" stroke="#808080" stroke-width="0.868675" stroke-linecap="round" stroke-linejoin="round"/>
    <path d="M95.6836 371.524C95.6836 371.524 37.6214 369.596 18.2152 349.234C-1.19095 328.872 -1.50372 310.734 4.26428 298.868C10.0323 287.002 23.184 279.618 17.2596 267.752C11.3179 255.886 3.15234 249.475 6.83552 234.239C10.5187 219.002 26.8847 213.234 28.483 205.85C30.0814 198.467 26.0855 186.601 24.3134 170.721C22.5413 154.842 28.4829 145.547 37.7083 140.092C46.9336 134.636 53.1881 129.824 55.7593 121.172C58.3306 112.503 60.0854 97.0402 70.9959 85.0525C81.9065 73.0648 97.4558 71.449 107.081 75.636C116.706 79.8057 124.888 87.8322 131.299 104.181C137.71 120.547 134.34 125.029 142.679 132.083C151.018 139.136 161.581 142.246 166.654 158.299C170.98 172.007 164.483 183.873 163.84 192.23C163.197 200.586 159.983 203.783 170.581 214.85C181.161 225.917 187.416 232.97 183.246 249.649C179.076 266.328 167.853 269.055 174.75 280.122C181.648 291.189 188.059 293.587 190.473 312.367C192.871 331.131 185.174 347.166 162.085 360.492C138.996 373.8 95.6836 371.559 95.6836 371.559V371.524Z" stroke="#808080" stroke-width="0.868675" stroke-linecap="round" stroke-linejoin="round"/>
    <path d="M95.6836 85.0352V489.247" stroke="#808080" stroke-width="0.868675" stroke-linecap="round" stroke-linejoin="round"/>
    <path d="M18.2158 296.141L95.6842 368.553L170.738 299.702" stroke="#808080" stroke-width="0.868675" stroke-linecap="round" stroke-linejoin="round"/>
    <path d="M15.3311 240.215L95.6835 316.919L178.92 237.922" stroke="#808080" stroke-width="0.868675" stroke-linecap="round" stroke-linejoin="round"/>
    <path d="M35.293 208.092L95.6833 265.337L154.388 208.092" stroke="#808080" stroke-width="0.868675" stroke-linecap="round" stroke-linejoin="round"/>
    <path d="M37.708 155.399L95.6833 210.733L156.786 152.758" stroke="#808080" stroke-width="0.868675" stroke-linecap="round" stroke-linejoin="round"/>
    <path d="M56.9404 127.494C56.9404 127.494 95.6658 164.309 95.6658 164.065C95.6658 163.822 131.264 129.666 131.264 129.666" stroke="#808080" stroke-width="0.868675" stroke-linecap="round" stroke-linejoin="round"/>
    <path d="M74.749 88.5098L95.684 109.445L114.204 90.195" stroke="#808080" stroke-width="0.868675" stroke-linecap="round" stroke-linejoin="round"/>
</svg>
