<svg width="714" height="800" viewBox="0 0 714 800" fill="none" xmlns="http://www.w3.org/2000/svg">
    <path d="M36.2793 766.076H713" stroke="black" stroke-width="1.89733" stroke-linecap="round" stroke-linejoin="round"/>
    <path d="M624.413 629.242C620.353 621.88 619.044 612.982 621.472 604.254C624.641 592.794 633.426 584.408 644.032 581.201C641.319 575.965 640.484 569.741 642.191 563.613C645.758 550.692 659.135 543.122 672.055 546.689C684.976 550.256 692.547 563.632 688.98 576.553C687.291 582.681 683.363 587.595 678.355 590.688C685.792 598.884 689.036 610.591 685.868 622.051C683.458 630.798 677.766 637.742 670.5 641.973C680.821 653.148 685.318 669.237 680.954 684.966C674.256 709.157 649.23 723.33 625.039 716.652C600.848 709.954 586.675 684.928 593.354 660.737C597.699 645.009 609.823 633.511 624.432 629.242H624.413Z" stroke="#E5E0B6" stroke-width="1.423" stroke-linecap="round" stroke-linejoin="round"/>
    <path d="M612.231 765.259L672.643 546.857" stroke="black" stroke-width="1.423" stroke-miterlimit="10"/>
    <path d="M682.527 674.986L631.128 696.881" stroke="black" stroke-width="1.423" stroke-miterlimit="10"/>
    <path d="M638.546 670.111L618.662 631.367" stroke="black" stroke-width="1.423" stroke-miterlimit="10"/>
    <path d="M686.834 609.395L650.196 627.988" stroke="black" stroke-width="1.423" stroke-miterlimit="10"/>
    <path d="M660.726 589.928L647.331 554.068" stroke="black" stroke-width="1.423" stroke-miterlimit="10"/>
    <path d="M66.7696 618.029C58.4973 612.565 52.2741 604.027 49.9973 593.592C47.0185 579.912 51.591 566.365 60.888 557.201C55.196 553.216 50.9079 547.202 49.3142 539.878C45.9559 524.453 55.7462 509.217 71.1715 505.859C86.5968 502.501 101.832 512.291 105.191 527.716C106.784 535.04 105.38 542.307 101.87 548.283C114.127 552.742 123.917 563.177 126.896 576.857C129.173 587.293 127.048 597.652 121.792 606.057C138.678 612.034 152.168 626.34 156.267 645.142C162.547 674.02 144.238 702.536 115.36 708.817C86.4829 715.097 57.966 696.788 51.6858 667.91C47.5876 649.127 53.9247 630.495 66.8076 618.029H66.7696Z" stroke="#E5E0B6" stroke-width="1.423" stroke-linecap="round" stroke-linejoin="round"/>
    <path d="M128.642 766.495L71.874 505.707" stroke="black" stroke-width="1.423" stroke-miterlimit="10"/>
    <path d="M152.415 633.834L110.863 684.853" stroke="black" stroke-width="1.423" stroke-miterlimit="10"/>
    <path d="M103.899 652.865L61.9492 623.381" stroke="black" stroke-width="1.423" stroke-miterlimit="10"/>
    <path d="M120.956 563.123L92.9512 602.588" stroke="black" stroke-width="1.423" stroke-miterlimit="10"/>
    <path d="M83.0671 557.144L49.4463 527.109" stroke="black" stroke-width="1.423" stroke-miterlimit="10"/>
    <path d="M44.8548 692.06C46.145 687.487 45.7466 682.44 43.299 677.944C40.0925 672.043 34.2108 668.552 27.9685 668.134C28.7844 664.909 28.4619 661.38 26.7543 658.23C23.1494 651.571 14.839 649.104 8.17939 652.709C1.51976 656.314 -0.946715 664.624 2.65821 671.284C4.36581 674.433 7.13585 676.634 10.3044 677.716C7.24969 683.161 6.9462 690.011 10.1527 695.911C12.6002 700.408 16.6036 703.52 21.1382 704.924C16.8692 712.38 16.4517 721.791 20.8346 729.892C27.5891 742.339 43.1472 746.968 55.5937 740.233C68.0402 733.478 72.6697 717.92 65.9341 705.474C61.5513 697.372 53.4308 692.591 44.8548 692.079V692.06Z" stroke="#E5E0B6" stroke-width="1.423" stroke-miterlimit="10"/>
    <path d="M68.7988 765.312L7.89453 652.857" stroke="black" stroke-width="1.423" stroke-linecap="round" stroke-linejoin="round"/>
    <path d="M18.6895 724.58L49.7298 730.101" stroke="black" stroke-width="1.423" stroke-linecap="round" stroke-linejoin="round"/>
    <path d="M42.2734 716.308L48.2879 692.496" stroke="black" stroke-width="1.423" stroke-linecap="round" stroke-linejoin="round"/>
    <path d="M8.00781 689.061L30.5291 694.639" stroke="black" stroke-width="1.423" stroke-linecap="round" stroke-linejoin="round"/>
    <path d="M19.9033 675.04L22.7303 653.619" stroke="black" stroke-width="1.423" stroke-linecap="round" stroke-linejoin="round"/>
    <path d="M617.527 515.706C617.527 515.706 598.288 492.046 606.94 487.056C613.163 483.47 619.993 497.985 619.993 497.985C619.993 497.985 626.368 487.701 632.098 490.566C639.005 494.019 617.527 515.706 617.527 515.706Z" fill="black"/>
    <path d="M113.122 458.329C113.122 458.329 70.0336 443.094 77.2244 429.964C82.3852 420.535 102.44 433.74 102.44 433.74C102.44 433.74 102.554 415.601 112.135 414.805C123.652 413.837 113.122 458.329 113.122 458.329Z" fill="black"/>
    <path d="M656.156 315.308C656.156 315.308 638.397 273.206 652.93 269.677C663.385 267.135 667.122 290.851 667.122 290.851C667.122 290.851 680.593 278.708 687.652 285.254C696.133 293.128 656.156 315.308 656.156 315.308Z" stroke="black" stroke-width="1.423" stroke-linecap="round" stroke-linejoin="round"/>
    <path d="M610.013 360.998C610.013 363.522 607.964 365.571 605.441 365.571C602.917 365.571 600.868 363.522 600.868 360.998C600.868 358.475 602.917 356.426 605.441 356.426C607.964 356.426 610.013 358.475 610.013 360.998Z" fill="black"/>
    <path d="M674.295 410.388C674.295 411.298 673.555 412.019 672.663 412.019C671.771 412.019 671.031 411.279 671.031 410.388C671.031 409.496 671.771 408.756 672.663 408.756C673.555 408.756 674.295 409.496 674.295 410.388Z" fill="black"/>
    <path d="M385.957 550.428C385.957 552.78 384.06 554.678 381.707 554.678C379.354 554.678 377.457 552.78 377.457 550.428C377.457 548.075 379.354 546.178 381.707 546.178C384.06 546.178 385.957 548.075 385.957 550.428Z" fill="black"/>
    <path d="M61.1146 378.437C61.1146 380.106 59.7674 381.453 58.0977 381.453C56.4281 381.453 55.0811 380.106 55.0811 378.437C55.0811 376.767 56.4281 375.42 58.0977 375.42C59.7674 375.42 61.1146 376.767 61.1146 378.437Z" fill="black"/>
    <path d="M311.145 99.2625C312.78 99.2625 314.105 97.9373 314.105 96.3026C314.105 94.6679 312.78 93.3428 311.145 93.3428C309.511 93.3428 308.186 94.6679 308.186 96.3026C308.186 97.9373 309.511 99.2625 311.145 99.2625Z" fill="black"/>
    <path d="M395.386 128.689C395.386 130.036 394.305 131.118 392.958 131.118C391.611 131.118 390.529 130.036 390.529 128.689C390.529 127.342 391.611 126.261 392.958 126.261C394.305 126.261 395.386 127.342 395.386 128.689Z" fill="black"/>
    <path d="M657.37 81.1042C659.225 81.1042 660.728 79.6007 660.728 77.746C660.728 75.8912 659.225 74.3877 657.37 74.3877C655.515 74.3877 654.012 75.8912 654.012 77.746C654.012 79.6007 655.515 81.1042 657.37 81.1042Z" fill="black"/>
    <path d="M36.279 229.474C36.279 231.618 34.5335 233.364 32.3895 233.364C30.2455 233.364 28.5 231.618 28.5 229.474C28.5 227.33 30.2455 225.585 32.3895 225.585C34.5335 225.585 36.279 227.33 36.279 229.474Z" fill="black"/>
    <path d="M334.75 634.155C337.918 637.134 341.106 640.094 344.274 643.072C345.166 643.907 346.513 642.56 345.622 641.725C342.453 638.746 339.266 635.787 336.097 632.808C335.205 631.973 333.858 633.32 334.75 634.155Z" fill="black"/>
    <path d="M697.043 529.291C699.206 527.64 701.369 525.971 703.551 524.32C703.95 524.016 704.177 523.504 703.893 523.03C703.665 522.631 703.001 522.385 702.602 522.688C700.44 524.339 698.277 526.009 696.095 527.659C695.696 527.963 695.469 528.475 695.753 528.95C695.981 529.348 696.645 529.595 697.043 529.291Z" fill="black"/>
    <path d="M689.398 719.175L695.128 724.905C695.488 725.266 696.114 725.285 696.475 724.905C696.835 724.526 696.854 723.938 696.475 723.558L690.745 717.828C690.384 717.468 689.758 717.449 689.398 717.828C689.037 718.208 689.018 718.796 689.398 719.175Z" fill="black"/>
    <path d="M134.902 512.632C138.184 507.717 141.447 502.803 144.73 497.889C145.413 496.865 143.762 495.916 143.098 496.941C139.816 501.855 136.552 506.769 133.27 511.683C132.587 512.707 134.238 513.656 134.902 512.632Z" fill="black"/>
    <path d="M46.6385 458.523C49.3517 462.09 52.0648 465.638 54.778 469.205C55.0816 469.603 55.5938 469.831 56.0682 469.546C56.4666 469.319 56.7133 468.655 56.4097 468.256C53.6965 464.689 50.9834 461.141 48.2702 457.574C47.9666 457.176 47.4543 456.948 46.98 457.233C46.5816 457.46 46.3349 458.124 46.6385 458.523Z" fill="black"/>
    <path d="M327.273 187.431C330.233 189.936 333.174 192.459 336.134 194.964C336.532 195.286 337.101 195.343 337.481 194.964C337.822 194.622 337.879 193.958 337.481 193.616C334.521 191.112 331.58 188.588 328.62 186.084C328.222 185.761 327.652 185.705 327.273 186.084C326.931 186.426 326.875 187.09 327.273 187.431Z" fill="black"/>
    <path d="M678.564 223.592C680.727 220.575 682.89 217.558 685.053 214.541C685.356 214.124 685.129 213.479 684.711 213.251C684.237 212.967 683.706 213.175 683.421 213.593C681.258 216.609 679.095 219.626 676.932 222.643C676.629 223.06 676.856 223.705 677.274 223.933C677.748 224.218 678.279 224.009 678.564 223.592Z" fill="black"/>
    <path d="M570.872 60.1572C572.997 62.7945 575.122 65.4508 577.247 68.0881C577.569 68.4865 578.252 68.4296 578.594 68.0881C578.992 67.6896 578.916 67.1394 578.594 66.741C576.469 64.1037 574.344 61.4474 572.219 58.8101C571.896 58.4117 571.213 58.4686 570.872 58.8101C570.473 59.2086 570.549 59.7588 570.872 60.1572Z" fill="black"/>
    <path d="M431.985 662.177L431.853 724.694L478.299 726.231L480.291 660.545L431.985 662.177Z" fill="white" stroke="black" stroke-width="1.423" stroke-miterlimit="10"/>
    <path d="M366.453 797.724L488.091 796.605L481.109 713.824L415.518 721.281L414.987 753.801L366.453 797.724Z" fill="white"/>
    <path d="M487.255 786.794L487.274 713.102L415.517 721.279L414.985 753.799L375.9 789.166L487.255 786.794Z" fill="black"/>
    <path d="M484.713 751.788C469.287 753.192 457.922 766.834 459.326 782.259C459.497 784.043 459.838 785.769 460.313 787.439L487.995 786.851L487.388 751.693C486.515 751.693 485.623 751.712 484.731 751.807L484.713 751.788Z" fill="white"/>
    <path d="M366.453 797.723L488.091 796.603L487.275 713.102L415.518 721.279L414.987 753.799L366.453 797.723Z" stroke="black" stroke-width="1.423" stroke-linecap="round" stroke-linejoin="round"/>
    <path d="M487.276 786.982L375.77 789.297" stroke="black" stroke-width="1.423" stroke-linecap="round" stroke-linejoin="round"/>
    <path d="M387.36 766.225L393.944 779.24" stroke="black" stroke-width="1.423" stroke-miterlimit="10" stroke-linecap="round"/>
    <path d="M399.939 758.58L406.333 771.216" stroke="black" stroke-width="1.423" stroke-miterlimit="10" stroke-linecap="round"/>
    <path d="M409.56 755.242C409.56 755.242 372.752 742.264 378.216 731.734C387.001 714.81 409.56 755.242 409.56 755.242Z" stroke="black" stroke-width="1.423" stroke-miterlimit="10" stroke-linecap="round"/>
    <path d="M399.846 720.805L410.566 755.848" stroke="black" stroke-width="1.423" stroke-miterlimit="10" stroke-linecap="round"/>
    <path d="M414.776 382.016L421.474 691.831L488.032 689.933L494.028 385.279L414.776 382.016Z" fill="black"/>
    <path d="M424.49 678.775L484.313 676.309" stroke="white" stroke-width="1.423" stroke-linecap="round" stroke-linejoin="round"/>
    <path d="M569.389 663.162L575.347 725.869L528.919 727.406L522.089 661.568L569.389 663.162Z" fill="white" stroke="black" stroke-width="1.423" stroke-miterlimit="10"/>
    <path d="M640.766 798.896L519.128 797.776L526.11 714.977L591.701 722.452L592.232 754.972L640.766 798.896Z" fill="white"/>
    <path d="M519.943 787.968V714.275L591.7 722.453L592.232 754.973L631.317 790.339L519.943 787.968Z" fill="black"/>
    <path d="M522.486 752.962C537.912 754.366 549.277 768.008 547.873 783.433C547.702 785.217 547.36 786.943 546.886 788.613L519.204 788.025L519.811 752.867C520.684 752.867 521.576 752.886 522.467 752.981L522.486 752.962Z" fill="white"/>
    <path d="M640.766 798.896L519.128 797.777L519.944 714.275L591.701 722.453L592.232 754.973L640.766 798.896Z" stroke="black" stroke-width="1.423" stroke-linecap="round" stroke-linejoin="round"/>
    <path d="M519.943 788.139L631.449 790.453" stroke="black" stroke-width="1.423" stroke-linecap="round" stroke-linejoin="round"/>
    <path d="M619.858 767.4L613.274 780.416" stroke="black" stroke-width="1.423" stroke-miterlimit="10" stroke-linecap="round"/>
    <path d="M607.279 759.756L600.885 772.392" stroke="black" stroke-width="1.423" stroke-miterlimit="10" stroke-linecap="round"/>
    <path d="M597.661 756.418C597.661 756.418 634.469 743.44 629.005 732.91C620.22 715.985 597.661 756.418 597.661 756.418Z" stroke="black" stroke-width="1.423" stroke-miterlimit="10" stroke-linecap="round"/>
    <path d="M607.375 721.961L596.655 757.024" stroke="black" stroke-width="1.423" stroke-miterlimit="10" stroke-linecap="round"/>
    <path d="M475.416 375.982L519.13 689.421L585.082 691.641L563.832 377.102L475.416 375.982Z" fill="black"/>
    <path d="M522.09 674.453L579.94 675.686" stroke="white" stroke-width="1.423" stroke-linecap="round" stroke-linejoin="round"/>
    <path d="M475.416 375.982L519.13 689.421" stroke="white" stroke-width="1.423" stroke-linecap="round" stroke-linejoin="round"/>
    <path d="M367.743 488.717L363.379 489.741C366.566 490.861 367.743 488.717 367.743 488.717Z" fill="white"/>
    <path d="M378.823 469.648L380.454 455.722L401.211 412.026L367.723 383.699L354.821 415.081L354.859 415.138C346.985 406.031 339.111 396.639 339.111 396.639L316.571 417.51C316.571 417.51 332.338 433.371 333.609 438.968C334.235 441.701 334.937 445.173 335.772 448.55C330.327 453.407 329.549 459.251 331.162 464.393C332.262 467.884 334.52 470.161 337.366 470.749L337.043 470.901C337.043 470.901 333.666 476.441 337.916 481.279C338.808 482.303 340.003 482.721 341.312 482.759H341.274C341.274 482.759 339.377 488.906 344.215 490.823C344.462 490.917 344.709 490.974 344.974 491.031C344.974 491.031 344.045 494.788 348.769 496.059C353.076 497.216 360.305 495.205 363.17 490.045C363.454 489.532 363.701 488.982 363.891 488.413C364.005 488.09 363.891 489.893 364.422 489.988C365.541 490.196 367.723 489.153 368.122 488.679C368.862 489.475 369.943 489.874 371.518 489.627C373.776 489.286 375.066 487.901 375.806 486.003L375.711 486.231C375.711 486.231 378.272 468.965 377.381 467.542C377.381 467.466 377.608 472.722 378.766 469.61L378.823 469.648Z" fill="white"/>
    <path d="M336.057 457.769C336.057 457.769 339.871 458.206 347.08 456.005C354.29 453.804 355.163 458.642 355.163 460.558C355.163 464.524 346.644 468.793 341.787 470.406C336.93 472.018 332.831 469.533 331.2 464.372C329.587 459.23 330.365 453.367 335.81 448.529" stroke="black" stroke-width="1.423" stroke-linecap="round" stroke-linejoin="round"/>
    <path d="M337.08 470.9C337.08 470.9 333.703 476.44 337.953 481.278C342.203 486.117 352.657 477.939 355.143 476.08C357.647 474.22 362.352 469.667 361.764 465.986C361.176 462.305 356.262 460.18 354.706 462.172" stroke="black" stroke-width="1.423" stroke-linecap="round" stroke-linejoin="round"/>
    <path d="M341.33 482.778C341.33 482.778 339.433 488.906 344.271 490.823C349.128 492.739 358.634 486.554 361.803 483.328C364.99 480.103 365.256 469.933 357.913 473.614" stroke="black" stroke-width="1.423" stroke-linecap="round" stroke-linejoin="round"/>
    <path d="M345.031 491.047C345.031 491.047 344.101 494.804 348.826 496.075C353.55 497.346 361.823 494.804 363.948 488.429C366.092 482.054 363.227 481.029 363.227 481.029" stroke="black" stroke-width="1.423" stroke-linecap="round" stroke-linejoin="round"/>
    <path d="M367.171 464.829C366.963 468.131 366.906 471.793 366.906 474.828C366.906 480.558 364.971 490.69 371.573 489.685C377.834 488.736 376.62 479.97 377.208 473.652C377.796 467.334 377.208 450.258 377.208 450.258C377.208 450.258 375.045 435.686 362.542 422.898" stroke="black" stroke-width="1.423" stroke-linecap="round" stroke-linejoin="round"/>
    <path d="M367.742 488.715C367.742 488.715 366.565 490.859 363.378 489.739" stroke="black" stroke-width="1.423" stroke-linecap="round" stroke-linejoin="round"/>
    <path d="M339.149 396.639L316.608 417.509C316.608 417.509 332.375 433.371 333.647 438.968C334.918 444.546 336.53 453.255 338.864 457.714" stroke="black" stroke-width="1.423" stroke-linecap="round" stroke-linejoin="round"/>
    <path d="M354.84 415.099L367.742 383.717L402.804 409.103L380.643 455.36C380.643 455.36 380.871 467.901 377.266 472.853" stroke="black" stroke-width="1.423" stroke-linecap="round" stroke-linejoin="round"/>
    <path d="M386.43 244.911C367.912 299.839 353.625 375.106 348.142 406.223C349.716 407.987 353.132 411.915 357.704 417.189C361.613 421.705 366.622 427.492 369.05 430.281L401.931 442.917L464.144 311.792L471.658 174.653C471.658 174.653 408.856 178.448 386.449 244.893L386.43 244.911Z" fill="#E5E6E7"/>
    <path d="M368.063 429.504L401.912 442.937" stroke="black" stroke-width="1.423" stroke-linecap="round" stroke-linejoin="round"/>
    <path d="M361.708 417.912L401.912 433.167" stroke="black" stroke-width="1.423" stroke-linecap="round" stroke-linejoin="round"/>
    <path d="M244.719 214.309C244.719 214.309 298.072 217.249 320.593 273.505C343.114 329.761 368.083 424.798 368.083 424.798L324.521 443.468L281.413 355.755L244.738 214.309H244.719Z" fill="#DCAA42"/>
    <path d="M368.064 424.78L324.502 443.449L281.375 355.755L244.719 214.309" stroke="black" stroke-width="1.423" stroke-linecap="round" stroke-linejoin="round"/>
    <path d="M323.856 434.779L359.887 417.912" stroke="black" stroke-width="1.423" stroke-linecap="round" stroke-linejoin="round"/>
    <path d="M523.762 86.4862C523.762 86.4862 536.417 86.2205 546.909 95.2329C557.401 104.245 562.467 113.276 562.467 113.276L556.339 140.484C556.339 140.484 536.056 139.023 523.838 130.979C511.6 122.934 523.781 86.4862 523.781 86.4862H523.762Z" fill="white" stroke="black" stroke-width="1.423" stroke-linecap="round" stroke-linejoin="round"/>
    <path d="M660.255 147.828C640.466 114.929 562.638 103.469 562.638 103.469L545.676 147.164L564.535 158.434H564.573C527.708 161.641 503.953 167.048 503.953 167.048C503.953 167.048 483.367 318.247 569.639 272.028C645.513 231.387 680.026 180.709 660.236 147.809L660.255 147.828Z" fill="#E5E6E7"/>
    <path d="M562.639 103.469L545.677 147.164L564.517 158.434" stroke="black" stroke-width="1.423" stroke-linecap="round" stroke-linejoin="round"/>
    <path d="M604.417 156.253C545.676 157.543 503.953 167.049 503.953 167.049C503.953 167.049 485.72 322.383 569.639 272.047C579.22 266.298 588.916 261.441 597.207 255.673" stroke="black" stroke-width="1.423" stroke-linecap="round" stroke-linejoin="round"/>
    <path d="M552.715 151.208L569.506 107.189" stroke="black" stroke-width="1.423" stroke-linecap="round" stroke-linejoin="round"/>
    <path d="M489.702 184.012C532.848 184.012 567.891 219.036 567.891 262.201V432.714H411.532V262.201C411.532 219.055 446.557 184.012 489.721 184.012H489.702Z" fill="#E5E6E7"/>
    <path d="M412.841 252.412C411.988 257.383 411.532 262.506 411.532 267.743V432.678H567.891" stroke="black" stroke-width="1.423" stroke-linecap="round" stroke-linejoin="round"/>
    <path d="M566.298 250.874C567.341 256.319 567.892 261.973 567.892 267.76V324.49" stroke="black" stroke-width="1.423" stroke-linecap="round" stroke-linejoin="round"/>
    <path d="M420.431 415.523H560.055" stroke="black" stroke-width="1.423" stroke-linecap="round" stroke-linejoin="round"/>
    <path d="M443.827 123.087C443.827 123.087 435.289 125.288 430.109 110.678C424.929 96.0689 439.994 72.5041 457.544 63.1502C475.076 53.7964 497.863 54.1379 508.962 60.7216C520.061 67.3054 535.581 82.1805 540.628 95.1961C545.675 108.212 542.64 125.61 521.674 134.433C500.709 143.275 443.846 123.087 443.846 123.087H443.827Z" fill="white" stroke="black" stroke-width="1.423" stroke-linecap="round" stroke-linejoin="round"/>
    <path d="M464.982 77.2676C464.982 77.2676 467.885 83.6806 469.915 90.8714C471.946 98.0623 503.707 100.055 503.707 100.055C503.707 100.055 512.624 88.5946 517.804 84.5533" stroke="black" stroke-width="1.423" stroke-linecap="round" stroke-linejoin="round"/>
    <path d="M444.226 93.0699C443.372 93.0699 442.67 92.3679 442.67 91.5141V86.1447C442.67 85.2909 443.372 84.5889 444.226 84.5889C445.08 84.5889 445.782 85.2909 445.782 86.1447V91.5141C445.782 92.3679 445.08 93.0699 444.226 93.0699Z" fill="#E5E0B6"/>
    <path d="M431.248 106.351C430.66 105.725 430.698 104.719 431.343 104.15L435.29 100.507C435.916 99.919 436.921 99.957 437.491 100.602C438.079 101.228 438.041 102.234 437.396 102.803L433.449 106.446C432.823 107.034 431.818 106.996 431.248 106.351Z" fill="#E5E0B6"/>
    <path d="M451.797 71.2137C452.233 70.4737 453.182 70.2081 453.941 70.6445L458.589 73.3387C459.329 73.7751 459.595 74.7237 459.158 75.4826C458.722 76.2226 457.773 76.4882 457.014 76.0519L452.366 73.3576C451.626 72.9213 451.36 71.9726 451.797 71.2137Z" fill="#E5E0B6"/>
    <path d="M469.537 69.108C469.195 68.3111 469.556 67.4004 470.353 67.0588L475.286 64.9149C476.083 64.5733 476.993 64.9338 477.335 65.7307C477.676 66.5276 477.316 67.4383 476.519 67.7798L471.586 69.9238C470.789 70.2653 469.878 69.9048 469.537 69.108Z" fill="#E5E0B6"/>
    <path d="M473.596 77.8548C473.957 77.0579 474.868 76.7164 475.665 77.0769L480.56 79.2778C481.357 79.6383 481.698 80.549 481.338 81.3459C480.977 82.1428 480.066 82.4843 479.27 82.1238L474.374 79.9229C473.578 79.5624 473.236 78.6517 473.596 77.8548Z" fill="#E5E0B6"/>
    <path d="M495.891 90.7561C495.493 89.9782 495.816 89.0485 496.575 88.6501L501.375 86.2215C502.153 85.8231 503.082 86.1456 503.481 86.9045C503.879 87.6824 503.557 88.6121 502.798 89.0106L497.998 91.4392C497.22 91.8376 496.29 91.5151 495.891 90.7561Z" fill="#E5E0B6"/>
    <path d="M515.851 76.2399C516.382 75.5569 517.369 75.4241 518.052 75.9553L522.302 79.2377C522.985 79.769 523.118 80.7556 522.586 81.4386C522.055 82.1217 521.069 82.2545 520.385 81.7232L516.135 78.4409C515.452 77.9096 515.32 76.923 515.851 76.2399Z" fill="#E5E0B6"/>
    <path d="M513.631 102.788C513.46 101.934 514.01 101.118 514.864 100.947L520.139 99.8846C520.992 99.7138 521.808 100.264 521.979 101.118C522.15 101.972 521.599 102.788 520.746 102.958L515.471 104.021C514.617 104.192 513.801 103.641 513.631 102.788Z" fill="#E5E0B6"/>
    <path d="M525.641 92.0066C525.85 91.1718 526.704 90.6595 527.538 90.8872L532.737 92.2343C533.572 92.443 534.084 93.2968 533.856 94.1316C533.648 94.9664 532.794 95.4787 531.959 95.251L526.76 93.9039C525.926 93.6952 525.413 92.8414 525.641 92.0066Z" fill="#E5E0B6"/>
    <path d="M530.972 104.305C531.75 103.907 532.68 104.23 533.078 104.989L535.507 109.789C535.905 110.567 535.582 111.496 534.824 111.895C534.046 112.293 533.116 111.971 532.718 111.212L530.289 106.412C529.89 105.634 530.213 104.704 530.972 104.305Z" fill="#E5E0B6"/>
    <path d="M524.674 118.022C524.503 117.168 525.053 116.352 525.907 116.181L531.181 115.119C532.035 114.948 532.851 115.498 533.022 116.352C533.193 117.206 532.642 118.022 531.789 118.193L526.514 119.255C525.66 119.426 524.844 118.876 524.674 118.022Z" fill="#E5E0B6"/>
    <path d="M456.9 83.5848C457.697 83.2433 458.607 83.6038 458.949 84.4006L461.093 89.3337C461.434 90.1306 461.074 91.0413 460.277 91.3828C459.48 91.7243 458.569 91.3638 458.228 90.567L456.084 85.6339C455.742 84.837 456.103 83.9263 456.9 83.5848Z" fill="#E5E0B6"/>
    <path d="M519.225 130.315C519.225 130.315 537.135 137.753 535.561 156.385C534.138 173.252 521.672 185.015 521.672 185.015L500.384 186.211C498.449 175.567 488.791 174.599 488.791 174.599L470.444 173.404C462.343 175.7 458.149 190.935 458.301 191.542L438 193.478L434.186 182.511C434.186 182.511 424.339 168.907 427.944 149.365C431.549 129.822 451.831 132.384 451.831 132.384L519.243 130.353L519.225 130.315Z" fill="#E5E0B6"/>
    <path d="M460.596 174.297C460.596 174.297 459.989 171.375 461.981 167.58" stroke="black" stroke-width="1.423" stroke-linecap="round" stroke-linejoin="round"/>
    <path d="M478.338 166.306C478.338 166.306 465.018 165.661 458.283 160.216C451.547 154.789 443.142 134.962 447.658 119.195C452.173 103.428 476.839 102.214 487.881 103.144C498.924 104.074 516.303 113.636 516.303 113.636C516.303 113.636 517.328 159.571 497.273 164.769C477.218 169.949 478.338 166.287 478.338 166.287V166.306Z" fill="black"/>
    <path d="M498.736 182.89C498.603 188.563 490.406 192.965 480.426 192.756C470.446 192.528 462.459 187.766 462.572 182.093C462.686 176.42 470.902 172.018 480.882 172.227C490.862 172.455 498.849 177.217 498.736 182.89Z" fill="#E5E6E7" stroke="black" stroke-width="1.423" stroke-miterlimit="10"/>
    <path d="M484.605 156.863L478.308 156.723C472.672 156.598 468.001 161.066 467.876 166.702L467.645 177.116C467.52 182.752 471.988 187.422 477.624 187.547L483.922 187.687C489.558 187.812 494.228 183.344 494.353 177.708L494.584 167.294C494.709 161.658 490.241 156.988 484.605 156.863Z" fill="white" stroke="black" stroke-width="1.423" stroke-miterlimit="10"/>
    <path d="M441.245 142.779C441.017 147.256 444.471 151.07 448.986 151.317C453.502 151.563 457.353 148.11 457.581 143.632C457.809 139.155 454.356 135.341 449.84 135.094C445.324 134.848 441.473 138.301 441.245 142.779Z" fill="white" stroke="black" stroke-width="1.423" stroke-miterlimit="10"/>
    <path d="M453.937 143.442C454.07 140.976 452.154 138.851 449.649 138.718" stroke="black" stroke-width="0.948665" stroke-linecap="round" stroke-linejoin="round"/>
    <path d="M521.673 144.562C521.711 149.039 518.068 152.701 513.552 152.739C509.037 152.777 505.337 149.172 505.299 144.694C505.261 140.217 508.904 136.555 513.42 136.517C517.935 136.479 521.635 140.084 521.673 144.562Z" fill="white" stroke="black" stroke-width="1.423" stroke-miterlimit="10"/>
    <path d="M508.96 144.675C508.941 142.19 510.952 140.16 513.457 140.141" stroke="black" stroke-width="0.948665" stroke-linecap="round" stroke-linejoin="round"/>
    <path d="M456.312 121.613L455.538 145.583C455.141 157.868 464.778 168.149 477.063 168.546L484.27 168.778C496.555 169.175 506.835 159.538 507.232 147.253L508.006 123.283C508.403 110.998 498.766 100.717 486.481 100.32L479.275 100.088C466.99 99.6909 456.709 109.328 456.312 121.613Z" fill="white" stroke="black" stroke-width="1.423" stroke-miterlimit="10"/>
    <path d="M488.774 150.767C488.262 154.031 485.397 156.497 482.001 156.384C478.604 156.27 475.91 153.632 475.606 150.331L488.774 150.748V150.767Z" stroke="black" stroke-width="1.423" stroke-linecap="round" stroke-linejoin="round"/>
    <path d="M467.979 134.831C467.865 136.482 466.442 137.734 464.791 137.621C463.141 137.507 461.888 136.084 462.002 134.433C462.116 132.782 463.539 131.53 465.19 131.644C466.84 131.758 468.093 133.181 467.979 134.831Z" fill="black"/>
    <path d="M499.664 135.532C499.551 137.182 498.128 138.435 496.477 138.321C494.826 138.207 493.574 136.784 493.688 135.133C493.802 133.482 495.225 132.23 496.875 132.344C498.526 132.458 499.778 133.881 499.664 135.532Z" fill="black"/>
    <path d="M493.819 128.76C493.819 128.76 498.088 127.906 501.238 130.316" stroke="black" stroke-width="3.79466" stroke-linecap="round" stroke-linejoin="round"/>
    <path d="M468.073 128.192C468.073 128.192 463.842 127.148 460.598 129.425" stroke="black" stroke-width="3.79466" stroke-linecap="round" stroke-linejoin="round"/>
    <path d="M484.202 142.403L478.775 142.27L481.64 130.507" stroke="black" stroke-width="1.423" stroke-linecap="round" stroke-linejoin="round"/>
    <path d="M495.489 87.1335C491.391 85.6535 487.729 84.8946 485.452 84.7239C477.768 84.1357 452.173 84.4013 445.476 101.42C438.778 118.439 446.083 133.542 446.083 133.542L446.329 129.254C448.511 131.986 456.082 137.299 456.082 137.299L457.505 128.97C457.505 128.97 488.905 130.525 491.334 113.905C491.41 113.336 489.38 127.034 500.194 131.189C500.194 131.189 497.823 124.568 499.454 119.578C499.454 119.578 499.094 129.615 506.095 132.518L506.759 140.486C506.759 140.486 510.326 137.223 512.034 130.108L512.167 137.014C512.167 137.014 520.932 129.008 518.864 111.286C517.327 98.138 505.184 90.6246 495.451 87.1335" fill="black"/>
    <path d="M459.403 19.3396C459.403 19.3396 444.623 41.5763 467.106 58.4056C489.59 75.216 517.727 59.7338 520.364 58.4056C523.002 57.0775 529.908 39.3944 524.292 26.2269C518.676 13.0594 459.403 19.3396 459.403 19.3396Z" fill="black"/>
    <path d="M527.65 58.9362C527.119 62.9206 523.438 65.7287 519.415 65.1785C515.393 64.6472 512.566 60.9853 513.097 56.982C513.629 52.9976 517.309 50.1895 521.332 50.7398C525.354 51.271 528.181 54.9329 527.65 58.9362Z" fill="#E7E7E6" stroke="black" stroke-width="1.423" stroke-miterlimit="10"/>
    <path d="M516.304 58.3874C516.304 58.3874 516.645 53.4354 521.597 54.6497" stroke="black" stroke-width="1.423" stroke-linecap="round" stroke-linejoin="round"/>
    <path d="M455.04 53.7369C454.508 57.7213 457.336 61.3831 461.358 61.9333C465.38 62.4646 469.061 59.6755 469.592 55.6911C470.123 51.7067 467.296 48.0449 463.274 47.4946C459.252 46.9444 455.571 49.7525 455.04 53.7369Z" fill="#E7E7E6" stroke="black" stroke-width="1.423" stroke-miterlimit="10"/>
    <path d="M466.12 56.1843C466.12 56.1843 467.087 51.3271 461.983 51.1943" stroke="black" stroke-width="1.423" stroke-linecap="round" stroke-linejoin="round"/>
    <path d="M465.771 54.3747L466.714 37.5528C467.404 25.2585 477.947 15.8352 490.241 16.5248L497.516 16.9327C509.81 17.6222 519.233 28.1653 518.544 40.4596L517.6 57.2815C516.911 69.5759 506.368 78.9992 494.073 78.3097L486.799 77.9018C474.505 77.2122 465.081 66.6691 465.771 54.3747Z" fill="white"/>
    <path d="M465.771 54.3747L466.714 37.5528C467.404 25.2585 477.947 15.8352 490.241 16.5248L497.516 16.9327C509.81 17.6222 519.233 28.1653 518.544 40.4596L517.6 57.2815C516.911 69.5759 506.368 78.9992 494.073 78.3097L486.799 77.9018C474.505 77.2122 465.081 66.6691 465.771 54.3747V54.3747Z" stroke="black" stroke-width="1.423" stroke-miterlimit="10"/>
    <path d="M479.27 44.8791C480.636 47.6871 477.448 50.1916 474.849 48.2184C474.678 48.0856 474.546 47.9338 474.432 47.744C472.895 44.936 476.006 42.3367 478.625 44.1391C478.909 44.3289 479.118 44.5755 479.27 44.8791Z" fill="black"/>
    <path d="M508.697 48.0656C508.565 49.5455 507.217 50.6459 505.681 50.5131C504.144 50.3803 503.024 49.0711 503.157 47.5912C503.29 46.1113 504.637 45.0109 506.174 45.1437C507.711 45.2765 508.83 46.5856 508.697 48.0656Z" fill="black"/>
    <path d="M487.371 62.2383C487.542 64.5151 489.42 66.3934 491.849 66.5263C494.277 66.6591 496.365 65.0084 496.801 62.7506" stroke="black" stroke-width="1.423" stroke-miterlimit="10"/>
    <path d="M492.475 46.8711L489.287 53.4928L492.816 53.9292" stroke="black" stroke-width="1.423" stroke-linecap="round" stroke-linejoin="round"/>
    <path d="M474.166 40.9705C475.551 40.4013 477.126 40.2874 478.568 40.6479" stroke="black" stroke-width="1.423" stroke-linecap="round" stroke-linejoin="round"/>
    <path d="M504.809 42.2213C506.307 42.0885 507.844 42.449 509.097 43.2269" stroke="black" stroke-width="1.423" stroke-linecap="round" stroke-linejoin="round"/>
    <path d="M518.96 10.1563C517.442 9.11276 515.943 8.22102 514.444 7.44311C508.183 3.42077 499.303 1.59933 487.028 5.46989L486.705 0.992188L483.005 5.77346L478.565 0.992188L479.988 6.66521C473.5 6.57034 458.662 8.50562 455.039 27.3651C451.851 43.9288 459.099 42.1453 459.099 42.1453C459.099 42.1453 478.698 36.2446 483.499 20.4967C484.542 26.3974 487.881 36.8138 498.431 40.9879C498.431 40.9879 495.015 35.5995 492.909 30.97C493.08 31.1218 493.27 31.2736 493.46 31.4254C496.154 35.258 502.301 40.3239 516.322 42.7145L514.786 37.5917C518.922 39.1855 523.798 40.3239 529.452 40.4567C529.452 40.4567 532.583 19.4722 518.979 10.1563H518.96Z" fill="black"/>
    <path d="M483.839 19.3398C483.839 19.3398 482.435 33.9303 463.044 43.2462" stroke="black" stroke-width="1.423" stroke-linecap="round" stroke-linejoin="round"/>
    <path d="M454.033 102.406C451.965 101.154 442.365 102.046 438.172 110.906C433.58 120.621 439.633 126.768 439.633 126.768C439.633 126.768 443.237 130.373 446.71 130.506C450.182 130.639 449.916 126.635 449.916 126.635C452.326 125.971 451.927 124.643 451.396 123.315L450.561 123.486L450.675 122.973C452.686 123.41 453.331 122.48 453.863 121.304C454.318 120.317 453.9 119.407 453.104 118.61L453.616 118.363C453.616 118.363 455.798 117.433 455.931 114.379C455.987 112.937 454.678 111.476 453.255 110.318C453.255 110.318 456.69 112.785 457.411 110.318C458.132 107.852 456.12 103.659 454.052 102.425L454.033 102.406Z" fill="white"/>
    <path d="M449.935 108.099C449.935 108.099 456.063 111.305 455.93 114.36C455.797 117.433 453.615 118.344 453.615 118.344" stroke="black" stroke-width="1.423" stroke-linecap="round" stroke-linejoin="round"/>
    <path d="M446.994 115.443C446.994 115.443 455.38 117.91 453.862 121.306C453.047 123.128 451.946 124.38 445.799 120.775" stroke="black" stroke-width="1.423" stroke-linecap="round" stroke-linejoin="round"/>
    <path d="M442.99 125.044C442.99 125.044 447.525 127.321 449.935 126.638C452.344 125.974 451.946 124.646 451.414 123.317" stroke="black" stroke-width="1.423" stroke-linecap="round" stroke-linejoin="round"/>
    <path d="M453.255 110.3C453.255 110.3 456.689 112.767 457.41 110.3C458.112 107.834 456.12 103.641 454.052 102.407C451.984 101.155 442.383 102.047 438.19 110.907C433.599 120.622 439.651 126.769 439.651 126.769C439.651 126.769 443.256 130.374 446.728 130.507C450.2 130.64 449.935 126.636 449.935 126.636" stroke="black" stroke-width="1.423" stroke-linecap="round" stroke-linejoin="round"/>
    <path d="M515.926 110.145C515.926 110.145 511.201 105.573 508.659 107.811C506.932 109.329 508.83 113.143 510.632 115.572C512.434 118 513.895 118.683 511.657 120.922C509.418 123.161 502.132 125.419 504.01 129.194C505.187 131.566 512.7 128.132 512.7 128.132C510.31 130.371 504.864 142.134 509.057 142.115C509.645 142.115 510.215 141.963 510.765 141.736V141.926C510.765 141.926 510.006 144.923 512.245 145.075C513.25 145.151 514.711 144.335 516.172 142.95L516.134 143.178C516.4 144.658 517.405 145.398 519.037 145.075C522.187 144.468 522.225 141.508 524.919 135.664C527.613 129.821 527.025 120.391 527.025 120.391L515.926 110.145Z" fill="white"/>
    <path d="M510.745 141.906C510.745 141.906 510.005 144.904 512.244 145.056C514.483 145.208 519.131 140.939 520.478 135.664" stroke="black" stroke-width="1.423" stroke-linecap="round" stroke-linejoin="round"/>
    <path d="M517.784 133.007C517.784 133.007 513.876 142.095 509.037 142.114C504.844 142.114 510.29 130.37 512.68 128.131C512.68 128.131 505.167 131.565 503.99 129.193C502.112 125.418 509.379 123.179 511.637 120.921C513.876 118.682 512.415 117.999 510.612 115.571C508.81 113.142 506.912 109.328 508.639 107.811C511.181 105.572 515.906 110.144 515.906 110.144C515.906 110.144 524.614 116.842 526.493 120.447C528.068 123.482 527.821 126.196 524.899 135.663C523.002 141.811 521.655 144.922 518.448 145.131C517.443 145.207 516.38 144.638 516.114 143.158" stroke="black" stroke-width="1.423" stroke-linecap="round" stroke-linejoin="round"/>
    <path d="M456.178 199.055L462.723 197.651C462.723 197.651 468.036 190.934 460.219 179.721C453.085 169.475 437.812 171.999 433.353 173.688C428.894 175.357 456.178 199.055 456.178 199.055Z" fill="white" stroke="black" stroke-width="1.423" stroke-linecap="round" stroke-linejoin="round"/>
    <path d="M453.256 177.804C462.155 184.369 465.703 194.671 461.168 200.838C456.634 207.004 445.724 206.7 436.825 200.136C427.927 193.571 424.379 183.268 428.914 177.083C433.448 170.917 444.358 171.22 453.256 177.785V177.804Z" fill="white" stroke="black" stroke-width="1.423" stroke-linecap="round" stroke-linejoin="round"/>
    <path d="M505.527 197.443L499.02 195.925C499.02 195.925 494.2 188.393 502.53 177.578C509.018 169.135 521.731 169.951 526.151 171.716C530.572 173.48 505.527 197.443 505.527 197.443Z" fill="white" stroke="black" stroke-width="1.423" stroke-linecap="round" stroke-linejoin="round"/>
    <path d="M524.871 198.958C533.903 192.584 537.645 182.343 533.229 176.084C528.812 169.826 517.91 169.92 508.877 176.294C499.845 182.668 496.103 192.908 500.519 199.167C504.936 205.425 515.838 205.332 524.871 198.958Z" fill="white" stroke="black" stroke-width="1.423" stroke-linecap="round" stroke-linejoin="round"/>
    <path d="M301.774 666.539L301.945 743.21L260.583 747.631L261.19 668.171L301.774 666.539Z" fill="white"/>
    <path d="M294.641 721.031L293.654 745.488" stroke="black" stroke-width="1.423" stroke-miterlimit="10"/>
    <path d="M284.925 721.543L283.521 745.392" stroke="black" stroke-width="1.423" stroke-miterlimit="10"/>
    <path d="M275.554 721.98L275.763 746.551" stroke="black" stroke-width="1.423" stroke-miterlimit="10"/>
    <path d="M268.191 722.15L267.356 746.911" stroke="black" stroke-width="1.423" stroke-miterlimit="10"/>
    <path d="M301.774 666.539L301.945 743.21L260.583 747.631L261.19 668.171L301.774 666.539Z" stroke="black" stroke-width="1.423" stroke-miterlimit="10"/>
    <path d="M302.723 726.189L260.109 725.905L259.862 718.941L302.989 719.624L302.723 726.189Z" fill="white" stroke="black" stroke-width="1.423" stroke-miterlimit="10"/>
    <path d="M251.664 739.453L312.682 740.876L313.233 756.282L355.505 796.999L248.021 796.259L251.664 739.453Z" fill="white"/>
    <path d="M338.391 766.998L330.156 784.15" stroke="black" stroke-width="1.423" stroke-linecap="round" stroke-linejoin="round"/>
    <path d="M326.913 760.32L318.659 777.491" stroke="black" stroke-width="1.423" stroke-linecap="round" stroke-linejoin="round"/>
    <path d="M318.165 757.474C318.165 757.474 351.16 745.085 346.037 735.693C337.802 720.571 318.165 757.474 318.165 757.474Z" stroke="black" stroke-width="1.423" stroke-linecap="round" stroke-linejoin="round"/>
    <path d="M326.306 726.207L317.274 758.044" stroke="black" stroke-width="1.423" stroke-linecap="round" stroke-linejoin="round"/>
    <path d="M267.639 774.44C263.541 768.369 256.843 765.086 250.013 765.048L250.221 761.709C258.057 761.823 265.704 765.618 270.409 772.581C275.342 779.885 275.835 788.917 272.515 796.449H268.815C272.363 789.657 272.192 781.214 267.62 774.459L267.639 774.44Z" fill="black"/>
    <path d="M251.664 739.453L312.682 740.876L313.233 756.282L355.505 796.999L248.021 796.259L251.664 739.453Z" stroke="black" stroke-width="1.423" stroke-linecap="round" stroke-linejoin="round"/>
    <path d="M344.084 791.191L277.962 789.977" stroke="black" stroke-width="1.423" stroke-linecap="round" stroke-linejoin="round"/>
    <path d="M181.121 666.539L180.95 743.21L222.312 747.631L221.705 668.171L181.121 666.539Z" fill="white"/>
    <path d="M188.257 721.031L189.243 745.488" stroke="black" stroke-width="1.423" stroke-miterlimit="10"/>
    <path d="M197.971 721.543L199.375 745.392" stroke="black" stroke-width="1.423" stroke-miterlimit="10"/>
    <path d="M207.345 721.98L207.136 746.551" stroke="black" stroke-width="1.423" stroke-miterlimit="10"/>
    <path d="M214.706 722.15L215.541 746.911" stroke="black" stroke-width="1.423" stroke-miterlimit="10"/>
    <path d="M181.121 666.539L180.95 743.21L222.312 747.631L221.705 668.171L181.121 666.539Z" stroke="black" stroke-width="1.423" stroke-miterlimit="10"/>
    <path d="M180.173 726.189L222.787 725.905L223.034 718.941L179.907 719.624L180.173 726.189Z" fill="white" stroke="black" stroke-width="1.423" stroke-miterlimit="10"/>
    <path d="M231.232 739.453L170.213 740.876L169.663 756.282L127.391 796.999L234.874 796.259L231.232 739.453Z" fill="white"/>
    <path d="M144.503 766.998L152.737 784.15" stroke="black" stroke-width="1.423" stroke-linecap="round" stroke-linejoin="round"/>
    <path d="M155.981 760.32L164.235 777.491" stroke="black" stroke-width="1.423" stroke-linecap="round" stroke-linejoin="round"/>
    <path d="M164.73 757.474C164.73 757.474 131.736 745.085 136.859 735.693C145.093 720.571 164.73 757.474 164.73 757.474Z" stroke="black" stroke-width="1.423" stroke-linecap="round" stroke-linejoin="round"/>
    <path d="M156.591 726.207L165.622 758.044" stroke="black" stroke-width="1.423" stroke-linecap="round" stroke-linejoin="round"/>
    <path d="M215.256 774.44C219.354 768.369 226.052 765.086 232.882 765.048L232.673 761.709C224.837 761.823 217.191 765.618 212.486 772.581C207.553 779.885 207.059 788.917 210.38 796.449H214.08C210.532 789.657 210.702 781.214 215.275 774.459L215.256 774.44Z" fill="black"/>
    <path d="M231.232 739.453L170.213 740.876L169.663 756.282L127.391 796.999L234.874 796.259L231.232 739.453Z" stroke="black" stroke-width="1.423" stroke-linecap="round" stroke-linejoin="round"/>
    <path d="M138.813 791.191L204.935 789.977" stroke="black" stroke-width="1.423" stroke-linecap="round" stroke-linejoin="round"/>
    <path d="M181.121 666.539L180.95 743.21L222.312 747.631L221.705 668.171L181.121 666.539Z" fill="white"/>
    <path d="M188.257 721.031L189.243 745.488" stroke="black" stroke-width="1.423" stroke-miterlimit="10"/>
    <path d="M197.971 721.543L199.375 745.392" stroke="black" stroke-width="1.423" stroke-miterlimit="10"/>
    <path d="M207.345 721.98L207.136 746.551" stroke="black" stroke-width="1.423" stroke-miterlimit="10"/>
    <path d="M214.706 722.15L215.541 746.911" stroke="black" stroke-width="1.423" stroke-miterlimit="10"/>
    <path d="M181.121 666.539L180.95 743.21L222.312 747.631L221.705 668.171L181.121 666.539Z" stroke="black" stroke-width="1.423" stroke-miterlimit="10"/>
    <path d="M180.173 726.189L222.787 725.905L223.034 718.941L179.907 719.624L180.173 726.189Z" fill="white" stroke="black" stroke-width="1.423" stroke-miterlimit="10"/>
    <path d="M231.232 739.453L170.213 740.876L169.663 756.282L127.391 796.999L234.874 796.259L231.232 739.453Z" fill="white"/>
    <path d="M144.503 766.998L152.737 784.15" stroke="black" stroke-width="1.423" stroke-linecap="round" stroke-linejoin="round"/>
    <path d="M155.981 760.32L164.235 777.491" stroke="black" stroke-width="1.423" stroke-linecap="round" stroke-linejoin="round"/>
    <path d="M164.73 757.474C164.73 757.474 131.736 745.085 136.859 735.693C145.093 720.571 164.73 757.474 164.73 757.474Z" stroke="black" stroke-width="1.423" stroke-linecap="round" stroke-linejoin="round"/>
    <path d="M156.591 726.207L165.622 758.044" stroke="black" stroke-width="1.423" stroke-linecap="round" stroke-linejoin="round"/>
    <path d="M215.256 774.44C219.354 768.369 226.052 765.086 232.882 765.048L232.673 761.709C224.837 761.823 217.191 765.618 212.486 772.581C207.553 779.885 207.059 788.917 210.38 796.449H214.08C210.532 789.657 210.702 781.214 215.275 774.459L215.256 774.44Z" fill="black"/>
    <path d="M231.232 739.453L170.213 740.876L169.663 756.282L127.391 796.999L234.874 796.259L231.232 739.453Z" stroke="black" stroke-width="1.423" stroke-linecap="round" stroke-linejoin="round"/>
    <path d="M138.813 791.191L204.935 789.977" stroke="black" stroke-width="1.423" stroke-linecap="round" stroke-linejoin="round"/>
    <path d="M173.267 414.269L163.951 684.031L316.61 683.955L301.432 404.479L173.267 414.269Z" fill="white"/>
    <path d="M173.267 414.269L163.951 684.031L316.61 683.955L301.432 404.479L173.267 414.269Z" stroke="black" stroke-width="1.423" stroke-linecap="round" stroke-linejoin="round"/>
    <path d="M186.283 422.879L181.995 675.053" stroke="black" stroke-width="1.423" stroke-linecap="round" stroke-linejoin="round"/>
    <path d="M210.228 421.156V602.465" stroke="black" stroke-width="1.423" stroke-linecap="round" stroke-linejoin="round"/>
    <path d="M241.438 420.281L245.973 672.057" stroke="black" stroke-width="1.423" stroke-linecap="round" stroke-linejoin="round"/>
    <path d="M267.621 419.467L274.66 614.949" stroke="black" stroke-width="1.423" stroke-linecap="round" stroke-linejoin="round"/>
    <path d="M290.882 417.91L301.431 674.448" stroke="black" stroke-width="1.423" stroke-linecap="round" stroke-linejoin="round"/>
    <path d="M94.4523 238.659L109.517 237.425L107.771 178.57C107.771 178.57 102.042 167.623 99.9924 167.717C97.9433 167.812 85.5158 168.533 85.5158 168.533L84.8896 193.616L86.6353 207.03L94.4523 238.659Z" fill="#FEFEFE"/>
    <path d="M94.4535 211.089C93.1823 211.089 92.1387 210.046 92.1387 208.774V121.061C92.1387 119.79 93.1823 118.746 94.4535 118.746C95.7247 118.746 96.7682 119.79 96.7682 121.061V208.774C96.7682 210.046 95.7247 211.089 94.4535 211.089Z" fill="white" stroke="black" stroke-width="1.423" stroke-linecap="round" stroke-linejoin="round"/>
    <path d="M119.346 111.63C122.192 107.93 123.862 103.624 123.862 98.9941C123.862 90.7027 118.606 83.379 110.58 78.9583C111.055 77.5542 111.32 76.0553 111.32 74.5185C111.32 65.6959 103.01 58.543 92.7454 58.543C82.4809 58.543 74.1706 65.6959 74.1706 74.5185C74.1706 76.0553 74.4361 77.5353 74.9105 78.9583C66.8848 83.379 61.6291 90.7027 61.6291 98.9941C61.6291 103.68 63.3368 108.063 66.2398 111.782C59.3524 116.412 55.0645 122.806 55.0645 129.883C55.0645 143.98 72.0076 155.402 92.8972 155.402C113.787 155.402 130.73 143.98 130.73 129.883C130.73 122.73 126.347 116.26 119.327 111.63H119.346Z" fill="#E5E6E7"/>
    <path d="M110.05 108.37C112.118 109.338 114.338 109.736 116.539 110.267C118.74 110.799 120.713 111.52 122.629 112.582C126.348 114.65 129.516 117.724 131.641 121.424C133.994 125.541 135.038 130.341 134.696 135.046C134.355 139.752 132.647 143.509 129.554 146.791C126.462 150.073 122.193 152.711 117.62 153.47C117.013 153.564 117.279 154.475 117.867 154.38C126.006 153.033 133.71 146.127 135.265 137.949C137.03 128.671 133.311 119.014 125.703 113.417C123.73 111.975 121.529 110.818 119.214 110.021C116.368 109.053 113.294 108.825 110.543 107.535C109.993 107.289 109.519 108.104 110.069 108.351L110.05 108.37Z" fill="#E5E6E7"/>
    <path d="M65.0244 111.368C62.6527 110.798 61.021 107.649 60.0154 105.619C58.9339 103.399 58.232 100.97 57.9474 98.5227C57.3971 93.7224 58.3837 88.8273 60.9072 84.6911C61.2297 84.1599 60.4138 83.6855 60.0912 84.2168C57.3401 88.7324 56.3536 94.1209 57.1125 99.3385C57.492 101.919 58.2888 104.423 59.5221 106.719C60.6415 108.806 62.3112 111.671 64.7777 112.278C65.3659 112.43 65.6315 111.5 65.0244 111.368Z" fill="#E5E6E7"/>
    <path d="M73.7331 78.126C71.4563 73.9519 71.2856 68.7153 73.4865 64.4652C75.4787 60.6516 79.1216 57.9194 83.2768 56.9708C83.8649 56.838 83.6183 55.9273 83.0301 56.0601C78.5334 57.0846 74.5681 60.1393 72.5189 64.2755C70.2991 68.7912 70.5077 74.2175 72.8983 78.6004C73.1829 79.1316 74.0178 78.6573 73.7143 78.126H73.7331Z" fill="#E5E6E7"/>
    <path d="M128.51 111.574C132.305 114.098 135.322 117.665 137.181 121.82C137.428 122.37 138.244 121.896 137.997 121.346C136.062 117.058 132.912 113.377 128.985 110.759C128.472 110.417 127.998 111.233 128.51 111.574Z" fill="#E5E6E7"/>
    <path d="M123.804 86.5111C124.62 88.8448 125.113 91.2734 125.246 93.7589C125.284 94.366 126.233 94.366 126.195 93.7589C126.062 91.1975 125.569 88.674 124.715 86.2644C124.506 85.6952 123.596 85.9419 123.804 86.5111Z" fill="#E5E6E7"/>
    <path d="M51.0226 130.987C51.459 137.969 54.4378 144.648 59.4088 149.6C59.8451 150.036 60.5093 149.353 60.0729 148.936C55.2916 144.174 52.3887 137.742 51.9713 131.006C51.9333 130.399 50.9846 130.399 51.0226 131.006V130.987Z" fill="#E5E6E7"/>
    <path d="M73.7146 117.249C84.6053 120.494 96.16 119.279 106.975 116.395C107.563 116.244 107.316 115.333 106.728 115.485C96.0651 118.312 84.7001 119.526 73.9612 116.339C73.373 116.168 73.1265 117.079 73.7146 117.249Z" fill="white"/>
    <path d="M72.3112 144.399C85.4597 146.411 98.9878 142.104 108.417 132.693C110.903 130.207 113.066 127.399 114.887 124.383C115.21 123.851 114.375 123.377 114.071 123.908C105.571 138.176 89.0078 146.012 72.5769 143.489C71.9887 143.394 71.7231 144.305 72.3302 144.399H72.3112Z" fill="white"/>
    <path d="M119.289 126.166C118.568 130.435 117.145 134.552 115.058 138.347C114.774 138.878 115.59 139.372 115.874 138.821C117.999 134.951 119.46 130.758 120.2 126.413C120.295 125.825 119.384 125.559 119.289 126.166Z" fill="white"/>
    <path d="M76.5809 81.0288C79.8063 84.8804 85.3466 86.4932 90.071 87.6316C95.5543 88.9407 101.227 89.3202 106.843 88.7889C107.45 88.732 107.45 87.7833 106.843 87.8403C101.455 88.3525 96.0096 88.03 90.735 86.8157C86.0486 85.7342 80.4515 84.1974 77.245 80.3648C76.8466 79.8904 76.1824 80.5735 76.5809 81.0288Z" fill="white"/>
    <path d="M80.1655 92.0307C84.4914 94.0419 89.1969 95.0664 93.9782 95.0095C94.5853 95.0095 94.5853 94.0609 93.9782 94.0609C89.3866 94.1178 84.814 93.1501 80.6399 91.2149C80.0896 90.9682 79.6153 91.7841 80.1655 92.0307Z" fill="white"/>
    <path d="M98.8537 63.6672C102.781 67.0824 104.565 72.6037 103.331 77.6506C103.18 78.2387 104.109 78.5044 104.242 77.8972C105.551 72.5278 103.711 66.6271 99.5367 62.9842C99.0814 62.5857 98.3982 63.2498 98.8726 63.6483L98.8537 63.6672Z" fill="white"/>
    <path d="M59.9597 128.233C60.5099 125.52 61.7811 122.978 63.6215 120.91C64.02 120.454 63.3558 119.79 62.9574 120.246C61.0031 122.428 59.6371 125.103 59.0489 127.987C58.935 128.575 59.8458 128.84 59.9597 128.233Z" fill="white"/>
    <path d="M118.968 95.8071C119.67 97.268 119.917 98.9566 119.689 100.569C119.651 100.816 119.746 101.082 120.012 101.158C120.239 101.214 120.562 101.082 120.6 100.835C120.865 98.9566 120.6 97.0593 119.784 95.3517C119.67 95.124 119.348 95.0671 119.139 95.1809C118.911 95.3138 118.854 95.5984 118.968 95.826V95.8071Z" fill="white"/>
    <path d="M120.693 182.591C112.364 168.304 92.2521 154.719 89.5579 160.753C86.8637 166.786 98.8738 173.37 98.8738 173.37C92.4987 180.751 99.8604 195.417 99.8604 195.417L104.281 240.023L130.768 238.543C130.768 222.359 129.06 196.859 120.712 182.572L120.693 182.591Z" fill="#FEFEFE"/>
    <path d="M99.8604 195.435C99.8604 195.435 92.4987 180.75 98.8738 173.388C98.8738 173.388 86.8637 166.805 89.5579 160.771C92.2521 154.738 112.364 168.323 120.693 182.61C129.022 196.896 130.749 222.397 130.749 238.581L104.262 240.061" stroke="black" stroke-width="1.423" stroke-linecap="round" stroke-linejoin="round"/>
    <path d="M87.4881 200.35C91.7761 200.957 95.0206 199.648 94.4514 195.626C94.2237 194.089 92.9145 192.533 91.0741 191.3H91.0931C92.8386 191.129 95.8934 188.72 93.6355 184.109C93.2561 183.331 92.6109 182.648 91.8141 182.079L92.9145 182.174C95.6088 180.542 96.5953 177.81 94.7739 175.362H94.8119C96.1969 172.042 94.1477 170.145 94.1477 170.145C92.6489 168.987 90.0496 165.591 90.0496 165.591C90.0496 165.591 81.7581 162.309 79.0639 166.274C76.3697 170.221 79.4244 173.048 79.4244 173.048C78.9881 173.313 78.5707 173.617 78.2671 173.996C75.1934 177.791 78.2671 180.96 78.2671 180.96C78.0394 181.13 77.8307 181.32 77.6409 181.529C74.8708 184.868 78.2102 190.105 78.2102 190.105H78.2481C77.1666 190.864 76.275 191.926 75.7247 193.444C73.2582 200.179 80.6388 208.205 85.4011 212.512C87.5071 214.409 89.1199 215.586 89.1199 215.586L92.0987 241.769L101.775 236.551L87.4502 200.369L87.4881 200.35Z" fill="white"/>
    <path d="M92.1369 241.77L89.158 215.587C89.158 215.587 72.2149 203.159 75.7629 193.426C79.0453 184.471 93.6548 190.087 94.4517 195.627C95.2486 201.148 88.7976 201.566 82.3467 198.909" stroke="black" stroke-width="1.423" stroke-linecap="round" stroke-linejoin="round"/>
    <path d="M78.2669 190.103C78.2669 190.103 74.9277 184.885 77.6978 181.527C80.4679 178.188 91.4154 179.516 93.6733 184.107C95.9311 188.718 92.8764 191.127 91.1309 191.298" stroke="black" stroke-width="1.423" stroke-linecap="round" stroke-linejoin="round"/>
    <path d="M78.3055 180.939C78.3055 180.939 75.2319 177.752 78.3055 173.976C81.3792 170.2 92.1371 172.363 94.4518 174.906C96.7666 177.448 95.7988 180.427 92.9339 182.172" stroke="black" stroke-width="1.423" stroke-linecap="round" stroke-linejoin="round"/>
    <path d="M79.4613 173.029C79.4613 173.029 76.4066 170.221 79.1008 166.255C81.7951 162.309 90.0864 165.572 90.0864 165.572C90.0864 165.572 92.6858 168.987 94.1847 170.126C94.1847 170.126 96.2337 172.023 94.8487 175.343" stroke="black" stroke-width="1.423" stroke-linecap="round" stroke-linejoin="round"/>
    <path d="M224.987 213.764C224.987 213.764 185.143 214.997 137.558 269.147L140.575 299.789L134.029 233.345L87.6016 236.342C87.6016 236.342 54.8917 360.029 117.731 373.861C163.305 383.898 189.09 343.921 213.945 285.237C238.8 226.552 224.987 213.745 224.987 213.745V213.764Z" fill="#DCAA42"/>
    <path d="M165.962 241.768C157.025 248.921 147.463 257.895 137.559 269.146" stroke="black" stroke-width="1.423" stroke-linecap="round" stroke-linejoin="round"/>
    <path d="M117.732 373.88C163.306 383.917 189.091 343.941 213.946 285.256C238.801 226.572 224.989 213.765 224.989 213.765" stroke="black" stroke-width="1.423" stroke-linecap="round" stroke-linejoin="round"/>
    <path d="M140.576 299.789L134.03 233.363L87.6025 236.361" stroke="black" stroke-width="1.423" stroke-linecap="round" stroke-linejoin="round"/>
    <path d="M90.5059 245.109L130.748 242.813" stroke="black" stroke-width="1.423" stroke-linecap="round" stroke-linejoin="round"/>
    <path d="M234.608 221.048H237.758C275.648 221.048 306.403 251.804 306.403 289.693V441.423H165.963V289.693C165.963 251.804 196.719 221.048 234.608 221.048Z" fill="#DCAA42"/>
    <path d="M265.363 287.073C265.363 287.073 246.162 261.289 253.752 255.141C261.322 248.994 267.109 263.945 267.109 263.945C267.109 263.945 272.782 251.669 281.794 256.773C292.268 262.731 265.363 287.073 265.363 287.073Z" fill="white"/>
    <path d="M173.779 432.693H301.432" stroke="black" stroke-width="1.423" stroke-linecap="round" stroke-linejoin="round"/>
    <path d="M306.384 289.693V441.423H165.963V289.693" stroke="black" stroke-width="1.423" stroke-linecap="round" stroke-linejoin="round"/>
    <path d="M205.864 176.745C205.864 176.745 196.662 164.166 198.654 154.015C200.647 143.884 207.553 141.379 209.393 134.264C211.234 127.149 223.832 117.169 241.325 119.01C258.819 120.85 260.204 123.924 262.196 128.989C264.188 134.055 267.66 132.974 271.759 137.736C275.857 142.498 282.061 160.959 270.639 176.726C259.217 192.493 214.915 193.764 205.845 176.726L205.864 176.745Z" fill="black"/>
    <path d="M233.792 197.652C233.792 197.652 220.473 197.007 213.737 191.561C207.001 186.135 198.596 166.308 203.112 150.541C207.628 134.774 232.293 133.56 243.335 134.49C254.378 135.419 271.757 144.982 271.757 144.982C271.757 144.982 272.782 190.916 252.727 196.115C232.672 201.314 233.792 197.633 233.792 197.633V197.652Z" fill="black"/>
    <path d="M254.19 214.236C254.057 219.909 245.86 224.31 235.88 224.102C225.9 223.874 217.913 219.112 218.027 213.439C218.159 207.766 226.356 203.364 236.336 203.573C246.316 203.8 254.304 208.563 254.19 214.236Z" fill="#DCAA42" stroke="black" stroke-width="1.423" stroke-miterlimit="10"/>
    <path d="M240.05 188.205L233.752 188.065C228.116 187.94 223.446 192.408 223.321 198.044L223.089 208.477C222.964 214.113 227.432 218.783 233.068 218.908L239.366 219.048C245.002 219.173 249.672 214.705 249.797 209.069L250.029 198.636C250.153 193 245.686 188.33 240.05 188.205Z" fill="white" stroke="black" stroke-width="1.423" stroke-miterlimit="10"/>
    <path d="M196.702 174.124C196.474 178.602 199.928 182.416 204.443 182.662C208.959 182.909 212.81 179.456 213.038 174.978C213.266 170.5 209.813 166.687 205.297 166.44C200.781 166.194 196.93 169.647 196.702 174.124Z" fill="white" stroke="black" stroke-width="1.423" stroke-miterlimit="10"/>
    <path d="M209.394 174.788C209.527 172.302 207.611 170.196 205.106 170.063" stroke="black" stroke-width="0.948665" stroke-linecap="round" stroke-linejoin="round"/>
    <path d="M277.129 175.907C277.167 180.385 273.524 184.047 269.009 184.085C264.493 184.123 260.793 180.518 260.755 176.04C260.717 171.562 264.36 167.901 268.876 167.863C273.391 167.825 277.091 171.43 277.129 175.907Z" fill="white" stroke="black" stroke-width="1.423" stroke-miterlimit="10"/>
    <path d="M264.416 176.002C264.397 173.517 266.408 171.487 268.913 171.468" stroke="black" stroke-width="0.948665" stroke-linecap="round" stroke-linejoin="round"/>
    <path d="M211.732 152.932L210.956 176.94C210.56 189.215 220.189 199.486 232.463 199.883L239.707 200.117C251.982 200.513 262.254 190.884 262.65 178.61L263.426 154.602C263.822 142.327 254.193 132.055 241.919 131.659L234.675 131.425C222.4 131.029 212.128 140.658 211.732 152.932Z" fill="white" stroke="black" stroke-width="1.423" stroke-miterlimit="10"/>
    <path d="M244.23 182.094C243.718 185.357 240.853 187.824 237.456 187.71C234.06 187.596 231.366 184.959 231.062 181.657L244.23 182.075V182.094Z" stroke="black" stroke-width="1.423" stroke-linecap="round" stroke-linejoin="round"/>
    <path d="M223.435 166.176C223.321 167.827 221.898 169.079 220.247 168.965C218.597 168.851 217.345 167.428 217.458 165.778C217.572 164.127 218.995 162.875 220.646 162.989C222.297 163.102 223.549 164.525 223.435 166.176Z" fill="black"/>
    <path d="M255.121 166.876C255.007 168.527 253.584 169.779 251.933 169.665C250.282 169.552 249.03 168.129 249.144 166.478C249.258 164.827 250.681 163.575 252.331 163.689C253.982 163.803 255.234 165.226 255.121 166.876Z" fill="black"/>
    <path d="M249.276 160.104C249.276 160.104 253.545 159.25 256.695 161.66" stroke="black" stroke-width="1.89733" stroke-linecap="round" stroke-linejoin="round"/>
    <path d="M223.53 159.536C223.53 159.536 219.299 158.492 216.055 160.769" stroke="black" stroke-width="1.89733" stroke-linecap="round" stroke-linejoin="round"/>
    <path d="M239.658 173.747L234.231 173.614L237.077 161.851" stroke="black" stroke-width="1.423" stroke-linecap="round" stroke-linejoin="round"/>
    <path d="M252.652 123.883L239.238 122.062C236.923 121.758 235.31 119.614 235.614 117.299C235.917 114.985 238.061 113.372 240.376 113.675L253.79 115.497C256.105 115.8 257.718 117.944 257.414 120.259C257.111 122.574 254.967 124.187 252.652 123.883Z" fill="#E5E6E7"/>
    <path d="M205.105 160.806C205.105 160.806 231.023 152.249 243.583 138.284C243.792 138.038 244.02 137.791 244.228 137.563C244.228 137.563 252.539 158.112 264.397 165.265C276.255 172.417 263.6 130.088 256.694 125.098C249.769 120.108 219.677 127.906 214.459 132.137C209.242 136.368 205.105 160.825 205.105 160.825V160.806Z" fill="black"/>
    <path d="M244.361 132.728C244.361 132.728 241.837 151.91 258.211 164.925" stroke="black" stroke-width="1.423" stroke-linecap="round" stroke-linejoin="round"/>
    <path d="M246.505 131.761C246.505 131.761 237.493 146.465 246.505 161.909" stroke="black" stroke-width="1.423" stroke-linecap="round" stroke-linejoin="round"/>
    <path d="M252.729 83.9464C252.426 84.0792 252.103 84.212 251.799 84.3448C248.005 79.6963 240.795 78.3303 235.255 80.8347C229.392 83.491 225.635 89.7901 225.18 96.2221C224.781 101.629 226.963 107.644 231.84 109.997C232.124 110.13 232.409 110.243 232.693 110.357C233.282 110.907 233.964 111.325 234.761 111.59C235.027 111.666 235.293 111.723 235.577 111.761C235.596 111.761 235.615 111.78 235.634 111.799C236.981 112.824 237.759 114.455 239.011 115.613C240.795 117.245 243.546 117.681 245.747 116.713C246.696 116.296 247.568 115.632 248.612 115.518C249.561 115.423 250.49 115.803 251.401 116.068C256.049 117.415 261.457 115.537 264.265 111.59C266.219 108.839 266.902 105.424 267.528 102.104C268.23 98.385 268.932 94.4576 267.756 90.8526C265.84 84.9709 258.459 81.5747 252.729 83.9274V83.9464Z" fill="black"/>
</svg>
