<svg width="56" height="56" viewBox="0 0 56 56" fill="none" xmlns="http://www.w3.org/2000/svg">
    <circle cx="28" cy="28" r="28" fill="#F3991F"/>
    <path d="M36.0957 39.5853C33.797 42.1509 30.6064 43.629 27.3375 43.629C26.4715 43.629 25.6054 43.5183 24.7654 43.31C22.4473 42.737 20.4677 41.4737 18.8724 39.5528C18.8203 39.4876 14.4054 33.8225 18.5012 27.0635C18.7226 26.7053 18.9701 26.3797 19.1654 26.1323C20.9496 23.8858 22.6947 20.7797 21.744 19.4058C21.6703 19.297 21.6314 19.1683 21.6325 19.0369C21.6337 18.9054 21.6749 18.7775 21.7505 18.67C21.9003 18.4421 22.1803 18.3379 22.4408 18.4095C22.6947 18.4681 24.6612 19.0867 25.0845 22.9807C25.5143 22.069 25.8919 20.8514 25.8008 19.4644C25.664 17.3611 24.5115 15.3621 22.3691 13.5128C22.257 13.4159 22.1816 13.2835 22.1556 13.1377C22.1295 12.9919 22.1543 12.8415 22.2259 12.7118C22.3691 12.4449 22.6882 12.3081 22.9747 12.3993C23.1245 12.4383 37.0398 16.6579 34.9301 31.0811C35.744 30.2086 36.6491 28.5156 36.4277 25.416C36.4082 25.11 36.597 24.8365 36.8836 24.7453C37.1766 24.6542 37.4891 24.7779 37.6389 25.0383C37.6845 25.1165 42.0798 32.8979 36.0957 39.5853Z" fill="white"/>
</svg>
