<svg width="219" height="395" viewBox="0 0 219 395" fill="none" xmlns="http://www.w3.org/2000/svg">
    <path d="M109.271 342.402C109.271 342.402 42.7546 340.202 20.5202 316.868C-1.71412 293.534 -2.08651 272.771 4.52965 259.167C11.1458 245.562 26.2057 237.119 19.4203 223.514C12.618 209.909 3.24363 202.566 7.47391 185.103C11.7042 167.64 30.4359 161.024 32.2803 152.581C34.1247 144.12 29.5223 130.532 27.5087 112.342C25.4951 94.1519 32.2803 83.4916 42.856 77.2477C53.4148 71.0038 60.5893 65.4875 63.5336 55.5718C66.4779 45.656 68.4916 27.9226 80.9963 14.1827C93.501 0.442733 111.319 -1.40167 122.335 3.38701C133.367 8.15877 142.725 17.3469 150.085 36.0955C157.429 54.8441 153.571 59.9882 163.131 68.0765C172.692 76.1648 184.791 79.7182 190.611 98.1284C195.569 113.848 188.124 127.436 187.396 136.996C186.669 146.557 182.98 150.229 195.112 162.902C207.245 175.576 214.403 183.665 209.631 202.786C204.859 221.906 191.982 225.02 199.884 237.694C207.786 250.368 215.13 253.126 217.888 274.633C220.646 296.139 211.83 314.516 185.366 329.762C158.901 345.008 109.288 342.436 109.288 342.436L109.271 342.402Z" stroke="white" stroke-width="0.817925" stroke-linecap="round" stroke-linejoin="round"/>
    <path d="M109.272 14.1699V465.524" stroke="white" stroke-width="0.817925" stroke-linecap="round" stroke-linejoin="round"/>
    <path d="M20.5039 256.039L109.272 339.003L195.265 260.117" stroke="white" stroke-width="0.817925" stroke-linecap="round" stroke-linejoin="round"/>
    <path d="M17.2031 191.96L109.271 279.848L204.638 189.32" stroke="white" stroke-width="0.817925" stroke-linecap="round" stroke-linejoin="round"/>
    <path d="M40.0811 155.154L109.272 220.741L176.516 155.154" stroke="white" stroke-width="0.817925" stroke-linecap="round" stroke-linejoin="round"/>
    <path d="M42.8389 94.7808L109.271 158.184L179.274 91.752" stroke="white" stroke-width="0.817925" stroke-linecap="round" stroke-linejoin="round"/>
    <path d="M64.8848 62.8184C64.8848 62.8184 109.269 104.986 109.269 104.715C109.269 104.444 150.066 65.3058 150.066 65.3058" stroke="white" stroke-width="0.817925" stroke-linecap="round" stroke-linejoin="round"/>
    <path d="M85.2793 18.1641L109.273 42.1413L130.492 20.0931" stroke="white" stroke-width="0.817925" stroke-linecap="round" stroke-linejoin="round"/>
</svg>
