<svg width="159" height="337" viewBox="0 0 159 337" fill="none" xmlns="http://www.w3.org/2000/svg">
    <path d="M79.3571 247.593C79.3571 247.593 31.3122 246.004 15.2525 229.15C-0.807331 212.296 -1.07631 197.299 3.70252 187.473C8.48134 177.646 19.359 171.547 14.458 161.721C9.54472 151.894 2.77363 146.59 5.82914 133.977C8.88466 121.364 22.4145 116.585 23.7467 110.486C25.0789 104.375 21.7546 94.5606 20.3002 81.4219C18.8457 68.2832 23.7467 60.5833 31.3855 56.0734C39.0121 51.5635 44.1942 47.5791 46.3208 40.4169C48.4475 33.2548 49.902 20.4461 58.9341 10.5218C67.9662 0.597489 80.8359 -0.734714 88.7925 2.72413C96.7612 6.17075 103.52 12.8073 108.837 26.3494C114.141 39.8914 111.354 43.6069 118.26 49.449C125.165 55.2912 133.904 57.8578 138.109 71.1554C141.69 82.5097 136.312 92.324 135.786 99.2295C135.261 106.135 132.596 108.787 141.36 117.941C150.123 127.096 155.293 132.938 151.846 146.749C148.4 160.56 139.099 162.809 144.806 171.963C150.514 181.117 155.818 183.109 157.811 198.644C159.803 214.178 153.435 227.451 134.32 238.463C115.204 249.475 79.3693 247.617 79.3693 247.617L79.3571 247.593Z" stroke="white" stroke-width="0.817925" stroke-linecap="round" stroke-linejoin="round"/>
    <path d="M79.3574 10.5117V336.523" stroke="white" stroke-width="0.817925" stroke-linecap="round" stroke-linejoin="round"/>
    <path d="M15.2402 185.213L79.3571 245.138L141.47 188.158" stroke="white" stroke-width="0.817925" stroke-linecap="round" stroke-linejoin="round"/>
    <path d="M12.8564 138.928L79.3567 202.409L148.24 137.021" stroke="white" stroke-width="0.817925" stroke-linecap="round" stroke-linejoin="round"/>
    <path d="M29.3809 112.344L79.3569 159.716L127.927 112.344" stroke="white" stroke-width="0.817925" stroke-linecap="round" stroke-linejoin="round"/>
    <path d="M31.373 68.7366L79.3568 114.533L129.919 66.5488" stroke="white" stroke-width="0.817925" stroke-linecap="round" stroke-linejoin="round"/>
    <path d="M47.2969 45.6504C47.2969 45.6504 79.3553 76.1077 79.3553 75.9122C79.3553 75.7166 108.823 47.447 108.823 47.447" stroke="white" stroke-width="0.817925" stroke-linecap="round" stroke-linejoin="round"/>
    <path d="M62.0273 13.3965L79.3581 30.7151L94.6846 14.7898" stroke="white" stroke-width="0.817925" stroke-linecap="round" stroke-linejoin="round"/>
</svg>
