<svg width="429" height="185" viewBox="0 0 429 185" fill="none" xmlns="http://www.w3.org/2000/svg">
    <path d="M338.081 185.481C366.634 151.778 449.403 48.6384 423.711 14.3919C391.496 -28.5234 325.149 33.4463 281.089 175.296C281.089 175.296 318.826 33.0172 281.089 9.47099C243.61 -13.9036 218.633 50.498 222.352 185.452H338.081V185.481Z" stroke="white" stroke-width="0.817925" stroke-linecap="round" stroke-linejoin="round"/>
    <path d="M221.954 185.48C218.52 165.31 206.647 8.81194 152.888 24.0326C102.077 38.4235 169.654 147.4 188.337 185.48H221.954Z" stroke="white" stroke-width="0.817925" stroke-linecap="round" stroke-linejoin="round"/>
    <path d="M261.605 184.28L269.359 57.9082" stroke="white" stroke-width="0.817925" stroke-linecap="round" stroke-linejoin="round"/>
    <path d="M398.361 33.5332L304.434 184.28" stroke="white" stroke-width="0.817925" stroke-linecap="round" stroke-linejoin="round"/>
    <path d="M211.08 184.711L163.129 62.6309" stroke="white" stroke-width="0.817925" stroke-linecap="round" stroke-linejoin="round"/>
    <path d="M57.0569 185.425H104.035C101.517 173.523 97.1684 158.331 90.3306 138.933C49.418 22.8331 -1.85169 25.78 1.12377 67.5795C4.12785 109.379 55.2831 183.022 55.2831 183.022L57.0569 185.454V185.425Z" stroke="white" stroke-width="0.817925" stroke-linecap="round" stroke-linejoin="round"/>
    <path d="M23.4707 62L70.0765 178.615" stroke="white" stroke-width="0.817925" stroke-linecap="round" stroke-linejoin="round"/>
</svg>
