<svg width="1067" height="799" viewBox="0 0 1067 799" fill="none" xmlns="http://www.w3.org/2000/svg">
    <path d="M64.6032 797.633C44.5381 773.949 -13.6268 701.469 4.42781 677.403C27.0664 647.245 73.6907 690.793 104.653 790.476C104.653 790.476 78.134 690.492 104.653 673.945C130.991 657.519 148.543 702.776 145.929 797.613H64.6032V797.633Z" stroke="#B7BD92" stroke-width="1.00527" stroke-linecap="round" stroke-linejoin="round"/>
    <path d="M146.211 797.633C148.624 783.459 156.967 673.482 194.745 684.178C230.452 694.291 182.963 770.873 169.835 797.633H146.211Z" stroke="#B7BD92" stroke-width="1.00527" stroke-linecap="round" stroke-linejoin="round"/>
    <path d="M118.346 796.79L112.897 707.984" stroke="#B7BD92" stroke-width="1.00527" stroke-linecap="round" stroke-linejoin="round"/>
    <path d="M22.242 690.855L88.248 796.791" stroke="#B7BD92" stroke-width="1.00527" stroke-linecap="round" stroke-linejoin="round"/>
    <path d="M153.851 797.092L187.548 711.303" stroke="#B7BD92" stroke-width="1.00527" stroke-linecap="round" stroke-linejoin="round"/>
    <path d="M346.418 797.593H313.406C315.175 789.229 318.231 778.553 323.036 764.922C351.787 683.334 387.815 685.405 385.725 714.779C383.613 744.153 347.665 795.904 347.665 795.904L346.418 797.613V797.593Z" stroke="#B7BD92" stroke-width="1.00527" stroke-linecap="round" stroke-linejoin="round"/>
    <path d="M370.021 710.859L337.27 792.809" stroke="#B7BD92" stroke-width="1.00527" stroke-linecap="round" stroke-linejoin="round"/>
    <path d="M249.53 638.952C249.53 638.952 164.59 636.143 136.197 606.346C107.805 576.549 107.329 550.036 115.778 532.663C124.227 515.291 143.458 504.508 134.793 487.136C126.106 469.763 114.136 460.385 119.538 438.086C124.94 415.787 148.859 407.338 151.215 396.556C153.57 385.752 147.693 368.401 145.121 345.173C142.55 321.944 151.215 308.332 164.72 300.358C178.203 292.385 187.364 285.341 191.124 272.679C194.884 260.017 197.455 237.372 213.424 219.826C229.392 202.281 252.145 199.925 266.211 206.04C280.299 212.134 292.249 223.867 301.648 247.808C311.026 271.75 306.099 278.318 318.307 288.647C330.516 298.975 345.966 303.513 353.399 327.022C359.73 347.096 350.222 364.447 349.293 376.655C348.364 388.864 343.653 393.553 359.146 409.737C374.639 425.921 383.779 436.25 377.686 460.666C371.592 485.083 355.149 489.059 365.24 505.243C375.331 521.427 384.708 524.949 388.23 552.413C391.753 579.876 380.495 603.342 346.7 622.811C312.906 642.28 249.552 638.995 249.552 638.995L249.53 638.952Z" stroke="#B7BD92" stroke-width="1.08039" stroke-linecap="round" stroke-linejoin="round"/>
    <path d="M249.53 219.806V796.171" stroke="#B7BD92" stroke-width="1.08039" stroke-linecap="round" stroke-linejoin="round"/>
    <path d="M136.176 528.666L249.53 634.609L359.341 533.873" stroke="#B7BD92" stroke-width="1.08039" stroke-linecap="round" stroke-linejoin="round"/>
    <path d="M131.962 446.838L249.53 559.068L371.311 443.467" stroke="#B7BD92" stroke-width="1.08039" stroke-linecap="round" stroke-linejoin="round"/>
    <path d="M161.175 399.842L249.529 483.594L335.398 399.842" stroke="#B7BD92" stroke-width="1.08039" stroke-linecap="round" stroke-linejoin="round"/>
    <path d="M164.698 322.744L249.53 403.708L338.922 318.876" stroke="#B7BD92" stroke-width="1.08039" stroke-linecap="round" stroke-linejoin="round"/>
    <path d="M192.852 281.928C192.852 281.928 249.529 335.774 249.529 335.429C249.529 335.083 301.625 285.104 301.625 285.104" stroke="#B7BD92" stroke-width="1.08039" stroke-linecap="round" stroke-linejoin="round"/>
    <path d="M218.891 224.903L249.53 255.522L276.627 227.367" stroke="#B7BD92" stroke-width="1.08039" stroke-linecap="round" stroke-linejoin="round"/>
    <path d="M919.9 45.2236V643.997" stroke="#B7BD92" stroke-width="1.08039" stroke-linecap="round" stroke-linejoin="round"/>
    <path d="M883.708 52.6133L919.901 86.7752L954.971 55.5087" stroke="#B7BD92" stroke-width="1.08039" stroke-linecap="round" stroke-linejoin="round"/>
    <path d="M889.304 108.233L919.9 137.728L952.744 106.224" stroke="#B7BD92" stroke-width="1.08039" stroke-linecap="round" stroke-linejoin="round"/>
    <path d="M880.812 149.329L919.901 188.439L959.443 154.472" stroke="#B7BD92" stroke-width="1.08039" stroke-linecap="round" stroke-linejoin="round"/>
    <path d="M889.304 210.113L919.9 238.7L947.148 212.123" stroke="#B7BD92" stroke-width="1.08039" stroke-linecap="round" stroke-linejoin="round"/>
    <path d="M878.565 250.995L919.901 289.629L959.443 248.531" stroke="#B7BD92" stroke-width="1.08039" stroke-linecap="round" stroke-linejoin="round"/>
    <path d="M889.304 311.519L920.116 340.797L950.734 313.096" stroke="#B7BD92" stroke-width="1.08039" stroke-linecap="round" stroke-linejoin="round"/>
    <path d="M874.092 351.058L919.9 391.507L962.122 354.645" stroke="#B7BD92" stroke-width="1.08039" stroke-linecap="round" stroke-linejoin="round"/>
    <path d="M1031.55 332.153C1032.69 330.964 1033.8 329.754 1034.88 328.523C1035.05 328.372 1035.13 328.285 1035.13 328.285H1035.11C1054.32 306.613 1065.8 279.387 1065.8 249.806C1065.8 211.927 1047.02 177.895 1017.22 154.494C1017.2 154.472 1017.18 154.451 1017.16 154.429C987.835 126.317 999.223 108.901 1003.22 73.8752C1007.8 33.8144 966.076 0.992188 920.246 0.992188C874.416 0.992188 837.272 33.6199 837.272 73.8752C837.272 81.2651 838.525 88.3956 840.859 95.094C840.859 95.094 855.855 127.419 821.823 155.617C821.736 155.682 821.671 155.747 821.607 155.812C792.782 179.17 774.718 212.619 774.718 249.784C774.718 278.393 785.435 304.819 803.499 326.124L803.542 326.189C803.542 326.189 803.694 326.362 803.758 326.427C805.962 328.998 821.585 347.516 822.773 360.178C824.048 373.813 832.411 408.731 844.511 418.195C844.511 418.195 844.532 418.195 844.554 418.217C861.343 439.047 888.98 452.659 920.246 452.659C963.051 452.659 999.071 427.162 1009.72 392.525C1010.59 390.861 1011.21 388.506 1011.54 385.351C1011.54 385.286 1011.54 385.222 1011.54 385.178C1012.08 382.456 1012.45 379.69 1012.68 376.881C1016.75 352.767 1026.3 338.419 1031.53 332.11L1031.55 332.153Z" stroke="#B7BD92" stroke-width="1.08039" stroke-linecap="round" stroke-linejoin="round"/>
    <path d="M742.76 461.819C742.76 461.819 670.547 459.42 646.411 434.096C622.275 408.771 621.886 386.213 629.06 371.455C636.234 356.697 652.591 347.513 645.222 332.755C637.833 317.997 627.677 310.024 632.258 291.074C636.839 272.124 657.193 264.95 659.181 255.767C661.169 246.584 656.199 231.825 653.995 212.076C651.791 192.326 659.181 180.766 670.655 173.981C682.129 167.197 689.907 161.211 693.105 150.451C696.303 139.668 698.486 120.437 712.055 105.528C725.625 90.6187 744.964 88.6091 756.935 93.8166C768.905 99.0025 779.083 108.985 787.056 129.318C795.029 149.673 790.837 155.247 801.209 164.02C811.581 172.793 824.718 176.661 831.028 196.626C836.408 213.675 828.327 228.433 827.527 238.826C826.728 249.22 822.73 253.196 835.911 266.96C849.07 280.724 856.849 289.497 851.663 310.24C846.477 330.983 832.519 334.376 841.097 348.14C849.675 361.904 857.649 364.886 860.652 388.244C863.634 411.58 854.061 431.524 825.345 448.098C796.628 464.649 742.76 461.862 742.76 461.862V461.819Z" stroke="#B7BD92" stroke-width="1.08039" stroke-linecap="round" stroke-linejoin="round"/>
    <path d="M742.76 105.507V608.233" stroke="#B7BD92" stroke-width="1.08039" stroke-linecap="round" stroke-linejoin="round"/>
    <path d="M646.411 368.062L742.76 458.124L836.106 372.492" stroke="#B7BD92" stroke-width="1.08039" stroke-linecap="round" stroke-linejoin="round"/>
    <path d="M642.824 298.508L742.76 393.906L846.283 295.655" stroke="#B7BD92" stroke-width="1.08039" stroke-linecap="round" stroke-linejoin="round"/>
    <path d="M667.652 258.555L742.761 329.752L815.774 258.555" stroke="#B7BD92" stroke-width="1.08039" stroke-linecap="round" stroke-linejoin="round"/>
    <path d="M670.654 193.02L742.759 261.84L818.754 189.735" stroke="#B7BD92" stroke-width="1.08039" stroke-linecap="round" stroke-linejoin="round"/>
    <path d="M694.575 158.315C694.575 158.315 742.739 204.102 742.739 203.8C742.739 203.497 787.013 161.016 787.013 161.016" stroke="#B7BD92" stroke-width="1.08039" stroke-linecap="round" stroke-linejoin="round"/>
    <path d="M716.724 109.828L742.761 135.865L765.795 111.924" stroke="#B7BD92" stroke-width="1.08039" stroke-linecap="round" stroke-linejoin="round"/>
</svg>
