<svg width="306" height="240" viewBox="0 0 306 240" fill="none" xmlns="http://www.w3.org/2000/svg">
    <path d="M139.665 171.511C139.665 171.511 106.245 170.401 95.0749 158.681C83.9049 146.961 83.7249 136.521 87.0449 129.691C90.3649 122.861 97.9349 118.611 94.5249 111.781C91.1049 104.951 86.4049 101.261 88.5249 92.4914C90.6449 83.7214 100.065 80.4014 100.985 76.1514C101.905 71.9014 99.6049 65.0714 98.5849 55.9314C97.5649 46.7914 100.985 41.4414 106.295 38.3014C111.605 35.1614 115.205 32.3914 116.685 27.4114C118.165 22.4214 119.175 13.5214 125.455 6.62136C131.735 -0.278639 140.685 -1.20862 146.225 1.20138C151.765 3.60138 156.475 8.22137 160.165 17.6314C163.855 27.0514 161.915 29.6314 166.715 33.6914C171.515 37.7514 177.595 39.5414 180.515 48.7814C183.005 56.6714 179.265 63.5014 178.895 68.3114C178.525 73.1114 176.675 74.9614 182.775 81.3314C188.865 87.7014 192.465 91.7614 190.065 101.361C187.665 110.961 181.205 112.531 185.175 118.901C189.145 125.271 192.835 126.651 194.225 137.461C195.605 148.261 191.175 157.491 177.885 165.161C164.595 172.821 139.665 171.531 139.665 171.531V171.511Z" fill="#2F5327"/>
    <path d="M139.665 6.61133V239.271" stroke="black" stroke-linecap="round" stroke-linejoin="round"/>
    <path d="M95.0752 128.121L139.665 169.801L182.865 130.181" stroke="black" stroke-linecap="round" stroke-linejoin="round"/>
    <path d="M93.4053 95.9313L139.665 140.081L187.575 94.6113" stroke="black" stroke-linecap="round" stroke-linejoin="round"/>
    <path d="M104.905 77.4414L139.665 110.391L173.445 77.4414" stroke="black" stroke-linecap="round" stroke-linejoin="round"/>
    <path d="M106.285 47.1118L139.665 78.9618L174.835 45.5918" stroke="black" stroke-linecap="round" stroke-linejoin="round"/>
    <path d="M117.365 31.0508C117.365 31.0508 139.655 52.2408 139.655 52.1008C139.655 51.9608 160.145 32.3008 160.145 32.3008" stroke="black" stroke-linecap="round" stroke-linejoin="round"/>
    <path d="M127.615 8.62109L139.665 20.6611L150.325 9.58112" stroke="black" stroke-linecap="round" stroke-linejoin="round"/>
    <path d="M279.996 239.04C301.136 219.43 313.376 184.01 299.696 180.51C280.606 175.62 264.626 219.45 259.406 232.55C271.096 201.45 281.356 154.96 263.206 155C238.126 155.06 242.706 235.64 242.706 235.64C238.546 178.78 225.046 162.95 210.396 172.55C195.676 182.2 215.256 228.28 219.716 238.24L279.996 239.06V239.04Z" fill="#2B4E27"/>
    <path d="M231.946 238.218L217.296 179.568" stroke="black" stroke-linecap="round" stroke-linejoin="round"/>
    <path d="M249.275 237.259L259.985 175.619" stroke="black" stroke-linecap="round" stroke-linejoin="round"/>
    <path d="M268.946 238.889L292.266 199.369" stroke="black" stroke-linecap="round" stroke-linejoin="round"/>
    <path d="M17.9002 239.046C3.04734 225.268 -5.55245 200.382 4.05902 197.923C17.4715 194.488 28.699 225.282 32.3665 234.486C24.1532 212.635 16.9446 179.972 29.6967 180C47.3177 180.042 44.0998 236.657 44.0998 236.657C47.0226 196.708 56.5077 185.586 66.8007 192.331C77.1428 199.111 63.386 231.486 60.2524 238.484L17.9002 239.06V239.046Z" fill="#2B4E27"/>
    <path d="M51.6601 238.471L61.9531 197.264" stroke="black" stroke-linecap="round" stroke-linejoin="round"/>
    <path d="M39.4844 237.796L31.9596 194.488" stroke="black" stroke-linecap="round" stroke-linejoin="round"/>
    <path d="M25.6641 238.942L9.27962 211.176" stroke="black" stroke-linecap="round" stroke-linejoin="round"/>
</svg>
