<svg width="75" height="43" viewBox="0 0 75 43" fill="none" xmlns="http://www.w3.org/2000/svg">
    <mask id="path-1-inside-1_393_274" fill="white">
        <path fill-rule="evenodd" clip-rule="evenodd" d="M16.5 0C7.3873 0 0 7.3873 0 16.5C0 25.6127 7.3873 33 16.5 33H24.3431C25.404 33 26.4214 33.4214 27.1716 34.1716L34.1924 41.1924C35.7545 42.7545 38.2871 42.7545 39.8492 41.1924L46.8701 34.1716C47.6202 33.4214 48.6376 33 49.6985 33H58.5C67.6127 33 75 25.6127 75 16.5C75 7.3873 67.6127 0 58.5 0H16.5Z"/>
    </mask>
    <path fill-rule="evenodd" clip-rule="evenodd" d="M16.5 0C7.3873 0 0 7.3873 0 16.5C0 25.6127 7.3873 33 16.5 33H24.3431C25.404 33 26.4214 33.4214 27.1716 34.1716L34.1924 41.1924C35.7545 42.7545 38.2871 42.7545 39.8492 41.1924L46.8701 34.1716C47.6202 33.4214 48.6376 33 49.6985 33H58.5C67.6127 33 75 25.6127 75 16.5C75 7.3873 67.6127 0 58.5 0H16.5Z" fill="white"/>
    <path d="M46.8701 34.1716L47.5772 34.8787L46.8701 34.1716ZM39.8492 41.1924L39.1421 40.4853L39.8492 41.1924ZM27.1716 34.1716L27.8787 33.4645L27.1716 34.1716ZM1 16.5C1 7.93959 7.93959 1 16.5 1V-1C6.83502 -1 -1 6.83502 -1 16.5H1ZM16.5 32C7.93959 32 1 25.0604 1 16.5H-1C-1 26.165 6.83502 34 16.5 34V32ZM24.3431 32H16.5V34H24.3431V32ZM34.8995 40.4853L27.8787 33.4645L26.4645 34.8787L33.4853 41.8995L34.8995 40.4853ZM46.1629 33.4645L39.1421 40.4853L40.5563 41.8995L47.5772 34.8787L46.1629 33.4645ZM58.5 32H49.6985V34H58.5V32ZM74 16.5C74 25.0604 67.0604 32 58.5 32V34C68.165 34 76 26.165 76 16.5H74ZM58.5 1C67.0604 1 74 7.93959 74 16.5H76C76 6.83502 68.165 -1 58.5 -1V1ZM16.5 1H58.5V-1H16.5V1ZM47.5772 34.8787C48.1398 34.3161 48.9028 34 49.6985 34V32C48.3724 32 47.1006 32.5268 46.1629 33.4645L47.5772 34.8787ZM33.4853 41.8995C35.4379 43.8521 38.6037 43.8521 40.5563 41.8995L39.1421 40.4853C37.9706 41.6569 36.0711 41.6569 34.8995 40.4853L33.4853 41.8995ZM24.3431 34C25.1388 34 25.9019 34.3161 26.4645 34.8787L27.8787 33.4645C26.941 32.5268 25.6692 32 24.3431 32V34Z" fill="#DCAA42" mask="url(#path-1-inside-1_393_274)"/>
    <path d="M34.1838 16.8969C33.5383 16.8969 32.9193 16.6405 32.4628 16.1841C32.0064 15.7277 31.75 15.1086 31.75 14.4631C31.75 13.8176 32.0064 13.1986 32.4628 12.7422C32.9193 12.2857 33.5383 12.0293 34.1838 12.0293C34.6912 12.028 35.1856 12.1903 35.5934 12.4922C36.0013 12.7941 36.3009 13.2195 36.4478 13.7052H35.4252C35.3011 13.4855 35.1206 13.3028 34.9024 13.1759C34.6843 13.049 34.4362 12.9825 34.1838 12.9832C33.7913 12.9832 33.4149 13.1391 33.1374 13.4167C32.8598 13.6942 32.7039 14.0706 32.7039 14.4631C32.7039 14.8556 32.8598 15.232 33.1374 15.5096C33.4149 15.7871 33.7913 15.943 34.1838 15.943C34.4331 15.9448 34.6784 15.88 34.8943 15.7554C35.1102 15.6308 35.289 15.4508 35.4122 15.2341H36.4412C36.2942 15.7174 35.995 16.1403 35.5883 16.4399C35.1816 16.7395 34.689 16.8998 34.1838 16.8969Z" fill="black"/>
    <path d="M38.623 16.0553C38.7611 16.0675 38.8999 16.042 39.0247 15.9816C39.1496 15.9212 39.2557 15.8282 39.3319 15.7123H40.2793C40.131 16.1323 39.8305 16.4814 39.4371 16.6904C39.0438 16.8993 38.5863 16.953 38.1553 16.8407C37.7242 16.7284 37.3511 16.4583 37.1097 16.084C36.8684 15.7096 36.7764 15.2583 36.852 14.8193C36.9276 14.3803 37.1652 13.9858 37.5179 13.7137C37.8706 13.4417 38.3126 13.312 38.7564 13.3504C39.2001 13.3887 39.6133 13.5923 39.9141 13.9208C40.2149 14.2493 40.3814 14.6788 40.3805 15.1243C40.3782 15.2336 40.3695 15.3427 40.3544 15.4509H37.7572C37.8238 15.6272 37.942 15.7793 38.0965 15.8871C38.251 15.995 38.4345 16.0536 38.623 16.0553ZM37.7572 14.7486H39.4756C39.4039 14.5805 39.2841 14.4374 39.1312 14.3374C38.9783 14.2374 38.7991 14.1849 38.6164 14.1867C38.4338 14.1834 38.2544 14.2348 38.1012 14.3344C37.9481 14.4339 37.8283 14.577 37.7572 14.7453V14.7486Z" fill="black"/>
    <path d="M44.8639 16.8274L44.5601 14.8673L43.7075 16.8274H42.8091L41.9695 14.8673L41.6657 16.8274H40.7607L41.2867 13.3809H42.2406L43.2599 15.7755L44.2759 13.3809H45.2266L45.7689 16.8274H44.8639Z" fill="black"/>
    <path d="M47.9276 16.0553C48.0658 16.0675 48.2046 16.042 48.3294 15.9816C48.4542 15.9212 48.5604 15.8282 48.6365 15.7123H49.5839C49.4357 16.1323 49.1352 16.4814 48.7418 16.6904C48.3485 16.8993 47.891 16.953 47.46 16.8407C47.0289 16.7284 46.6558 16.4583 46.4144 16.084C46.173 15.7096 46.0811 15.2583 46.1566 14.8193C46.2322 14.3803 46.4699 13.9858 46.8226 13.7137C47.1753 13.4417 47.6173 13.312 48.0611 13.3504C48.5048 13.3887 48.918 13.5923 49.2188 13.9208C49.5196 14.2493 49.6861 14.6788 49.6852 15.1243C49.6829 15.2336 49.6741 15.3427 49.6591 15.4509H47.0456C47.1131 15.6298 47.2339 15.7837 47.3916 15.8918C47.5493 15.9999 47.7364 16.0569 47.9276 16.0553ZM47.0619 14.7486H48.7803C48.7086 14.5805 48.5888 14.4374 48.4359 14.3374C48.2829 14.2374 48.1038 14.1849 47.9211 14.1867C47.7385 14.1834 47.5591 14.2348 47.4059 14.3344C47.2528 14.4339 47.133 14.577 47.0619 14.7453V14.7486Z" fill="black"/>
    <path d="M53.7229 13.3809V16.8307H52.8212V14.7007L51.178 16.8307H50.2861V13.3809H51.178V15.4782L52.8212 13.3809H53.7229Z" fill="black"/>
    <path d="M52.397 12.8861H51.6064L52.0246 11.9746H52.9426L52.397 12.8861Z" fill="black"/>
    <path d="M57.8818 13.3809V16.8274H56.9834V15.5207H55.4088V16.8274H54.5137V13.3809H55.4088V14.6876H56.9834V13.3809H57.8818Z" fill="black"/>
    <path d="M61.4039 15.6056C61.4045 15.771 61.3715 15.9347 61.3068 16.0869C61.2421 16.2391 61.1471 16.3765 61.0276 16.4908C60.9081 16.6051 60.7666 16.6939 60.6117 16.7518C60.4568 16.8097 60.2917 16.8354 60.1265 16.8274H58.6924V13.3809H59.5842V14.3871H60.1265C60.2914 14.3791 60.4562 14.4047 60.6109 14.4624C60.7656 14.52 60.907 14.6085 61.0265 14.7225C61.1459 14.8364 61.241 14.9735 61.3058 15.1253C61.3707 15.2771 61.4041 15.4405 61.4039 15.6056ZM60.5382 15.6056C60.5382 15.4961 60.4949 15.3911 60.4178 15.3134C60.3407 15.2356 60.236 15.1916 60.1265 15.1907H59.5842V16.0172H60.1265C60.1807 16.0176 60.2344 16.0073 60.2846 15.9868C60.3347 15.9662 60.3803 15.9359 60.4186 15.8976C60.4569 15.8593 60.4872 15.8138 60.5077 15.7636C60.5283 15.7135 60.5386 15.6598 60.5382 15.6056ZM62.7564 13.3809V16.8274H61.8645V13.3809H62.7564Z" fill="black"/>
    <path d="M66.9999 13.3809V16.8307H66.1015V14.7007L64.4583 16.8307H63.5664V13.3809H64.4583V15.4782L66.1015 13.3809H66.9999Z" fill="black"/>
    <path d="M65.6763 12.8861H64.8857L65.3039 11.9746H66.2219L65.6763 12.8861Z" fill="black"/>
    <path d="M39.8909 19.5459H39.7439V20.1144H39.4596V19.5427H39.3126L38.8716 20.1144H38.5449L39.0872 19.4087L38.5711 18.7129H38.8977L39.3159 19.2781H39.4629V18.7129H39.7471V19.2781H39.8941L40.3123 18.7129H40.639L40.1228 19.4087L40.6651 20.1144H40.3384L39.8909 19.5459Z" fill="black"/>
    <path d="M42.1334 20.1144H41.8524V19.1866L41.3003 20.1144H40.9736V18.7129H41.2578V19.6374L41.81 18.7129H42.1366L42.1334 20.1144Z" fill="black"/>
    <path d="M43.7126 20.1144H43.4283V18.9775H43.1017L42.873 20.1144H42.4385V19.8563H42.6378L42.8697 18.7129H43.7126V20.1144Z" fill="black"/>
    <path d="M44.0598 19.4126C44.0623 19.273 44.1061 19.1373 44.1855 19.0224C44.265 18.9076 44.3766 18.8187 44.5063 18.7671C44.6361 18.7154 44.7782 18.7032 44.9148 18.732C45.0514 18.7609 45.1765 18.8294 45.2744 18.929C45.3722 19.0287 45.4385 19.155 45.4648 19.2921C45.4911 19.4293 45.4763 19.5712 45.4223 19.6999C45.3683 19.8287 45.2774 19.9387 45.1611 20.016C45.0448 20.0933 44.9083 20.1346 44.7687 20.1346C44.6743 20.1351 44.5809 20.1166 44.4938 20.0803C44.4067 20.0441 44.3278 19.9907 44.2617 19.9234C44.1956 19.8561 44.1437 19.7762 44.109 19.6885C44.0743 19.6007 44.0576 19.5069 44.0598 19.4126ZM45.1999 19.4126C45.1986 19.3269 45.1719 19.2434 45.1233 19.1727C45.0746 19.1021 45.0061 19.0474 44.9264 19.0156C44.8467 18.9838 44.7594 18.9764 44.6755 18.9941C44.5916 19.0119 44.5148 19.0541 44.4548 19.1154C44.3948 19.1768 44.3543 19.2545 44.3385 19.3388C44.3226 19.4231 44.332 19.5102 44.3656 19.5892C44.3992 19.6681 44.4554 19.7354 44.5271 19.7825C44.5988 19.8295 44.6829 19.8543 44.7687 19.8537C44.8261 19.8537 44.883 19.8422 44.936 19.8199C44.989 19.7977 45.0369 19.765 45.0771 19.7239C45.1173 19.6828 45.1488 19.6341 45.1699 19.5807C45.191 19.5272 45.2012 19.4701 45.1999 19.4126Z" fill="black"/>
    <path d="M46.9768 20.1126H46.6926V19.1914L46.147 20.1126H45.8203V18.7111H46.1045V19.6324L46.6534 18.7111H46.9801L46.9768 20.1126ZM46.4933 18.5641H46.2581L46.3822 18.293H46.6534L46.4933 18.5641Z" fill="black"/>
    <path d="M48.4791 19.5459H48.3125V20.1144H48.0283V18.7129H48.3125V19.2781H48.4791L48.9104 18.7129H49.2371L48.7078 19.4087L49.2632 20.1144H48.9365L48.4791 19.5459Z" fill="black"/>
    <path d="M49.4103 19.4139C49.4136 19.2752 49.4576 19.1406 49.5369 19.0268C49.6162 18.913 49.7273 18.8251 49.8563 18.774C49.9853 18.723 50.1265 18.7112 50.2622 18.74C50.3979 18.7687 50.5221 18.8369 50.6193 18.9359C50.7165 19.0348 50.7823 19.1603 50.8086 19.2965C50.8349 19.4327 50.8205 19.5736 50.7672 19.7017C50.7138 19.8297 50.6239 19.9392 50.5086 20.0164C50.3934 20.0937 50.258 20.1352 50.1193 20.1359C50.0249 20.1364 49.9315 20.1179 49.8444 20.0816C49.7573 20.0453 49.6784 19.992 49.6123 19.9246C49.5462 19.8573 49.4943 19.7774 49.4596 19.6897C49.4249 19.602 49.4082 19.5082 49.4103 19.4139ZM50.5472 19.4139C50.5453 19.3289 50.5183 19.2464 50.4696 19.1767C50.4209 19.107 50.3527 19.0533 50.2736 19.0223C50.1944 18.9912 50.1079 18.9843 50.0248 19.0023C49.9417 19.0203 49.8658 19.0624 49.8066 19.1234C49.7474 19.1844 49.7076 19.2616 49.6921 19.3451C49.6766 19.4287 49.6862 19.515 49.7196 19.5932C49.753 19.6714 49.8087 19.7379 49.8798 19.7845C49.951 19.831 50.0343 19.8556 50.1193 19.8549C50.1764 19.8545 50.233 19.8427 50.2856 19.8202C50.3382 19.7978 50.3857 19.7651 50.4256 19.724C50.4654 19.683 50.4967 19.6344 50.5175 19.5812C50.5384 19.5279 50.5485 19.4711 50.5472 19.4139Z" fill="black"/>
    <path d="M52.4199 20.1144L52.3774 19.2225L52.0181 19.9282H51.8384L51.4758 19.2193L51.4333 20.1144H51.1523L51.2177 18.7129H51.515L51.9299 19.51L52.3382 18.7129H52.6551L52.7172 20.1144H52.4199Z" fill="black"/>
    <path d="M54.2123 20.1144H53.928V18.9775H53.3955V20.1144H53.1113V18.7129H54.2123V20.1144Z" fill="black"/>
    <path d="M55.7917 20.1144H55.5107V18.9775H55.1841L54.9423 20.1144H54.5078V19.8563H54.7071L54.9358 18.7129H55.7786L55.7917 20.1144Z" fill="black"/>
    <path d="M56.2129 18.7148H57.1374V18.9795H56.484V19.2833H57.0296V19.5283H56.484V19.855H57.1374V20.1131H56.2129V18.7148Z" fill="black"/>
    <path d="M57.9567 19.5459H57.7901V20.1144H57.5059V18.7129H57.7901V19.2781H57.9567L58.3879 18.7129H58.7146L58.1854 19.4087L58.7407 20.1144H58.414L57.9567 19.5459Z" fill="black"/>
    <path d="M59.5973 20.136C59.4146 20.1237 59.2434 20.0425 59.1184 19.9087C58.9934 19.775 58.9238 19.5988 58.9238 19.4157C58.9238 19.2326 58.9934 19.0564 59.1184 18.9226C59.2434 18.7889 59.4146 18.7076 59.5973 18.6953C59.7477 18.6942 59.8944 18.742 60.0152 18.8316C60.136 18.9211 60.2244 19.0476 60.267 19.1919H59.9664C59.9297 19.1263 59.8761 19.0717 59.8112 19.0338C59.7463 18.9959 59.6724 18.976 59.5973 18.9763C59.4873 18.9858 59.3848 19.0362 59.3102 19.1175C59.2356 19.1989 59.1942 19.3053 59.1942 19.4157C59.1942 19.5261 59.2356 19.6325 59.3102 19.7138C59.3848 19.7952 59.4873 19.8456 59.5973 19.8551C59.6711 19.8552 59.7437 19.8355 59.8074 19.7982C59.8712 19.7609 59.9238 19.7072 59.9599 19.6427H60.2637C60.2212 19.7861 60.1332 19.9118 60.0129 20.0008C59.8927 20.0898 59.7468 20.1372 59.5973 20.136Z" fill="black"/>
    <g style="mix-blend-mode:multiply">
        <path d="M27.6309 15.5391C27.6309 15.5619 27.6309 15.5848 27.6309 15.6077C27.6391 15.5855 27.6391 15.5612 27.6309 15.5391Z" fill="#FFF9CA"/>
    </g>
    <g style="mix-blend-mode:multiply">
        <path d="M26.4912 16.1068C26.1808 16.1068 25.7921 16.1068 25.3184 16.1329C25.5764 16.1198 26.024 16.1002 26.4912 16.1068Z" fill="#FFF9CA"/>
    </g>
    <g style="mix-blend-mode:multiply">
        <path d="M27.1149 15.3887C27.0799 15.3278 27.0493 15.2645 27.0234 15.1992C27.0493 15.2645 27.0799 15.3278 27.1149 15.3887Z" fill="#FFF9CA"/>
    </g>
    <g style="mix-blend-mode:multiply">
        <path d="M26.8467 13.7274C26.8635 13.5904 26.8908 13.455 26.9284 13.3223C26.8908 13.455 26.8635 13.5904 26.8467 13.7274Z" fill="#FFF9CA"/>
    </g>
    <g style="mix-blend-mode:multiply">
        <path d="M21.6753 16.4492C20.5132 16.6358 19.3666 16.9088 18.2451 17.2659C19.3663 16.9077 20.513 16.6347 21.6753 16.4492Z" fill="#FFF9CA"/>
    </g>
    <g style="mix-blend-mode:multiply">
        <path d="M20.5816 20.3613C20.562 20.4201 20.5424 20.4757 20.5195 20.5312C20.5424 20.4757 20.562 20.4201 20.5816 20.3613Z" fill="#FFF9CA"/>
    </g>
    <g style="mix-blend-mode:multiply">
        <path d="M20.469 20.6289C20.4461 20.6714 20.4265 20.7138 20.4004 20.7563C20.4265 20.7138 20.4461 20.6714 20.469 20.6289Z" fill="#FFF9CA"/>
    </g>
    <g style="mix-blend-mode:multiply">
        <path d="M20.3359 20.8574C20.3128 20.8957 20.2877 20.9328 20.2607 20.9685C20.2877 20.9328 20.3128 20.8957 20.3359 20.8574Z" fill="#FFF9CA"/>
    </g>
    <g style="mix-blend-mode:multiply">
        <path d="M20.6388 20.043C20.6291 20.1301 20.6128 20.2164 20.5898 20.301C20.6133 20.2165 20.6297 20.1302 20.6388 20.043Z" fill="#FFF9CA"/>
    </g>
    <path d="M18.3944 17.3652C17.642 17.0392 16.8612 16.7833 16.0618 16.6007C13.9901 17.1718 12.0717 18.1974 10.4461 19.603C10.4461 19.603 13.6345 11.1091 21.0471 13.2228C21.1451 13.2555 21.2463 13.2979 21.3542 13.3437C21.9195 13.4669 22.477 13.624 23.0235 13.8141C23.0235 13.8141 24.0363 13.9382 24.2159 12.5433C24.3519 11.8708 24.7097 11.2634 25.2319 10.8184C23.5643 9.08769 21.2861 8.07775 18.8838 8.0043C16.4816 7.93086 14.1459 8.79976 12.3757 10.4253C10.6055 12.0509 9.54123 14.3043 9.41019 16.7041C9.27915 19.1039 10.0918 21.4597 11.6744 23.2684C13.6345 21.929 16.4963 20.619 20.6518 20.0342C20.7498 19.1979 20.214 18.2113 18.3944 17.3652Z" fill="#FFF9CA"/>
    <path d="M27.7617 13.2136C27.7323 13.0143 27.7029 12.8281 27.6768 12.6582C27.7029 12.8281 27.7323 13.0208 27.7617 13.2201V13.2136Z" fill="#9DC33B"/>
    <path d="M27.7621 13.2201C27.7327 13.0208 27.7033 12.828 27.6772 12.6582C27.6772 12.5667 27.6478 12.485 27.6347 12.4033C27.6347 12.3707 27.6347 12.3413 27.6118 12.3086C27.3652 12.4493 27.1748 12.6709 27.0728 12.9358C27.0164 13.0611 26.9716 13.1912 26.9388 13.3246C26.9013 13.4573 26.874 13.5928 26.8572 13.7297C26.8572 13.831 26.8343 13.9322 26.831 14.0368C26.813 14.4347 26.8787 14.832 27.0238 15.203C27.0497 15.2683 27.0802 15.3316 27.1153 15.3925C27.1883 15.5298 27.287 15.6518 27.406 15.7519C27.4563 15.7901 27.5112 15.822 27.5694 15.8466L27.6184 15.6179C27.6184 15.5951 27.6184 15.5722 27.6184 15.5493C27.7299 15.0385 27.7868 14.5172 27.7882 13.9943C27.7928 13.7359 27.7841 13.4775 27.7621 13.2201Z" fill="#CB842A"/>
    <path d="M27.1145 15.3882C27.0795 15.3273 27.0489 15.264 27.0231 15.1987C26.878 14.8277 26.8123 14.4304 26.8303 14.0324C26.8303 13.9279 26.8303 13.8266 26.8564 13.7254C26.8733 13.5884 26.9006 13.453 26.9381 13.3203C26.9709 13.1869 27.0157 13.0567 27.0721 12.9315C27.1741 12.6665 27.3645 12.445 27.6111 12.3043C27.5817 12.1736 27.5392 12.0462 27.5033 11.9155H27.5196L27.9182 10.8832H26.9741C26.2292 10.4225 25.6673 10.5075 25.2328 10.8113C24.7106 11.2563 24.3528 11.8637 24.2168 12.5362C24.0371 13.9312 23.0244 13.807 23.0244 13.807C23.5488 13.9907 24.0635 14.2011 24.5664 14.4375C25.2768 14.7698 25.9634 15.1507 26.6212 15.5777C26.7748 15.6724 26.912 15.7639 27.0329 15.8488C27.1537 15.9338 27.2648 16.0089 27.3595 16.0775L27.4837 16.169C27.5164 16.0579 27.5425 15.9468 27.5719 15.8423C27.5137 15.8176 27.4588 15.7858 27.4085 15.7475C27.2884 15.6478 27.1885 15.5258 27.1145 15.3882Z" fill="#F3991F"/>
    <path d="M19.4732 21.6411L19.6007 21.5692L19.7248 21.4843L19.8065 21.4222L19.9143 21.334L20.0025 21.2556C20.0351 21.2262 20.0645 21.1935 20.0972 21.1609L20.1658 21.0792L20.2475 20.9812C20.2744 20.9455 20.2995 20.9084 20.3226 20.8701C20.3463 20.8376 20.3681 20.8038 20.388 20.7689C20.4141 20.7264 20.4337 20.6839 20.4566 20.6414L20.5056 20.5434C20.5284 20.4879 20.548 20.4324 20.5676 20.3736C20.5872 20.3148 20.584 20.3278 20.5905 20.305C20.6134 20.2203 20.6298 20.134 20.6395 20.0469C16.4841 20.6316 13.6092 21.9417 11.6622 23.2811C8.88205 25.1889 8 27.1589 8 27.1589C12.1457 21.6248 18.3462 21.7064 19.4014 21.6901L19.4732 21.6411Z" fill="#F7CF36"/>
    <path d="M18.2053 17.278H18.2347C19.3562 16.9208 20.5028 16.6478 21.6649 16.4613C19.8076 16.0871 17.8897 16.1396 16.0557 16.6148C16.855 16.7973 17.6359 17.0532 18.3882 17.3792L18.2053 17.278Z" fill="#CB842A"/>
    <path d="M27.0333 15.8677C26.9124 15.7828 26.7752 15.6913 26.6217 15.5965C25.9638 15.1696 25.2772 14.7886 24.5668 14.4564C24.0639 14.22 23.5493 14.0096 23.0248 13.8259C22.4783 13.6358 21.9208 13.4787 21.3555 13.3555C22.7717 14.0379 24.0411 14.99 25.0928 16.1584H25.3182C25.7919 16.1323 26.1806 16.1258 26.491 16.1323C26.8023 16.1323 27.1132 16.152 27.422 16.1911H27.4808L27.3567 16.0996C27.2652 16.018 27.1738 15.9428 27.0333 15.8677Z" fill="#CB842A"/>
    <path d="M27.4536 16.2773V16.3002C27.4536 16.3002 27.4503 16.2839 27.4536 16.2773Z" fill="#CB842A"/>
    <path d="M26.49 16.1055C26.0229 16.1055 25.5753 16.1055 25.3172 16.1316H25.0918C25.6767 16.756 26.1477 17.478 26.4835 18.2649C26.8323 17.7448 27.1164 17.1843 27.3296 16.5955C27.3688 16.4942 27.4015 16.3897 27.4276 16.3048C27.4262 16.2983 27.4262 16.2916 27.4276 16.2852C27.4472 16.2165 27.4603 16.1675 27.4603 16.161H27.4015C27.0988 16.1271 26.7946 16.1085 26.49 16.1055Z" fill="#F3991F"/>
    <path d="M21.6748 16.4492C20.5114 16.6335 19.3637 16.9054 18.2413 17.2627H18.2119L18.4014 17.3509C20.221 18.197 20.7568 19.1836 20.6588 20.0199C20.6491 20.1038 20.6327 20.1869 20.6098 20.2682C20.6098 20.2911 20.6098 20.3139 20.5869 20.3368C20.5641 20.3597 20.5477 20.4511 20.5249 20.5067L20.4759 20.6047C20.453 20.6471 20.4334 20.6896 20.4072 20.7321C20.3874 20.767 20.3656 20.8008 20.3419 20.8334C20.3188 20.8716 20.2937 20.9087 20.2668 20.9444L20.1851 21.0424L20.1132 21.1241C20.0806 21.1568 20.0512 21.1894 20.0185 21.2188L19.9303 21.2973L19.8225 21.3855L19.7408 21.4475L19.6167 21.5325C19.5796 21.5551 19.5415 21.5758 19.5023 21.5945L19.4566 21.6239H19.7473C20.2612 21.6069 20.7737 21.5622 21.2828 21.49H21.3252C21.8723 21.4076 22.4119 21.2819 22.9391 21.1143C24.3902 20.538 25.6328 19.5357 26.5032 18.2395C24.9963 17.3961 23.3673 16.7921 21.6748 16.4492Z" fill="#F3991F"/>
    <path d="M25.0926 16.1476C24.041 14.9791 22.7715 14.027 21.3553 13.3446C21.2475 13.2989 21.1463 13.2564 21.0483 13.2238C13.6357 11.1134 10.4473 19.6039 10.4473 19.6039C12.0738 18.198 13.9934 17.1723 16.0663 16.6017C17.9003 16.1265 19.8182 16.074 21.6755 16.4481C23.3607 16.8093 24.9796 17.4298 26.4745 18.2874C26.4745 18.2874 26.4745 18.2874 26.4745 18.2711C26.1407 17.4884 25.6731 16.7698 25.0926 16.1476Z" fill="#F7CF36"/>
</svg>
