<svg width="177" height="25" viewBox="0 0 177 25" fill="none" xmlns="http://www.w3.org/2000/svg">
    <path d="M136.86 7.05303H134.547L134.558 10.9803H133.706V6.32227H136.866L136.86 7.05303Z" fill="#8EAD57"/>
    <path d="M140.456 8.66984C140.555 8.58533 140.633 8.47923 140.684 8.35981C140.735 8.24038 140.758 8.11082 140.751 7.98113C140.758 7.85221 140.735 7.72341 140.684 7.60483C140.632 7.48625 140.555 7.38112 140.456 7.29768C140.208 7.119 139.904 7.03338 139.599 7.05583H138.59V8.92745H139.604C139.909 8.94921 140.211 8.86567 140.461 8.69086L140.456 8.66984ZM140.698 6.54585C140.98 6.6633 141.22 6.86301 141.387 7.11891C141.551 7.38368 141.635 7.69052 141.629 8.00215C141.634 8.31359 141.55 8.62002 141.387 8.88538C141.221 9.14263 140.981 9.34273 140.698 9.45845C140.366 9.59962 140.007 9.66775 139.646 9.65823H138.595V11.0041H137.728V6.34609H139.646C140.007 6.33988 140.365 6.40785 140.698 6.54585Z" fill="#8EAD57"/>
    <path d="M146.47 6.32227L144.451 10.0813C144.302 10.3787 144.084 10.6364 143.815 10.8331C143.578 10.994 143.297 11.08 143.011 11.0802C142.775 11.08 142.542 11.0298 142.327 10.933L142.538 10.2548C142.683 10.3061 142.835 10.3362 142.99 10.3442C143.134 10.3403 143.274 10.2978 143.396 10.221C143.518 10.1442 143.618 10.0361 143.684 9.9078L143.757 9.79738L141.901 6.32227H142.827L144.204 9.05611L145.618 6.32227H146.47Z" fill="#8EAD57"/>
    <path d="M151.328 6.32227V10.9803H150.477V7.05303H148.064V10.9803H147.212V6.32227H151.328Z" fill="#8EAD57"/>
    <path d="M156.901 6.32227V10.9803H156.044V7.05303H153.631V10.9803H152.779V6.32227H156.901Z" fill="#8EAD57"/>
    <path d="M161.16 9.22719L160.282 7.19259L159.409 9.22719H161.16ZM161.443 9.90538H159.114L158.657 10.9569H157.769L159.872 6.29883H160.723L162.826 10.9569H161.896L161.443 9.90538Z" fill="#8EAD57"/>
    <path d="M135.413 16.3923H134.546V18.3534H133.694V13.6953H134.546V15.6458H135.44L136.775 13.6953H137.695L136.102 15.9507L137.753 18.3534H136.775L135.413 16.3923Z" fill="#8EAD57"/>
    <path d="M141.46 17.4552C141.708 17.318 141.912 17.114 142.049 16.8664C142.187 16.6075 142.259 16.3186 142.259 16.0252C142.259 15.7318 142.187 15.4429 142.049 15.184C141.913 14.9368 141.709 14.7341 141.46 14.6004C141.203 14.4624 140.916 14.3901 140.624 14.3901C140.333 14.3901 140.045 14.4624 139.788 14.6004C139.54 14.7341 139.335 14.9368 139.2 15.184C139.062 15.4429 138.989 15.7318 138.989 16.0252C138.989 16.3186 139.062 16.6075 139.2 16.8664C139.337 17.114 139.541 17.318 139.788 17.4552C140.045 17.5932 140.333 17.6655 140.624 17.6655C140.916 17.6655 141.203 17.5932 141.46 17.4552ZM139.357 18.1124C138.984 17.9156 138.673 17.6189 138.458 17.2554C138.238 16.8834 138.125 16.4575 138.132 16.0252C138.123 15.5958 138.232 15.1721 138.448 14.801C138.665 14.4299 138.979 14.1257 139.357 13.9223C139.755 13.7217 140.195 13.6172 140.64 13.6172C141.086 13.6172 141.525 13.7217 141.923 13.9223C142.295 14.1206 142.606 14.4169 142.822 14.7792C143.035 15.1541 143.148 15.578 143.148 16.0094C143.148 16.4408 143.035 16.8648 142.822 17.2397C142.608 17.6031 142.296 17.8998 141.923 18.0966C141.526 18.3005 141.086 18.4068 140.64 18.4068C140.194 18.4068 139.754 18.3005 139.357 18.0966" fill="#8EAD57"/>
    <path d="M148.499 18.3534L148.494 15.2673L146.964 17.8224H146.581L145.045 15.3093V18.3534H144.23V13.6953H144.94L146.786 16.7761L148.61 13.6953H149.314L149.325 18.3534H148.499Z" fill="#8EAD57"/>
    <path d="M154.887 13.6953V18.3534H154.035V14.4313H151.622V18.3534H150.771V13.6953H154.887Z" fill="#8EAD57"/>
    <path d="M159.136 16.5983L158.258 14.5636L157.385 16.5983H159.136ZM159.419 17.2765H157.09L156.633 18.3279H155.739L157.842 13.6699H158.694L160.797 18.3279H159.893L159.419 17.2765Z" fill="#8EAD57"/>
    <path d="M165.776 13.6953V18.3534H164.908V16.3608H162.5V18.3534H161.633V13.6953H162.5V15.6195H164.908V13.6953H165.776Z" fill="#8EAD57"/>
    <path d="M167.216 13.6953H168.068V17.0022L170.57 13.6953H171.374V18.3534H170.523V15.057L168.02 18.3534H167.216V13.6953Z" fill="#8EAD57"/>
    <path d="M173.987 13.1304C173.884 13.0416 173.803 12.9307 173.749 12.8059C173.695 12.6812 173.671 12.5458 173.677 12.4102H174.302C174.3 12.4821 174.313 12.5538 174.341 12.6201C174.37 12.6864 174.412 12.7457 174.465 12.7939C174.594 12.8891 174.752 12.9357 174.912 12.9254C175.072 12.9327 175.229 12.8864 175.359 12.7939C175.414 12.7469 175.458 12.688 175.487 12.6215C175.517 12.555 175.53 12.4827 175.527 12.4102H176.127C176.132 12.5455 176.107 12.6804 176.052 12.8044C175.998 12.9284 175.915 13.0382 175.811 13.1252C175.55 13.3106 175.232 13.3997 174.912 13.3775C174.591 13.4003 174.273 13.3132 174.008 13.1304H173.987ZM172.841 13.6877H173.693V16.9946L176.195 13.6877H176.999V18.3457H176.148V15.0494L173.645 18.3457H172.841V13.6877Z" fill="#8EAD57"/>
    <path d="M51.8531 13.5912L49.9289 8.92793L48.0048 13.5755L51.8531 13.5912ZM52.7364 15.7257H47.1005L46.049 18.3229H43.168L48.5778 6.18359H51.3537L56.7793 18.3229H53.8352L52.7364 15.7257Z" fill="#8EAD57"/>
    <path d="M69.4656 6.18359V18.3229H66.6897V8.4758H62.5311L62.4418 11.0046C62.4187 12.4156 62.2798 13.8223 62.0264 15.2105C61.8801 16.1122 61.5014 16.9602 60.9276 17.6709C60.6519 17.9633 60.3157 18.1919 59.9425 18.3408C59.5693 18.4897 59.1681 18.5554 58.7669 18.5332C58.2984 18.5201 57.8329 18.4548 57.3789 18.3386L57.5524 15.9623C57.7226 16.0147 57.9001 16.0395 58.0781 16.0359C58.7458 16.0359 59.2137 15.6363 59.4819 14.8477C59.8135 13.6342 59.9902 12.3835 60.0076 11.1255L60.1811 6.19935L69.4656 6.18359Z" fill="#8EAD57"/>
    <path d="M79.3068 15.7047C79.5207 15.5044 79.6869 15.2588 79.7934 14.9859C79.8998 14.7129 79.9437 14.4196 79.9219 14.1275C79.9219 12.8727 79.1474 12.2436 77.5982 12.2401H75.0641V16.2252H77.5982C78.2129 16.2653 78.821 16.0782 79.3068 15.6994V15.7047ZM81.5622 11.157C81.9699 11.5227 82.2888 11.9765 82.4947 12.4839C82.7006 12.9914 82.788 13.5391 82.7504 14.0854C82.7899 14.677 82.6917 15.2697 82.4637 15.817C82.2357 16.3643 81.8839 16.8513 81.4361 17.2398C80.5633 17.9654 79.3331 18.3229 77.7559 18.3229H72.2725V6.18359H75.0641V10.1739H78.1502C79.3682 10.094 80.5756 10.4437 81.5622 11.1623" fill="#8EAD57"/>
    <path d="M87.8251 9.02683C87.6064 9.23974 87.4367 9.49767 87.3278 9.78274C87.2189 10.0678 87.1733 10.3732 87.1942 10.6777C87.175 10.9765 87.2189 11.2761 87.323 11.5569C87.4272 11.8377 87.5893 12.0934 87.7988 12.3074C88.2988 12.7212 88.9389 12.9264 89.5863 12.8805H92.0467V8.47482H89.6599C89.0031 8.42935 88.3524 8.62569 87.8303 9.02683H87.8251ZM94.8279 6.18261V18.3219H92.052V15.0991H89.4864L87.3361 18.3219H84.371L86.905 14.6417C86.1322 14.3457 85.4707 13.8166 85.0124 13.1276C84.5599 12.396 84.3314 11.548 84.3552 10.6882C84.3335 9.83729 84.5561 8.99804 84.9966 8.26977C85.4363 7.57801 86.0686 7.02981 86.8156 6.69256C87.692 6.31862 88.6391 6.13925 89.5915 6.16682L94.8279 6.18261Z" fill="#8EAD57"/>
    <path d="M108.764 6.18359V18.3229H105.951V13.3494H100.442V18.3229H97.6289V6.18359H100.442V10.9731H105.951V6.18359H108.764Z" fill="#8EAD57"/>
    <path d="M114.032 17.7276C113.058 17.2089 112.244 16.4346 111.677 15.488C111.116 14.5029 110.82 13.3885 110.82 12.2547C110.82 11.1208 111.116 10.0065 111.677 9.02139C112.243 8.07352 113.057 7.29888 114.032 6.78174C115.073 6.23599 116.233 5.95947 117.408 5.97738C118.387 5.96317 119.359 6.15108 120.262 6.5294C121.088 6.88186 121.821 7.42186 122.402 8.10661L120.599 9.77319C120.23 9.321 119.763 8.95799 119.235 8.71129C118.706 8.46458 118.128 8.34057 117.544 8.34846C116.843 8.33506 116.151 8.50544 115.536 8.84266C114.956 9.16377 114.477 9.6409 114.153 10.2201C113.828 10.8416 113.659 11.5324 113.659 12.2336C113.659 12.9349 113.828 13.6257 114.153 14.2472C114.477 14.8264 114.956 15.3035 115.536 15.6246C116.152 15.9594 116.843 16.1296 117.544 16.1188C118.129 16.1252 118.708 15.9989 119.237 15.7494C119.766 15.4999 120.232 15.1337 120.599 14.6783L122.402 16.3449C121.827 17.048 121.089 17.6001 120.252 17.9537C119.347 18.3357 118.373 18.5254 117.392 18.5109C116.222 18.5276 115.067 18.251 114.032 17.7066" fill="#8EAD57"/>
    <path d="M22.8951 0.530637V0.525391H17.3066L6.98633 24.0048H12.5802L22.8951 0.530637Z" fill="#8EAD57"/>
    <path d="M15.9036 0.530637V0.525391H10.315L0 23.9996H5.58859L15.9036 0.530637Z" fill="#8EAD57"/>
    <path d="M23.5903 2.11328L20.8091 8.44316L23.6218 14.8466H17.9964L16.1826 18.9684H25.4303L27.6384 23.9997H33.2113L23.5903 2.11328Z" fill="#8EAD57"/>
</svg>
