<svg width="390" height="127" viewBox="0 0 390 127" fill="none" xmlns="http://www.w3.org/2000/svg">
    <path d="M173.083 58.7972C168.816 58.7972 164.724 57.1022 161.707 54.0851C158.69 51.068 156.995 46.976 156.995 42.7092C156.995 38.4424 158.69 34.3503 161.707 31.3332C164.724 28.3162 168.816 26.6211 173.083 26.6211C176.437 26.6123 179.705 27.6853 182.401 29.681C185.097 31.6767 187.077 34.4886 188.048 37.6992H181.289C180.468 36.2467 179.276 35.0389 177.833 34.2002C176.391 33.3614 174.752 32.9219 173.083 32.9268C170.489 32.9268 168.001 33.9574 166.166 35.792C164.331 37.6265 163.301 40.1147 163.301 42.7092C163.301 45.3036 164.331 47.7918 166.166 49.6264C168.001 51.4609 170.489 52.4916 173.083 52.4916C174.731 52.5032 176.352 52.0751 177.779 51.2514C179.207 50.4276 180.388 49.2381 181.203 47.8055H188.005C187.033 51.0002 185.056 53.7957 182.367 55.7762C179.679 57.7566 176.422 58.8162 173.083 58.7972Z" fill="white"/>
    <path d="M202.427 53.2472C203.34 53.3277 204.258 53.1594 205.083 52.7602C205.908 52.361 206.609 51.7457 207.113 50.9798H213.375C212.396 53.7563 210.409 56.0637 207.809 57.4451C205.209 58.8264 202.185 59.181 199.335 58.4387C196.486 57.6963 194.02 55.9111 192.424 53.4365C190.829 50.962 190.221 47.9785 190.72 45.0769C191.22 42.1753 192.791 39.5671 195.122 37.7689C197.454 35.9706 200.375 35.1134 203.309 35.3669C206.242 35.6204 208.973 36.9662 210.962 39.1378C212.95 41.3094 214.05 44.1485 214.045 47.0928C214.029 47.8153 213.972 48.5364 213.872 49.2522H196.704C197.144 50.4175 197.926 51.4225 198.947 52.1355C199.968 52.8485 201.181 53.236 202.427 53.2472ZM196.704 44.6093H208.063C207.589 43.4983 206.797 42.5526 205.786 41.8915C204.775 41.2304 203.591 40.8837 202.384 40.8951C201.177 40.8732 199.99 41.2133 198.978 41.8714C197.966 42.5295 197.174 43.4756 196.704 44.5878V44.6093Z" fill="white"/>
    <path d="M243.675 58.3439L241.666 45.3871L236.03 58.3439H230.092L224.542 45.3871L222.533 58.3439H216.552L220.028 35.5615H226.334L233.072 51.3904L239.788 35.5615H246.072L249.656 58.3439H243.675Z" fill="white"/>
    <path d="M263.931 53.2472C264.844 53.3277 265.762 53.1594 266.587 52.7602C267.412 52.361 268.113 51.7457 268.617 50.9798H274.879C273.9 53.7563 271.913 56.0637 269.313 57.4451C266.713 58.8264 263.688 59.181 260.839 58.4387C257.99 57.6963 255.524 55.9111 253.928 53.4365C252.333 50.962 251.724 47.9785 252.224 45.0769C252.724 42.1753 254.295 39.5671 256.626 37.7689C258.958 35.9706 261.879 35.1134 264.813 35.3669C267.746 35.6204 270.477 36.9662 272.466 39.1378C274.454 41.3094 275.554 44.1485 275.549 47.0928C275.533 47.8153 275.476 48.5364 275.376 49.2522H258.1C258.547 50.4347 259.345 51.4518 260.388 52.1662C261.43 52.8806 262.667 53.2579 263.931 53.2472ZM258.208 44.6093H269.567C269.093 43.4983 268.301 42.5526 267.29 41.8915C266.279 41.2304 265.095 40.8837 263.888 40.8951C262.68 40.8732 261.494 41.2133 260.482 41.8714C259.47 42.5295 258.678 43.4756 258.208 44.5878V44.6093Z" fill="white"/>
    <path d="M302.239 35.5615V58.3655H296.279V44.2858L285.417 58.3655H279.521V35.5615H285.417V49.4253L296.279 35.5615H302.239Z" fill="white"/>
    <path d="M293.472 32.3003H288.246L291.01 26.2754H297.078L293.472 32.3003Z" fill="white"/>
    <path d="M329.727 35.5615V58.3439H323.788V49.706H313.38V58.3439H307.463V35.5615H313.38V44.1994H323.788V35.5615H329.727Z" fill="white"/>
    <path d="M353.009 50.2675C353.013 51.3606 352.794 52.4431 352.367 53.4491C351.939 54.4551 351.311 55.3636 350.521 56.1191C349.732 56.8747 348.796 57.4617 347.772 57.8441C346.748 58.2266 345.657 58.3966 344.565 58.3438H335.085V35.5615H340.98V42.2126H344.565C345.655 42.16 346.744 42.3294 347.767 42.7105C348.79 43.0917 349.724 43.6766 350.514 44.4299C351.303 45.1832 351.932 46.089 352.36 47.0925C352.789 48.096 353.01 49.1762 353.009 50.2675ZM347.286 50.2675C347.286 49.5438 347 48.8495 346.49 48.3358C345.981 47.8221 345.289 47.5306 344.565 47.5249H340.98V52.9884H344.565C344.923 52.9912 345.278 52.9228 345.61 52.7871C345.941 52.6514 346.242 52.4511 346.495 52.1979C346.749 51.9446 346.949 51.6435 347.085 51.3121C347.22 50.9807 347.289 50.6256 347.286 50.2675ZM361.949 35.5615V58.3438H356.053V35.5615H361.949Z" fill="white"/>
    <path d="M390.001 35.5615V58.3655H384.062V44.2858L373.2 58.3655H367.305V35.5615H373.2V49.4253L384.062 35.5615H390.001Z" fill="white"/>
    <path d="M381.253 32.3003H376.027L378.791 26.2754H384.86L381.253 32.3003Z" fill="white"/>
    <path d="M210.807 76.3084H209.835V80.0659H207.957V76.2868H206.985L204.07 80.0659H201.91L205.495 75.4014L202.083 70.8018H204.242L207.006 74.5377H207.978V70.8018H209.857V74.5377H210.829L213.593 70.8018H215.752L212.34 75.4014L215.925 80.0659H213.766L210.807 76.3084Z" fill="white"/>
    <path d="M225.623 80.0659H223.766V73.933L220.116 80.0659H217.957V70.8018H219.836V76.9131L223.485 70.8018H225.645L225.623 80.0659Z" fill="white"/>
    <path d="M236.071 80.0659H234.193V72.5509H232.033L230.522 80.0659H227.649V78.3599H228.967L230.5 70.8018H236.071V80.0659Z" fill="white"/>
    <path d="M238.362 75.4434C238.379 74.5205 238.668 73.6231 239.193 72.864C239.718 72.1048 240.456 71.5176 241.313 71.1761C242.171 70.8347 243.11 70.7541 244.014 70.9446C244.917 71.135 245.744 71.5881 246.39 72.2467C247.037 72.9054 247.475 73.7404 247.649 74.6469C247.823 75.5535 247.725 76.4913 247.368 77.3425C247.011 78.1937 246.41 78.9205 245.642 79.4317C244.873 79.9429 243.971 80.2157 243.048 80.2159C242.424 80.2189 241.806 80.0969 241.231 79.857C240.655 79.6172 240.133 79.2644 239.697 78.8195C239.26 78.3746 238.916 77.8465 238.687 77.2666C238.458 76.6868 238.347 76.0668 238.362 75.4434ZM245.898 75.4434C245.89 74.8764 245.713 74.3246 245.392 73.8576C245.07 73.3905 244.617 73.0291 244.09 72.819C243.564 72.6089 242.987 72.5594 242.432 72.6769C241.877 72.7943 241.369 73.0733 240.973 73.4788C240.576 73.8842 240.309 74.398 240.204 74.9553C240.099 75.5127 240.161 76.0886 240.383 76.6105C240.605 77.1324 240.977 77.5769 241.451 77.888C241.925 78.1991 242.481 78.3629 243.048 78.3587C243.427 78.3588 243.804 78.283 244.154 78.1357C244.504 77.9884 244.821 77.7727 245.087 77.5011C245.352 77.2295 245.561 76.9075 245.7 76.5542C245.839 76.2008 245.907 75.8232 245.898 75.4434Z" fill="white"/>
    <path d="M257.645 80.0673H255.767V73.9776L252.16 80.0673H250.001V70.8032H251.88V76.8929L255.508 70.8032H257.667L257.645 80.0673ZM254.449 69.8315H252.895L253.715 68.0391H255.508L254.449 69.8315Z" fill="white"/>
    <path d="M267.579 76.3084H266.477V80.0659H264.599V70.8018H266.477V74.5377H267.579L270.429 70.8018H272.589L269.09 75.4014L272.761 80.0659H270.602L267.579 76.3084Z" fill="white"/>
    <path d="M273.734 75.446C273.755 74.5293 274.046 73.6392 274.57 72.8869C275.095 72.1347 275.829 71.5536 276.682 71.2165C277.534 70.8793 278.468 70.8009 279.365 70.9911C280.262 71.1814 281.083 71.6318 281.725 72.2861C282.368 72.9404 282.803 73.7695 282.977 74.6698C283.151 75.5702 283.055 76.5018 282.702 77.3482C282.35 78.1946 281.755 78.9183 280.994 79.4288C280.232 79.9393 279.337 80.214 278.42 80.2185C277.796 80.2215 277.178 80.0995 276.603 79.8597C276.027 79.6198 275.505 79.267 275.069 78.8221C274.632 78.3772 274.288 77.8491 274.059 77.2693C273.83 76.6894 273.719 76.0694 273.734 75.446ZM281.249 75.446C281.236 74.8843 281.057 74.3388 280.735 73.8782C280.414 73.4176 279.963 73.0625 279.44 72.8573C278.917 72.6521 278.345 72.6061 277.795 72.725C277.246 72.844 276.744 73.1226 276.353 73.5258C275.962 73.9291 275.698 74.439 275.596 74.9915C275.494 75.544 275.557 76.1144 275.778 76.6311C275.998 77.1478 276.367 77.5877 276.837 77.8956C277.307 78.2034 277.858 78.3654 278.42 78.3613C278.798 78.3585 279.171 78.2806 279.519 78.132C279.867 77.9835 280.181 77.7673 280.445 77.496C280.708 77.2247 280.914 76.9037 281.052 76.5518C281.191 76.1999 281.257 75.824 281.249 75.446Z" fill="white"/>
    <path d="M293.626 80.0659L293.345 74.1705L290.97 78.835H289.782L287.385 74.149L287.104 80.0659H285.247L285.679 70.8018H287.644L290.387 76.0709L293.086 70.8018H295.181L295.591 80.0659H293.626Z" fill="white"/>
    <path d="M305.478 80.0659H303.599V72.5509H300.079V80.0659H298.2V70.8018H305.478V80.0659Z" fill="white"/>
    <path d="M315.908 80.0659H314.05V72.5509H311.891L310.293 80.0659H307.421V78.3599H308.738L310.25 70.8018H315.821L315.908 80.0659Z" fill="white"/>
    <path d="M318.694 70.8232H324.806V72.5724H320.487V74.5807H324.093V76.2003H320.487V78.3598H324.806V80.0658H318.694V70.8232Z" fill="white"/>
    <path d="M330.224 76.3084H329.123V80.0659H327.244V70.8018H329.123V74.5377H330.224L333.075 70.8018H335.234L331.736 75.4014L335.407 80.0659H333.247L330.224 76.3084Z" fill="white"/>
    <path d="M341.067 80.2177C339.859 80.1364 338.728 79.5993 337.901 78.7153C337.075 77.8313 336.615 76.6663 336.615 75.4561C336.615 74.2459 337.075 73.0809 337.901 72.1969C338.728 71.3129 339.859 70.7758 341.067 70.6945C342.061 70.6867 343.031 71.0028 343.829 71.595C344.628 72.1871 345.212 73.0232 345.494 73.9768H343.507C343.264 73.5432 342.91 73.1824 342.481 72.9318C342.052 72.6812 341.564 72.5499 341.067 72.5516C340.34 72.6143 339.663 72.9475 339.169 73.4853C338.676 74.023 338.402 74.7263 338.402 75.4561C338.402 76.1859 338.676 76.8891 339.169 77.4269C339.663 77.9646 340.34 78.2978 341.067 78.3606C341.555 78.3612 342.035 78.2314 342.456 77.9846C342.878 77.7379 343.225 77.3831 343.464 76.9569H345.472C345.191 77.9048 344.609 78.7355 343.815 79.3237C343.02 79.9119 342.055 80.2257 341.067 80.2177Z" fill="white"/>
    <g style="mix-blend-mode:multiply">
        <path d="M129.762 49.832C129.762 49.9832 129.762 50.1343 129.762 50.2855C129.816 50.1393 129.816 49.9783 129.762 49.832Z" fill="#FFF9CA"/>
    </g>
    <g style="mix-blend-mode:multiply">
        <path d="M122.225 53.5906C120.174 53.5906 117.604 53.5906 114.473 53.7634C116.179 53.677 119.137 53.5474 122.225 53.5906Z" fill="#FFF9CA"/>
    </g>
    <g style="mix-blend-mode:multiply">
        <path d="M126.35 48.8404C126.118 48.438 125.916 48.0194 125.745 47.5879C125.916 48.0194 126.118 48.438 126.35 48.8404Z" fill="#FFF9CA"/>
    </g>
    <g style="mix-blend-mode:multiply">
        <path d="M124.579 37.8506C124.69 36.9456 124.871 36.0503 125.119 35.1729C124.871 36.0503 124.69 36.9456 124.579 37.8506Z" fill="#FFF9CA"/>
    </g>
    <g style="mix-blend-mode:multiply">
        <path d="M90.3961 55.8574C82.7142 57.0906 75.135 58.8952 67.7217 61.2561C75.1331 58.8882 82.7128 57.0835 90.3961 55.8574Z" fill="#FFF9CA"/>
    </g>
    <g style="mix-blend-mode:multiply">
        <path d="M83.1623 81.708C83.0327 82.0967 82.9031 82.4638 82.752 82.8309C82.9031 82.4638 83.0327 82.0967 83.1623 81.708Z" fill="#FFF9CA"/>
    </g>
    <g style="mix-blend-mode:multiply">
        <path d="M82.4261 83.4795C82.275 83.7602 82.1454 84.041 81.9727 84.3217C82.1454 84.041 82.275 83.7602 82.4261 83.4795Z" fill="#FFF9CA"/>
    </g>
    <g style="mix-blend-mode:multiply">
        <path d="M81.5397 84.9893C81.3868 85.2423 81.221 85.4874 81.043 85.7235C81.221 85.4874 81.3868 85.2423 81.5397 84.9893Z" fill="#FFF9CA"/>
    </g>
    <g style="mix-blend-mode:multiply">
        <path d="M83.5495 79.6113C83.4854 80.1874 83.3771 80.7577 83.2256 81.3173C83.3804 80.7585 83.4887 80.1879 83.5495 79.6113Z" fill="#FFF9CA"/>
    </g>
    <path d="M68.7141 61.9057C63.7409 59.7508 58.5795 58.0593 53.2956 56.8526C39.6011 60.6277 26.92 67.4071 16.1744 76.6981C16.1744 76.6981 37.2507 20.552 86.249 34.5237C86.8968 34.7397 87.5663 35.0204 88.2789 35.3227C92.0161 36.1375 95.701 37.1759 99.3138 38.4324C99.3138 38.4324 106.008 39.2529 107.196 30.032C108.095 25.5867 110.46 21.5717 113.912 18.63C102.889 7.18985 87.8289 0.513913 71.9497 0.0284492C56.0705 -0.457014 40.631 5.28654 28.9297 16.032C17.2284 26.7775 10.1931 41.6728 9.32693 57.5358C8.46073 73.3988 13.8323 88.9716 24.2939 100.927C37.2507 92.0735 56.1676 83.414 83.636 79.5486C84.2839 74.0204 80.7424 67.4987 68.7141 61.9057Z" fill="#FFF9CA"/>
    <path d="M130.626 34.4592C130.432 33.1419 130.237 31.911 130.064 30.7881C130.237 31.911 130.432 33.1851 130.626 34.5024V34.4592Z" fill="#9DC33B"/>
    <path d="M130.627 34.5015C130.433 33.1842 130.238 31.9101 130.065 30.7872C130.065 30.1826 129.871 29.6427 129.785 29.1028C129.785 28.8869 129.785 28.6925 129.633 28.4766C128.003 29.4066 126.745 30.8713 126.07 32.6228C125.698 33.4507 125.402 34.3109 125.185 35.1925C124.937 36.07 124.756 36.9652 124.645 37.8702C124.645 38.5397 124.494 39.2091 124.472 39.9002C124.353 42.5307 124.787 45.157 125.746 47.6095C125.918 48.041 126.12 48.4595 126.351 48.8619C126.834 49.7694 127.486 50.5758 128.273 51.2373C128.605 51.4903 128.968 51.7007 129.353 51.8636L129.677 50.352C129.677 50.2008 129.677 50.0496 129.677 49.8985C130.414 46.5215 130.79 43.0758 130.8 39.6194C130.83 37.9116 130.772 36.2034 130.627 34.5015Z" fill="#CB842A"/>
    <path d="M126.35 48.8394C126.119 48.437 125.916 48.0184 125.745 47.5869C124.786 45.1344 124.352 42.5082 124.471 39.8776C124.471 39.1866 124.471 38.5172 124.644 37.8477C124.755 36.9426 124.936 36.0474 125.184 35.1699C125.4 34.2883 125.697 33.4281 126.069 32.6002C126.744 30.8487 128.002 29.3841 129.632 28.454C129.438 27.5902 129.157 26.748 128.92 25.8843H129.028L131.662 19.0603H125.421C120.498 16.0155 116.784 16.577 113.911 18.5853C110.459 21.5269 108.095 25.5419 107.196 29.9872C106.008 39.2081 99.3135 38.3876 99.3135 38.3876C102.78 39.6018 106.182 40.9928 109.506 42.5553C114.202 44.7515 118.741 47.2696 123.089 50.0919C124.104 50.7181 125.011 51.3228 125.81 51.8842C126.609 52.4457 127.343 52.9423 127.97 53.3958L128.79 54.0005C129.006 53.2663 129.179 52.532 129.373 51.841C128.989 51.6781 128.626 51.4678 128.293 51.2148C127.499 50.5553 126.839 49.7487 126.35 48.8394Z" fill="#F3991F"/>
    <path d="M75.8404 90.172L76.6826 89.6969L77.5032 89.1355L78.0431 88.7252L78.7557 88.1421L79.3388 87.6238C79.5547 87.4295 79.749 87.2135 79.965 86.9976L80.4185 86.4577L80.9584 85.8099C81.1364 85.5738 81.3021 85.3288 81.455 85.0757C81.6114 84.8608 81.7556 84.6373 81.8869 84.4063C82.0597 84.1255 82.1892 83.8448 82.3404 83.564L82.6643 82.9162C82.8155 82.5491 82.945 82.182 83.0746 81.7933C83.2042 81.4046 83.1826 81.4909 83.2258 81.3398C83.3773 80.7803 83.4856 80.2099 83.5497 79.6338C56.0813 83.4992 37.078 92.1587 24.2076 101.013C5.83055 113.624 0 126.645 0 126.645C27.4036 90.064 68.3903 90.6039 75.3653 90.4959L75.8404 90.172Z" fill="#F7CF36"/>
    <path d="M67.4622 61.3234H67.6566C75.0699 58.9625 82.6491 57.1579 90.3309 55.9248C78.0542 53.4516 65.376 53.7986 53.2529 56.9397C58.5369 58.1464 63.6983 59.8379 68.6715 61.9928L67.4622 61.3234Z" fill="#CB842A"/>
    <path d="M125.811 51.995C125.012 51.4335 124.105 50.8289 123.09 50.2026C118.741 47.3804 114.203 44.8622 109.507 42.6661C106.183 41.1035 102.781 39.7125 99.3142 38.4983C95.7014 37.2418 92.0165 36.2034 88.2793 35.3887C97.6405 39.8995 106.032 46.1932 112.984 53.9169H114.474C117.605 53.7442 120.175 53.7009 122.226 53.7441C124.284 53.7444 126.339 53.8742 128.381 54.1328H128.769L127.949 53.5282C127.344 52.9883 126.739 52.4916 125.811 51.995Z" fill="#CB842A"/>
    <path d="M128.595 54.7139V54.8648C128.595 54.8648 128.573 54.757 128.595 54.7139Z" fill="#CB842A"/>
    <path d="M122.226 53.5918C119.138 53.5918 116.179 53.5918 114.473 53.7646H112.983C116.85 57.8919 119.963 62.6645 122.183 67.8659C124.488 64.4284 126.366 60.7228 127.776 56.831C128.035 56.1616 128.251 55.4706 128.424 54.9091C128.414 54.8664 128.414 54.8222 128.424 54.7795C128.553 54.3261 128.64 54.0021 128.64 53.9589H128.251C126.25 53.7347 124.239 53.6121 122.226 53.5918Z" fill="#F3991F"/>
    <path d="M90.3942 55.8574C82.7042 57.0754 75.1173 58.8728 67.6983 61.2345H67.5039L68.7564 61.8175C80.7846 67.4105 84.3261 73.9321 83.6783 79.4604C83.6141 80.0152 83.5058 80.564 83.3544 81.1016C83.3544 81.2527 83.3544 81.4039 83.2032 81.555C83.052 81.7062 82.9441 82.3108 82.7929 82.6779L82.469 83.3258C82.3178 83.6066 82.1883 83.8872 82.0155 84.168C81.8842 84.399 81.74 84.6225 81.5836 84.8374C81.4307 85.0905 81.265 85.3355 81.0869 85.5716L80.5471 86.2195L80.072 86.7594C79.856 86.9753 79.6617 87.1913 79.4458 87.3856L78.8627 87.9039L78.1501 88.4869L77.6102 88.8972L76.7896 89.4587C76.5448 89.6082 76.2926 89.7452 76.0338 89.869L75.7315 90.0633H77.6534C81.05 89.9509 84.4381 89.6553 87.8029 89.178H88.0836C91.6995 88.633 95.2665 87.8026 98.7513 86.6946C108.344 82.8852 116.558 76.2599 122.311 67.6912C112.35 62.1164 101.582 58.1241 90.3942 55.8574Z" fill="#F3991F"/>
    <path d="M112.985 53.8519C106.033 46.1281 97.6416 39.8346 88.2803 35.3237C87.5677 35.0214 86.8982 34.7407 86.2504 34.5247C37.2521 20.5746 16.1758 76.6991 16.1758 76.6991C26.9277 67.4053 39.6164 60.6257 53.3186 56.8536C65.4417 53.7125 78.1198 53.3655 90.3966 55.8386C101.536 58.2261 112.237 62.3275 122.119 67.9964C122.119 67.9964 122.119 67.9964 122.119 67.8884C119.912 62.7147 116.821 57.9649 112.985 53.8519Z" fill="#F7CF36"/>
</svg>
