<svg width="58" height="52" viewBox="0 0 58 52" fill="none" xmlns="http://www.w3.org/2000/svg">
    <path d="M55.3687 25.663L55.0636 25.9973L55.366 26.334C56.7104 27.8314 57.4534 29.7695 57.4534 31.7778C57.4534 33.786 56.7104 35.7241 55.366 37.2215L55.066 37.5556L55.366 37.8896C56.4186 39.062 57.1089 40.512 57.3541 42.0653C57.5992 43.6187 57.3889 45.2095 56.7483 46.6468C56.1077 48.0841 55.0639 49.3069 53.7422 50.1679C52.4208 51.0287 50.8779 51.4913 49.2988 51.5H8.7C6.52461 51.5 4.4387 50.6391 2.90105 49.1074C1.36381 47.576 0.500398 45.4996 0.5 43.3348C0.512416 41.3213 1.27129 39.3831 2.63135 37.8926L2.9364 37.5583L2.63404 37.2215C1.2896 35.7241 0.546597 33.786 0.546597 31.7778C0.546597 29.7695 1.2896 27.8314 2.63404 26.334L2.93397 26L2.63404 25.666C1.2896 24.1686 0.546597 22.2305 0.546597 20.2222C0.546597 18.214 1.2896 16.2759 2.63404 14.7785L2.9364 14.4417L2.63135 14.1074C1.27129 12.6169 0.512416 10.6787 0.5 8.66517C0.500398 6.5004 1.36381 4.42398 2.90105 2.89264C4.4387 1.36088 6.52461 0.5 8.7 0.5H26.0993C27.4093 0.503774 28.6992 0.820069 29.8612 1.42232C31.0233 2.02467 32.0234 2.89549 32.778 3.96172C33.5326 5.02795 34.0197 6.25859 34.1986 7.55061C34.3776 8.84263 34.2433 10.1586 33.8068 11.3883L33.57 12.0556H34.278H49.3C51.4754 12.0556 53.5613 12.9164 55.099 14.4482C56.6361 15.9795 57.4995 18.0558 57.5 20.2205C57.4876 22.2341 56.7288 24.1724 55.3687 25.663ZM33.8096 46.0474L33.5577 46.7222H34.278H49.2961C49.7372 46.7288 50.1751 46.6443 50.5819 46.4739C50.9862 46.3047 51.3512 46.0543 51.6544 45.7384C51.9776 45.4292 52.2365 45.0593 52.4159 44.6499C52.5971 44.2366 52.6937 43.7914 52.7 43.3403H52.7V43.3333C52.7 42.4339 52.3413 41.5717 51.7035 40.9363C51.0657 40.301 50.2011 39.9445 49.3 39.9445H34.278H33.5577L33.8096 40.6193C34.4629 42.3701 34.4629 44.2965 33.8096 46.0474ZM33.8096 34.4919L33.5577 35.1667H34.278H49.2961C49.7372 35.1732 50.175 35.0887 50.5819 34.9184C50.9862 34.7491 51.3512 34.4988 51.6544 34.1828C51.9776 33.8737 52.2365 33.5037 52.4159 33.0943C52.5971 32.681 52.6937 32.2358 52.7 31.7848H52.7V31.7778C52.7 30.8784 52.3413 30.0162 51.7035 29.3808C51.0657 28.7455 50.2011 28.3889 49.3 28.3889H34.278H33.5577L33.8096 29.0637C34.4629 30.8146 34.4629 32.741 33.8096 34.4919ZM33.8096 22.9363L33.5577 23.6111H34.278H49.2961C49.7372 23.6177 50.175 23.5332 50.5819 23.3628C50.9862 23.1936 51.3513 22.9432 51.6544 22.6273C51.9776 22.3181 52.2365 21.9482 52.4159 21.5387L51.958 21.338L52.4159 21.5387C52.5971 21.1255 52.6937 20.6803 52.7 20.2292H52.7V20.2222C52.7 19.3228 52.3413 18.4606 51.7035 17.8252C51.0657 17.1899 50.2011 16.8333 49.3 16.8333H34.278H33.5577L33.8096 17.5081C34.4629 19.259 34.4629 21.1854 33.8096 22.9363ZM8.7 46.7222H26.1C27.0011 46.7222 27.8657 46.3657 28.5035 45.7303C29.1413 45.0949 29.5 44.2327 29.5 43.3333C29.5 42.4339 29.1413 41.5717 28.5035 40.9363C27.8657 40.301 27.0011 39.9445 26.1 39.9445H8.7C7.79888 39.9445 6.93429 40.301 6.29652 40.9363C5.65868 41.5717 5.3 42.4339 5.3 43.3333C5.3 44.2327 5.65868 45.0949 6.29652 45.7303C6.93429 46.3656 7.79888 46.7222 8.7 46.7222ZM8.7 35.1667H26.1C27.0011 35.1667 27.8657 34.8101 28.5035 34.1748C29.1413 33.5394 29.5 32.6772 29.5 31.7778C29.5 30.8784 29.1413 30.0162 28.5035 29.3808C27.8657 28.7455 27.0011 28.3889 26.1 28.3889H8.7C7.79888 28.3889 6.93429 28.7455 6.29652 29.3808C5.65868 30.0162 5.3 30.8784 5.3 31.7778C5.3 32.6772 5.65868 33.5394 6.29652 34.1748C6.93429 34.8101 7.79888 35.1667 8.7 35.1667ZM8.7 23.6111H26.1C27.0011 23.6111 27.8657 23.2545 28.5035 22.6192C29.1413 21.9838 29.5 21.1216 29.5 20.2222C29.5 19.3228 29.1413 18.4606 28.5035 17.8252C27.8657 17.1899 27.0011 16.8333 26.1 16.8333H8.7C7.79888 16.8333 6.93429 17.1899 6.29652 17.8252C5.65868 18.4606 5.3 19.3228 5.3 20.2222C5.3 21.1216 5.65868 21.9838 6.29652 22.6192C6.93429 23.2545 7.79888 23.6111 8.7 23.6111ZM8.7 12.0556H26.1C27.0011 12.0556 27.8657 11.699 28.5035 11.0637C29.1413 10.4283 29.5 9.56608 29.5 8.66667C29.5 7.76726 29.1413 6.90507 28.5035 6.26968C27.8657 5.63436 27.0011 5.27778 26.1 5.27778H8.7C7.79888 5.27778 6.93429 5.63436 6.29652 6.26968C5.65868 6.90507 5.3 7.76726 5.3 8.66667C5.3 9.56608 5.65868 10.4283 6.29652 11.0637C6.93429 11.699 7.79888 12.0556 8.7 12.0556Z" fill="#2F5327" stroke="white"/>
</svg>
