<svg width="63" height="63" viewBox="0 0 63 63" fill="none" xmlns="http://www.w3.org/2000/svg">
    <path fill-rule="evenodd" clip-rule="evenodd" d="M17.325 1.59035C13.986 1.59035 10.773 2.91302 8.4105 5.27493C6.048 7.63684 4.725 10.8333 4.725 14.1872V15.7618C4.42575 15.9823 4.14225 16.2342 3.8745 16.4861C2.394 17.9663 1.575 19.966 1.575 22.0602C1.575 23.5404 3.15 23.6348 3.15 23.6348H7.875V28.3587C7.875 31.9015 9.5445 35.0507 12.1433 37.0662L6.15825 40.058C2.394 41.9475 0 45.8053 0 50.0095V61.4254C0 62.2914 0.70875 63 1.575 63C2.44125 63 3.15 62.2914 3.15 61.4254V50.0095C3.15 47.4901 4.33125 45.144 6.3 43.6481V61.4096C6.3 62.2757 7.00875 62.9843 7.875 62.9843C8.74125 62.9843 9.45 62.2757 9.45 61.4096C9.45 61.4096 9.4185 42.1365 9.3555 41.9633L12.6 40.3414V44.0575C12.6 46.6556 14.4427 48.9073 16.9942 49.4111L19.2623 49.8678C19.971 50.0095 20.475 50.6236 20.475 51.3479V61.4254C20.475 62.2914 21.1838 63 22.05 63C22.9163 63 23.625 62.2914 23.625 61.4254V51.3479C23.625 50.6236 24.129 50.0095 24.8378 49.8678L27.1057 49.4111C29.6572 48.9073 31.5 46.6556 31.5 44.0575V40.3414L36.54 42.8608C38.3513 43.7741 39.7215 45.3172 40.4303 47.1437C40.4303 47.1752 37.8 47.2382 37.8 47.2382C36.9338 47.2382 36.225 47.9468 36.225 48.8128V53.5366H33.075C32.2088 53.5366 31.5 54.2452 31.5 55.1112V61.4096C31.5 62.2757 32.2088 62.9843 33.075 62.9843H61.425C62.2913 62.9843 63 62.2757 63 61.4096V55.1112C63 54.2452 62.2913 53.5366 61.425 53.5366H58.275V48.8128C58.275 47.9468 57.5662 47.2382 56.7 47.2382H53.55V42.5144C53.55 41.6483 52.8413 40.9398 51.975 40.9398H42.525C41.7375 40.9398 41.0917 41.5066 40.9657 42.2624C40.0995 41.3649 39.0915 40.6091 37.9418 40.0422L31.9568 37.0505C34.5555 35.035 36.225 31.8858 36.225 28.3429V23.6191H40.95C40.95 23.6191 42.525 23.5246 42.525 22.0445C42.525 19.9503 41.6903 17.9505 40.2255 16.4704C39.9578 16.2027 39.6743 15.9665 39.375 15.7461V14.1715C39.375 10.8333 38.052 7.6211 35.6895 5.25919C33.327 2.89728 30.1298 1.57461 26.775 1.57461C26.775 0.708573 26.0662 0 25.2 0H18.9C18.0338 0 17.325 0.708573 17.325 1.57461V1.59035ZM34.65 56.7016H40.95V59.8508H34.65V56.7016ZM53.55 56.7016H59.85V59.8508H53.55V56.7016ZM44.1 56.7016H50.4V59.8508H44.1V56.7016ZM14.175 59.8508H15.75C16.6162 59.8508 17.325 59.1422 17.325 58.2762C17.325 57.4101 16.6162 56.7016 15.75 56.7016H14.175C13.3088 56.7016 12.6 57.4101 12.6 58.2762C12.6 59.1422 13.3088 59.8508 14.175 59.8508ZM14.175 55.127H15.75C16.6162 55.127 17.325 54.4184 17.325 53.5524C17.325 52.6863 16.6162 51.9778 15.75 51.9778H14.175C13.3088 51.9778 12.6 52.6863 12.6 53.5524C12.6 54.4184 13.3088 55.127 14.175 55.127ZM39.375 50.4032H45.675V53.5524H39.375V50.4032ZM55.125 50.4032H48.825V53.5524H55.125V50.4032ZM28.35 38.9243C27.3577 39.2234 26.3025 39.3809 25.2 39.3809H18.9C17.7975 39.3809 16.7423 39.2234 15.75 38.9243V44.0732C15.75 45.1755 16.5217 46.1202 17.6085 46.3407L19.8765 46.7973C20.7113 46.9705 21.4515 47.3484 22.05 47.868C22.6485 47.3327 23.3888 46.9548 24.2235 46.7973L26.4915 46.3407C27.5782 46.1202 28.35 45.1755 28.35 44.0732V38.9243ZM50.4 47.2539H44.1V44.1047H50.4V47.2539ZM11.025 23.6348H33.075V28.3587C33.075 32.7046 29.547 36.2317 25.2 36.2317H18.9C14.553 36.2317 11.025 32.7046 11.025 28.3587V23.6348ZM9.45 17.3364H34.65C35.91 17.3364 37.107 17.8403 37.989 18.7221C38.493 19.2259 38.871 19.8243 39.1073 20.4856H4.99275C5.229 19.8243 5.607 19.2259 6.111 18.7221C6.993 17.8403 8.20575 17.3364 9.45 17.3364ZM34.6343 11.038C34.2248 11.0537 33.8467 11.2269 33.5632 11.5104C33.264 11.8253 33.0908 12.2347 33.0908 12.6756V14.1872H34.6657C35.2013 14.1872 35.721 14.2344 36.2407 14.3447V14.1872C36.2407 13.1007 36.0518 12.0457 35.7052 11.038H34.6343ZM8.42625 11.038C8.064 12.0457 7.89075 13.1007 7.89075 14.1872V14.3447C8.4105 14.2344 8.93025 14.1872 9.46575 14.1872H11.0408V12.6756C11.0408 12.2347 10.8675 11.8253 10.5682 11.5104C10.2533 11.2112 9.84375 11.038 9.40275 11.038H8.42625ZM26.7908 4.73957V14.1872H29.9408V12.6756C29.9408 11.4002 30.4447 10.1877 31.3425 9.29018C32.0355 8.59735 32.9333 8.12497 33.894 7.96751C33.7523 7.81005 33.6105 7.65259 33.4688 7.51087C31.7048 5.73157 29.295 4.73957 26.7908 4.73957ZM23.6408 14.1872H20.4908V3.16496H23.6408V14.1872ZM17.3407 4.73957C14.8365 4.73957 12.4268 5.73157 10.6628 7.51087C10.521 7.65259 10.3793 7.81005 10.2375 7.96751C11.1982 8.14072 12.096 8.59735 12.789 9.29018C13.6868 10.1877 14.1908 11.4002 14.1908 12.6756V14.1872H17.3407V4.73957Z" fill="#2F5327"/>
</svg>
