<svg width="58" height="59" viewBox="0 0 58 59" fill="none" xmlns="http://www.w3.org/2000/svg">
    <path d="M41.0931 52.5862C41.7294 53.2364 42.5974 53.6 43.5 53.6C45.385 53.6 46.9 52.0465 46.9 50.15V44.25C46.9 43.5214 47.2171 42.8323 47.7623 42.3681L47.7625 42.368C50.833 39.7519 52.7 36.299 52.7 32.45C52.7 29.1504 51.2443 26.1466 48.9095 23.7168C45.0498 19.6995 38.8325 17.2 31.9 17.2C29.6395 17.2 27.4568 17.4672 25.4078 17.9664C24.7735 18.1197 24.1083 18.0055 23.5591 17.6492L17.6726 13.8205L16.9 13.318V14.2396V20.65C16.9 21.3786 16.5829 22.0677 16.0377 22.5319L16.0376 22.532C14.3214 23.994 13.0661 25.7109 12.1904 27.5993L12.1904 27.5994C11.7923 28.4583 10.9466 29 10.0224 29H5.8H5.3V29.5V35.4V35.9H5.8H10.0224C10.9466 35.9 11.7923 36.4417 12.1904 37.3006L12.1904 37.3007C13.0661 39.1891 14.3214 40.906 16.0376 42.368L16.0377 42.3681C16.5829 42.8323 16.9 43.5214 16.9 44.25V50.15C16.9 52.0465 18.415 53.6 20.3 53.6C22.185 53.6 23.7 52.0465 23.7 50.15C23.7 48.7897 24.7834 47.7 26.1 47.7H37.7C38.3339 47.7 38.9445 47.9555 39.3928 48.4139L39.3947 48.4158C39.8456 48.8721 40.1 49.4973 40.1 50.15C40.1 51.0604 40.4543 51.9392 41.0931 52.5862ZM41.0931 52.5862C41.0928 52.5859 41.0925 52.5855 41.0922 52.5852L41.4497 52.2357M41.0931 52.5862C41.0934 52.5865 41.0938 52.5868 41.0941 52.5871L41.4497 52.2357M41.4497 52.2357C41.992 52.7903 42.7315 53.1 43.5 53.1C45.1008 53.1 46.4 51.7784 46.4 50.15V44.25C46.4 43.3768 46.7799 42.5479 47.4382 41.9874L39.7503 48.0643C40.2955 48.616 40.6 49.3683 40.6 50.15C40.6 50.9318 40.9045 51.684 41.4497 52.2357ZM34.7567 12.425L35.3 12.4721V11.9268V11.9266V11.9264V11.9261V11.9259V11.9256V11.9254V11.9252V11.9249V11.9247V11.9244V11.9242V11.9239V11.9237V11.9235V11.9232V11.923V11.9227V11.9225V11.9222V11.922V11.9218V11.9215V11.9213V11.921V11.9208V11.9205V11.9203V11.92V11.9198V11.9196V11.9193V11.9191V11.9188V11.9186V11.9183V11.9181V11.9179V11.9176V11.9174V11.9171V11.9169V11.9166V11.9164V11.9161V11.9159V11.9156V11.9154V11.9152V11.9149V11.9147V11.9144V11.9142V11.9139V11.9137V11.9134V11.9132V11.913V11.9127V11.9125V11.9122V11.912V11.9117V11.9115V11.9112V11.911V11.9107V11.9105V11.9103V11.91V11.9098V11.9095V11.9093V11.909V11.9088V11.9085V11.9083V11.908V11.9078V11.9075V11.9073V11.907V11.9068V11.9066V11.9063V11.9061V11.9058V11.9056V11.9053V11.9051V11.9048V11.9046V11.9043V11.9041V11.9038V11.9036V11.9033V11.9031V11.9029V11.9026V11.9024V11.9021V11.9019V11.9016V11.9014V11.9011V11.9009V11.9006V11.9004V11.9001V11.8999V11.8996V11.8994V11.8991V11.8989V11.8986V11.8984V11.8981V11.8979V11.8976V11.8974V11.8972V11.8969V11.8967V11.8964V11.8962V11.8959V11.8957V11.8954V11.8952V11.8949V11.8947V11.8944V11.8942V11.8939V11.8937V11.8934V11.8932V11.8929V11.8927V11.8924V11.8922V11.8919V11.8917V11.8914V11.8912V11.8909V11.8907V11.8904V11.8902V11.8899V11.8897V11.8894V11.8892V11.8889V11.8887V11.8884V11.8882V11.8879V11.8877V11.8874V11.8872V11.8869V11.8867V11.8864V11.8862V11.8859V11.8857V11.8854V11.8852V11.8849V11.8847V11.8845V11.8842V11.884V11.8837V11.8835V11.8832V11.883V11.8827V11.8825V11.8822V11.882V11.8817V11.8815V11.8812V11.881V11.8807V11.8805V11.8802V11.88V11.8797V11.8795V11.8792V11.879V11.8787V11.8785V11.8782V11.878V11.8777V11.8775V11.8772V11.877V11.8767V11.8765V11.8762V11.8759V11.8757V11.8754V11.8752V11.8749V11.8747V11.8744V11.8742V11.8739V11.8737V11.8734V11.8732V11.8729V11.8727V11.8724V11.8722V11.8719V11.8717V11.8714V11.8712V11.8709V11.8707V11.8704V11.8702V11.8699V11.8697V11.8694V11.8692V11.8689V11.8687V11.8684V11.8682V11.8679V11.8677V11.8674V11.8672V11.8669V11.8667V11.8664V11.8662V11.8659V11.8657V11.8654V11.8652V11.8649V11.8647V11.8644V11.8642V11.8639V11.8637V11.8634V11.8632V11.8629V11.8627V11.8624V11.8622V11.8619V11.8617V11.8614V11.8612V11.8609V11.8607V11.8604V11.8602V11.8599V11.8597V11.8594V11.8592V11.8589V11.8587V11.8584V11.8582V11.8579V11.8577V11.8574V11.8572V11.8569V11.8567V11.8564V11.8562V11.8559V11.8557V11.8554V11.8552V11.8549V11.8547V11.8544V11.8542V11.8539V11.8537V11.8534V11.8532V11.8529V11.8527V11.8524V11.8521V11.8519V11.8516V11.8514V11.8511V11.8509V11.8506V11.8504V11.8501V11.8499V11.8496V11.8494V11.8491V11.8489V11.8486V11.8484V11.8481V11.8479V11.8476V11.8474V11.8471V11.8469V11.8466V11.8464V11.8461V11.8459V11.8456V11.8454V11.8451V11.8449V11.8446V11.8444V11.8441V11.8439V11.8436V11.8434V11.8431V11.8429V11.8426V11.8424V11.8421V11.8419V11.8416V11.8414V11.8411V11.8409V11.8406V11.8404V11.8402V11.8399V11.8397V11.8394V11.8392V11.8389V11.8387V11.8384V11.8382V11.8379V11.8377V11.8374V11.8372V11.8369V11.8367V11.8364V11.8362V11.8359V11.8357V11.8354V11.8352V11.8349V11.8347V11.8344V11.8342V11.8339V11.8337V11.8334V11.8332V11.8329V11.8327V11.8324V11.8322V11.8319V11.8317V11.8314V11.8312V11.8309V11.8307V11.8304V11.8302V11.8299V11.8297V11.8294V11.8292V11.829V11.8287V11.8285V11.8282V11.828V11.8277V11.8275V11.8272V11.827V11.8267V11.8265V11.8262V11.826V11.8257V11.8255V11.8252V11.825V11.8247V11.8245V11.8242V11.824V11.8238V11.8235V11.8233V11.823V11.8228V11.8225V11.8223V11.822V11.8218V11.8215V11.8213V11.821V11.8208V11.8205V11.8203V11.82V11.8198V11.8196V11.8193V11.8191V11.8188V11.8186V11.8183V11.8181V11.8178V11.8176V11.8173V11.8171V11.8168V11.8166V11.8164V11.8161V11.8159V11.8156V11.8154V11.8151V11.8149V11.8146V11.8144V11.8141V11.8139V11.8137V11.8134V11.8132V11.8129V11.8127V11.8124V11.8122V11.8119V11.8117V11.8114V11.8112V11.811V11.8107V11.8105V11.8102V11.81V11.8097V11.8095V11.8092V11.809V11.8088V11.8085V11.8083V11.808V11.8078V11.8075V11.8073V11.807V11.8068V11.8066V11.8063V11.8061V11.8058V11.8056V11.8053V11.8051V11.8049V11.8046V11.8044V11.8041V11.8039V11.8036V11.8034V11.8032V11.8029V11.8027V11.8024V11.8022V11.8019V11.8017V11.8015V11.8012V11.801V11.8007V11.8005V11.8002V11.8C35.3 5.55445 40.281 0.5 46.4 0.5C52.519 0.5 57.5 5.55445 57.5 11.8C57.5 15.3877 55.8552 18.583 53.295 20.6536L52.8981 20.9745L53.2271 21.3647C55.9427 24.5851 57.5 28.415 57.5 32.45C57.5 37.249 55.4852 41.6982 51.8525 45.2091L51.7 45.3565V45.5686V50.15C51.7 54.7701 48.0211 58.5 43.5 58.5C41.3269 58.5 39.2425 57.6226 37.706 56.0568L37.7051 56.0559C36.8303 55.1687 36.1737 54.1003 35.7713 52.9366L35.655 52.6H35.2988H28.5041H28.1483L28.0317 52.9362C26.906 56.182 23.8637 58.5 20.3 58.5C15.7789 58.5 12.1 54.7701 12.1 50.15V45.5657V45.3553L11.9495 45.2082C10.6485 43.9365 9.57716 42.5418 8.71208 41.0493L8.5676 40.8H8.27949H2.9C1.58337 40.8 0.5 39.7103 0.5 38.35V26.55C0.5 25.1896 1.58337 24.1 2.9 24.1H8.27949H8.5676L8.71208 23.8507C9.57716 22.3582 10.6485 20.9635 11.9495 19.6918L12.1 19.5447V19.3343V8.85C12.1 7.95109 12.5819 7.12633 13.3505 6.70007L13.3521 6.69916C14.1167 6.2714 15.0516 6.30448 15.7904 6.78517L15.7905 6.7852L16.0631 6.36607C15.7905 6.7852 15.7905 6.78522 15.7906 6.78527L15.7909 6.78548L15.7922 6.78631L15.7972 6.7896L15.8173 6.80263L15.8953 6.85341L16.1917 7.0462L17.2495 7.73431L20.4594 9.82256C21.6267 10.582 22.7939 11.3415 23.6693 11.9113L24.7269 12.6L24.9011 12.7136V13.0542L25.5001 12.9332C27.541 12.5209 29.6857 12.3 31.9 12.3C32.8652 12.3 33.8193 12.3436 34.7567 12.425ZM48.8646 17.404L49.12 17.5835L49.3934 17.4329C51.3643 16.3471 52.7 14.2288 52.7 11.8C52.7 8.27515 49.8858 5.4 46.4 5.4C42.9142 5.4 40.1 8.27515 40.1 11.8C40.1 12.2506 40.1471 12.6946 40.2351 13.1197L40.2964 13.4159L40.5873 13.4991C43.6735 14.3811 46.4731 15.7233 48.8646 17.404ZM23.2 24.1C24.5166 24.1 25.6 25.1896 25.6 26.55C25.6 27.9103 24.5166 29 23.2 29C21.8834 29 20.8 27.9103 20.8 26.55C20.8 25.1896 21.8834 24.1 23.2 24.1Z" fill="#2F5327" stroke="white"/>
</svg>
