<svg width="285" height="584" viewBox="0 0 285 584" fill="none" xmlns="http://www.w3.org/2000/svg">
    <path d="M140.454 535.922C140.454 535.922 140 397.412 141.026 325.699C141.026 325.699 184.63 329.272 185.045 327.95C185.439 326.627 177.129 498.299 173.063 532.665C168.996 567.051 140.454 535.922 140.454 535.922Z" fill="white" stroke="#313638" stroke-width="0.986963" stroke-linecap="round" stroke-linejoin="round"/>
    <path d="M136.13 534.621L137.176 509.592L137.373 504.775L180.918 505.565L178.155 541.964L136.13 534.621Z" fill="white" stroke="#313638" stroke-width="0.986963" stroke-linecap="round" stroke-linejoin="round"/>
    <path d="M178.61 512.258L139.072 511.133" stroke="#313638" stroke-width="0.986963" stroke-linecap="round" stroke-linejoin="round"/>
    <path d="M129.577 529.191L186.288 530.514L186.821 544.825L226.121 582.685L126.182 581.994L129.577 529.191Z" fill="white"/>
    <path d="M210.214 554.793L202.535 570.762" stroke="#313638" stroke-width="0.986963" stroke-linecap="round" stroke-linejoin="round"/>
    <path d="M199.535 548.594L191.856 564.543" stroke="#313638" stroke-width="0.986963" stroke-linecap="round" stroke-linejoin="round"/>
    <path d="M191.401 545.95C191.401 545.95 222.076 534.442 217.319 525.697C209.66 511.643 191.401 545.95 191.401 545.95Z" stroke="#313638" stroke-width="0.986963" stroke-linecap="round" stroke-linejoin="round"/>
    <path d="M198.961 516.873L190.572 546.482" stroke="#313638" stroke-width="0.986963" stroke-linecap="round" stroke-linejoin="round"/>
    <path d="M126.242 581.029C126.242 581.029 126.973 569.541 128.039 552.98L128.236 549.861C135.52 549.96 142.626 553.493 147.008 559.968C151.607 566.758 152.042 575.147 148.962 582.155H145.528C125.019 582.688 126.242 581.01 126.242 581.01V581.029Z" fill="#313638"/>
    <path d="M129.577 529.191L186.288 530.514L186.821 544.825L226.121 582.685L126.182 581.994L129.577 529.191Z" stroke="#313638" stroke-width="0.986963" stroke-linecap="round" stroke-linejoin="round"/>
    <path d="M215.502 577.293L154.034 576.168" stroke="#313638" stroke-width="0.986963" stroke-linecap="round" stroke-linejoin="round"/>
    <path d="M68.8588 535.487C68.8588 535.487 68.4048 396.976 69.4313 325.264C69.4313 325.264 113.035 328.837 113.45 327.514C113.845 326.191 105.534 497.864 101.468 532.23C97.4017 566.615 68.8588 535.487 68.8588 535.487Z" fill="white" stroke="#313638" stroke-width="0.986963" stroke-linecap="round" stroke-linejoin="round"/>
    <path d="M64.5352 534.164L65.5813 509.154L65.7787 504.338L109.324 505.108L106.54 541.507L64.5352 534.164Z" fill="white" stroke="#313638" stroke-width="0.986963" stroke-linecap="round" stroke-linejoin="round"/>
    <path d="M107.015 511.801L67.458 510.695" stroke="#313638" stroke-width="0.986963" stroke-linecap="round" stroke-linejoin="round"/>
    <path d="M57.9613 528.738L114.692 530.081L115.205 544.392L154.526 582.252L54.5859 581.561L57.9613 528.738Z" fill="white"/>
    <path d="M138.618 554.361L130.939 570.311" stroke="#313638" stroke-width="0.986963" stroke-linecap="round" stroke-linejoin="round"/>
    <path d="M127.939 548.143L120.261 564.112" stroke="#313638" stroke-width="0.986963" stroke-linecap="round" stroke-linejoin="round"/>
    <path d="M119.805 545.516C119.805 545.516 150.479 534.008 145.722 525.264C138.064 511.209 119.805 545.516 119.805 545.516V545.516Z" stroke="#313638" stroke-width="0.986963" stroke-linecap="round" stroke-linejoin="round"/>
    <path d="M127.365 516.439L118.976 546.029" stroke="#313638" stroke-width="0.986963" stroke-linecap="round" stroke-linejoin="round"/>
    <path d="M54.6467 580.57C54.6467 580.57 55.3771 569.082 56.443 552.521L56.6404 549.402C63.9242 549.501 71.0303 553.034 75.4125 559.509C80.0117 566.299 80.4459 574.688 77.3666 581.696H73.932C53.4229 582.229 54.6467 580.551 54.6467 580.551V580.57Z" fill="#313638"/>
    <path d="M57.9613 528.738L114.692 530.081L115.205 544.392L154.526 582.252L54.5859 581.561L57.9613 528.738Z" stroke="#313638" stroke-width="0.986963" stroke-linecap="round" stroke-linejoin="round"/>
    <path d="M143.906 576.858L82.418 575.713" stroke="#313638" stroke-width="0.986963" stroke-linecap="round" stroke-linejoin="round"/>
    <path d="M121.82 92.6758H130.544C158.732 92.6758 181.61 115.554 181.61 143.741V291.963H70.7344V143.741C70.7344 115.554 93.6122 92.6758 121.8 92.6758H121.82Z" fill="white" stroke="#313638" stroke-width="0.493481" stroke-linecap="round" stroke-linejoin="round"/>
    <path d="M70.0034 222.285H189.781L194.775 334.838H63.7461L70.0034 222.285Z" fill="#313638"/>
    <path d="M266.19 77.613C266.19 77.613 276.06 68.6711 280.462 69.2238C284.864 69.7765 284.41 74.1587 281.745 77.692C279.08 81.2254 275.409 83.9888 270.75 85.6864C266.092 87.384 261.867 82.1136 266.19 77.613Z" fill="white" stroke="#313638" stroke-width="0.986963" stroke-linecap="round" stroke-linejoin="round"/>
    <path d="M224.048 127.318L243.906 137.247L263.27 97.4923L267.593 87.5634L246.689 80.793L224.048 127.318Z" fill="white" stroke="#313638" stroke-width="0.986963" stroke-linecap="round" stroke-linejoin="round"/>
    <path d="M279.251 55.0145L265.023 48.5842C262.32 47.363 259.14 48.5635 257.919 51.2656L242.685 84.9743C241.463 87.6765 242.664 90.8569 245.366 92.0781L259.594 98.5083C262.296 99.7295 265.477 98.5291 266.698 95.8269L281.932 62.1182C283.153 59.4161 281.953 56.2357 279.251 55.0145Z" fill="#313638"/>
    <path d="M279.952 61.7742L259.5 52.5312L244.526 85.6645L264.978 94.9074L279.952 61.7742Z" fill="white"/>
    <path d="M276.286 63.8937L260.475 56.748L256.784 64.9144L272.595 72.06L276.286 63.8937Z" fill="#FCFCFC"/>
    <path d="M269.137 79.3918L253.326 72.2461L249.635 80.4125L265.447 87.5582L269.137 79.3918Z" fill="#FCFCFC"/>
    <path d="M272.141 72.8586L256.438 65.7617L255.812 67.1468L271.515 74.2436L272.141 72.8586Z" fill="#FCFCFC"/>
    <path d="M264.873 88.6796L254.009 83.7695L253.383 85.1546L264.247 90.0647L264.873 88.6796Z" fill="#FCFCFC"/>
    <path d="M270.967 75.4346L262.369 71.5488L261.743 72.9339L270.341 76.8197L270.967 75.4346Z" fill="#FCFCFC"/>
    <path d="M274.606 56.3607C274.488 56.6371 274.133 56.7555 273.837 56.6173C273.541 56.4792 273.402 56.1436 273.521 55.8672C273.639 55.5909 273.995 55.4725 274.291 55.6106C274.587 55.7488 274.725 56.0844 274.606 56.3607Z" fill="white"/>
    <path d="M272.238 55.7685L269.178 54.3868C268.941 54.2881 268.823 54.0117 268.922 53.7946C269.02 53.5775 269.297 53.4787 269.534 53.5774L272.593 54.9592C272.83 55.0579 272.948 55.3342 272.85 55.5513C272.751 55.7685 272.475 55.8672 272.238 55.7685Z" fill="white"/>
    <path d="M219.823 123.233C219.823 123.233 241.892 76.6874 245.958 74.7134C250.024 72.7395 261.552 74.0028 261.177 78.227C260.802 82.4512 252.966 83.3988 252.966 83.3988C252.966 83.3988 254.327 91.2943 250.774 99.6835L233.305 131.306L219.823 123.252V123.233Z" fill="white"/>
    <path d="M250.774 99.6826C254.327 91.2934 252.966 83.3979 252.966 83.3979C252.966 83.3979 260.782 82.4305 261.177 78.2261C261.572 74.0216 250.024 72.7583 245.958 74.7125C241.892 76.6667 219.823 123.232 219.823 123.232L231.746 131.147" stroke="#313638" stroke-width="0.986963" stroke-linecap="round" stroke-linejoin="round"/>
    <path d="M276.258 86.1835C277.995 84.249 279.081 81.4263 276.258 79.6893C272.409 77.3206 267.198 81.8803 265.599 83.874C262.362 87.8811 263.546 89.6181 266.112 89.9142C266.112 89.9142 261.355 94.237 267.454 95.0464C273.041 95.7964 280.818 90.4077 276.278 86.2032L276.258 86.1835Z" fill="white"/>
    <path d="M265.598 83.874C267.197 81.8803 272.428 77.3206 276.257 79.6893C279.988 81.9988 276.849 86.223 274.441 87.7429C269.487 90.842 259.36 91.6118 265.578 83.874H265.598Z" stroke="#313638" stroke-width="0.986963" stroke-linecap="round" stroke-linejoin="round"/>
    <path d="M266.093 89.9143C266.093 89.9143 261.335 94.2174 267.435 95.0267C273.021 95.7768 280.798 90.3881 276.258 86.1836" stroke="#313638" stroke-width="0.986963" stroke-linecap="round" stroke-linejoin="round"/>
    <path d="M222.272 109.024L205.77 130.402C168.699 92.6802 147.46 94.7527 147.46 94.7527L191.834 217.788C191.834 217.788 215.422 225.861 237.708 194.633C253.736 172.17 266.428 139.916 266.428 139.916L222.272 108.985V109.024Z" fill="white"/>
    <path d="M249.433 162.42V175.763C250.104 174.54 250.756 173.336 251.407 172.131V162.42H256.362C256.697 161.748 257.013 161.097 257.329 160.446H251.407V139.423H265.679L262.856 137.449H251.407V129.435L249.433 128.054V137.449H228.411V116.427H232.852L230.029 114.453H228.411V113.328L226.437 111.946V114.453H218.087L216.567 116.427H226.437V137.449H205.415V130.047C204.743 129.376 204.092 128.725 203.441 128.073V137.449H182.418V116.427H190.709C189.899 115.756 189.09 115.085 188.301 114.453H182.418V109.933C181.747 109.44 181.096 108.966 180.444 108.512V114.434H159.422V97.142C158.731 96.9051 158.08 96.6681 157.448 96.4707V114.434H154.586L155.297 116.408H157.448V122.349L159.422 127.817V116.388H180.444V137.41H162.876L163.587 139.384H180.444V160.406H171.167L171.878 162.38H180.444V183.402H179.477L180.188 185.376H180.444V186.107L182.418 191.575V185.376H203.441V206.399H187.768L188.478 208.373H203.441V218.4C204.072 218.321 204.743 218.203 205.415 218.084V208.373H225.154C226.239 207.484 227.325 206.497 228.411 205.451V185.376H243.807C244.202 184.725 244.617 184.054 245.011 183.402H228.391V162.38H249.413L249.433 162.42ZM228.411 139.423H249.433V160.446H228.411V139.423ZM203.441 183.462H182.418V162.439H203.441V183.462ZM203.441 160.465H182.418V139.443H203.441V160.465ZM226.437 206.478H205.415V185.455H226.437V206.478ZM226.437 183.481H205.415V162.459H226.437V183.481ZM226.437 160.485H205.415V139.463H226.437V160.485Z" fill="#EA9625"/>
    <path d="M195.683 143.449L222.272 109.024L266.428 139.955C266.428 139.955 253.756 172.209 237.708 194.672C215.422 225.9 191.834 217.826 191.834 217.826L147.46 94.7918C147.46 94.7918 168.68 92.7193 205.77 130.441" stroke="#313638" stroke-width="0.986963" stroke-linecap="round" stroke-linejoin="round"/>
    <path d="M212.245 122.012L259.698 155.43C263.903 146.35 266.429 139.955 266.429 139.955L222.273 109.023L212.245 122.032V122.012Z" stroke="#313638" stroke-width="0.986963" stroke-linecap="round" stroke-linejoin="round"/>
    <path d="M225.075 118.103C225.016 119.564 223.812 120.689 222.351 120.63C220.89 120.57 219.765 119.366 219.824 117.906C219.884 116.445 221.088 115.32 222.549 115.379C224.009 115.438 225.134 116.643 225.075 118.103Z" fill="#313638"/>
    <path d="M172.527 329.705L215.4 311.722C215.4 311.722 201.681 170.35 182.811 129.134C163.94 87.8988 143.135 91.5702 143.135 91.5702L172.527 329.705Z" fill="white"/>
    <path d="M143.154 91.5534L143.391 93.409H152.925C147.023 90.8824 143.154 91.5534 143.154 91.5534Z" fill="#EA9625"/>
    <path d="M203.418 300.436V316.74L205.392 315.911V300.436H214.235C214.176 299.804 214.097 299.133 214.018 298.462H205.392V277.439H211.629C211.55 276.788 211.471 276.136 211.392 275.465H205.392V254.443H208.728C208.649 253.792 208.55 253.12 208.471 252.469H205.392V231.447H205.55C204.878 226.788 204.168 222.071 203.418 217.353V229.473H182.396V208.45H201.997C201.898 207.799 201.779 207.128 201.661 206.476H182.396V185.454H197.93C197.812 184.803 197.674 184.132 197.555 183.48H182.396V162.458H193.114C192.956 161.787 192.798 161.136 192.64 160.484H182.396V139.462H186.797C186.58 138.791 186.343 138.139 186.126 137.488H182.396V128.25C181.744 126.849 181.073 125.486 180.422 124.184V137.488H159.399V116.466H176.158C175.743 115.794 175.329 115.143 174.934 114.492H159.399V97.1607C158.728 96.687 158.077 96.2329 157.425 95.8184V114.492H145.977L146.213 116.466H157.406V137.488H148.799L149.036 139.462H157.386V160.484H151.622L151.859 162.458H157.386V183.48H154.464L154.701 185.454H157.386V206.476H157.307L159.36 223.156V208.45H180.382V229.473H160.13L160.366 231.447H180.382V252.469H162.972L163.209 254.443H180.382V275.465H165.814L166.051 277.439H180.382V298.462H168.657L168.894 300.436H180.382V321.458H171.48L171.717 323.432H180.362V326.392L182.336 325.564V323.432H187.409L192.107 321.458H182.336V300.436H203.359H203.418ZM182.396 231.427H203.418V252.449H182.396V231.427ZM182.396 254.423H203.418V275.446H182.396V254.423ZM182.396 277.419H203.418V298.442H182.396V277.419ZM180.422 206.437H159.399V185.415H180.422V206.437ZM180.422 183.441H159.399V162.419H180.422V183.441ZM180.422 160.445H159.399V139.422H180.422V160.445Z" fill="#EA9625"/>
    <path d="M172.527 329.707L215.4 311.724C215.4 311.724 201.681 170.352 182.811 129.136C163.94 87.9007 143.135 91.5722 143.135 91.5722L172.527 329.707V329.707Z" stroke="#313638" stroke-width="0.986963" stroke-linecap="round" stroke-linejoin="round"/>
    <path d="M189.897 258.982L207.584 276.866" stroke="#313638" stroke-width="0.986963" stroke-linecap="round" stroke-linejoin="round"/>
    <path d="M117.573 91.5527C117.573 91.5527 115.086 243.644 112.935 267.805C110.783 291.965 106.065 329.687 106.065 329.687L34.9053 316.837L43.0576 194.888C43.0576 194.888 43.4919 117.905 117.573 91.5527Z" fill="white"/>
    <path d="M113.388 254.44H113.724C113.743 253.789 113.783 253.138 113.803 252.466H113.388V231.444H114.533C114.553 230.793 114.572 230.141 114.592 229.47H113.388V208.448H115.184C115.184 207.796 115.224 207.125 115.244 206.474H113.408V185.452H115.757C115.757 184.8 115.796 184.129 115.796 183.478H113.408V162.456H116.27C116.27 161.804 116.29 161.133 116.309 160.482H113.408V139.459H116.724C116.724 138.808 116.744 138.137 116.763 137.485H113.408V116.463H117.158C117.158 115.792 117.178 115.14 117.198 114.489H113.408V93.4667H117.573C117.592 92.2626 117.612 91.6113 117.612 91.6113C115.5 92.3614 113.447 93.1707 111.434 93.9997V114.489H90.4115V105.449C89.7404 105.922 89.089 106.396 88.4376 106.87V114.489H79.1799C78.4692 115.14 77.7784 115.792 77.1073 116.463H88.4376V137.485H67.4153V127.359C66.7441 128.247 66.073 129.116 65.4414 130.004V137.466H60.5065C60.1118 138.117 59.717 138.788 59.3419 139.44H65.4414V160.462H49.8079C49.571 161.133 49.3539 161.784 49.1565 162.436H65.4611V183.458H44.4388V181.958C43.1558 189.873 43.136 194.907 43.136 194.907L42.4649 204.895V206.474H42.3662L42.228 208.448H42.4649V229.47H40.8265L40.6883 231.444H42.4649V252.466H39.2868L39.1487 254.44H42.4649V275.463H37.7472L37.609 277.437H42.4649V298.459H36.2075L36.0693 300.433H42.4451V318.198L44.4191 318.553V300.433H65.4414V321.455H60.5461L71.4816 323.429H88.4376V326.489L90.4115 326.844V323.429H106.894C106.973 322.817 107.052 322.146 107.131 321.455H90.4115V300.433H109.598C109.677 299.782 109.756 299.11 109.815 298.459H90.4115V277.437H111.434V283.536C112.006 278.029 112.539 272.64 112.974 267.804C113.112 266.185 113.27 263.974 113.408 261.29V254.44H113.388ZM65.4019 298.479H44.3796V277.456H65.4019V298.479ZM65.4019 275.483H44.3796V254.46H65.4019V275.483ZM65.4019 252.486H44.3796V231.464H65.4019V252.486ZM65.4019 229.49H44.3796V208.468H65.4019V229.49ZM65.4019 206.494H44.3796V185.472H65.4019V206.494ZM88.3981 321.514H67.3758V300.492H88.3981V321.514ZM88.3981 298.518H67.3758V277.496H88.3981V298.518ZM88.3981 275.522H67.3758V254.5H88.3981V275.522ZM88.3981 252.526H67.3758V231.503H88.3981V252.526ZM88.3981 229.529H67.3758V208.507H88.3981V229.529ZM88.3981 206.533H67.3758V185.511H88.3981V206.533ZM88.3981 183.537H67.3758V162.515H88.3981V183.537ZM88.3981 160.541H67.3758V139.519H88.3981V160.541ZM111.394 275.561H90.372V254.539H111.394V275.561ZM111.394 252.565H90.372V231.543H111.394V252.565ZM111.394 229.569H90.372V208.547H111.394V229.569ZM111.394 206.573H90.372V185.55H111.394V206.573ZM111.394 183.576H90.372V162.554H111.394V183.576ZM111.394 160.58H90.372V139.558H111.394V160.58ZM111.394 137.584H90.372V116.562H111.394V137.584Z" fill="#EA9625"/>
    <path d="M117.573 91.5527C117.573 91.5527 115.086 243.644 112.935 267.805C110.783 291.965 106.065 329.687 106.065 329.687L34.9053 316.837L43.0576 194.888C43.0576 194.888 43.4919 117.905 117.573 91.5527V91.5527Z" stroke="#313638" stroke-width="0.986963" stroke-linecap="round" stroke-linejoin="round"/>
    <path d="M113.488 131.191C113.429 132.652 112.225 133.777 110.764 133.718C109.304 133.658 108.178 132.454 108.238 130.994C108.297 129.533 109.501 128.408 110.962 128.467C112.422 128.526 113.547 129.73 113.488 131.191Z" fill="#313638"/>
    <path d="M112.381 162.32C112.322 163.781 111.117 164.906 109.657 164.847C108.196 164.787 107.071 163.583 107.13 162.123C107.189 160.662 108.393 159.537 109.854 159.596C111.315 159.655 112.44 160.859 112.381 162.32Z" fill="#313638"/>
    <path d="M111.18 196.627C111.12 198.087 109.916 199.213 108.456 199.153C106.995 199.094 105.87 197.89 105.929 196.429C105.988 194.969 107.192 193.843 108.653 193.903C110.114 193.962 111.239 195.166 111.18 196.627Z" fill="#313638"/>
    <path d="M108.554 234.588C108.494 236.048 107.29 237.173 105.83 237.114C104.369 237.055 103.244 235.851 103.303 234.39C103.362 232.929 104.566 231.804 106.027 231.864C107.488 231.923 108.613 233.127 108.554 234.588Z" fill="#313638"/>
    <path d="M108.237 267.056C108.178 268.517 106.974 269.642 105.513 269.583C104.053 269.524 102.927 268.32 102.987 266.859C103.046 265.398 104.25 264.273 105.711 264.332C107.171 264.392 108.296 265.596 108.237 267.056Z" fill="#313638"/>
    <path d="M51.8428 287.271L93.8676 257.465" stroke="#313638" stroke-width="0.986963" stroke-linecap="round" stroke-linejoin="round"/>
    <path d="M84.629 264.016L68.2454 237.131L44.124 256.12L60.9024 280.834L84.629 264.016Z" fill="white" stroke="#313638" stroke-width="0.986963" stroke-linecap="round" stroke-linejoin="round"/>
    <path d="M91.0827 146.209L112.401 92.1035C90.5892 94.5907 47.1826 107.382 12.2046 166.698C-24.2341 228.522 41.7938 267.803 41.7938 267.803L88.1021 238.786L59.8157 179.667L64.2373 188.885L91.1222 146.189L91.0827 146.209Z" fill="white"/>
    <path d="M88.3986 139.418V150.452L90.3725 147.314V139.418H93.7479L94.5177 137.444H90.3725V116.422H102.808L103.578 114.448H90.3527V97.1758C89.7013 97.3929 89.0499 97.63 88.3788 97.8866V114.448H67.3565V108.013C66.7051 108.408 66.034 108.842 65.3826 109.256V114.448H57.7633C56.8947 115.079 56.0262 115.75 55.1577 116.422H65.3826V137.444H44.3603V125.64C43.7089 126.252 43.0378 126.883 42.3864 127.515V137.424H33.0497C32.497 138.076 31.9246 138.727 31.3719 139.398H42.3864V160.42H21.3641V152.446C20.7127 153.393 20.0415 154.341 19.3902 155.308V160.42H16.0345C15.6199 161.072 15.2054 161.723 14.7909 162.394H19.3704V183.417H4.50674C4.28961 184.088 4.09222 184.739 3.89483 185.391H19.3704V206.413H1.26953C1.30901 207.084 1.34844 207.736 1.40766 208.387H19.3704V229.409H7.05312C7.36895 230.08 7.665 230.732 8.00056 231.383H19.3704V248.3C20.0218 249.069 20.6929 249.8 21.3443 250.53V231.383H42.3666V252.405H23.1011C23.7525 253.076 24.4039 253.748 25.0553 254.379H42.3666V267.368L44.3405 266.124V254.379H63.0928L67.3368 251.714V231.363H84.5099L83.5624 229.39H67.3368V208.367H73.4955L72.5479 206.393H67.3171V195.477L65.3431 191.352V206.393H44.3208V185.371H62.4809L61.5335 183.397H44.3208V162.375H65.3431V183.397H61.5335L62.4809 185.371H65.3431V186.95L67.5737 183.397H67.3171V162.375H80.8187L82.0623 160.401H67.3171V139.378H88.3393L88.3986 139.418ZM67.3763 116.422H88.3986V137.444H67.3763V116.422ZM42.4061 229.468H21.3838V208.446H42.4061V229.468ZM42.4061 206.472H21.3838V185.45H42.4061V206.472ZM42.4061 183.476H21.3838V162.454H42.4061V183.476ZM65.4023 252.484H44.3801V231.462H65.4023V252.484ZM65.4023 208.446V229.468H44.3801V208.446H65.4023ZM65.4023 160.46H44.3801V139.438H65.4023V160.46Z" fill="#EA9625"/>
    <path d="M111.416 93.4064V94.6104L112.403 92.1035C109.935 92.3799 107.192 92.8142 104.211 93.4064H111.416Z" fill="#EA9625"/>
    <path d="M126.278 91.7467C126.278 91.7467 61.0002 83.8907 12.1851 166.697C-24.2536 228.52 41.7742 267.801 41.7742 267.801L88.0825 238.785L59.7961 179.665" stroke="#313638" stroke-width="0.986963" stroke-linecap="round" stroke-linejoin="round"/>
    <path d="M64.1973 188.905L91.0822 146.209" stroke="#313638" stroke-width="0.986963" stroke-linecap="round" stroke-linejoin="round"/>
    <path d="M26.8311 256.118L80.2652 222.482" stroke="#313638" stroke-width="0.986963" stroke-linecap="round" stroke-linejoin="round"/>
    <path d="M91.0851 146.209L64.2002 188.905" stroke="#313638" stroke-width="0.986963" stroke-linecap="round" stroke-linejoin="round"/>
    <path d="M59.7776 179.686L88.0639 238.805L41.7556 267.822C41.7556 267.822 -24.2721 228.541 12.1665 166.718C47.1445 107.401 90.5511 94.6102 112.363 92.123" stroke="#313638" stroke-width="0.986963" stroke-linecap="round" stroke-linejoin="round"/>
    <path d="M79.4189 235.232C79.3597 236.693 78.1556 237.818 76.6949 237.759C75.2342 237.7 74.109 236.495 74.1682 235.035C74.2275 233.574 75.4316 232.449 76.8923 232.508C78.353 232.567 79.4781 233.771 79.4189 235.232Z" fill="#313638"/>
    <path d="M146.315 29.946L135.459 30.0842C128.234 30.1632 122.431 36.9731 122.53 45.1847L122.727 62.0025C122.727 62.4763 122.766 62.9501 122.806 63.4041C122.687 63.8975 122.628 64.4107 122.648 64.9437L122.766 75.1883V75.7607L122.905 86.0055C122.944 89.7165 126.023 92.7169 129.734 92.6774L134.038 92.6181C137.748 92.5787 140.749 89.4994 140.709 85.7884L140.591 76.7281L146.868 76.649C154.093 76.5701 159.896 69.7601 159.797 61.5486L159.6 44.7307C159.501 36.5192 153.52 29.8671 146.296 29.946H146.315Z" fill="white" stroke="#313638" stroke-width="0.986963" stroke-linecap="round" stroke-linejoin="round"/>
    <path d="M137.965 50.4931C137.965 51.8353 139.09 52.9211 140.433 52.9013C141.775 52.9013 142.86 51.7762 142.841 50.4339C142.841 49.0916 141.716 48.0059 140.373 48.0257C139.031 48.0257 137.945 49.1508 137.965 50.4931Z" fill="#313638"/>
    <path d="M153.975 49.9422C153.975 51.0871 154.942 52.0148 156.087 52.0148C157.232 52.0148 158.16 51.0476 158.14 49.9027C158.12 48.7578 157.173 47.8301 156.028 47.8301C154.883 47.8301 153.955 48.7973 153.975 49.9422Z" fill="#313638"/>
    <path d="M151.763 59.9689C151.763 59.9689 150.578 63.5615 147.973 63.8379C145.367 64.1142 143.314 61.252 143.137 59.0215L151.763 59.9689Z" fill="white" stroke="#313638" stroke-width="0.986963" stroke-linecap="round" stroke-linejoin="round"/>
    <path d="M147.736 56.2597L151.684 53.7923L148.151 47.9297" stroke="#313638" stroke-width="0.986963" stroke-linecap="round" stroke-linejoin="round"/>
    <path d="M135.874 46.1325L140.335 44.4941" stroke="#313638" stroke-width="0.986963" stroke-linecap="round" stroke-linejoin="round"/>
    <path d="M154.034 45.1257L158.1 45.0664" stroke="#313638" stroke-width="0.986963" stroke-linecap="round" stroke-linejoin="round"/>
    <path d="M122.787 59.6133C121.346 59.337 119.826 59.5345 118.483 60.2056C118.937 58.3896 118.74 56.4551 117.911 54.7378C121.188 56.8894 125.649 56.5143 128.511 53.6324C129.794 52.3494 130.544 50.7505 130.82 49.0924C131.926 48.6779 132.952 48.0461 133.841 47.1579C135.657 45.3221 136.426 42.835 136.209 40.4466C136.762 40.111 137.315 39.7163 137.788 39.2228C138.183 38.828 138.538 38.3937 138.835 37.9397C141.993 40.5058 146.553 40.4466 149.632 37.7226C149.849 37.9989 150.047 38.2752 150.303 38.5318C153.6 41.8085 158.929 41.7691 162.206 38.4727C163.548 37.1304 164.298 35.4327 164.535 33.6957C165.581 33.2812 166.568 32.6496 167.417 31.8008C170.694 28.5043 170.654 23.1747 167.358 19.898C166.904 19.4637 166.41 19.0887 165.897 18.7532C165.897 16.6016 165.048 14.45 163.41 12.8116C161.772 11.193 159.659 10.4034 157.528 10.3836C157.113 9.41641 156.521 8.50845 155.731 7.71888C152.968 4.97513 148.763 4.58033 145.566 6.4753C145.151 5.3699 144.52 4.32377 143.631 3.4355C140.335 0.158784 135.005 0.1982 131.728 3.49466C130.978 4.24475 130.426 5.11333 130.031 6.02134C129.912 5.88316 129.794 5.70543 129.656 5.56725C126.695 2.6261 121.898 2.6459 118.957 5.62653C118.247 6.33714 117.733 7.14649 117.378 8.01502C114.299 6.71223 110.607 7.30438 108.12 9.831C106.62 11.3509 105.85 13.2853 105.732 15.2395C103.995 15.2001 102.258 15.8318 100.955 17.1543C98.9218 19.2072 98.5665 22.2667 99.8298 24.7144C98.152 25.0302 96.5729 25.8198 95.2701 27.1226C91.9144 30.498 91.9539 35.9658 95.3293 39.3214C96.4544 40.4466 97.8362 41.1572 99.2771 41.5125C97.0071 44.3747 97.165 48.5199 99.8101 51.1452C101.073 52.4086 102.692 53.06 104.35 53.1784C101.745 56.3959 101.922 61.0938 104.923 64.0547C107.647 66.7589 111.812 67.1143 114.93 65.1798C114.615 67.2327 115.246 69.3844 116.825 70.9438C118.483 72.5821 120.773 73.1743 122.885 72.74L122.826 59.6133H122.787Z" fill="white" stroke="#313638" stroke-width="0.986963" stroke-linecap="round" stroke-linejoin="round"/>
    <path d="M109.008 57.0062C109.068 61.7436 112.976 65.5336 117.753 65.4744C122.53 65.4152 126.34 61.5265 126.28 56.7891C126.221 52.0517 122.313 48.2618 117.536 48.321C112.759 48.3802 108.949 52.2688 109.008 57.0062Z" fill="white"/>
    <path d="M122.332 57.9754C122.332 57.9754 122.648 52.1522 116.667 52.8629" stroke="#313638" stroke-width="0.986963" stroke-linecap="round" stroke-linejoin="round"/>
    <path d="M126.28 56.7869C126.261 54.3787 125.234 52.2272 123.596 50.6875" stroke="#313638" stroke-width="0.986963" stroke-linecap="round" stroke-linejoin="round"/>
    <path d="M123.596 50.6894C122.017 49.2089 119.885 48.3009 117.536 48.3206C112.759 48.3798 108.949 52.2684 109.008 57.0058C109.068 61.7432 112.976 65.5333 117.753 65.474C119.233 65.474 120.615 65.0792 121.819 64.408C122.273 64.1712 123.398 63.3817 123.754 63.0264" stroke="#313638" stroke-width="0.986963" stroke-linecap="round" stroke-linejoin="round"/>
    <path d="M120.419 62.7522C120.419 63.68 119.669 64.4498 118.721 64.4498C117.774 64.4498 117.023 63.6997 117.023 62.7522C117.023 61.8048 117.774 61.0547 118.721 61.0547C119.669 61.0547 120.419 61.8048 120.419 62.7522Z" fill="#313638"/>
    <path d="M143.711 79.451L120.123 79.2822C116.885 79.259 114.242 81.8649 114.219 85.1026L114.183 90.0768C114.16 93.3145 116.766 95.9579 120.004 95.9811L143.591 96.1499C146.829 96.1731 149.473 93.5672 149.496 90.3295L149.531 85.3553C149.555 82.1176 146.949 79.4741 143.711 79.451Z" fill="white" stroke="#313638" stroke-width="0.986963" stroke-miterlimit="10"/>
    <path d="M149.551 84.6819C149.571 84.899 149.61 85.0965 149.61 85.3137L149.571 90.2877C149.551 93.5052 146.926 96.111 143.708 96.111L144.142 99.6837L163.033 109.316C163.033 109.316 163.329 91.6103 149.531 84.6621L149.551 84.6819Z" fill="white"/>
    <path d="M114.258 90.05L114.298 85.0758C114.298 83.4177 115.028 81.9175 116.153 80.8516C115.147 81.0884 114.12 81.3846 113.074 81.7794C102.573 85.8457 98.3684 91.3133 96.6313 95.2217C94.539 99.8999 93.2559 109.335 93.2559 109.335L117.456 99.5052L117.535 95.3205C115.601 94.3532 114.258 92.3595 114.278 90.05H114.258Z" fill="white"/>
    <path d="M159.382 107.461V94.5906C158.809 93.5049 158.178 92.4192 157.408 91.373V91.4323H149.453C149.315 92.1429 149.019 92.8141 148.644 93.4062H157.428V106.454L159.401 107.461H159.382Z" fill="#EA9625"/>
    <path d="M113.391 101.143V93.4049H115.326C114.911 92.8128 114.615 92.1416 114.437 91.431H113.391V81.6797C113.293 81.7192 113.174 81.739 113.075 81.7982C112.503 82.0154 111.95 82.2522 111.417 82.4693V91.431H98.9223C98.3894 92.1021 97.9551 92.7733 97.5801 93.4049H111.417V101.952L113.391 101.143Z" fill="#EA9625"/>
    <path d="M149.551 84.6819C149.571 84.899 149.61 85.0965 149.61 85.3137L149.571 90.2877C149.551 93.5052 146.926 96.111 143.708 96.111L144.142 99.6837L163.033 109.316C163.033 109.316 163.329 91.6103 149.531 84.6621L149.551 84.6819Z" stroke="#313638" stroke-width="0.986963" stroke-linecap="round" stroke-linejoin="round"/>
    <path d="M114.258 90.05L114.298 85.0758C114.298 83.4177 115.028 81.9175 116.153 80.8516C115.147 81.0884 114.12 81.3846 113.074 81.7794C102.573 85.8457 98.3684 91.3133 96.6313 95.2217C94.539 99.8999 93.2559 109.335 93.2559 109.335L117.456 99.5052L117.535 95.3205C115.601 94.3532 114.258 92.3595 114.278 90.05H114.258Z" stroke="#313638" stroke-width="0.986963" stroke-linecap="round" stroke-linejoin="round"/>
</svg>
