<svg width="35" height="35" viewBox="0 0 35 35" fill="none" xmlns="http://www.w3.org/2000/svg">
    <path d="M34.037 34.037C33.7319 34.3423 33.3697 34.5845 32.9709 34.7497C32.5722 34.915 32.1448 35 31.7132 35C31.2816 35 30.8542 34.915 30.4555 34.7497C30.0567 34.5845 29.6945 34.3423 29.3893 34.037L23.589 28.2367C21.2027 29.7641 18.3826 30.6778 15.3389 30.6778C6.86745 30.6778 0 23.8104 0 15.3389C0 6.86745 6.86745 0 15.3389 0C23.8104 0 30.6778 6.86745 30.6778 15.3389C30.6778 18.3826 29.7641 21.2027 28.2367 23.589L34.037 29.3893C34.3423 29.6945 34.5845 30.0567 34.7497 30.4555C34.915 30.8542 35 31.2816 35 31.7132C35 32.1448 34.915 32.5722 34.7497 32.9709C34.5845 33.3697 34.3423 33.7319 34.037 34.037ZM15.3389 4.38254C9.2888 4.38254 4.38254 9.28661 4.38254 15.3389C4.38254 21.3912 9.2888 26.2953 15.3389 26.2953C21.3912 26.2953 26.2953 21.3912 26.2953 15.3389C26.2953 9.28661 21.3912 4.38254 15.3389 4.38254Z" fill="#E4C035"/>
</svg>
