<svg xmlns="http://www.w3.org/2000/svg" display="none">

    <symbol id="view" viewBox="0 0 25 18">
        <path d="M0.09375 8.58C2.14583 4.31 6.77083 0 12.5 0C18.2292 0 22.8542 4.31 24.9062 8.58C24.968 8.71207 25 8.85522 25 9C25 9.14478 24.968 9.28793 24.9062 9.42C22.8542 13.69 18.2292 18 12.5 18C6.77083 18 2.14583 13.69 0.09375 9.42C0.03195 9.28793 0 9.14478 0 9C0 8.85522 0.03195 8.71207 0.09375 8.58ZM12.5 14C13.5301 14 14.5371 13.7068 15.3936 13.1573C16.2501 12.6079 16.9177 11.827 17.3119 10.9134C17.7061 9.99979 17.8092 8.99445 17.6083 8.02455C17.4073 7.05464 16.9112 6.16373 16.1828 5.46447C15.4544 4.7652 14.5264 4.289 13.5161 4.09607C12.5058 3.90315 11.4586 4.00216 10.5069 4.3806C9.55516 4.75904 8.74173 5.3999 8.16943 6.22215C7.59713 7.04439 7.29167 8.01109 7.29167 9C7.29332 10.3256 7.84258 11.5964 8.81898 12.5338C9.79537 13.4711 11.1192 13.9984 12.5 14Z"/>
        <path d="M12.5 12C10.7741 12 9.375 10.6569 9.375 9C9.375 7.34315 10.7741 6 12.5 6C14.2259 6 15.625 7.34315 15.625 9C15.625 10.6569 14.2259 12 12.5 12Z"/>
    </symbol>

    <symbol id="phone" viewBox="0 0 26 26">
        <path fill-rule="evenodd" clip-rule="evenodd"
              d="M25.5327 22.526C24.7302 24.9647 21.5859 26.181 19.3395 25.9782C16.2714 25.7009 12.933 24.0736 10.3989 22.2814C6.6739 19.6468 3.18467 15.5715 1.15146 11.2469C-0.285487 8.19116 -0.607892 4.43409 1.52933 1.6487C2.31973 0.619129 3.176 0.0692575 4.45868 0.0051259C6.24056 -0.0815384 6.49017 0.93781 7.10204 2.5255C7.55791 3.7128 8.16631 4.92394 8.50605 6.15457C9.14219 8.45118 6.9183 8.54716 6.6375 10.4243C6.46416 11.6081 7.89764 13.1957 8.54592 14.0398C9.79546 15.6838 11.3259 17.0936 13.0665 18.2046C14.0545 18.8269 15.6457 19.9482 16.7758 19.3294C18.5161 18.3761 18.3532 15.4418 20.7851 16.435C22.0452 16.948 23.2655 17.6884 24.4684 18.3367C26.3283 19.3368 26.2417 20.3733 25.5327 22.526C25.0023 24.1345 26.0631 20.9175 25.5327 22.526Z"/>
    </symbol>

    <symbol id="people" viewBox="0 0 18 30">
        <path d="M10.3846 5.5814C11.9077 5.5814 13.1538 4.32558 13.1538 2.7907C13.1538 1.25581 11.9077 0 10.3846 0C8.86154 0 7.61538 1.25581 7.61538 2.7907C7.61538 4.32558 8.86154 5.5814 10.3846 5.5814ZM3.44746 11.0365C4.23261 10.7288 5.04788 11.4099 4.88484 12.2372L1.7235 28.2802C1.548 29.1709 2.22969 30 3.13745 30C3.81237 30 4.39689 29.5316 4.54396 28.8729L6.0764 22.0092C6.3872 20.6172 8.10045 20.1001 9.1295 21.0877C9.48905 21.4328 9.69231 21.9096 9.69231 22.408V28.6154C9.69231 29.3801 10.3122 30 11.0769 30C11.8416 30 12.4615 29.3801 12.4615 28.6154V20.3875C12.4615 19.8428 12.2394 19.3217 11.8464 18.9445L10.2019 17.3661C9.79813 16.9786 9.61976 16.4121 9.72869 15.8632C9.99497 14.5215 11.7858 14.0099 12.9708 14.6933C14.0671 15.3255 15.3001 15.7645 16.6091 15.949C17.3722 16.0565 18 15.4218 18 14.6512C18 13.8805 17.3694 13.2704 16.613 13.123C14.6017 12.731 12.9528 11.506 12.0462 9.90698L10.6615 7.67442C9.88615 6.43256 8.33538 5.93023 6.99231 6.50233L1.21453 8.96971C0.477897 9.28429 0 10.008 0 10.809V14.6619C0 15.4266 0.619913 16.0465 1.38462 16.0465C2.14932 16.0465 2.76923 15.4266 2.76923 14.6619V12.0308C2.76923 11.5914 3.03836 11.1969 3.44746 11.0365Z"/>
    </symbol>

    <symbol id="prev" viewBox="0 0 16 28">
        <path d="M14 26L2 14L14 2" stroke-width="4" stroke-linecap="round" stroke-linejoin="round"/>
    </symbol>

    <symbol id="next" viewBox="0 0 16 28">
        <path d="M2 26L14 14L2 2" stroke-width="4" stroke-linecap="round" stroke-linejoin="round"/>
    </symbol>

</svg>