<svg width="31" height="30" viewBox="0 0 31 30" fill="none" xmlns="http://www.w3.org/2000/svg">
    <path d="M27.4011 20.265H20.6061C20.2083 20.265 19.8268 20.423 19.5455 20.7043C19.2642 20.9856 19.1061 21.3672 19.1061 21.765C19.1061 22.1628 19.2642 22.5444 19.5455 22.8257C19.8268 23.107 20.2083 23.265 20.6061 23.265H24.2061C22.5515 24.9941 20.4177 26.189 18.0789 26.6961C15.74 27.2032 13.3029 26.9994 11.0808 26.1109C8.85865 25.2223 6.95294 23.6897 5.60852 21.7098C4.2641 19.7299 3.5424 17.3932 3.53613 15C3.53613 14.6022 3.3781 14.2206 3.09679 13.9393C2.81549 13.658 2.43396 13.5 2.03613 13.5C1.63831 13.5 1.25678 13.658 0.975473 13.9393C0.694168 14.2206 0.536133 14.6022 0.536133 15C0.544063 17.9292 1.40946 20.792 3.02554 23.235C4.64161 25.6781 6.93763 27.5945 9.63025 28.7478C12.3229 29.9011 15.2942 30.2408 18.1777 29.725C21.0611 29.2091 23.7304 27.8603 25.8561 25.845V28.5C25.8561 28.8978 26.0142 29.2794 26.2955 29.5607C26.5768 29.842 26.9583 30 27.3561 30C27.754 30 28.1355 29.842 28.4168 29.5607C28.6981 29.2794 28.8561 28.8978 28.8561 28.5V21.75C28.8524 21.3625 28.6989 20.9914 28.4276 20.7145C28.1564 20.4377 27.7885 20.2766 27.4011 20.265ZM15.5361 0C11.6907 0.0109683 7.99637 1.49837 5.21613 4.155V1.5C5.21613 1.10218 5.0581 0.720644 4.77679 0.43934C4.49549 0.158035 4.11396 0 3.71613 0C3.31831 0 2.93678 0.158035 2.65547 0.43934C2.37417 0.720644 2.21613 1.10218 2.21613 1.5V8.25C2.21613 8.64783 2.37417 9.02936 2.65547 9.31066C2.93678 9.59196 3.31831 9.75 3.71613 9.75H10.4661C10.864 9.75 11.2455 9.59196 11.5268 9.31066C11.8081 9.02936 11.9661 8.64783 11.9661 8.25C11.9661 7.85218 11.8081 7.47065 11.5268 7.18934C11.2455 6.90804 10.864 6.75 10.4661 6.75H6.86613C8.51983 5.02181 10.6523 3.82725 12.9897 3.31966C15.3272 2.81207 17.763 3.01462 19.9845 3.90129C22.2061 4.78797 24.1119 6.31832 25.4575 8.29591C26.803 10.2735 27.5269 12.6081 27.5361 15C27.5361 15.3978 27.6942 15.7794 27.9755 16.0607C28.2568 16.342 28.6383 16.5 29.0361 16.5C29.434 16.5 29.8155 16.342 30.0968 16.0607C30.3781 15.7794 30.5361 15.3978 30.5361 15C30.5361 13.0302 30.1481 11.0796 29.3943 9.25975C28.6405 7.43986 27.5356 5.78628 26.1427 4.3934C24.7499 3.00052 23.0963 1.89563 21.2764 1.14181C19.4565 0.387987 17.506 0 15.5361 0Z"
          fill="#BC9C22"/>
</svg>
