<svg width="31" height="30" viewBox="0 0 31 30" fill="none" xmlns="http://www.w3.org/2000/svg">
    <path d="M15.5361 18C15.8328 18 16.1228 17.912 16.3695 17.7472C16.6162 17.5824 16.8084 17.3481 16.922 17.074C17.0355 16.7999 17.0652 16.4983 17.0073 16.2074C16.9494 15.9164 16.8066 15.6491 16.5968 15.4393C16.387 15.2296 16.1197 15.0867 15.8288 15.0288C15.5378 14.9709 15.2362 15.0006 14.9621 15.1142C14.688 15.2277 14.4538 15.42 14.2889 15.6666C14.1241 15.9133 14.0361 16.2033 14.0361 16.5C14.0361 16.8978 14.1942 17.2794 14.4755 17.5607C14.7568 17.842 15.1383 18 15.5361 18ZM23.0361 18C23.3328 18 23.6228 17.912 23.8695 17.7472C24.1162 17.5824 24.3084 17.3481 24.422 17.074C24.5355 16.7999 24.5652 16.4983 24.5073 16.2074C24.4494 15.9164 24.3066 15.6491 24.0968 15.4393C23.887 15.2296 23.6197 15.0867 23.3288 15.0288C23.0378 14.9709 22.7362 15.0006 22.4621 15.1142C22.188 15.2277 21.9537 15.42 21.7889 15.6666C21.6241 15.9133 21.5361 16.2033 21.5361 16.5C21.5361 16.8978 21.6942 17.2794 21.9755 17.5607C22.2568 17.842 22.6383 18 23.0361 18ZM15.5361 24C15.8328 24 16.1228 23.912 16.3695 23.7472C16.6162 23.5824 16.8084 23.3481 16.922 23.074C17.0355 22.7999 17.0652 22.4983 17.0073 22.2074C16.9494 21.9164 16.8066 21.6491 16.5968 21.4393C16.387 21.2296 16.1197 21.0867 15.8288 21.0288C15.5378 20.9709 15.2362 21.0007 14.9621 21.1142C14.688 21.2277 14.4538 21.42 14.2889 21.6666C14.1241 21.9133 14.0361 22.2033 14.0361 22.5C14.0361 22.8978 14.1942 23.2794 14.4755 23.5607C14.7568 23.842 15.1383 24 15.5361 24ZM23.0361 24C23.3328 24 23.6228 23.912 23.8695 23.7472C24.1162 23.5824 24.3084 23.3481 24.422 23.074C24.5355 22.7999 24.5652 22.4983 24.5073 22.2074C24.4494 21.9164 24.3066 21.6491 24.0968 21.4393C23.887 21.2296 23.6197 21.0867 23.3288 21.0288C23.0378 20.9709 22.7362 21.0007 22.4621 21.1142C22.188 21.2277 21.9537 21.42 21.7889 21.6666C21.6241 21.9133 21.5361 22.2033 21.5361 22.5C21.5361 22.8978 21.6942 23.2794 21.9755 23.5607C22.2568 23.842 22.6383 24 23.0361 24ZM8.03613 18C8.3328 18 8.62281 17.912 8.86949 17.7472C9.11616 17.5824 9.30842 17.3481 9.42195 17.074C9.53548 16.7999 9.56519 16.4983 9.50731 16.2074C9.44943 15.9164 9.30657 15.6491 9.09679 15.4393C8.88701 15.2296 8.61974 15.0867 8.32877 15.0288C8.0378 14.9709 7.7362 15.0006 7.46211 15.1142C7.18802 15.2277 6.95375 15.42 6.78893 15.6666C6.62411 15.9133 6.53613 16.2033 6.53613 16.5C6.53613 16.8978 6.69417 17.2794 6.97547 17.5607C7.25678 17.842 7.63831 18 8.03613 18ZM26.0361 3H24.5361V1.5C24.5361 1.10218 24.3781 0.720644 24.0968 0.43934C23.8155 0.158035 23.434 0 23.0361 0C22.6383 0 22.2568 0.158035 21.9755 0.43934C21.6942 0.720644 21.5361 1.10218 21.5361 1.5V3H9.53613V1.5C9.53613 1.10218 9.3781 0.720644 9.09679 0.43934C8.81549 0.158035 8.43396 0 8.03613 0C7.63831 0 7.25678 0.158035 6.97547 0.43934C6.69417 0.720644 6.53613 1.10218 6.53613 1.5V3H5.03613C3.84266 3 2.69807 3.47411 1.85415 4.31802C1.01024 5.16193 0.536133 6.30653 0.536133 7.5V25.5C0.536133 26.6935 1.01024 27.8381 1.85415 28.682C2.69807 29.5259 3.84266 30 5.03613 30H26.0361C27.2296 30 28.3742 29.5259 29.2181 28.682C30.062 27.8381 30.5361 26.6935 30.5361 25.5V7.5C30.5361 6.30653 30.062 5.16193 29.2181 4.31802C28.3742 3.47411 27.2296 3 26.0361 3ZM27.5361 25.5C27.5361 25.8978 27.3781 26.2794 27.0968 26.5607C26.8155 26.842 26.434 27 26.0361 27H5.03613C4.63831 27 4.25678 26.842 3.97547 26.5607C3.69417 26.2794 3.53613 25.8978 3.53613 25.5V12H27.5361V25.5ZM27.5361 9H3.53613V7.5C3.53613 7.10218 3.69417 6.72064 3.97547 6.43934C4.25678 6.15804 4.63831 6 5.03613 6H26.0361C26.434 6 26.8155 6.15804 27.0968 6.43934C27.3781 6.72064 27.5361 7.10218 27.5361 7.5V9ZM8.03613 24C8.3328 24 8.62281 23.912 8.86949 23.7472C9.11616 23.5824 9.30842 23.3481 9.42195 23.074C9.53548 22.7999 9.56519 22.4983 9.50731 22.2074C9.44943 21.9164 9.30657 21.6491 9.09679 21.4393C8.88701 21.2296 8.61974 21.0867 8.32877 21.0288C8.0378 20.9709 7.7362 21.0007 7.46211 21.1142C7.18802 21.2277 6.95375 21.42 6.78893 21.6666C6.62411 21.9133 6.53613 22.2033 6.53613 22.5C6.53613 22.8978 6.69417 23.2794 6.97547 23.5607C7.25678 23.842 7.63831 24 8.03613 24Z"
          fill="#BC9C22"/>
</svg>
