<svg width="29" height="30" viewBox="0 0 29 30" fill="none" xmlns="http://www.w3.org/2000/svg">
    <path d="M27.1098 11.4281C27.2971 11.4282 27.4827 11.3913 27.6558 11.3195C27.829 11.2477 27.9863 11.1425 28.1188 11.0098C28.2513 10.8771 28.3564 10.7196 28.4281 10.5463C28.4998 10.3729 28.5366 10.1872 28.5366 9.99953V5.71372C28.5367 5.41396 28.4426 5.12178 28.2675 4.87862C28.0924 4.63546 27.8453 4.45368 27.5612 4.35906L14.7198 0.0732437C14.4267 -0.0244146 14.1099 -0.0244146 13.8168 0.0732437L0.975366 4.35906C0.691289 4.45368 0.444184 4.63546 0.269108 4.87862C0.0940326 5.12178 -0.000122895 5.41396 1.20388e-07 5.71372V9.99953C-4.86194e-05 10.1872 0.0368243 10.3729 0.108512 10.5463C0.1802 10.7196 0.285297 10.8771 0.4178 11.0098C0.550303 11.1425 0.707615 11.2477 0.880748 11.3195C1.05388 11.3913 1.23944 11.4282 1.42683 11.4281H2.85366V21.6916C2.02144 21.9851 1.30036 22.5294 0.789418 23.2496C0.278473 23.9698 0.00271451 24.8308 1.20388e-07 25.7142V28.5714C-4.86194e-05 28.759 0.0368243 28.9448 0.108512 29.1182C0.1802 29.2915 0.285297 29.449 0.4178 29.5817C0.550303 29.7143 0.707615 29.8196 0.880748 29.8914C1.05388 29.9631 1.23944 30 1.42683 30H27.1098C27.2971 30 27.4827 29.9631 27.6558 29.8914C27.829 29.8196 27.9863 29.7143 28.1188 29.5817C28.2513 29.449 28.3564 29.2915 28.4281 29.1182C28.4998 28.9448 28.5366 28.759 28.5366 28.5714V25.7142C28.5339 24.8308 28.2581 23.9698 27.7472 23.2496C27.2362 22.5294 26.5151 21.9851 25.6829 21.6916V11.4281H27.1098ZM25.6829 27.1428H2.85366V25.7142C2.85404 25.3354 3.00448 24.9723 3.27198 24.7044C3.53948 24.4366 3.90218 24.286 4.28049 24.2856H24.2561C24.6344 24.286 24.9971 24.4366 25.2646 24.7044C25.5321 24.9723 25.6825 25.3354 25.6829 25.7142V27.1428ZM5.70732 21.4284V11.4281H8.56098V21.4284H5.70732ZM11.4146 21.4284V11.4281H17.122V21.4284H11.4146ZM19.9756 21.4284V11.4281H22.8293V21.4284H19.9756ZM2.85366 8.57093V6.74331L14.2683 2.93322L25.6829 6.74331V8.57093H2.85366Z" fill="#BC9C22"/>
</svg>
