<svg width="249" height="240" viewBox="0 0 249 240" fill="none" xmlns="http://www.w3.org/2000/svg">
    <path d="M114.817 57.3759L115.231 56.493L118.979 56.2227C119.483 56.1867 119.844 55.7543 119.808 55.2678C119.772 54.7633 119.357 54.385 118.853 54.439L116.114 54.6372L118.402 49.8086C118.619 49.3581 118.42 48.8176 117.97 48.6014C117.52 48.3852 116.979 48.5834 116.763 49.0338L114.475 53.8805C114.619 55.0516 114.727 56.2227 114.799 57.3939L114.817 57.3759Z" fill="#313638"/>
    <path d="M63.8096 176.02L83.8809 172.507C84.1331 172.021 84.2773 171.75 84.2773 171.75C84.2773 171.75 85.3944 169.372 86.8898 166.291C75.4308 167.246 67.1067 167.642 65.1789 167.732L63.8096 176.038V176.02Z" fill="#32572E"/>
    <path d="M81.267 213.999C105.717 214.774 143.067 213.171 171.426 199.477L169.102 180.938C147.391 189.82 122.635 193.46 101.374 194.703C97.0142 199.423 89.9154 206.684 81.249 213.999H81.267Z" fill="#32572E"/>
    <path d="M52.944 177.622C52.9801 177.712 53.0161 177.802 53.0161 177.91L61.9167 176.343L64.8715 158.379C64.9436 157.893 65.4121 157.551 65.8985 157.641C66.3309 157.713 66.6192 158.073 66.6372 158.488C69.502 158.343 79.1233 157.839 91.6994 156.686C92.5462 155.1 93.3029 153.785 93.8615 152.992C93.8074 152.956 93.7534 152.92 93.7173 152.866C93.411 152.47 93.4831 151.911 93.8615 151.605L95.3749 150.416C96.7623 146.308 98.2217 137.407 101.843 136.795C105.375 136.2 105.104 141.227 104.852 143.299C105.068 143.335 105.284 143.443 105.429 143.623C105.501 143.713 105.537 143.803 105.573 143.912C109.897 142.578 129.482 136.614 132.256 137.515C134.491 138.254 134.166 140.524 133.806 141.767C134.058 141.858 134.256 142.056 134.346 142.326C136.238 141.749 140.797 140.632 142.274 142.596C143.715 144.506 140.941 148.398 139.553 150.109C147.914 148.452 155.841 146.47 162.616 144.146C159.769 128.435 157.355 118.255 157.319 118.093C157.21 117.606 157.499 117.12 157.985 117.012C158.472 116.903 158.958 117.192 159.066 117.678C159.12 117.93 165.084 143.047 169.336 175.568L177.48 123.57C177.48 123.57 163.931 102.237 147.247 93.6611C139.932 89.9135 126.131 87.7154 110.419 87.8775L110.852 92.6161C110.852 92.6161 110.69 92.9764 110.311 93.517C111.32 92.3999 112.221 91.0666 112.996 89.4991C113.212 89.0487 113.753 88.8685 114.203 89.0847C114.653 89.3009 114.834 89.8414 114.617 90.2919C110.618 98.5618 103.104 100.796 96.1497 100.796C88.0959 100.796 80.8169 97.7871 80.6728 97.733C80.2223 97.5348 80.0061 97.0123 80.1863 96.5439C80.3845 96.0934 80.907 95.8772 81.3754 96.0574C81.4115 96.0754 82.2763 96.4358 83.6817 96.8862L83.1772 90.436C71.3398 92.5981 59.8267 96.2016 50.3676 101.535C15.504 121.192 1 173.532 1 173.532L47.755 178.126C49.6469 177.64 51.2144 177.28 51.9351 177.136C52.3495 177.063 52.7639 177.262 52.926 177.64L52.944 177.622Z" fill="#32572E"/>
    <path d="M70.2939 222.556C66.24 225.457 62.006 228.178 57.6638 230.556L57.5557 232.376C57.5557 232.376 92.5814 238.7 119.391 235.871C152.705 232.376 174.272 222.07 174.272 222.07L172.615 208.863C146.778 220.521 115.463 223.277 91.5724 223.277C83.4466 223.277 76.2036 222.953 70.312 222.556H70.2939Z" fill="#32572E"/>
    <path d="M122.238 169.548C122.238 169.548 118.905 177.89 112.743 184.755C130.292 183.025 149.408 179.476 167.12 172.665C166.165 165.621 165.138 158.972 164.111 152.9C156.742 155.441 148.183 157.585 139.211 159.351C133.265 164.215 122.238 169.548 122.238 169.548Z" fill="#32572E"/>
    <path d="M228.198 27.0702L227.225 37.4842C228.27 37.4301 229.351 37.4301 230.45 37.4842L231.387 27.3584C231.603 25.1243 229.946 23.1244 227.711 22.9262L221.441 22.3496L224.522 22.6379C226.757 22.8541 228.414 24.836 228.198 27.0702Z" fill="#313638"/>
    <path d="M219.713 74.2221L205.39 72.8888L222.921 74.5104C225.155 74.7266 227.155 73.069 227.353 70.8349L227.587 68.3124C226.596 67.9341 225.533 67.5017 224.47 67.0332L224.146 70.5286C223.93 72.7627 221.948 74.4203 219.713 74.2041V74.2221Z" fill="#313638"/>
    <path d="M207.19 49.1031C208.019 52.8688 200.092 56.5803 195.875 58.274L194.993 67.8232C194.776 70.0573 196.434 72.0573 198.668 72.2554L205.389 72.8861L219.712 74.2193C221.947 74.4355 223.946 72.7779 224.145 70.5438L224.469 67.0484C219.73 64.9404 215.046 62.0036 216.74 59.0848C217.406 57.9497 218.776 57.3371 220.505 57.1028C220.541 56.9047 220.613 56.7425 220.739 56.6164C218.001 55.2831 216.271 53.5895 217.064 51.4634C217.965 49.0851 221.406 47.932 225.64 47.7158C225.496 47.6618 225.37 47.6257 225.226 47.5717C224.631 47.5176 224.253 47.4816 224.253 47.4816C223.91 47.4455 223.64 47.2293 223.514 46.9411C220.073 45.5357 217.658 43.6619 218.559 41.2115C219.46 38.8152 222.938 37.6801 227.208 37.4639L228.181 27.0499C228.397 24.8157 226.739 22.8158 224.505 22.6176L221.424 22.3293L203.443 20.6537C201.209 20.4375 199.209 22.0951 199.01 24.3293L197.029 45.6078C201.407 44.5267 206.163 44.5267 207.154 49.0851L207.19 49.1031ZM213.046 66.652C212.866 68.634 211.28 70.1114 209.515 69.9492C207.749 69.7871 206.47 68.0394 206.65 66.0575C206.83 64.0756 208.416 62.5981 210.181 62.7603C211.947 62.9225 213.226 64.6701 213.046 66.652Z" fill="#E6E6E6"/>
    <path d="M81.2675 214.001C77.8262 216.901 74.1506 219.802 70.2949 222.559C76.1866 222.955 83.4476 223.279 91.5554 223.279C115.446 223.279 146.761 220.523 172.597 208.866L171.426 199.479C143.067 213.172 105.717 214.775 81.2675 214.001Z" fill="#FBE17B"/>
    <path d="M168.832 179.695C168.382 179.695 168.003 179.37 167.931 178.902C167.661 176.794 167.391 174.704 167.12 172.668C149.409 179.479 130.293 183.028 112.744 184.758C110.348 187.442 107.501 189.875 104.258 191.532C103.501 192.379 102.546 193.46 101.375 194.721C122.635 193.46 147.391 189.821 169.102 180.956L168.94 179.695C168.94 179.695 168.868 179.695 168.832 179.695Z" fill="#FBE17B"/>
    <path d="M139.391 150.326C139.535 150.453 139.643 150.615 139.697 150.795C139.697 150.849 139.697 150.885 139.697 150.939C141.301 150.939 144.382 151.425 142.652 155.443C142.148 156.614 140.887 157.948 139.211 159.317C148.166 157.551 156.724 155.407 164.111 152.867C163.606 149.804 163.084 146.903 162.597 144.146C155.823 146.471 147.913 148.453 139.535 150.11C139.481 150.182 139.427 150.236 139.391 150.29V150.326Z" fill="#FBE17B"/>
    <path d="M66.6556 158.687L65.1602 167.732C67.088 167.642 75.394 167.263 86.8711 166.29C88.3305 163.263 90.1682 159.552 91.6997 156.705C79.1236 157.858 69.5023 158.363 66.6376 158.507C66.6376 158.561 66.6376 158.633 66.6376 158.687H66.6556Z" fill="#FBE17B"/>
    <path d="M210.165 62.7817C208.399 62.6195 206.813 64.097 206.633 66.0789C206.453 68.0608 207.732 69.8085 209.498 69.9706C211.264 70.1328 212.849 68.6554 213.029 66.6734C213.209 64.6915 211.93 62.9439 210.165 62.7817Z" fill="#313638"/>
    <path d="M247.262 43.3741C245.19 40.185 237.424 37.8247 230.452 37.4644C229.353 37.4103 228.272 37.4103 227.227 37.4644C222.956 37.6626 219.479 38.7977 218.578 41.212C217.659 43.6443 220.092 45.5361 223.533 46.9415C223.479 46.8154 223.443 46.6712 223.461 46.5091C223.497 46.0226 223.929 45.6623 224.434 45.6983L241.622 47.2478C242.109 47.2838 242.487 47.7343 242.433 48.2207C242.397 48.6892 242.001 49.0495 241.532 49.0495C241.46 49.0495 228.812 47.9144 225.227 47.5901C225.371 47.6442 225.497 47.6802 225.641 47.7343C221.407 47.9505 217.966 49.0856 217.065 51.4819C216.272 53.6079 218.002 55.3016 220.74 56.6348C220.921 56.4547 221.173 56.3285 221.461 56.3466L238.65 57.8961C239.136 57.9321 239.514 58.3825 239.46 58.869C239.424 59.3374 239.028 59.6978 238.56 59.6978C238.487 59.6978 221.281 58.1483 221.281 58.1483C220.776 58.1123 220.416 57.6618 220.47 57.1754C220.47 57.1754 220.47 57.1393 220.47 57.1213C218.722 57.3735 217.353 57.9861 216.704 59.1032C215.011 62.004 219.695 64.9408 224.434 67.0669C225.497 67.5353 226.542 67.9678 227.551 68.3461L227.317 70.8686C227.1 73.1027 225.119 74.7603 222.884 74.5441L205.354 72.9225L198.633 72.2919C196.399 72.0757 194.741 70.0938 194.957 67.8596L195.84 58.3105C200.056 56.6168 207.966 52.8872 207.155 49.1396C206.164 44.5632 201.408 44.5812 197.029 45.6623C192.904 46.6712 189.102 48.6351 189.102 48.6351C185.643 58.8149 188.85 73.4631 193.642 82.0033L177.445 123.605L169.301 175.621C169.427 176.648 169.571 177.675 169.697 178.702C169.733 178.991 169.625 179.243 169.445 179.441C172.994 182.828 191.084 198.612 207.335 186.468C229.281 170.072 223.461 93.9848 222.902 87.1743C228.506 82.9762 233.497 76.2377 237.37 69.9136C237.569 69.8776 237.785 69.8776 238.001 69.8416C240.469 69.3371 242.631 68.1479 241.424 65.3372C241.262 64.9408 240.992 64.5625 240.668 64.1661C241.658 62.3283 242.523 60.6167 243.244 59.1393C245.676 58.0942 247.496 56.3826 245.748 53.662C244.866 52.3107 242.956 51.1035 240.505 50.1306C243.857 49.5 250.019 47.7162 247.244 43.4101L247.262 43.3741Z" stroke="#313638" stroke-width="0.900868" stroke-linecap="round" stroke-linejoin="round"/>
    <path d="M224.272 47.4821C224.272 47.4821 224.651 47.5181 225.245 47.5722C228.831 47.8965 241.479 49.0316 241.551 49.0316C242.019 49.0316 242.398 48.6712 242.452 48.2028C242.488 47.6983 242.127 47.2659 241.641 47.2299L224.452 45.6804C223.948 45.6623 223.516 46.0047 223.479 46.4911C223.479 46.6533 223.497 46.7974 223.552 46.9236C223.678 47.2118 223.948 47.4461 224.29 47.4641L224.272 47.4821Z" fill="#313638"/>
    <path d="M220.506 57.1413C220.47 57.6458 220.831 58.0782 221.317 58.1142C221.317 58.1142 238.506 59.6637 238.596 59.6637C239.064 59.6637 239.443 59.3034 239.497 58.8349C239.533 58.3304 239.172 57.898 238.686 57.862L221.497 56.3125C221.209 56.2945 220.957 56.4026 220.777 56.6008C220.651 56.7269 220.56 56.889 220.542 57.0872C220.542 57.0872 220.542 57.1233 220.542 57.1413H220.506Z" fill="#313638"/>
    <path d="M67.0885 50.132C68.3317 49.9158 69.2866 49.8257 70.0433 49.7897C70.2415 50.1681 70.3676 50.4023 70.3676 50.4023C70.3676 50.4023 74.2414 58.9966 75.3584 58.5461C75.971 58.2939 75.2864 53.9157 73.9531 50.0239C76.1872 49.6636 80.9618 48.4204 86.0247 43.9701C86.1508 43.862 86.2409 43.7539 86.349 43.6458C86.2049 43.7178 86.0607 43.7719 85.9166 43.7719C85.6644 43.7719 85.4121 43.6638 85.2319 43.4656C84.9076 43.0872 84.9437 42.5107 85.3401 42.1864C86.4031 41.2675 87.8084 40.8351 88.9796 40.6369C93.6821 33.8083 92.3308 25.7185 92.3308 25.7185C92.3308 25.7185 108.222 33.8443 112.636 45.3394C113.807 48.4204 114.528 47.8078 114.636 45.3394C114.762 42.3305 113.952 36.5289 111.916 31.1597C114.384 26.1329 118.69 16.2594 117.015 11.4488C114.726 4.83638 106.258 11.8271 106.258 11.8271C106.258 11.8271 103.177 -3.59574 92.9254 0.782476C82.6735 5.16069 72.4216 23.8087 72.4216 23.8087C72.4216 23.8087 64.8723 18.3134 58.278 31.1958C52.6025 42.2765 55.8637 47.8438 60.8184 55.0688C62.3319 52.3842 64.7642 50.5464 67.0704 50.15L67.0885 50.132Z" fill="#313638"/>
    <path d="M86.529 43.5364C86.529 43.5364 86.4209 43.5905 86.3668 43.6265C86.2587 43.7346 86.1506 43.8427 86.0425 43.9508C80.9616 48.4011 76.187 49.6443 73.9709 50.0046C75.3042 53.8964 75.9888 58.2746 75.3763 58.5268C74.2592 58.9953 70.3854 50.383 70.3854 50.383C70.3854 50.383 70.2593 50.1488 70.0611 49.7704C69.3044 49.8064 68.3495 49.9145 67.1063 50.1127C64.8001 50.5091 62.3677 52.3469 60.8543 55.0315C59.1426 58.0584 58.6201 62.1483 60.8543 66.4725C64.8541 74.238 74.5475 71.4093 74.5475 71.4093C74.5475 71.4093 76.3492 77.7333 82.5472 82.544L83.1778 90.4536L83.6823 96.9038C89.1055 98.6515 102.763 101.895 110.33 93.5346C110.708 92.994 110.87 92.6337 110.87 92.6337L110.438 87.8951L109.699 79.7873C110.618 78.6522 111.501 77.391 112.276 75.8956C113.969 72.7065 114.744 68.6886 114.942 64.4365C118.906 62.4907 122.852 58.7431 121.519 51.6262C120.636 46.9957 117.771 45.4823 114.654 45.3201C114.564 47.7885 113.843 48.4011 112.654 45.3201C108.24 33.825 92.3486 25.6992 92.3486 25.6992C92.3486 25.6992 93.6999 33.789 88.9974 40.6176" stroke="#313638" stroke-width="0.900868" stroke-linecap="round" stroke-linejoin="round"/>
    <path d="M101.032 91.3204C106.636 89.9691 108.455 84.6179 109.032 80.582C101.032 89.5907 89.2849 87.0322 84.3121 83.8612C84.0058 83.663 83.7355 83.4648 83.4473 83.2666C85.7715 86.4377 92.0415 93.4644 101.014 91.3204H101.032Z" fill="#313638"/>
    <path d="M64.4214 55.8417C64.025 55.5534 63.4484 55.6435 63.1602 56.0579C62.8719 56.4543 62.962 57.0308 63.3584 57.3191L67.9167 60.5802L64.5475 63.6072C64.1691 63.9315 64.1511 64.508 64.4754 64.8864C64.6556 65.0846 64.9078 65.1927 65.1421 65.1927C65.3583 65.1927 65.5745 65.1206 65.7366 64.9585L69.3942 61.6613L71.5382 63.1928C71.7004 63.3009 71.8806 63.3549 72.0607 63.3549C72.349 63.3549 72.6193 63.2288 72.7994 62.9765C73.0877 62.5802 72.9976 62.0036 72.5832 61.7153L64.3853 55.8417H64.4214Z" fill="#313638"/>
    <path d="M87.1404 53.0149C87.2125 53.4654 87.5909 53.7897 88.0233 53.7897C88.0593 53.7897 88.1134 53.7897 88.1494 53.7897C88.6359 53.7176 88.9782 53.2672 88.9061 52.7627L88.2035 47.9521C88.1314 47.4656 87.681 47.1413 87.1765 47.1953C86.69 47.2674 86.3477 47.7178 86.4197 48.2223L87.1224 53.0329L87.1404 53.0149Z" fill="#313638"/>
    <path d="M105.627 44.5293C105.14 44.6014 104.798 45.0518 104.87 45.5563L105.573 50.3669C105.645 50.8174 106.023 51.1417 106.455 51.1417C106.491 51.1417 106.546 51.1417 106.582 51.1417C107.068 51.0696 107.41 50.6192 107.338 50.1147L106.636 45.304C106.564 44.8176 106.113 44.4933 105.609 44.5473L105.627 44.5293Z" fill="#313638"/>
    <path d="M100.419 64.4738C100.419 64.4738 100.491 64.4738 100.509 64.4738C100.96 64.4738 101.356 64.1315 101.41 63.6631C102.257 55.8976 99.2661 49.8978 99.1399 49.6456C98.9237 49.1951 98.3652 49.033 97.9328 49.2492C97.4823 49.4654 97.3022 50.0059 97.5364 50.4563C97.5724 50.5104 100.401 56.2399 99.6084 63.4649C99.5543 63.9513 99.9147 64.4018 100.401 64.4558L100.419 64.4738Z" fill="#313638"/>
    <path d="M102.78 39.6651C102.78 39.6651 105.717 39.3949 107.41 40.62C107.573 40.7281 107.753 40.8002 107.933 40.8002C108.203 40.8002 108.492 40.6741 108.654 40.4219C108.942 40.0255 108.852 39.4489 108.455 39.1606C106.203 37.5211 102.726 37.8634 102.582 37.8814C102.095 37.9355 101.735 38.3679 101.771 38.8724C101.825 39.3768 102.276 39.7372 102.762 39.6831L102.78 39.6651Z" fill="#313638"/>
    <path d="M85.2489 43.4468C85.4291 43.663 85.6814 43.7531 85.9336 43.7531C86.0777 43.7531 86.2219 43.6991 86.366 43.627C86.4201 43.591 86.4741 43.573 86.5282 43.5369C88.1137 42.1676 91.0505 42.2217 91.0686 42.2217C91.5911 42.2397 91.9694 41.8433 91.9874 41.3388C91.9874 40.8343 91.6091 40.4379 91.1046 40.4199C91.0325 40.4199 90.1317 40.4199 88.9785 40.6181C87.8254 40.8343 86.4021 41.2667 85.339 42.1676C84.9607 42.4919 84.9246 43.0685 85.2309 43.4468H85.2489Z" fill="#313638"/>
    <path d="M169.714 178.685C169.588 177.658 169.444 176.631 169.318 175.604C165.065 143.083 159.102 117.967 159.048 117.715C158.94 117.228 158.453 116.94 157.967 117.048C157.48 117.156 157.192 117.643 157.3 118.129C157.336 118.291 159.75 128.471 162.597 144.182C163.102 146.921 163.606 149.84 164.111 152.903C165.12 158.974 166.165 165.623 167.119 172.668C167.39 174.722 167.678 176.794 167.93 178.902C167.984 179.352 168.381 179.694 168.831 179.694C168.867 179.694 168.903 179.694 168.939 179.694C169.137 179.658 169.318 179.568 169.462 179.424C169.642 179.226 169.75 178.974 169.714 178.685Z" fill="#32572E"/>
    <path d="M66.6561 158.686C66.6561 158.686 66.6561 158.56 66.6561 158.506C66.6381 158.091 66.3498 157.731 65.9174 157.659C65.4309 157.569 64.9625 157.911 64.8904 158.398L61.9355 176.361L63.8094 176.037L65.1787 167.731L66.6741 158.686H66.6561Z" fill="#32572E"/>
    <path d="M93.8795 153.01C93.339 153.803 92.5823 155.1 91.7174 156.703C90.186 159.55 88.3482 163.262 86.8888 166.289C85.3934 169.37 84.2763 171.748 84.2763 171.748C84.2763 171.748 84.1141 172.018 83.8799 172.505L63.8086 176.018L61.9348 176.342L53.0342 177.91" stroke="#313638" stroke-width="0.900868" stroke-linecap="round" stroke-linejoin="round"/>
    <path d="M133.806 141.804C134.167 140.56 134.491 138.272 132.257 137.551C129.482 136.651 109.897 142.596 105.573 143.948" stroke="#313638" stroke-width="0.900868" stroke-linecap="round" stroke-linejoin="round"/>
    <path d="M139.391 150.327C139.391 150.327 139.481 150.219 139.535 150.147C140.922 148.436 143.697 144.544 142.256 142.634C140.778 140.67 136.22 141.787 134.328 142.364C134.328 142.4 134.364 142.436 134.364 142.472" stroke="#313638" stroke-width="0.900868" stroke-linecap="round" stroke-linejoin="round"/>
    <path d="M47.7008 178.147L8.56712 174.597C8.56712 174.597 -9.37817 220.632 10.0085 233.64C24.4404 243.316 41.7371 239.298 57.6644 230.577C62.0066 228.199 66.2587 225.478 70.2946 222.578C74.1503 219.821 77.8258 216.92 81.2672 214.019C89.9335 206.704 97.0323 199.443 101.393 194.723C102.564 193.461 103.537 192.38 104.275 191.534C107.518 189.894 110.347 187.444 112.761 184.759C118.923 177.894 122.257 169.552 122.257 169.552C122.257 169.552 133.301 164.219 139.229 159.355C140.905 157.985 142.184 156.652 142.67 155.481C144.4 151.463 141.319 150.977 139.715 150.977" stroke="#313638" stroke-width="0.900868" stroke-linecap="round" stroke-linejoin="round"/>
    <path d="M104.852 143.317C105.104 141.227 105.375 136.218 101.843 136.812C98.2217 137.425 96.7623 146.326 95.375 150.433" stroke="#313638" stroke-width="0.900868" stroke-linecap="round" stroke-linejoin="round"/>
    <path d="M35 184.11C34.6937 184.777 34.6937 185.462 35.018 186.092C35.3423 186.723 35.9008 187.119 36.6215 187.281C36.8197 187.317 37.0359 187.354 37.2702 187.354C41.7745 187.354 51.5399 179.66 52.675 178.741C52.9272 178.543 53.0354 178.237 52.9993 177.93C52.9993 177.84 52.9633 177.732 52.9272 177.642C52.7471 177.264 52.3507 177.066 51.9363 177.138C51.2156 177.282 49.6481 177.642 47.7563 178.129H47.7022C42.9817 179.372 36.2071 181.552 34.982 184.11H35ZM36.6215 184.885C37.3783 183.282 42.9276 181.282 48.1346 179.894C43.9546 182.885 38.9278 185.93 36.9999 185.498C36.7477 185.444 36.6756 185.336 36.6215 185.245C36.5675 185.137 36.5495 185.047 36.6215 184.867V184.885Z" fill="#313638"/>
    <path d="M83.6636 96.924C82.2582 96.4735 81.4114 96.1132 81.3574 96.0952C80.8889 95.897 80.3664 96.1132 80.1682 96.5816C79.97 97.0321 80.1862 97.5726 80.6547 97.7708C80.7988 97.8248 88.0778 100.834 96.1316 100.834C103.086 100.834 110.6 98.5996 114.599 90.3296C114.816 89.8792 114.635 89.3386 114.185 89.1224C113.735 88.9062 113.194 89.0864 112.978 89.5368C112.221 91.1043 111.32 92.4376 110.293 93.5547C102.744 101.933 89.0688 98.6716 83.6456 96.924H83.6636Z" fill="#32572E"/>
    <path d="M133.806 141.805C133.662 141.751 133.5 141.715 133.338 141.751L114.978 145.246C114.491 145.336 114.167 145.805 114.257 146.309C114.329 146.742 114.708 147.048 115.14 147.048C115.194 147.048 115.248 147.048 115.302 147.048L133.68 143.553C134.166 143.462 134.491 142.994 134.401 142.508C134.401 142.472 134.365 142.435 134.365 142.399C134.274 142.129 134.076 141.931 133.824 141.841L133.806 141.805Z" fill="#313638"/>
    <path d="M139.39 150.327C139.174 150.146 138.904 150.056 138.615 150.128L122.76 153.732C122.274 153.84 121.967 154.326 122.075 154.813C122.165 155.227 122.544 155.516 122.958 155.516C123.03 155.516 123.084 155.516 123.156 155.498L139.012 151.894C139.444 151.804 139.714 151.39 139.696 150.957C139.696 150.903 139.696 150.867 139.696 150.813C139.642 150.615 139.534 150.453 139.39 150.345V150.327Z" fill="#313638"/>
    <path d="M104.852 143.319C104.618 143.283 104.366 143.337 104.168 143.499L95.3933 150.436L93.8799 151.625C93.4835 151.932 93.4294 152.508 93.7357 152.886C93.7718 152.941 93.8438 152.959 93.8799 153.013C94.042 153.139 94.2222 153.229 94.4384 153.229C94.6546 153.229 94.8348 153.157 94.9969 153.031L105.285 144.905C105.591 144.671 105.681 144.274 105.573 143.932C105.537 143.824 105.501 143.734 105.429 143.644C105.285 143.463 105.069 143.355 104.852 143.319Z" fill="#313638"/>
    <path d="M97.3576 74.5642C97.5378 74.5822 97.7179 74.6002 97.8801 74.6002C102.024 74.6002 104.619 69.5373 104.745 69.3211C104.889 69.0509 104.871 68.7085 104.709 68.4383C104.547 68.168 104.258 68.0059 103.934 68.0059H91.5019C91.1957 68.0059 90.9074 68.168 90.7452 68.4203C90.5831 68.6725 90.565 69.0148 90.6912 69.2851C90.7813 69.4833 93.0154 74.1318 97.3576 74.5642ZM102.312 69.8076C101.357 71.1409 99.6278 72.9787 97.5378 72.7805C95.4658 72.5643 93.9523 70.9787 93.1055 69.8076H102.312Z" fill="#313638"/>
</svg>
