<svg width="23" height="26" viewBox="0 0 23 26" fill="none" xmlns="http://www.w3.org/2000/svg">
    <path d="M22.7651 15.0518C23.5136 8.52829 22.4054 4.40984 20.4065 2.54706L20.4075 2.54598C17.1813 -0.635131 6.2855 -1.10597 2.42567 2.68885C0.692299 4.54513 0.0817513 7.26948 0.0148419 10.6422C-0.0520674 14.0159 -0.131522 20.336 5.55682 22.0504H5.56204L5.55682 24.6687C5.55682 24.6687 5.51813 25.7294 6.17259 25.9427C6.92114 26.1938 7.25987 25.7013 9.5881 22.8222C13.4814 23.1718 16.4714 22.3708 16.8112 22.2539C17.5974 21.9812 22.0458 21.3718 22.7651 15.0518ZM9.97179 20.98C9.97179 20.98 7.50764 24.1611 6.74132 24.9869C6.49041 25.2554 6.21545 25.2305 6.21964 24.6979C6.21964 24.3483 6.23845 20.3511 6.23845 20.3511C1.41576 18.9202 1.70012 13.5386 1.75239 10.7234C1.80467 7.907 2.3023 5.60045 3.77013 4.04724C7.15637 0.760055 16.7087 1.49499 19.1425 3.86323C22.1179 6.59408 21.0589 14.3093 21.0651 14.5723C20.4535 19.8478 16.8488 20.1823 16.186 20.4106C15.9027 20.5081 13.2733 21.2084 9.97179 20.98Z" fill="white"/>
    <path d="M11.3351 4.66528C10.9326 4.66528 10.9326 5.31471 11.3351 5.32012C14.4578 5.34501 17.0297 7.59853 17.0579 11.7321C17.0579 12.1683 17.6747 12.1629 17.6695 11.7267H17.6684C17.635 7.27273 14.8269 4.69018 11.3351 4.66528Z" fill="white"/>
    <path d="M15.4427 11.047C15.4333 11.4778 16.049 11.4983 16.0543 11.0621C16.1055 8.6062 14.6429 6.58324 11.8944 6.37001C11.4919 6.3397 11.4501 6.99454 11.8515 7.02485C14.2352 7.2121 15.4908 8.89628 15.4427 11.047Z" fill="white"/>
    <path d="M14.784 13.8406C14.2676 13.531 13.7417 13.7237 13.5243 14.0278L13.0695 14.6372C12.8384 14.9468 12.4067 14.9057 12.4067 14.9057C9.25565 14.043 8.41301 10.6292 8.41301 10.6292C8.41301 10.6292 8.37432 10.167 8.66287 9.91914L9.2316 9.43207C9.51597 9.19827 9.69578 8.63544 9.40619 8.08234C8.63255 6.6352 8.11296 6.13622 7.84846 5.75306C7.57037 5.39263 7.15218 5.31145 6.71727 5.55499H6.70786C5.80354 6.10267 4.81349 7.12768 5.13027 8.183C5.67077 9.29569 6.66396 12.8426 9.8296 15.5226C11.3173 16.7901 13.6717 18.0889 14.6711 18.3888L14.6805 18.4039C15.6653 18.7438 16.623 17.6787 17.1342 16.7143V16.7067C17.3611 16.2402 17.2858 15.7986 16.9544 15.5096C16.3669 14.9165 15.4803 14.2616 14.784 13.8406Z" fill="white"/>
    <path d="M12.3251 8.78588C13.3298 8.84649 13.817 9.38985 13.8693 10.5058C13.8881 10.942 14.4997 10.9117 14.4808 10.4755C14.4139 9.01859 13.68 8.20681 12.3586 8.13104C11.9561 8.10615 11.9184 8.76099 12.3251 8.78588Z" fill="white"/>
</svg>
