<svg width="25" height="18" viewBox="0 0 25 18" fill="none" xmlns="http://www.w3.org/2000/svg">
    <path d="M0.09375 8.58C2.14583 4.31 6.77083 0 12.5 0C18.2292 0 22.8542 4.31 24.9062 8.58C24.968 8.71207 25 8.85522 25 9C25 9.14478 24.968 9.28793 24.9062 9.42C22.8542 13.69 18.2292 18 12.5 18C6.77083 18 2.14583 13.69 0.09375 9.42C0.03195 9.28793 0 9.14478 0 9C0 8.85522 0.03195 8.71207 0.09375 8.58ZM12.5 14C13.5301 14 14.5371 13.7068 15.3936 13.1573C16.2501 12.6079 16.9177 11.827 17.3119 10.9134C17.7061 9.99979 17.8092 8.99445 17.6083 8.02455C17.4073 7.05464 16.9112 6.16373 16.1828 5.46447C15.4544 4.7652 14.5264 4.289 13.5161 4.09607C12.5058 3.90315 11.4586 4.00216 10.5069 4.3806C9.55516 4.75904 8.74173 5.3999 8.16943 6.22215C7.59713 7.04439 7.29167 8.01109 7.29167 9C7.29332 10.3256 7.84258 11.5964 8.81898 12.5338C9.79537 13.4711 11.1192 13.9984 12.5 14Z" fill="white"/>
    <path d="M12.5 12C10.7741 12 9.375 10.6569 9.375 9C9.375 7.34315 10.7741 6 12.5 6C14.2259 6 15.625 7.34315 15.625 9C15.625 10.6569 14.2259 12 12.5 12Z" fill="white"/>
</svg>
