<svg width="27" height="17" viewBox="0 0 27 17" fill="none" xmlns="http://www.w3.org/2000/svg">
    <path d="M22.4052 9.67486C21.9686 9.11486 22.0935 8.86572 22.4052 8.36514C22.4108 8.35943 26.0143 3.30114 26.3855 1.58571L26.3878 1.58457C26.5723 0.959428 26.3878 0.5 25.4956 0.5H22.5435C21.792 0.5 21.4455 0.894286 21.2599 1.33543C21.2599 1.33543 19.7568 4.99029 17.6305 7.35943C16.9442 8.044 16.627 8.26343 16.2523 8.26343C16.0678 8.26343 15.7809 8.044 15.7809 7.41886V1.58457C15.7809 0.834857 15.5705 0.5 14.9484 0.5H10.3065C9.83509 0.5 9.55496 0.849714 9.55496 1.17543C9.55496 1.88629 10.6181 2.04971 10.7284 4.04971V8.38914C10.7284 9.34 10.5585 9.51486 10.1816 9.51486C9.17807 9.51486 6.74236 5.84514 5.29893 1.64514C5.00755 0.830286 4.72291 0.501143 3.96576 0.501143H1.01254C0.169881 0.501143 0 0.895428 0 1.33657C0 2.116 1.00353 5.99143 4.66666 11.1114C7.108 14.6063 10.5461 16.5 13.6737 16.5C15.5537 16.5 15.7832 16.0794 15.7832 15.356C15.7832 12.0166 15.6133 11.7011 16.5549 11.7011C16.9915 11.7011 17.743 11.9206 19.4981 13.6063C21.504 15.6051 21.8336 16.5 22.9564 16.5H25.9085C26.7501 16.5 27.1764 16.0794 26.9312 15.2497C26.3698 13.5046 22.5762 9.91486 22.4052 9.67486Z" fill="white"/>
</svg>
